<svg id="esOUr50uag71" xmlns="http://www.w3.org/2000/svg" xmlns:xlink="http://www.w3.org/1999/xlink" viewBox="0 0 426.7 322.2" shape-rendering="geometricPrecision" text-rendering="geometricPrecision">
<style><![CDATA[
#esOUr50uag730 {animation: esOUr50uag730_c_o 2000ms linear infinite normal forwards}@keyframes esOUr50uag730_c_o { 0% {opacity: 0.5} 30% {opacity: 1} 50% {opacity: 0} 75% {opacity: 0.7} 100% {opacity: 0.27}} #esOUr50uag731 {animation: esOUr50uag731_c_o 2000ms linear infinite normal forwards}@keyframes esOUr50uag731_c_o { 0% {opacity: 0} 40% {opacity: 1} 65% {opacity: 0.47} 100% {opacity: 0.99}} #esOUr50uag734_to {animation: esOUr50uag734_to__to 2000ms linear infinite normal forwards}@keyframes esOUr50uag734_to__to { 0% {transform: translate(250.949997px,132.60088px)} 25% {transform: translate(250.949997px,132.60088px)} 65% {transform: translate(250.949997px,120.699997px)} 100% {transform: translate(249.550003px,132.483433px)}} #esOUr50uag734 {animation: esOUr50uag734_c_o 2000ms linear infinite normal forwards}@keyframes esOUr50uag734_c_o { 0% {opacity: 0} 25% {opacity: 0} 65% {opacity: 1} 100% {opacity: 0}} #esOUr50uag742 {animation: esOUr50uag742_c_o 2000ms linear infinite normal forwards}@keyframes esOUr50uag742_c_o { 0% {opacity: 0} 25% {opacity: 0.46} 50% {opacity: 1} 75% {opacity: 0} 100% {opacity: 1}} #esOUr50uag743 {animation: esOUr50uag743_c_o 2000ms linear infinite normal forwards}@keyframes esOUr50uag743_c_o { 0% {opacity: 0} 15% {opacity: 0} 35% {opacity: 1} 60% {opacity: 0} 85% {opacity: 1} 100% {opacity: 0.54}} #esOUr50uag744 {animation: esOUr50uag744_c_o 2000ms linear infinite normal forwards}@keyframes esOUr50uag744_c_o { 0% {opacity: 0} 25% {opacity: 0} 50% {opacity: 1} 51% {opacity: 0} 75% {opacity: 1} 100% {opacity: 0}} #esOUr50uag745 {animation: esOUr50uag745_c_o 2000ms linear infinite normal forwards}@keyframes esOUr50uag745_c_o { 0% {opacity: 1} 25% {opacity: 0} 50% {opacity: 1} 75% {opacity: 0} 100% {opacity: 1}} #esOUr50uag750_to {animation: esOUr50uag750_to__to 2000ms linear infinite normal forwards}@keyframes esOUr50uag750_to__to { 0% {transform: translate(17.499998px,92.147545px)} 50% {transform: translate(17.499998px,80.7px)} 100% {transform: translate(17.499998px,93.297545px)}} #esOUr50uag750 {animation: esOUr50uag750_c_o 2000ms linear infinite normal forwards}@keyframes esOUr50uag750_c_o { 0% {opacity: 0} 50% {opacity: 1} 100% {opacity: 1}} #esOUr50uag7203_to {animation: esOUr50uag7203_to__to 2000ms linear infinite normal forwards}@keyframes esOUr50uag7203_to__to { 0% {transform: translate(399.400009px,251.099998px)} 20% {transform: translate(401.900015px,250.249998px)} 45% {transform: translate(399.700009px,251.099998px)} 100% {transform: translate(399.700009px,251.099998px)}} #esOUr50uag7203_tr {animation: esOUr50uag7203_tr__tr 2000ms linear infinite normal forwards}@keyframes esOUr50uag7203_tr__tr { 0% {transform: rotate(0deg)} 20% {transform: rotate(19.099436deg)} 45% {transform: rotate(0.875908deg)} 100% {transform: rotate(0.875908deg)}} #esOUr50uag7203_ts {animation: esOUr50uag7203_ts__ts 2000ms linear infinite normal forwards}@keyframes esOUr50uag7203_ts__ts { 0% {transform: scale(1,1)} 20% {transform: scale(1.641804,1.641804)} 60% {transform: scale(1,1)} 100% {transform: scale(1,1)}}
]]></style>
<defs><linearGradient id="esOUr50uag725-fill" x1="158.9" y1="153.3" x2="146.8" y2="220.9" spreadMethod="pad" gradientUnits="userSpaceOnUse" gradientTransform="translate(0 0)"><stop id="esOUr50uag725-fill-0" offset="20%" stop-color="#1818a3"/><stop id="esOUr50uag725-fill-1" offset="80%" stop-color="#6a6adc"/></linearGradient><linearGradient id="esOUr50uag726-fill" x1="305.8" y1="201.2" x2="0" y2="201.2" spreadMethod="pad" gradientUnits="userSpaceOnUse" gradientTransform="translate(0 0)"><stop id="esOUr50uag726-fill-0" offset="60%" stop-color="#dbdfff"/><stop id="esOUr50uag726-fill-1" offset="70%" stop-color="#afb4e2"/></linearGradient><linearGradient id="esOUr50uag7199-fill" x1="389.180063" y1="302.892481" x2="351.642654" y2="250.072187" spreadMethod="pad" gradientUnits="userSpaceOnUse" gradientTransform="translate(0 0)"><stop id="esOUr50uag7199-fill-0" offset="0%" stop-color="#ff9fc8"/><stop id="esOUr50uag7199-fill-1" offset="20%" stop-color="#dd2b78"/><stop id="esOUr50uag7199-fill-2" offset="90%" stop-color="#ff9fc8"/></linearGradient><linearGradient id="esOUr50uag7203-fill" x1="405.666315" y1="255.66829" x2="398.665956" y2="248.66793" spreadMethod="pad" gradientUnits="userSpaceOnUse" gradientTransform="translate(0 0)"><stop id="esOUr50uag7203-fill-0" offset="0%" stop-color="#ff9fc8"/><stop id="esOUr50uag7203-fill-1" offset="20%" stop-color="#dd2b78"/><stop id="esOUr50uag7203-fill-2" offset="90%" stop-color="#ff9fc8"/></linearGradient><linearGradient id="esOUr50uag7204-fill" x1="361.9" y1="305.4" x2="350.8" y2="305.4" spreadMethod="pad" gradientUnits="userSpaceOnUse" gradientTransform="translate(0 0)"><stop id="esOUr50uag7204-fill-0" offset="0%" stop-color="#b91a5f"/><stop id="esOUr50uag7204-fill-1" offset="90%" stop-color="#ff65ab"/></linearGradient><linearGradient id="esOUr50uag7206-fill" x1="350.775265" y1="285.442149" x2="347.772964" y2="274.237407" spreadMethod="pad" gradientUnits="userSpaceOnUse" gradientTransform="translate(0 0)"><stop id="esOUr50uag7206-fill-0" offset="0%" stop-color="#b91a5f"/><stop id="esOUr50uag7206-fill-1" offset="90%" stop-color="#ff65ab"/></linearGradient></defs><g><path d="M128.5,173.4l-6.9,1.2c.5-1.8.9-3.5,1.2-5.3.3.3.7.6,1,.9c1.5,1.2,3,2.3,4.6,3.2v0h.1Zm36.7-64.1c0-.2,0-.3,0-.6c0,0,0,0,.1.1.2.2.3.3.5.6-.2,0-.3,0-.5-.1h-.1ZM97.8,178.8l-3.4.6c.3-2.2.6-4.4.6-6.6c0-2,.3-4,.6-6c.9,3.9,1.6,7.9,2.2,12v0Zm-4.4,44.4c0,0,0,.1,0,.2v0c-.2,0-.4-.1-.6-.2h.6c0,0,0,0,0,0Z" fill="#eff0ff" fill-rule="evenodd" stroke-width="0"/><path d="M116,187.2c2.1.4,2.1.7,0,1.1l-13.6,2.4c-2.1.4-4.3.4-6.4,0l-13.6-2.4c-2.1-.4-2.1-.7,0-1.1L96,184.8c2.1-.4,4.3-.4,6.4,0l13.6,2.4Z" fill="#ff65a7" fill-rule="evenodd" stroke-width="0"/><path d="M164.9,95.7c-2.7.8-5.1,1.2-7.4,1.2s-2,0-2.9-.1c-1.3-.8-2.5-1.5-3.7-2.3-7.6-4.9-13.7-10.4-18.2-16.4-2.2-3-3.9-6.6-5.1-10.8-1-3.5-1.5-7.2-1.7-11.1-.1-4.4-.7-8.2-1.7-11.4c4.6,5.5,8.7,12.9,12.3,22.1c1,2.6,2.5,4.8,4.6,6.9c6.3,6.3,12.8,12.3,19.4,18.1c1.8,1.6,3.3,2.8,4.4,3.8v0ZM103.7,44l-.4,1c0,0,0,.1,0,.2-.6,1.8-2,2.1-4.2,1-1.6-.9-2.7-1.6-3.6-2.3-.7-.4-1.3-.7-1.8-.8-2.7-1.6-4.8-2.8-6.1-3.7-2.3-1.6-3.8-3.3-4.6-5.2c0,0,0-.1,0-.2.4-1.5.7-2.6,1.1-3.3.6-1.3,1.6-1.9,2.8-1.8-.2,1.1-.1,2.1.2,3c0,0,0,.2,0,.2.4,1,1.4,2,2.9,3.1.6.4,1.2.8,1.8,1.2c1.1.7,2.3,1.3,3.7,2c2.2,1,4.1,1.7,5.9,1.9l1.2.4c.2.1.3.2.4.4.6.7.8,1.6.5,2.8v0l.2.1Zm3.1-3v-.4c0,0,1.8-2.7,1.8-2.7.3.7.6,1.6.7,2.9.2,1.2.2,2.2,0,3.1-.1,1-.4,1.4-.7,1.4-.1,0-.2,0-.3-.2-.4-.3-.8-1-1.3-2.1l-.2-2v0Zm-35,8.8c2.3-1.4,4.9-1,7.8,1c4.5,3.2,7.8,6.9,10,10.9.9,1.7,1.8,3.3,2.8,4.9s2,3.1,3.1,4.6c6.5,9,14,17,22.6,24c1.5,1.2,3.1,2.5,4.7,3.7c1,.6,2.1,1.2,3.1,2.1.7.5,1.4,1,2.1,1.4l-5.6.9c-1,0-2.3-.3-3.8-1-5.3-2.3-14.1-8.5-26.1-18.6c0,0-.2-.2-.3-.2-3.3-2.8-6.4-6.2-9.3-10.1-3-4.6-5.3-8-6.9-10.1-.8-1.1-1.6-2.8-2.4-5.2-.8-2.5-1.3-4.2-1.6-5.1c0-1.1,0-2.1,0-3v0l-.2-.2Z" fill="#fff" fill-rule="evenodd" stroke-width="0"/><path d="M113.8,38.9c.2.3.4.7.6,1c.3.5.6,1,.8,1.5c2.2,3.9,3.6,7.4,4.2,10.5.4,1.8.8,5.5,1.3,11.3c0,.2,0,.4,0,.5c0-.3.2-.7.2-1-.3,1.2-.6,2.5-.9,3.8l-1.3,9.6-1.1,8.5c0,4.3.1,7.8.2,10.8-8.6-7-16.1-15-22.6-24-1.1-1.5-2.1-3.1-3.1-4.6-.3-2.4-1-4.7-1.9-6.9-.9-2.5-1.7-4.5-2.4-5.9-1.2-2.5-2.6-4.5-4.4-6-5.3-2.3-9.8-2.8-13.5-1.5c1.5-1.5,3.1-3.2,4.7-5.2c1.9-2.3,4.6-4.6,8.2-7c0,0,0,.1,0,.2.8,1.9,2.3,3.6,4.6,5.2c1.3.9,3.3,2.1,6.1,3.7.4.1,1,.4,1.8.8.8.7,2,1.4,3.6,2.3.5.3,1.1.6,1.8.9c1.2.7,2.3,1.1,3,1.5.7.3,1.3.5,1.6.5v0c.6,0,1.1-.2,1.5-.7.6-.7.9-1.8,1.2-3.3.1,0,.2.2.3.2.4,0,.6-.4.7-1.4.2-.9.2-2,0-3.1-.1-1.2-.4-2.2-.7-2.9.3-.4.5-.8.8-1.3c2.3,1.3,3.6,2,3.9,2.1.2,0,.3,0,.5.1v0l.3-.2Zm-3.4,95.5c-3.9,0-7.7-.5-11.4-1.2-.8-.2-1.6-.3-2.3-.5.5-2.8.8-6.2.8-9.9c0-7.9-.9-14.6-2.7-20-.8-2.5-1.5-5.2-1.9-8.2c7,5.9,14.7,10.9,23.1,15c1.7,1,3.1,1.9,4.3,2.6.5,1.8,1,3.4,1.6,5c.1,1.2.4,3.2.7,5.9v.5c-1.8,2.3-3.2,4.6-4.5,7-.7.5-1.4,1-2.2,1.4-1.3.8-2.7,1.4-4.2,1.9-.4.2-.9.3-1.3.4v0v.1Zm82.3,50.9c-2.1-.4-2.1-.8,0-1.1l13.6-2.4c2.1-.4,4.3-.4,6.4,0l13.6,2.4c2.1.4,2.1.8,0,1.1l-13.6,2.4c-2.1.4-4.3.4-6.4,0l-13.6-2.4Z" fill="#ff65ab" fill-rule="evenodd" stroke-width="0"/><path d="M128.9,262.6c-.3-.7-.9-1.3-1.8-1.8-1.7-1-3.4-1.9-5.2-2.7-.7-.3-1.4-.7-2.1-1c3.5.5,6.9,1,10,1.7c2.4.5,4.5,1.1,6.3,1.7c5.1,1.7,7.7,3.6,7.7,5.8s-4.7,5.4-14,7.5c-9.4,2-20.7,3.1-33.9,3.1s-24.6-1-33.9-3.1c-.2,0-.3,0-.5-.1-9-2-13.5-4.5-13.5-7.4s4.7-5.4,14-7.5c1.1-.2,2.2-.5,3.3-.7v.7c0,1,0,1.9,0,2.9v3.6c-.3,2-.3,3.5,0,4.3s1.3,1.5,3.1,2.1c1.5,1.9,3.7,3.1,6.8,3.4.7,0,3.3,0,7.9,0c.6,0,1.7-.2,3.3-.3c1.2-.3,1.6-1.1,1.2-2.3.3-.9.3-1.9,0-2.8c0-.2,0-.3-.1-.5-.2-.6-.5-1.2-.9-1.7-.6-.8-1.3-1.5-2-2.2-.6-.5-1.1-1.1-1.6-1.7-.6-.7-1.1-1.5-1.5-2.3-.3-.7-.7-1.4-1.1-2.1-.3-.5-.6-1.1-.9-1.6-.2-.4-.4-.8-.6-1.2c3.9-.3,8-.5,12.4-.6-.2,1.1-.3,2.1-.4,3.2-1.1,2.9-.2,4.9,2.8,5.9c1.4.5,4.1.8,8,1c1.2-1.1,2.9-1.4,4.8-.8c1.1.3,2.7,1,4.9,2c2.6.6,5.4.9,8.5.9c2.5,0,5.3-.3,8.5-.8.6.1.9-.2,1.1-.9.1-.8,0-1.2-.4-1.2.3-.9.3-1.6,0-2.3v0l-.2-.2Z" fill="#f0f0ff" fill-rule="evenodd" stroke-width="0"/><path d="M305.8,179.1c0,0,0,.1,0,.2s-1.1.4-3.1.9L113.4,213.7l-10.8,1.6-8.3.2-5.6-.6L3.3,199.7c-2-.4-3.1-.8-3.3-1.2c0-.1,0-.2,0-.2v-1.2c0,.2.4.4.9.6.6.2,1.3.4,2.4.6l85.5,15.2l5.6.5l8.3-.2l4.4-.5v0l195.7-34.6c1.2-.3,2-.5,2.6-.6.3-.1.5-.2.5-.3c0,0,0-.1,0-.2v1.1c0,.2,0,.3,0,.4v0c0,0,0,0,0,0h-.1Z" fill="#f0f0ff" fill-rule="evenodd" stroke-width="0"/><path d="M271.9,257.4v0c5.3,1,5.4,8.6,0,9.7l-12.8,2.7L110.9,296c0,0,0,0-.2,0l-3.9.5h-8c0,.1-5.6-.4-5.6-.4l-20.9-3.7v-3.5c0-.4-.4-.8-.9-1.1.6-.4.9-.8.9-1.2v-3.5c0-1-1.7-1.8-4.8-2.5-3.2-.7-7-1-11.6-1s-8.4.4-11.5,1c-.5.1-.9.2-1.3.3v-3.4c0-.2-.1-.5-.3-.7l18.8-3.3v0c9.4,2.1,20.9,3.2,34.4,3.2s24.5-1,33.9-3.1s14-4.5,14-7.5-2.6-4.1-7.7-5.8l67.4-11.9l7.5-.7l9,.4l51.9,9.2v0l-.1.1Z" fill="#f0f0ff" fill-rule="evenodd" stroke-width="0"/><path d="M143.9,108.8c1.2-.3,2.4-.6,3.6-.8c2.8-.5,5.4-.6,7.9-.4.9.1,1.8.2,2.6.3l1.1.2l4.4.9c-1.5-.3-2.9-.4-4.2-.5-1.1,0-2.2,0-3.2,0-1.3,0-2.6.2-4,.5-2.4.4-4.8,1.1-7,1.9-.3-.8-.7-1.4-1.2-2.1v0Zm-12.6,11.1c-1,1-1.9,2-2.9,3.1-2.7,3.2-4.9,6.6-6.5,10.2-2.2,4.9-3.3,10.1-3.3,15.6s1.6,12.3,4.9,16.9c1.4,2,3,3.8,4.9,5.4.8.7,1.6,1.3,2.5,1.9c1.1.7,2.1,1.4,3.3,1.9.3.1.5.3.8.4.8.4,1.6.7,2.5,1l-3.9-.7c-.4-.1-.7-.2-1.1-.4-1.4-.5-2.7-1.1-4-1.8-1.6-.9-3.1-2-4.6-3.2-.3-.3-.7-.6-1-.9-2.9-2.7-5.1-5.8-6.6-9.3-1.5-3.6-2.2-7.6-2.2-12.1s.7-8.5,2.1-12.4c.6-1.6,1.2-3.2,2-4.7c1.2-2.4,2.7-4.7,4.5-7c.4-.5.8-1.1,1.3-1.6c2.2-2.6,4.4-4.8,6.9-6.7c0,0,0,0,0,0c.3.5.4,1.9.5,4.3c0,0,0,0,0,0v0l-.1.1Zm28.5-.5c2.2.7,4.3,1.9,6.2,3.5c4.7,3.9,7,9.2,7,15.9s-2.3,12.8-7,18.3c-4.6,5.6-10.3,8.9-16.9,10.1-2.6.4-5.1.5-7.5.2-.7-.2-1.4-.5-2.1-.8-1.7-.8-3.2-1.7-4.6-3-4.7-3.9-7-9.2-7-15.9s1.6-10.7,4.8-15.4c.6-1,1.4-1.9,2.2-2.9.8-.9,1.6-1.8,2.5-2.7c3.8-3.6,8.1-6,12.9-7.1.5,0,.9-.2,1.4-.3c1-.2,1.9-.3,2.9-.3.9,0,1.8,0,2.7,0c.5,0,1,0,1.4.1.1,0,.2,0,.3,0h.3c.2,0,.4.1.5.2v0v.1Zm-2.7,10.2h-.2c-.7-.8-2.1-1-4.1-.8c0-2.1,0-3.3,0-3.7c0,0-.3-.4-.9-1.1c0-.2-.2-.2-.6-.2-.4.2-.7.3-.8.3-.8,0-1.4.3-1.6.7c0,0-.1.1-.2.3-.3.3-.4,1-.4,2-.1.4-.2.8-.2,1.3v1.1c-2,.7-3.6,1.8-4.8,3.2-1.3,1.5-1.9,3.2-2,4.9-.1.4-.1.8,0,1.2.2,2.2,1,3.9,2.5,4.9.3.2.5.3.8.5.3.1.6.3.9.5.9.3,1.9.6,3,.8v0c2.6.5,4.1.8,4.4.9c1.5.5,2.2,1.4,2.3,2.6.1.9-.2,1.8-1,2.6-.8.9-1.9,1.4-3.1,1.6-2.3.6-4.1.7-5.5.4-.1,0-.6-.2-1.3-.5-.3-.1-.6-.2-.9-.2-1,.2-1.5,1.1-1.3,2.8.1,1.1.5,1.8,1.1,2.2.5.3,2.1.5,4.7.7v4.1c0,.2,0,.4,0,.5h.2c0-.1.2,0,.5.1.2.1.3.2.3.2v0c0,.2,0,.2.1,0c.1-.1.3-.1.4,0c0,.2.1.2.3,0c.1,0,.3,0,.6-.3.4,0,.7,0,.9-.2.4-.2.7-.5.9-.8.2-.7.3-2.2.3-4.7c2.4-.8,4.3-1.9,5.7-3.3c1.9-2,2.8-4.3,2.5-7.1-.2-2.3-1.1-3.9-2.5-4.9-.7-.5-1.6-.9-2.6-1.2-.6-.2-1.4-.4-2.1-.4-.6-.2-1.2-.3-1.8-.3-.3,0-.6,0-1-.1-1-.2-1.6-.3-1.9-.3-1.4-.6-2.2-1.4-2.3-2.7v-.6c0-1.5,1.4-2.6,4-3.3.6,0,1.2,0,1.5,0c.6.1,1.1.2,1.7.3.6,0,1.1,0,1.7.2.1,0,.3,0,.5.1.2,0,.4,0,.6,0c.4,0,.7-.4,1-.9c0-.2.1-.3.2-.5c0-.1.1-.2.1-.3c0,0,0-.1,0-.4-.1-.3-.2-.5-.2-.6c0-.9-.2-1.5-.6-1.9v0l.2.3Z" fill="#ffa300" fill-rule="evenodd" stroke-width="0"/><path d="M173.4,165.5c-1.1,1.1-2.2,2.1-3.3,3.1-3.6,3.1-7.6,5.3-11.9,6.8-1.9.7-3.9,1.2-6,1.6-2.6.5-5.1.6-7.6.6-.4,0-.9,0-1.3,0-.5,0-1,0-1.5-.2-.3,0-.7-.1-1-.2c0,0,0,0-.1,0-.2,0-.3,0-.4-.1-.9-.2-1.8-.4-2.7-.7-.8-.3-1.6-.6-2.5-1-.3-.1-.6-.3-.8-.4-1.1-.6-2.2-1.2-3.3-1.9-.9-.6-1.7-1.2-2.5-1.9-1.9-1.6-3.6-3.4-4.9-5.4-3.2-4.7-4.9-10.3-4.9-16.9s1.1-10.7,3.3-15.6c1.6-3.5,3.8-6.9,6.5-10.2.9-1.1,1.9-2.1,2.9-3.1c0,.4.1.8.2,1.1-.8.8-1.6,1.7-2.3,2.6-3,3.6-5.3,7.3-6.9,11.2-1.8,4.4-2.7,9.1-2.8,14c0,6,1.3,11.1,4.1,15.5c1.4,2.2,3.2,4.3,5.3,6.1c1,.9,2.1,1.7,3.3,2.4c1,.6,2,1.2,3.1,1.7.1,0,.3.1.4.2c1.4.6,3,1.1,4.5,1.4c0,0,0,0,0,0h.1c0,0,0,0,0,0v0c0,0,0,0,0,0c.4,0,.8.1,1.2.2.5,0,.9.1,1.4.2.2,0,.4,0,.7,0c2.5.1,5.1,0,7.9-.5c1.4-.2,2.7-.5,4-.9c4.4-1.3,8.4-3.3,12.1-6.1c1.2-1,2.5-2,3.6-3.1s2.3-2.3,3.4-3.6c6.4-7.6,9.6-16,9.6-25.2c0-8.1-2.5-14.8-7.7-19.9.4-.1.7-.2,1-.4c5.1,5.3,7.7,12,7.7,20.3s-3.3,18-9.8,25.8c-.8,1-1.6,1.9-2.5,2.7v0l.4-.2Z" fill="#d17100" fill-rule="evenodd" stroke-width="0"/><path d="M163.5,108.9c.6.1,1.1.2,1.7.4.2,0,.3,0,.5.1.2.2.4.4.5.7c0,.1.1.3.2.6-.4-.1-.7-.2-1.1-.3-.7-.2-1.3-.3-2-.5-1.3-.2-2.5-.4-3.6-.5-1.2,0-2.4,0-3.5,0-1.3,0-2.6.2-3.9.5-2.4.4-4.7,1.1-6.9,1.9c0-.3-.2-.6-.3-.9c2.2-.9,4.6-1.5,7-1.9c1.4-.3,2.7-.4,4-.5c1,0,2.1,0,3.2,0c1.3,0,2.7.2,4.2.5v0-.1Z" fill="#d17100" fill-rule="evenodd" stroke-width="0"/><path d="M141.6,167.4c2.3.3,4.8.2,7.5-.2c6.6-1.2,12.2-4.5,16.9-10.1c4.7-5.5,7-11.6,7-18.3s-2.3-12-7-15.9c-1.9-1.6-4-2.8-6.2-3.5c3.2.5,6.2,1.8,8.7,4.1c4.7,3.9,7,9.2,7,15.9s-2.3,12.8-7,18.3c-4.6,5.6-10.3,8.9-16.9,10.1-2.9.5-5.6.5-8.2,0-.6-.1-1.2-.3-1.8-.5v0v.1Z" fill="#d17100" fill-rule="evenodd" stroke-width="0"/><path d="M177,117c5.1,5.1,7.7,11.8,7.7,19.9c0,9.2-3.2,17.6-9.6,25.2-1.1,1.3-2.2,2.5-3.4,3.6s-2.4,2.2-3.6,3.1c-3.7,2.8-7.8,4.9-12.1,6.1-1.3.4-2.6.7-4,.9-2.8.5-5.4.7-7.9.5-.2,0-.4,0-.7,0-.5,0-1,0-1.4-.2-.4,0-.8-.1-1.2-.2h-.1c0,0,0,0,0,0v0c0,0,0,0,0,0s0,0,0,0c-1.6-.3-3.1-.8-4.5-1.4-.1,0-.3-.1-.4-.2-1.1-.5-2.1-1.1-3.1-1.7-1.1-.7-2.2-1.5-3.3-2.4-2.1-1.8-3.9-3.8-5.3-6.1-2.8-4.4-4.1-9.5-4.1-15.5c0-4.9.9-9.5,2.8-14c1.6-3.9,3.9-7.6,6.9-11.2.8-.9,1.5-1.8,2.3-2.6.4,1.3,1.3,2.1,2.5,2.2.4,0,.9,0,1.5,0c1.4,0,3.1-.3,5.3-.6c3-.6,4.6-2.7,4.9-6.5.1-1.6,0-3-.3-4.3c2.2-.8,4.5-1.5,6.9-1.9c1.4-.3,2.7-.4,3.9-.5c1.1,0,2.3,0,3.5,0c1.1,0,2.4.2,3.6.5.7.1,1.4.3,2,.5.4,0,.7.2,1.1.3.2.7.2,2,.3,3.7.3,2.1,1.2,3.3,2.8,3.4v0c.2,0,.4,0,.7,0c1.5,0,3.4-.2,5.9-.6.3,0,.5-.1.8-.2v0l-.4.2Zm-35.4,50.4c.6.2,1.2.3,1.8.5c2.6.4,5.3.4,8.2,0c6.6-1.2,12.2-4.5,16.9-10.1c4.7-5.5,7-11.6,7-18.3s-2.3-12-7-15.9c-2.6-2.2-5.5-3.6-8.7-4.1-.1,0-.2-.1-.3-.1h-.2c0,0-.3,0-.3,0-.1,0-.2,0-.3,0-.5,0-.9-.1-1.4-.1-.9,0-1.8,0-2.7,0s-1.9.2-2.9.3c-.5,0-.9.2-1.4.3-4.9,1.1-9.2,3.5-12.9,7.1-.9.8-1.7,1.7-2.5,2.6s-1.5,1.9-2.2,2.9c-3.2,4.7-4.8,9.9-4.8,15.4s2.3,12,7,15.9c1.4,1.2,3,2.2,4.6,3c.7.3,1.4.6,2.1.8v0-.2Zm15.5-37.8c.3.4.5,1.1.6,1.9c0,0,0,.2.2.6c0,.2,0,.4,0,.4c0,.1,0,.2-.1.3c0,.1-.1.3-.2.5-.2.6-.6.9-1,.9-.2.1-.4.1-.6,0s-.4-.1-.5-.1c-.6,0-1.1-.1-1.7-.2-.6,0-1.1-.1-1.7-.3-.4,0-.9,0-1.5,0-2.6.6-3.9,1.7-4,3.3v.6c.1,1.2.9,2.1,2.3,2.7.2,0,.9.2,1.9.3.4,0,.7,0,1,.1.5,0,1.1.2,1.8.3.8,0,1.5.2,2.1.4c1,.3,1.9.7,2.6,1.2c1.5,1,2.3,2.6,2.5,4.9.2,2.7-.6,5.1-2.5,7.1-1.4,1.5-3.3,2.6-5.7,3.3c0,2.5-.1,4-.3,4.7-.2.3-.4.6-.9.8-.2.1-.5.2-.9.2-.3.2-.5.3-.6.3-.2.1-.3.1-.3,0-.1-.2-.3-.2-.4,0c0,0,0,0-.1,0v0c0-.1,0-.2-.3-.3s-.5-.2-.5-.2h-.2c0,0,0-.1,0-.4v-4.1c-2.6-.2-4.2-.4-4.7-.7-.6-.4-1-1.1-1.1-2.2-.2-1.7.3-2.6,1.3-2.8.3,0,.6,0,.9.2.7.3,1.2.4,1.3.5c1.4.3,3.2.2,5.5-.4c1.3-.2,2.3-.7,3.1-1.6.8-.8,1.1-1.7,1-2.6c0-1.2-.8-2.1-2.3-2.6-.3-.1-1.8-.4-4.4-.9v0c-1.2-.2-2.2-.5-3-.8-.3-.2-.6-.3-.9-.5-.3-.1-.6-.3-.8-.5-1.5-1.1-2.3-2.7-2.5-4.9-.1-.4-.1-.8,0-1.2c0-1.8.8-3.4,2-4.9c1.2-1.4,2.8-2.5,4.8-3.2v-1.1c0-.5,0-.9.2-1.3c0-1,.2-1.7.4-2c0-.1,0-.2.2-.3.2-.3.7-.6,1.6-.7.1,0,.4-.1.8-.3.4,0,.6,0,.6.2.6.6.9.9.9,1.1c0,.4,0,1.6,0,3.7c2.1-.2,3.5,0,4.1.7h.2c0,0,0,0,0,0l-.2-.1Z" fill="#ffdc78" fill-rule="evenodd" stroke-width="0"/><path d="M0,197.1c0-.1,0-.2,0-.3.2-.4,1.3-.9,3.3-1.4v0c0,0,45.5-8,45.5-8L73,183.2l14.4-2.5l7-1.2l3.4-.6l17.8-3.1l6-1.1l6.9-1.2c1.3.7,2.6,1.3,4,1.8L9.5,197l79.6,14.1l5.6.5l8-.2l3.9-.5c0,0,0,0,.2,0l189.6-33.5-80.5-14.3-9-.4-7.5.7-29.2,5.1c1.1-.9,2.2-2,3.3-3.1l25.7-4.5l7.5-.7l7.9.2l52.7,9.3l36.3,6.4c1.4.2,2.1.5,2.3.9v.2c0,.2,0,.3,0,.4c0,0,0,.1,0,.2c0,0-.2.2-.5.3-.5.1-1.4.3-2.6.6L107.1,213.3v0l-4.4.5-8.3.2-5.6-.5L3.3,198.3c-1-.2-1.8-.4-2.4-.6-.5-.2-.8-.4-.9-.6v0ZM167.6,98.3c-2.3-.2-4.3.1-6.1.8-.2,0-.5.2-.7.3c0,0,0,0,0,0h-.1c0,0-.1.1-.2.2c0,0-.1,0-.2,0-1.4.9-2.1,2.3-1.9,4.3v.4c0,.6,0,1.2.3,2-2.2-.9-6.6-2.7-13.3-5.3-7.9-3.1-15.6-9.9-23.2-20.5-.8-1.2-1.7-2.3-2.7-3.4-.2-.4-.4-.9-.6-1.3l1.3-9.6c.3-1.3.7-2.6.9-3.8.5-2.4.9-4.7,1.1-6.7c0-.7.1-1.3.2-1.9c0-1,0-2,0-2.9c0-.2,0-.4,0-.7-.3-4.1-1.1-7.1-2.5-9-.5-.3-1-.6-1.6-.9.2,0,.4,0,.6.1.8.2,1.5.6,2.3,1.2.7.6,1.5,1.3,2.3,2.1c0,0,.2.2.2.2s.2.2.2.3c0,0,0,0,.1.2v0c0,0,0,0,0,0v0c1,3.2,1.6,7,1.7,11.4.2,4,.7,7.7,1.7,11.1c1.2,4.2,2.9,7.8,5.1,10.8c4.5,6,10.6,11.4,18.2,16.4c1.1.8,2.4,1.5,3.7,2.3.9,0,1.9.1,2.9.1c2.2,0,4.7-.4,7.4-1.2.6.4,1,.8,1.4,1.1.5.4,1,.9,1.3,1.4v0l.2.5ZM106.8,41l.2,2c.5,1.1.9,1.8,1.3,2.1-.2,1.5-.6,2.6-1.2,3.3-.3-1.6-.8-3.3-1.5-4.9.4-.3.9-.7,1.3-1.3v-1.2c0,0,0,0,0,0h-.1Zm-7.7,5.2c2.1,1.1,3.5.8,4.2-1l.3,2.9c0,.1,0,.2,0,.4c0,0,.2,0,.2.1-.8-.3-1.8-.8-3-1.5-.6-.3-1.2-.6-1.8-.9v0h.1Zm29.7,67.1c-1.4,1-3.7.9-7-.2-.5-.3-1-.6-1.6-.9-1.2-.7-2.7-1.6-4.3-2.6-8.4-4.1-16.1-9.1-23.1-15-.4-.3-.7-.6-1.1-.9-9.8-8.5-17.1-15.9-21.8-22.2-.5-.7-.9-1.3-1.3-1.9-3.5-5.6-3.7-10.8-.8-15.6c1.2-2,2.5-3.3,3.9-4.1c0,.9,0,1.9,0,3c.3.9.9,2.6,1.6,5.1.8,2.3,1.6,4,2.4,5.2c1.6,2.2,3.9,5.5,6.9,10.1c2.9,4,6,7.3,9.3,10.1c0,0,.2.2.3.2c12.1,10.1,20.8,16.3,26.1,18.6c1.6.7,2.8,1,3.8,1l5.6-.9c.4.2.8.4,1.2.6.3.1.6.4.7.8-.9,0-1.9.2-2.7.5-.4,0-.7.2-1.1.3-2.5,1-3.7,2.6-3.7,4.8s.3,1.3.8,1.6c.2.1.9.3,1.9.6c1.4.3,2.6.9,3.6,1.8v0h.4Z" fill="#dbdfff" fill-rule="evenodd" stroke-width="0"/><path d="M119.9,257c.7.4,1.4.7,2.1,1c1.7.9,3.5,1.8,5.2,2.7.9.5,1.5,1.1,1.8,1.8-2.6,1.5-5.8,2.3-9.4,2.3-2.9-.7-5.7-1.6-8.5-2.8-5.2-2.1-8-4.3-8.4-6.4c0-.2,0-.3,0-.5c0-2.5,1.6-4.5,4.8-6.2c1.3-.7,2.2-1.2,2.8-1.6c1,1.1,1.9,2.4,2.8,3.6.8,1.2,1.8,2.3,3,3.2c1.3,1,2.7,1.9,4.1,2.7v0l-.3.2Zm1.3-194.4c0,.3-.2.7-.2,1c0-.2,0-.3,0-.5-.5-5.8-.9-9.5-1.3-11.3-.7-3.1-2.1-6.6-4.2-10.5-.3-.5-.6-1-.8-1.5-.2-.3-.4-.7-.6-1c1.8.5,3.3,1.1,4.6,1.7.6.3,1.1.6,1.6.9c1.4,1.8,2.2,4.8,2.5,9c0,.2,0,.4,0,.7c0,.9,0,1.9,0,2.9c0,.6,0,1.2-.2,1.9-.2,2-.6,4.3-1.1,6.7v0h-.3ZM105.6,43.5c.7,1.6,1.2,3.3,1.5,4.9-.4.5-.9.7-1.5.7v0c-.3,0-.8-.2-1.6-.5c0,0-.2,0-.2-.1s0-.2,0-.4l-.3-2.9c0,0,0-.1,0-.2l.4-1c.6,0,1.3,0,1.8-.5v0h-.1Zm-8.9,89.1c0,0,0,0,0,0s-.2,0-.2,0c-1.2-.3-2.4-.6-3.5-.9-.1,0-.2,0-.3-.1-1.9-.5-3.9-1.1-5.8-1.8-.4-.1-.8-.3-1.2-.4-3.9-1.4-7.8-3-11.5-4.8-1.4-.2-2-1-1.9-2.4.5-1.8.8-3,.9-3.7c2.4-7.4,3.8-12.4,4.2-15.2.9-6,0-11.1-2.6-15.2C71.2,81.9,68.3,75,66,67.3c-1-3.2-1.4-6.4-1.2-9.7c0-.8.1-1.6.2-2.4l.6-2.3c0,0,0,0,0,0s0,0,0-.1c0,0,0,0,0-.1c0,0,0,0,0-.1c0,0,0,0,0-.1c0,0,0,0,0-.1.3-.7.7-1.4,1.1-2.1c0,0,0,0,0,0s0,0,0,0s0,0,0,0s0,0,0-.1c0,0,0,0,0,0s0-.1.1-.2c0,0,.1-.2.2-.2c0,0,0,0,0-.1c0,0,0,0,0-.1c0,0,0,0,0,0s0,0,0-.1c0,0,.1-.2.2-.2c0,0,0,0,0-.1c0,0,0,0,.1-.1c0,0,0,0,0-.1c0,0,0,0,.1-.1.6-.5,1.2-1.1,1.8-1.7c3.7-1.3,8.2-.8,13.5,1.5c1.7,1.5,3.2,3.5,4.4,6c.7,1.4,1.5,3.4,2.4,5.9.9,2.2,1.5,4.5,1.9,6.9-1-1.6-1.9-3.2-2.8-4.9-2.2-4-5.5-7.6-10-10.9-2.8-2.1-5.4-2.4-7.8-1-1.4.8-2.7,2.2-3.9,4.1-2.9,4.8-2.7,10,.8,15.6.4.6.8,1.3,1.3,1.9C73.7,78.6,80.9,86,90.8,94.5c.4.3.7.6,1.1.9.4,3,1.1,5.7,1.9,8.2c1.8,5.4,2.7,12,2.7,20s-.3,7.1-.8,9.9v0l1-.9ZM78.1,254c0,.3.1.6.2.9c0,0,0,.2,0,.2.1.4.3.7.4,1.1.2.4.4.8.6,1.2.3.5.6,1.1.9,1.6.4.7.8,1.4,1.1,2.1.4.9.9,1.6,1.5,2.3.5.6,1,1.2,1.6,1.7.7.7,1.4,1.4,2,2.2.4.5.7,1.1.9,1.7c0,0-.1,0-.2.1-2.3,1.3-4.7,1.9-7.2,1.9-4.9,0-8-2-9.3-5.9-.5-1.4-.7-4.1-.7-8.1v-.8c0-.4.3-.9.9-1.4c1.9.4,4.1.2,6.5-.7.2,0,.5-.2.7-.3v0l.1.2Z" fill="#dd2b78" fill-rule="evenodd" stroke-width="0"/><path d="M105.8,222.8l6.7-1.1c-.3,3.1-.7,6.2-1.1,9.3-.5,3.9-1,7.8-1.6,11.7-.2,1.1-.8,2-1.9,2.6-1,.8-2.1,1.2-3.5,1.1-.7,0-1.3-.2-1.9-.4.5-2.7,1-5.9,1.6-9.6.3-2.7.7-5.3,1-7.8.3-2.1.5-4,.7-5.9v.1Zm10.5-62.9c1.5,3.5,3.7,6.6,6.6,9.3-.3,1.8-.8,3.6-1.2,5.3l-6,1.1c.2-2,.4-3.9.4-5.7c0-3.3.2-6.6.2-10v0Zm-.2-24.5c0-1.2-.1-2.3-.2-3.3.8-.4,1.5-.9,2.2-1.4-.8,1.5-1.4,3.1-2,4.7v0Zm-21.7,44l-7,1.2c.2-.8.3-1.5.4-2c.6-3.5.8-7.3.8-11.3s.6-8.5,1.8-13.5s2.5-9.2,3.9-12.9c1.4-3.6,2.4-6.3,3.1-8.2-.2,0-.3,0-.5-.1.8.2,1.5.3,2.3.5c3.7.8,7.5,1.2,11.4,1.2-2.2,2.9-5,5.1-8.3,6.6-.5.2-.9.4-1.4.7l-1.6,7.9v0c0,0-3.5,17.3-3.5,17.3-.3,2-.6,4-.6,6c0,2.2-.3,4.4-.6,6.6v0h-.2ZM82.5,221.7c0,.4-.1.8-.2,1.2-1.1,8.6-2.3,17.3-3.7,25.9c0,.5-.3,1-.7,1.6-1,.9-2,1.4-3.2,1.5v-5.9c-.1-6.7.8-15.1,2.9-25.2l4.8.9v0h.1Z" fill="#012b47" fill-rule="evenodd" stroke-width="0"/><path d="M120.4,11.3v0c0,.2,0,.4-.2.7l-1.3,1.9c0,0,0,0-.1.1v0c-1.3,1-2.2,1.8-2.8,2.3-.3.1-.7.2-1.1.3-4.2,1-8.5.5-12.9-1.3-1.7-.7-3.5-.7-5.3,0v0c-1.8-.7-3.4-1.6-4.8-2.7-2.5-1.8-4.2-3.8-4.9-6c.7-1.2,1.6-2.3,2.5-3.3c0,0,0,0,.1-.1c1.1,1.2,2.8,3.1,4.9,5.6c1,.8,3,1.7,5.8,2.6c3.8,1.2,7.7,1.8,11.7,1.8s.6,0,.9,0c2.6-.1,5.1-.7,7.4-1.9v0h.1ZM87.8,23.8l-.3-.3c-1.6-1.8-2.5-4.1-2.7-6.8-.2-2.6.2-5.1,1.2-7.7c0-.2.2-.4.2-.6.6.7,1.1,1.6,1.7,2.9c1.2,2.7,2.7,4.4,4.5,5.3c1.6.8,3.3,1.4,4.9,1.7-.1,1.1-.6,2.2-1.4,3.2-.9,1.1-1.9,2.1-3.1,2.9c0,0,0,0-.2,0-.9-.4-1.6-1.2-2.1-2.6-.2-.4-.3-.8-.5-1.2-.4-.9-.8-1.6-1.2-1.9-.6.5-.9,1.3-1,2.4c0,.6,0,1.5,0,2.7v0Zm28.3,111.6c-1.4,4-2.1,8.1-2.1,12.4s.8,8.5,2.2,12.1c0,3.4-.1,6.7-.2,10c0,1.8-.2,3.7-.4,5.7l-17.8,3.1c-.6-4-1.3-8-2.2-12l3.5-17.3v0c0,0,1.6-7.8,1.6-7.8.5-.2.9-.5,1.4-.7c3.3-1.5,6.1-3.6,8.3-6.6.4-.1.9-.2,1.3-.4c1.5-.5,2.9-1.1,4.2-1.9c0,1,.1,2.1.2,3.3v0v.1ZM87.3,180.6l-14.4,2.5c.1-4.3.2-8.5.2-12.8c0-3.9,0-7.9,0-11.8c0-4.3-.2-8.6-.2-12.9c0-1.6,0-3.2-.2-4.8-.1-1.3-.2-2.6-.1-3.7.2-3.3.5-6.6,1.1-9.9l.4-2.2c0-.1,0-.3,0-.4c3.8,1.8,7.6,3.4,11.5,4.8.4.1.8.3,1.2.4c1.9.7,3.8,1.3,5.8,1.8c0,0,.2,0,.3.1c1.1.3,2.3.6,3.5.9c0,0,.2,0,.2,0s0,0,0,0c.2,0,.3,0,.5.1-.7,1.9-1.7,4.6-3.1,8.2s-2.7,7.9-3.9,12.9-1.8,9.4-1.8,13.5-.2,7.8-.8,11.3c0,.5-.2,1.2-.4,2v0h.2ZM64.9,218.5l12.8,2.3c-2.1,10.1-3,18.5-2.9,25.2v5.9h-.4c-.2,0-.4,0-.6,0c0,0,0,0,0,0-2.6-.1-5-.9-7.1-2.5l-1.1-1.3c0-1.9,0-3.7,0-5.6c0-6.3-.2-12.6-.4-18.9c0-1.6,0-3.3-.2-4.9v0l-.1-.2ZM102.6,246c-2.8-.7-5.3-2.1-7.5-4.2-.6-.7-1.1-1.5-1.5-2.3-.3-.6-.5-1.2-.4-1.8c0-.9,0-1.8.2-2.6l.2-11.6v0c0-.1,0-.2,0-.2h1c0,.1,8.3,0,8.3,0l3.2-.4c-.2,1.9-.5,3.8-.7,5.9-.3,2.5-.6,5.1-1,7.8-.5,3.6-1,6.8-1.6,9.6v0l-.2-.2Z" fill="#033660" fill-rule="evenodd" stroke-width="0"/><path d="M128.9,262.6c.3.7.2,1.5,0,2.3-1.4.4-2.9.6-4.5.7-2.5.3-5,.3-7.4,0-2.6-.2-4.8-.7-6.7-1.5-1.9-.9-3.8-1.5-5.5-2-1.8-.5-3.2-.7-4.2-.6-.9.2-2.2.2-3.8,0-2.3-.2-4.3-1-5.9-2.6.1-1.1.3-2.2.4-3.2.2-1,.4-2,.6-2.9c0,0,0-.2,0-.2c0-.3.2-.6.2-.9.7-2.2,1.3-4.4,2-6.7.3-1.1.6-2.1.8-3.2c2.2,2.2,4.7,3.6,7.5,4.2.6.2,1.3.3,1.9.4c1.3,0,2.5-.3,3.5-1.1.7.7,1.4,1.4,2.1,2.2-.6.4-1.5.9-2.8,1.6-3.2,1.7-4.8,3.7-4.8,6.2s0,.3,0,.5c.4,2.1,3.2,4.3,8.4,6.4c2.8,1.1,5.7,2.1,8.5,2.8c3.7,0,6.8-.8,9.4-2.3v0l.3-.1Zm-22.1-222v.4c0,0,0,1.2,0,1.2-.4.6-.8,1-1.3,1.3-.6.4-1.2.6-1.8.5.3-1.2.2-2.1-.5-2.8-.1-.1-.3-.3-.4-.4l3.9-.2v0h.1ZM78,250.4c0,.9,0,1.8,0,2.7v0c0,.1,0,.3,0,.3c0,.2,0,.4.1.6v0c-.2,0-.5.2-.7.3-2.4.9-4.6,1.1-6.5.7-.6.6-.9,1-.9,1.4v.8c0,4,.3,6.7.7,8.1c1.3,3.9,4.4,5.9,9.3,5.9s4.9-.6,7.2-1.9c0,0,.1,0,.2-.1c0,.2,0,.3.1.5.2,1,.2,1.9,0,2.8-1,.1-1.9.2-2.9.4-.8,0-1.5.2-2.2.2-1,0-2,.2-3,.2-.9,0-1.7,0-2.5,0-1-.1-1.9-.3-2.9-.5-.8-.2-1.6-.6-2.3-1s-1.3-.8-1.8-1.4-1-1.3-1.4-2c-.4-.2-.7-.5-1.1-.7-.3-.2-.6-.4-.8-.6-.3-.3-.6-.5-.8-.9-.2-.3-.4-.6-.6-.9v-3.6c0-1,0-2,0-2.9v-.7c0-.7,0-1.3,0-2c0-.4,0-.9.1-1.3c0-.3,0-.6,0-.9.1-1,.3-1.9.5-2.9.1-.6.3-1.1.5-1.7c2.1,1.5,4.4,2.3,7.1,2.5c0,0,0,0,0,0c.2,0,.4,0,.6,0h.4c1.2,0,2.3-.5,3.2-1.5v0l.4.1Z" fill="#b91a5f" fill-rule="evenodd" stroke-width="0"/><path d="M87.5,272.5c.5,1.2,0,2-1.2,2.3-1.6.1-2.7.2-3.3.3-4.6.1-7.3.1-7.9,0-3.1-.4-5.3-1.5-6.8-3.4-1.8-.6-2.8-1.3-3.1-2.1s-.2-2.3,0-4.3c.2.3.3.6.6.9.2.3.5.6.8.9.2.2.5.4.8.6.3.3.7.5,1.1.7.4.7.9,1.3,1.4,2c.5.6,1.1,1,1.8,1.4s1.5.8,2.3,1c.9.2,1.9.4,2.9.5.8,0,1.7,0,2.5,0c1,0,2-.2,3-.2.7,0,1.5-.2,2.2-.2c1-.1,1.9-.2,2.9-.4v0Zm3.3-13.6c1.6,1.6,3.6,2.4,5.9,2.6c1.7.2,2.9.2,3.8,0c1.1-.1,2.5,0,4.2.6c1.7.5,3.6,1.2,5.5,2s4.2,1.3,6.7,1.5c2.4.3,4.9.3,7.4,0c1.6-.1,3.1-.3,4.5-.7.4,0,.5.4.4,1.2s-.5,1.1-1.1.9c-3.1.5-5.9.7-8.5.8-3.1,0-5.9-.3-8.5-.9-2.1-1-3.8-1.6-4.9-2-2-.6-3.6-.3-4.8.8-3.9-.2-6.6-.5-8-1-3-1-3.9-3-2.8-5.9v0l.2.1Z" fill="#020202" fill-rule="evenodd" stroke-width="0"/><path d="M87,6.6c.8,2.2,2.5,4.2,4.9,6c1.4,1,3,1.9,4.8,2.7v0c0,0,0,0,0,.1c0,0,0,.1,0,.2c0,0,0,0,0,0c.2.6.3,1.2.3,1.9v0c0,.3,0,.5,0,.7-1.6-.3-3.2-.9-4.9-1.7s-3.2-2.6-4.5-5.3C87,10,86.5,9,85.9,8.3c.3-.7.6-1.3.9-1.8v0l.2.1Zm2.7-3.4c.2-.2.4-.4.6-.5c2.1-1.8,4.4-2.7,7-2.7c3.3-.1,6.6.4,9.9,1.6c1,.4,2,.8,3,1.3c3.8,1.9,7.2,4.7,10.3,8.2c0,0,0,.1,0,.2-2.3,1.1-4.8,1.7-7.4,1.9-.3,0-.6,0-.9,0-4,0-7.9-.6-11.7-1.8-2.9-.9-4.8-1.8-5.8-2.6-2.2-2.5-3.8-4.4-4.9-5.6v0h-.1Zm32.5,182.4l-13.6-2.4c-2.1-.4-2.1-.8,0-1.1l13.6-2.4c2.1-.4,4.3-.4,6.4,0l13.6,2.4c2.1.4,2.1.8,0,1.1l-13.6,2.4c-2.1.4-4.3.4-6.4,0Zm68.4-8.6l12.1,2.1-12.1,2.1v-4.2Zm-125,22.4l-11.9-2l3.3-.6l11.9,2.1-3.2.6v0l-.1-.1Zm-6.3,0l3.2.6-2.7.5-3.2-.5l2.8-.5v0l-.1-.1Zm-3.7-.7l2,.4-2.8.5-2-.4c0,0,2.7-.5,2.7-.5h.1Zm-.4-2.3l-3.3.6-2.4-.4l3.2-.6c0,0,2.5.4,2.5.4Zm-7.4-.1l-10.3-1.8l3.2-.6l10.4,1.8-3.2.6v0h-.1Zm3.4,2.6l-13.3-2.3l2.8-.5l13.1,2.3c-.8.2-1.6.3-2.6.5Z" fill="#00406b" fill-rule="evenodd" stroke-width="0"/><path d="M97.2,17.7v0c0-.8,0-1.4-.3-2c0,0,0,0,0,0s0-.1,0-.2c0,0,0-.1,0-.2c1.8-.6,3.6-.6,5.3,0c4.3,1.8,8.6,2.2,12.9,1.3.3,0,.7-.2,1.1-.3c0,.6,0,1.3,0,2c0,0,0,.1,0,.2-1.5.6-2.9.9-4.1.9-6.8,0-11.7-.4-14.7-1.3c0,0,0-.5,0-.5l-.2.1ZM90,20.6c.2.4.3.8.5,1.2.5,1.4,1.2,2.3,2.1,2.6c0,0,0,0,.2,0-.2.6-.6,1-1.3,1s-1.5-.6-1.8-1.8v-1.5c0-.8,0-1.3.2-1.7c0,.1,0,.2.2.3v0l-.1-.1Zm45.5,102.6c-.6,0-1.1,0-1.5,0-1.2,0-2.1-.8-2.5-2.2-.1-.3-.2-.7-.2-1.1c0,0,0,0,0,0c0-2.4-.2-3.8-.5-4.3c0,0,0,0,0,0-.6-.8-1.2-1.5-1.9-2.1-1-.8-2.3-1.4-3.7-1.8-1.1-.3-1.7-.5-1.9-.6-.5-.3-.8-.9-.8-1.6c0-2.2,1.2-3.8,3.7-4.8.3-.1.7-.2,1.1-.3.4,1,.6,2.4.6,4.2s.3.6.9,1c.8.6,1.3.9,1.7,1.2.2.2.3.3.4.3c1,.8,1.8,1.7,2.5,2.8.6,1,1.1,2,1.5,3.2.1.3.2.7.3,1c0,0,0,0,0,0c.3,1.2.4,2.9.6,5.3v0l-.3-.2Zm34.8-5.4c-.3,0-.5,0-.7,0v0c-1.5-.1-2.5-1.3-2.8-3.4c0-1.8-.1-3-.3-3.7c0-.2-.1-.4-.2-.6-.2-.2-.3-.5-.5-.7-.1-.2-.3-.4-.5-.6c0,0,0,0-.1-.1c0,0,0,0,0,0v0c-.1-.6-.2-1.4-.4-2.2c0,0,0-.2,0-.3-.4-2.2-1.2-3.6-2.6-4.4s-2.4-1-2.9-.7-.7,1.2-.8,2.9c-.1-2,.5-3.4,1.9-4.3c0,0,.1,0,.2,0c0,0,.1,0,.2-.1h.1c0,0,0,0,0,0c.8.4,1.7.9,2.7,1.8c1.2,1,2.3,2.1,3.2,3.3.6.7,1.1,1.5,1.6,2.3.4.7.8,1.3,1.1,1.9.4.8.7,1.6.9,2.4.1.4.2.8.2,1.2s0,.7,0,1.1c0,2.2,0,3.7-.3,4.5v0-.3Z" fill="#ed9870" fill-rule="evenodd" stroke-width="0"/><path d="M109.4,36.6c-.3.5-.5.9-.8,1.3l-1.9,2.7-3.9.2-1.2-.4c-.7-.5-1.4-1-2.2-1.5-2.5-1.4-4.3-3.2-5.4-5.3-.4-.8-.8-1.6-1-2.5-.3-1.1-.5-2.3-.5-3.6-1.1.3-2,0-2.8-1-.8-1.3-1.4-2.2-1.8-2.7c0-1.2,0-2.1,0-2.7c0-1.1.4-1.9,1-2.4.4.3.8.9,1.2,1.9c0-.1,0-.2-.2-.3-.2.4-.2,1-.2,1.7v1.5c.3,1.2.9,1.8,1.8,1.8s1.1-.3,1.3-1c1.2-.8,2.3-1.8,3.1-2.9.8-1,1.2-2.1,1.4-3.2c0-.2,0-.4,0-.6v.5c2.9.9,7.8,1.3,14.7,1.3s2.6-.3,4.1-.9c-.2,3.1-1,6.3-2.5,9.7s-2.8,6.2-4.1,8.4v0h-.1Zm51.5,62.8c.2-.1.4-.2.7-.3c1.8-.7,3.8-1,6.1-.8.7,0,1.4.1,2.1.2c3.2.6,6,1.7,8.1,3.5c2,1.7,3.1,3.9,3.3,6.7v0c0,.3,0,.6,0,.9v.3c0,.2,0,.4,0,.6c0,0,0,.1,0,.2-.2,3-1.3,4.9-3.1,5.9-.3.2-.6.3-1,.4-.2,0-.5.1-.8.2-2.5.4-4.5.6-5.9.6.2-.8.3-2.3.3-4.5s0-.7,0-1.1-.1-.8-.2-1.2c-.2-.8-.5-1.6-.9-2.4-.3-.6-.6-1.3-1.1-1.9-.5-.8-1-1.6-1.6-2.3-1-1.2-2-2.3-3.2-3.3-1-.8-1.9-1.4-2.7-1.8v0l-.1.1Zm-31,4.3c1.4,0,2.9,0,4.4.2c3.2.6,6,1.7,8.1,3.5.5.4,1,.9,1.4,1.4.5.6.9,1.3,1.2,2.1.1.3.2.6.3.9.4,1.3.5,2.7.3,4.3-.3,3.8-1.9,6-4.9,6.5-2.1.4-3.9.6-5.3.6-.1-2.3-.3-4.1-.6-5.3c0,0,0,0,0,0c0-.3-.2-.7-.3-1-.4-1.2-.9-2.2-1.5-3.2-.7-1.1-1.5-2-2.5-2.8c0,0-.2-.2-.4-.3-.4-.3-.9-.7-1.7-1.2-.6-.4-.9-.8-.9-1c0-1.8-.2-3.2-.6-4.2.8-.2,1.7-.4,2.7-.5v0h.3Z" fill="#ffaa83" fill-rule="evenodd" stroke-width="0"/><path d="M101.6,40.4c-1.8-.2-3.7-.9-5.9-1.9-1.4-.7-2.6-1.3-3.7-2-.7-.4-1.2-.8-1.8-1.2-1.5-1.1-2.4-2.1-2.9-3.1c0,0,0-.2,0-.2-.4-.9-.4-1.9-.2-3c0-1.2,0-2.1,0-2.7c0-1.1.2-2,.3-2.7l.3.3c.4.5,1,1.5,1.8,2.7.8,1,1.8,1.3,2.8,1c0,1.3.2,2.5.5,3.6.2.9.6,1.7,1,2.5c1.2,2.1,3,3.9,5.4,5.3.8.4,1.5.9,2.2,1.5v0l.2-.1Zm63.5,68.4c0,.2,0,.4,0,.6-.5-.1-1.1-.3-1.7-.4l-4.4-.9c-.2-.6-.4-1.1-.5-1.6-.2-.8-.3-1.5-.3-2v-.4c0-1.7.3-2.6.8-2.9s1.5,0,2.9.7s2.3,2.2,2.6,4.4c0,0,0,.2,0,.3.1.8.3,1.6.4,2.2v0v0h.2Z" fill="#ce7c56" fill-rule="evenodd" stroke-width="0"/><path d="M170.1,168.5l29.2-5.1l7.5-.7l9,.4l80.5,14.3-189.6,33.5c0,0,0,0-.2,0l-3.9.5-8,.2-5.6-.5L9.4,197l123-21.7c.4.1.7.3,1.1.4l3.9.7c.9.3,1.8.5,2.7.7.1,0,.3,0,.4.1c0,0,0,0,.1,0l-3.2.6c-2.1.4-2.1.7,0,1.1l13.6,2.4c2.1.4,4.3.4,6.4,0l13.6-2.4c2.1-.4,2.1-.7,0-1.1l-12.9-2.3c4.3-1.5,8.3-3.8,11.9-6.8v0l.1-.2Zm-47.9,17.1c2.1.4,4.3.4,6.4,0l13.6-2.4c2.1-.4,2.1-.7,0-1.1l-13.6-2.4c-2.1-.4-4.3-.4-6.4,0l-13.6,2.4c-2.1.4-2.1.7,0,1.1l13.6,2.4Zm-6.2,1.6l-13.6-2.4c-2.1-.4-4.3-.4-6.4,0l-13.6,2.4c-2.1.4-2.1.7,0,1.1L96,190.7c2.1.4,4.3.4,6.4,0l13.6-2.4c2.1-.4,2.1-.7,0-1.1Zm51.7,3.1l13.6,2.4c2.1.4,4.3.4,6.4,0l13.6-2.4c2.1-.4,2.1-.7,0-1.1l-13.6-2.4c-2.1-.4-4.3-.4-6.4,0l-13.6,2.4c-2.1.4-2.1.7,0,1.1Zm-15.3,2.2l-13.6,2.4c-2.1.4-2.1.7,0,1.1l13.6,2.4c2.1.4,4.3.4,6.4,0l13.6-2.4c2.1-.4,2.1-.7,0-1.1l-13.6-2.4c-2.1-.4-4.3-.4-6.4,0Zm43.4-25c0,.6,1.2,1.1,3.6,1.6c2.4.4,5.4.7,8.9.7c3.4,0,6.3-.2,8.8-.7c2.4-.4,3.7-1,3.7-1.6s-1.3-1.1-3.7-1.6c-2.4-.4-5.4-.6-8.8-.7-3.5,0-6.4.2-8.9.7-2.4.4-3.6.9-3.6,1.6Zm-3.1,17.8l13.6,2.4c2.1.4,4.3.4,6.4,0l13.6-2.4c2.1-.4,2.1-.7,0-1.1l-13.6-2.4c-2.1-.4-4.3-.4-6.4,0l-13.6,2.4c-2.1.4-2.1.7,0,1.1Zm-2.1-8.3l-89.9,15.9l12.1,2.1l77.8-13.8l12.1-2.1-12.1-2.1v0Zm81.7.9l-2-.4-2.7.5l2,.4l2.8-.5v0h-.1Zm-5.7-2l3.3-.6-2.5-.4-3.2.6l2.4.4v0Zm4.9-.3l-3.3.6l11.9,2l3.2-.6-11.9-2.1v0l.1.1Zm5.6,3.2l-3.2-.6-2.8.5l3.2.5l2.7-.5v0l.1.1ZM255.4,175l-2.8.5l13.3,2.3c1-.2,1.9-.4,2.6-.5L255.4,175v0Zm0-2.2l-3.2.6l10.3,1.8l3.2-.6-10.4-1.8v0h.1ZM93.8,203.2l3.9.7l3.9-.7-3.9-.7-3.9.7Zm3.9,4.3l3.9-.7-3.9-.7-3.9.7l3.9.7Zm-1.1-3.4l-3.9-.7-3.9.7l3.9.7l3.9-.7Zm-2.8.9l3.9.7l3.9-.7-3.9-.7-3.9.7Zm-1.1.2l-3.9.7l3.9.7l3.9-.7-3.9-.7Zm10.1,0l-3.9.7l3.9.7l3.9-.7-3.9-.7Zm3.9-1.1l-3.9-.7-3.9.7l3.9.7l3.9-.7Zm-19,.2l-3.9.7l3.9.7l3.9-.7-3.9-.7Zm-22.1-4.9l3.2-.6-11.9-2.1-3.3.6l11.9,2v0l.1.1Zm6.2,1.3c-1.2,0-2.2,0-3.1.2-.8.2-1.2.3-1.2.6s.4.4,1.2.6s1.8.2,3,.2s2.2,0,3-.2c.9-.2,1.3-.3,1.3-.6c0-.2-.5-.4-1.3-.6s-1.8-.2-3-.2h.1Zm-20.6-1.8c1-.2,1.9-.4,2.6-.5l-13.1-2.3-2.8.5c0,0,13.3,2.3,13.3,2.3Zm-3.4-2.6l3.2-.6-10.4-1.8-3.2.6l10.3,1.8v0h.1Zm7.4.1l-2.5-.4-3.2.6l2.4.4l3.3-.6Zm.4,2.3l-2.7.5l2,.4l2.8-.5c0,0-2-.4-2-.4h-.1Zm3.7.7l-2.8.5l3.2.5l2.7-.5-3.2-.6v0l.1.1Zm48.5,4.9l-3.9.7l3.9.7l3.9-.7-3.9-.7Z" fill="url(#esOUr50uag725-fill)" fill-rule="evenodd" stroke-width="0"/><path d="M259.2,195.7L112.5,221.6l-6.7,1.1-3.2.4-8.3.2h-1c0-.1-.6-.2-.6-.2l-4.1-.4-6.3-1.1-4.8-.9-12.8-2.3-61.5-11c-2.3-.4-3.4-.9-3.3-1.4v-7.7c.2.4,1.3.8,3.3,1.2l85.5,15.2l5.6.6l8.3-.2l10.8-1.6L302.7,180c2-.4,3-.7,3.1-.9c0,0,0-.1,0-.2v7.6c0,.2,0,.3,0,.5c0,.1-1.1.4-3.1.9l-43.5,7.7v0v.1Z" fill="url(#esOUr50uag726-fill)" fill-rule="evenodd" stroke-width="0"/><path d="M87.7,204.3l3.9.7-3.9.7-3.9-.7l3.9-.7Zm19-.2l-3.9.7-3.9-.7l3.9-.7l3.9.7Zm-3.9,1.1l3.9.7-3.9.7-3.9-.7l3.9-.7Zm-10.1,0l3.9.7-3.9.7-3.9-.7l3.9-.7Zm1.1-.2l3.9-.7l3.9.7-3.9.7-3.9-.7Zm2.8-.9l-3.9.7-3.9-.7l3.9-.7l3.9.7Zm1.1,3.4l-3.9-.7l3.9-.7l3.9.7-3.9.7Zm-3.9-4.3l3.9-.7l3.9.7-3.9.7-3.9-.7Zm-22-2.5c1.2,0,2.2,0,3,.2s1.3.3,1.3.6c0,.2-.4.4-1.3.6-.8.2-1.8.2-3,.2s-2.2,0-3-.2-1.2-.3-1.2-.6.4-.4,1.2-.6c.9-.2,1.9-.2,3.1-.2h-.1Zm36,3.6l3.9.7-3.9.7-3.9-.7l3.9-.7Z" fill="#abb1eb" fill-rule="evenodd" stroke-width="0"/><path d="M195.8,167.5c0-.6,1.2-1.1,3.6-1.6c2.4-.4,5.4-.7,8.9-.7c3.4,0,6.3.2,8.8.7c2.4.4,3.7,1,3.7,1.6s-1.3,1.1-3.7,1.6c-2.4.4-5.4.6-8.8.7-3.5,0-6.4-.2-8.9-.7-2.4-.4-3.6-.9-3.6-1.6Zm59.6,5.3l10.4,1.8-3.2.6-10.3-1.8l3.2-.6v0h-.1Zm0,2.2l13.1,2.3c-.8.2-1.6.3-2.6.5l-13.3-2.3l2.8-.5v0Zm21.7,3.8l-2.7.5-3.2-.5l2.8-.5l3.2.6v0l-.1-.1Zm-5.6-3.2l11.9,2.1-3.2.6-11.9-2l3.3-.6v0l-.1-.1Zm-4.9.3l-2.4-.4l3.2-.6l2.5.4-3.3.6v0Zm5.7,2l-2.8.5-2-.4l2.7-.5l2,.4v0h.1Z" fill="#6a6adc" fill-rule="evenodd" stroke-width="0"/><path d="M140.7,177.1c.4,0,.7.1,1,.2.5,0,1,.1,1.5.2.4,0,.9,0,1.3,0c2.4.1,4.9,0,7.6-.6c2.1-.4,4.1-.9,6-1.6l12.9,2.3c2.1.4,2.1.8,0,1.1l-13.6,2.4c-2.1.4-4.3.4-6.4,0l-13.6-2.4c-2.1-.4-2.1-.8,0-1.1l3.2-.6v0l.1.1Z" fill="#001e5b" fill-rule="evenodd" stroke-width="0"/><path id="esOUr50uag730" d="M167.7,190.3c-2.1-.4-2.1-.8,0-1.1l13.6-2.4c2.1-.4,4.3-.4,6.4,0l13.6,2.4c2.1.4,2.1.8,0,1.1l-13.6,2.4c-2.1.4-4.3.4-6.4,0l-13.6-2.4Z" opacity="0.5" fill="#4eeef1" fill-rule="evenodd" stroke-width="0"/><path id="esOUr50uag731" d="M152.4,192.5c2.1-.4,4.3-.4,6.4,0l13.6,2.4c2.1.4,2.1.8,0,1.1l-13.6,2.4c-2.1.4-4.3.4-6.4,0L138.8,196c-2.1-.4-2.1-.8,0-1.1l13.6-2.4Z" opacity="0" fill="#ffbd59" fill-rule="evenodd" stroke-width="0"/><path d="M159.2,119.3h.2c.1,0,.2,0,.3.2-.2,0-.3,0-.5-.2v0Z" fill="#fff7da" fill-rule="evenodd" stroke-width="0"/><polygon points="190.6,181.2 112.8,194.9 100.8,192.8 190.6,177 190.6,181.2" fill-rule="evenodd" stroke-width="0"/></g><g id="esOUr50uag734_to" transform="translate(250.949997,132.60088)"><g id="esOUr50uag734" transform="translate(-250.949997,-132.60088)" opacity="0"><path d="M259.7,131.7l7.7-.9v.3v0c0,.1-1.5,6.5-1.5,6.5c0,.1-.1.3-.2.4c0,.1,0,.2-.1.3l-.5.9c-.1.2-.2.4-.3.6-1.1,1.8-2.3,3.4-3.8,4.7l-2.3,1.9c-.2.1-.4.2-.5.4l-3.4-6.5v0c1.5-1,2.7-2.2,3.6-3.7.4-.7.8-1.5,1-2.2l.4-2.4v0c0-.1,0-.2,0-.2l-.1-.1Z" fill="#8ec2ff" fill-rule="evenodd" stroke-width="0"/><path d="M267.4,130.8l-7.7.9v-.2c0-2.4-.9-4.3-2.5-5.8-1.7-1.5-3.7-2.1-6.2-1.7-2.4.3-4.4,1.5-6.2,3.4-1.7,2-2.5,4.1-2.5,6.5s.8,4.4,2.5,5.9s3.8,2.1,6.2,1.7c1.4-.2,2.6-.6,3.8-1.4l3.4,6.5c.2-.1.4-.2.5-.4-2.3,1.6-4.9,2.6-7.8,3-4.5.6-8.4-.4-11.6-3.2s-4.8-6.5-4.8-11.1s1.6-8.7,4.8-12.4s7.1-5.9,11.6-6.5c1.2-.2,2.4-.2,3.6-.1c3,.2,5.7,1.3,8.1,3.4c3.2,2.8,4.8,6.5,4.8,11.1v.3v0v.1Z" fill="#ff65a7" fill-rule="evenodd" stroke-width="0"/></g></g><g><path d="M206.7,92l-5.4,8.1-6.2-8.9h-3.4c-2.2,0-4-.8-5.5-2.3s-2.3-3.4-2.3-5.5v0c0-.4,0-.8,0-1.2.2-1.7,1-3.1,2.2-4.4s3.4-2.3,5.5-2.3h39.4c2.2,0,4,.8,5.5,2.3s2.3,3.4,2.3,5.5v0c0,2.2-.8,4-2.3,5.6-1.5,1.5-3.4,2.3-5.5,2.3h-23.9l-.5.8v0h.1Z" fill="#ff65a7" fill-rule="evenodd" stroke-width="0"/><path d="M200.4,83.4c0-.8-.3-1.4-.8-2-.6-.6-1.2-.8-2-.8s-1.4.3-1.9.8-.8,1.2-.8,2s.3,1.4.8,1.9c.6.6,1.2.8,1.9.8s1.4-.3,2-.8.8-1.2.8-1.9Z" fill="#ff65a7" fill-rule="evenodd" stroke-width="0"/><path d="M219,83.4c0-.8-.3-1.4-.8-2-.6-.6-1.2-.8-2-.8s-1.4.3-1.9.8-.8,1.2-.8,2s.3,1.4.8,1.9c.6.6,1.2.8,1.9.8s1.4-.3,2-.8.8-1.2.8-1.9Z" fill="#ff65a7" fill-rule="evenodd" stroke-width="0"/><path d="M208.9,85.4c.6-.6.8-1.2.8-1.9s-.3-1.4-.8-2c-.6-.6-1.2-.8-2-.8s-1.4.3-1.9.8-.8,1.2-.8,2s.3,1.4.8,1.9c.6.6,1.2.8,1.9.8s1.4-.3,2-.8Z" fill="#ff65a7" fill-rule="evenodd" stroke-width="0"/><path id="esOUr50uag742" d="M200.4,83.4c0,.8-.3,1.4-.8,1.9-.6.6-1.2.8-2,.8s-1.4-.3-1.9-.8-.8-1.2-.8-1.9.3-1.4.8-2c.6-.6,1.2-.8,1.9-.8s1.4.3,2,.8.8,1.2.8,2Z" opacity="0" fill="#fff" fill-rule="evenodd" stroke-width="0"/><path id="esOUr50uag743" d="M208.9,85.4c-.6.6-1.2.8-2,.8s-1.4-.3-1.9-.8-.8-1.2-.8-1.9.3-1.4.8-2c.6-.6,1.2-.8,1.9-.8s1.4.3,2,.8.8,1.2.8,2-.3,1.4-.8,1.9Z" opacity="0" fill="#fff" fill-rule="evenodd" stroke-width="0"/><path id="esOUr50uag744" d="M219,83.4c0,.8-.3,1.4-.8,1.9-.6.6-1.2.8-2,.8s-1.4-.3-1.9-.8-.8-1.2-.8-1.9.3-1.4.8-2c.6-.6,1.2-.8,1.9-.8s1.4.3,2,.8.8,1.2.8,2Z" opacity="0" fill="#fff" fill-rule="evenodd" stroke-width="0"/></g><g id="esOUr50uag745"><path d="M150.8,37.9c0-.4,0-.8,0-1c.1-.4.3-.7.6-.9c1.8-1.7,3.8-3,6.1-4c2.3-.9,4.7-1.6,7.2-1.9c1.9,0,3.8.1,5.7.5c1.9.3,3.7.8,5.5,1.5c2.7,1.4,5.1,3.2,7.2,5.5.3.3.5.6.7,1c0,.4,0,.8,0,1.2-.1.4-.4.8-.9,1.1-.4.3-.8.3-1.3.2-.5,0-1-.3-1.4-.9-1.5-1.4-3.1-2.7-4.9-3.7-1.9-.9-3.8-1.5-5.8-1.9-2.7-.5-5.4-.3-8.1.3-2.6.8-5,2.2-7.1,4-.6.5-1.1.7-1.7.7-.5,0-.9-.2-1.2-.5-.4-.4-.6-.8-.7-1.2v0h.1Z" fill="#8ec2ff" fill-rule="evenodd" stroke-width="0"/><path d="M165.2,37.2c2.4-.3,4.7,0,7,1c2.4.9,4.4,2.3,6,4c.7.6,1.1,1.2,1.1,1.9c0,.6-.2,1.1-.6,1.5s-.9.5-1.3.4c-.6,0-1.2-.2-1.8-.7-1.1-1.2-2.3-2.1-3.8-2.8-1.4-.7-2.9-1-4.5-1.1-1.5,0-3.1.1-4.6.6s-2.8,1.3-3.9,2.4c-.3.2-.6.4-.9.5-.4.1-.7.2-1.1.1-.6,0-1-.4-1.3-1-.3-.4-.4-.9-.3-1.5c0-.4.2-.8.5-1.1c0,0,.4-.2.9-.7c1.2-1,2.6-1.9,4-2.5c1.5-.5,3.1-.9,4.6-1v0Z" fill="#8ec2ff" fill-rule="evenodd" stroke-width="0"/><path d="M174.7,49.1c0,.4-.2.8-.5,1.1-.2.5-.6.8-1,.9-.5,0-.9,0-1.3,0-.2-.1-.6-.4-1.1-.8-.3-.5-.6-.8-.9-.9-.9-.7-2.1-1-3.4-.9-1.3,0-2.4.4-3.3,1.2-.2.4-.5.6-.8.6-.4.2-.8.2-1.2.2s-.7-.2-1-.5c-.4-.4-.6-.9-.6-1.3c0-.3,0-.6,0-.9.1-.4.3-.7.5-.9.7-.8,1.6-1.4,2.6-1.9s2-.8,3-.9c1.6,0,3.2.1,4.7.7c1.5.7,2.8,1.7,3.8,3c.3.3.4.7.5,1.2v0v.1Z" fill="#8ec2ff" fill-rule="evenodd" stroke-width="0"/><path d="M168.6,52c.7.7,1,1.3.9,2c0,.8-.3,1.4-.9,2-.6.4-1.3.6-2,.4-.7-.1-1.3-.5-1.7-1.2-.3-.7-.4-1.3-.2-2c.1-.5.3-.9.7-1.2.3-.4.7-.6,1.2-.6.7,0,1.4,0,2,.6Z" fill="#8ec2ff" fill-rule="evenodd" stroke-width="0"/></g><g id="esOUr50uag750_to" transform="translate(17.499998,92.147545)"><g id="esOUr50uag750" transform="rotate(12.171345) translate(-17.499998,-92.147545)" opacity="0"><path d="M34,90.4l-7.7.9v-.2c0-2.4-.8-4.3-2.5-5.8s-3.7-2.1-6.2-1.7c-2.4.3-4.4,1.5-6.2,3.4c0,0,0,0,0,0-1.6,1.9-2.5,4.1-2.5,6.4s.8,4.4,2.5,5.8c.6.5,1.2.9,1.8,1.2c1.3.6,2.8.8,4.4.6c1.4-.2,2.6-.7,3.8-1.4l3.4,6.5c.2-.1.4-.2.5-.3-2.3,1.6-4.9,2.6-7.8,3-1,.1-1.9.2-2.8.2-3.4,0-6.3-1.2-8.9-3.4C2.6,102.8,1,99.1,1,94.5s1.6-8.7,4.8-12.4c1.4-1.6,2.9-2.9,4.6-4c2.1-1.3,4.5-2.2,7.1-2.6c4.5-.7,8.4.4,11.6,3.2s4.8,6.5,4.8,11.1v.3v0l.1.3Z" fill="#8ec2ff" fill-rule="evenodd" stroke-width="0"/><path d="M26.3,91.3l7.7-.9c0,2.7-.7,5.3-1.8,7.7c0,0,0,0,0,.2l-.3.6c-.1.2-.2.4-.3.6-1.1,1.8-2.3,3.4-3.8,4.7L25.5,106c-.2.1-.4.2-.5.3l-3.4-6.5v0c1.5-1,2.7-2.2,3.5-3.7.4-.7.8-1.5,1-2.2l.4-2.4v0-.2h-.2Z" fill="#ff65a7" fill-rule="evenodd" stroke-width="0"/></g></g><g><polygon points="43,174.4 50.2,173.6 50.2,146.1 43,146.9 43,174.4" fill="#eff0ff" fill-rule="evenodd" stroke-width="0"/><path d="M43,174.4v-27.5l7.2-.8v27.5l-7.2.8Z" fill="#8ec2ff" fill-rule="evenodd" stroke-width="0"/><polygon points="31.6,160 31.6,155.4 38.5,154.8 38.5,174.9 31.6,175.6 31.6,160" fill="#ed428b" fill-rule="evenodd" stroke-width="0"/><polygon points="20.6,165.8 27.4,165.1 27.4,176.1 20.6,176.8 20.6,165.8" fill="#ed428b" fill-rule="evenodd" stroke-width="0"/></g><g><path d="M39.7,294.9v1.7c-3.8.7-8.2,1.1-13.3,1.1s-10.5-.4-14.5-1.3-6-2-6-3.2s1.6-2,4.6-2.9v2.5c0,.4.3.8,1,1.2.8.5,2,.9,3.8,1.3.9.2,1.9.4,3,.5c2.5.3,5.4.5,8.6.5s7.5-.3,10.4-.8c.4,0,.8-.1,1.2-.2.5-.1.9-.2,1.3-.3v0l-.1-.1Z" fill="#f0f0ff" fill-rule="evenodd" stroke-width="0"/><path d="M72.4,297c2.6.8,3.9,1.7,3.9,2.7s-2,2.3-6,3.2-8.8,1.3-14.5,1.3-10.5-.4-14.5-1.3-6-2-6-3.2s1.5-2,4.4-2.8v1.4c0,.4.3.8,1,1.2.8.5,2,.9,3.8,1.3.9.2,1.9.3,3,.5c2.5.4,5.4.6,8.6.6c4.5,0,8.4-.4,11.6-1c1.8-.4,3.1-.9,3.9-1.3.6-.4.9-.8.9-1.2v-1.3v0l-.1-.1Z" fill="#f0f0ff" fill-rule="evenodd" stroke-width="0"/><path d="M42.2,258.8c-.8.5-2.1.9-3.9,1.3-3.2.7-7.1,1-11.6,1s-6.1-.2-8.6-.5c-1.1-.1-2.1-.3-3-.5-1.8-.4-3.1-.8-3.8-1.3-.6-.4-1-.8-1-1.2v-3.4c0,1,1.6,1.8,4.8,2.5.6.2,1.3.3,2.1.4c2.7.4,5.8.7,9.3.7h.2c3.6,0,6.7-.2,9.5-.7.7,0,1.4-.2,2.1-.4c3-.6,4.6-1.4,4.8-2.3v3.3c0,.4-.3.8-.9,1.2v0-.1Z" fill="#ffa300" fill-rule="evenodd" stroke-width="0"/><path d="M43.2,260.1v3.3c0,.4-.3.9-.9,1.2-.8.5-2.1,1-3.9,1.4-3.2.6-7.1,1-11.6,1s-6.1-.2-8.6-.5c-1.1-.2-2.1-.4-3-.5-1.8-.4-3.1-.9-3.8-1.4-.6-.4-1-.8-1-1.2v-3.4c0,1,1.6,1.8,4.8,2.5.6.1,1.3.3,2.1.4c2.7.4,5.8.6,9.3.6h.2c3.6,0,6.7-.2,9.5-.6.7-.2,1.4-.3,2.1-.4c3-.7,4.6-1.5,4.8-2.4v0Z" fill="#ffa300" fill-rule="evenodd" stroke-width="0"/><path d="M11.4,276.3c-.6-.4-1-.8-1-1.2v-3.4c0,1,1.6,1.8,4.8,2.5.6.2,1.4.3,2.1.4c2.7.4,5.8.7,9.3.7h.2c3.6,0,6.7-.2,9.5-.7.7-.1,1.4-.3,2.1-.4c3-.6,4.6-1.4,4.8-2.4v3.2c0,.4-.3.9-.9,1.2-.6.4-1.6.8-2.8,1.1-.3,0-.7.2-1.1.2-1.3.3-2.8.5-4.3.7-2.2.2-4.6.4-7.3.4s-6.1-.2-8.6-.5c-1.1-.2-2.1-.3-3-.5-1.8-.4-3.1-.9-3.8-1.4v0v.1Z" fill="#ffa300" fill-rule="evenodd" stroke-width="0"/><path d="M10.4,265.9c0,1,1.6,1.8,4.8,2.5.6.2,1.4.3,2.1.4c2.7.4,5.8.7,9.3.7h.2c3.6,0,6.7-.2,9.5-.7.7-.1,1.4-.2,2.1-.4c3-.7,4.6-1.5,4.8-2.4v3.3c0,.4-.3.8-.9,1.2-.8.5-2.1.9-3.9,1.3-3.2.7-7.1,1.1-11.6,1.1s-6.1-.2-8.6-.6c-1.1-.1-2.1-.3-3-.5-1.8-.4-3.1-.8-3.8-1.3-.6-.4-1-.8-1-1.2v-3.4v0Z" fill="#ffa300" fill-rule="evenodd" stroke-width="0"/><path d="M37.2,292.1v3.4c-2.9.5-6.4.8-10.4.8s-6.1-.2-8.6-.5c-1.1-.2-2.1-.3-3-.5-1.8-.4-3.1-.8-3.8-1.3-.6-.3-1-.7-1-1.2v-3.4c0,.3.2.5.4.8.7.6,2.1,1.2,4.4,1.7.6.2,1.3.3,2.1.4c2.7.4,5.8.6,9.3.6h.2c3.6,0,6.7-.2,9.5-.6.3,0,.6-.1.9-.2v0Z" fill="#ffa300" fill-rule="evenodd" stroke-width="0"/><path d="M37.2,289.6c-2.9.6-6.4.9-10.4.9s-6.1-.2-8.6-.5c-1.1-.2-2.1-.3-3-.5c0,0-.1,0-.2,0-1.7-.4-2.9-.8-3.6-1.3-.6-.4-1-.8-1-1.2v-3.4c0,1,1.6,1.8,4.8,2.5.6.1,1.3.3,2.1.4c2.7.4,5.8.7,9.3.7h.2c3.6,0,6.7-.2,9.5-.7.3,0,.6-.1.9-.2v3.4v0-.1Z" fill="#ffa300" fill-rule="evenodd" stroke-width="0"/><path d="M19.2,252.8c2-.4,4.5-.7,7.3-.7s5.3.2,7.3.7c2,.4,3,.9,3,1.6s-1,1.2-3,1.6-4.4.6-7.3.6-5.3-.2-7.3-.6c-2-.5-3-1-3-1.6s1-1.1,3-1.6Z" fill="#ffa300" fill-rule="evenodd" stroke-width="0"/><path d="M43.2,280.9c-2.3.6-3.5,1.4-3.5,2.3v0c0,0,0,0,0,0-.4.1-.8.2-1.2.3-.4,0-.8.2-1.2.2-2.5.5-5.4.7-8.6.8-.6,0-1.2,0-1.8,0-3.2,0-6.1-.2-8.6-.6-1.1-.1-2.1-.3-3-.5-1.8-.4-3.1-.9-3.8-1.3-.6-.4-1-.8-1-1.2v-3.4c0,.9,1.6,1.8,4.8,2.5.6.2,1.3.3,2.1.4s1.7.3,2.6.4c2,.2,4.2.3,6.6.3h.2c3.6,0,6.7-.2,9.5-.7.7-.1,1.4-.2,2.1-.4c3-.7,4.6-1.5,4.8-2.4v3.2v0v.1Z" fill="#ffa300" fill-rule="evenodd" stroke-width="0"/><path d="M71.4,287.8c-.8.5-2.1.9-3.9,1.3-2.3.5-5,.8-8,1-1.1,0-2.3,0-3.5,0-3.2,0-6.1-.2-8.6-.5-1.1-.1-2-.3-3-.5-.5-.1-1-.2-1.5-.4-.5-.1-.9-.3-1.3-.4-.4-.2-.8-.4-1.1-.5-.7-.4-1-.8-1-1.2v-3.4c0,.6.8,1.2,2.1,1.7.4.1.9.3,1.4.5.4.1.8.2,1.3.3.7.2,1.4.3,2.1.4c2.7.4,5.8.6,9.3.6h.1c3.6,0,6.7-.2,9.5-.6.7-.1,1.4-.2,2.1-.4c3.1-.7,4.7-1.5,4.8-2.4v3.3c0,.4-.3.8-.9,1.2v0h.1Z" fill="#ffa300" fill-rule="evenodd" stroke-width="0"/><path d="M72.4,289.2v3.2c0,.4-.3.9-.9,1.2-.8.5-2.1,1-3.9,1.4-1,.2-2.1.4-3.3.5-2.5.3-5.2.5-8.3.5s-6-.2-8.5-.5c0,0,0,0-.1,0-.9-.1-1.7-.3-2.5-.4-.2,0-.3,0-.5,0-1.1-.3-2-.5-2.7-.8-.4-.2-.8-.4-1.1-.5-.7-.4-1-.8-1-1.2v-3.4c0,.6.7,1.2,2.1,1.7.4.2.9.3,1.4.5.4.1.8.2,1.3.3.6.1,1.1.2,1.7.4.1,0,.3,0,.4,0c2.7.4,5.8.6,9.3.6h.1c3.6,0,6.7-.2,9.5-.6.7-.2,1.4-.3,2.1-.4c0,0,0,0,.1,0c3-.7,4.5-1.5,4.7-2.3l.1-.2Z" fill="#ffa300" fill-rule="evenodd" stroke-width="0"/><path d="M72.4,295v3.3c0,.4-.3.8-.9,1.2-.8.5-2.1.9-3.9,1.3-3.2.7-7,1-11.6,1s-6.1-.2-8.6-.6c-1.1-.1-2-.3-3-.5-1.8-.4-3.1-.9-3.8-1.3s-1-.8-1-1.2v-3.4c0,.5.5,1,1.3,1.4.1,0,.2.1.3.2.8.4,1.8.7,3.1,1c.7.2,1.4.3,2.1.4c2.7.4,5.8.7,9.3.7h.1c3.6,0,6.7-.2,9.5-.7.7-.1,1.4-.2,2.1-.4c1.2-.3,2.2-.6,3-.9c1.1-.5,1.7-1,1.8-1.5v0h.2Z" fill="#ffa300" fill-rule="evenodd" stroke-width="0"/><path d="M66,283.3c0,.6-1,1.2-3,1.6s-4.5.6-7.3.6-5.3-.2-7.3-.6c-2-.5-3-1-3-1.6s1-1.1,3-1.6c2-.4,4.4-.7,7.3-.7s5.3.2,7.3.7c2,.4,3,.9,3,1.6Z" fill="#ffa300" fill-rule="evenodd" stroke-width="0"/><path d="M10.4,260.1v0c0-.5.3-.9,1-1.3.8.5,2,.9,3.8,1.3.9.2,1.9.4,3,.5c2.5.4,5.4.5,8.6.5s8.4-.4,11.6-1c1.8-.4,3-.8,3.9-1.3.6.3.9.7.9,1.1v.2c-.2.9-1.8,1.7-4.8,2.4-.7.1-1.4.3-2.1.4-2.8.4-6,.6-9.5.6h-.2c-3.5,0-6.6-.2-9.3-.6-.8-.2-1.5-.3-2.1-.4-3.2-.7-4.7-1.5-4.8-2.5v0v.1Z" fill="#d17100" fill-rule="evenodd" stroke-width="0"/><path d="M42.2,264.6c.6.4.9.8.9,1.2v.2c-.2.9-1.8,1.7-4.8,2.4-.7.2-1.4.3-2.1.4-2.8.4-6,.7-9.5.7h-.2c-3.5,0-6.6-.2-9.3-.7-.8-.1-1.5-.2-2.1-.4-3.2-.7-4.7-1.5-4.8-2.5c0-.4.3-.9,1-1.2.8.5,2,1,3.8,1.4.9.2,1.9.3,3,.5c2.5.3,5.4.5,8.6.5s8.4-.3,11.6-1c1.8-.4,3-.9,3.9-1.4v0-.1Z" fill="#d17100" fill-rule="evenodd" stroke-width="0"/><path d="M11.4,276.3c.8.5,2,1,3.8,1.4.9.2,1.9.4,3,.5c2.5.4,5.4.5,8.6.5s5.1-.1,7.3-.4c1.5-.2,3-.4,4.3-.7.4,0,.7-.2,1.1-.2c1.2-.3,2.2-.7,2.8-1.1.3.2.5.3.6.5.2.2.3.4.3.7v.2c-.2.9-1.8,1.7-4.8,2.4-.7.2-1.4.3-2.1.4-2.8.4-6,.7-9.5.7h-.2c-2.4,0-4.6-.1-6.6-.3-.9,0-1.8-.2-2.6-.4-.8-.1-1.5-.2-2.1-.4-3.2-.7-4.7-1.5-4.8-2.5v0c0-.5.3-.9,1-1.3v0h-.1Z" fill="#d17100" fill-rule="evenodd" stroke-width="0"/><path d="M10.4,271.8v0c0-.5.3-.9,1-1.2.8.5,2,.9,3.8,1.3.9.2,1.9.4,3,.5c2.5.4,5.4.6,8.6.6s8.4-.4,11.6-1.1c1.8-.4,3-.8,3.9-1.3.6.3.9.7.9,1.1v.3c-.2.9-1.8,1.7-4.8,2.4-.7.2-1.4.3-2.1.4-2.8.4-6,.7-9.5.7h-.2c-3.5,0-6.6-.2-9.3-.7-.8-.1-1.5-.3-2.1-.4-3.2-.7-4.7-1.5-4.8-2.5v0-.1Z" fill="#d17100" fill-rule="evenodd" stroke-width="0"/><path d="M10.4,283.5v0c0-.5.3-.9,1-1.3.8.5,2,.9,3.8,1.3.9.2,1.9.4,3,.5c2.5.4,5.4.6,8.6.6s1.2,0,1.8,0c3.2,0,6.1-.3,8.6-.8.4,0,.8-.2,1.2-.2.5-.1.9-.2,1.2-.3-1.4.6-2.2,1.5-2.4,2.9c0,0,0,0,0,.1-.3,0-.6.1-.9.2-2.8.4-6,.7-9.5.7h-.2c-3.5,0-6.6-.2-9.3-.7-.8-.1-1.5-.3-2.1-.4-3.2-.7-4.7-1.5-4.8-2.5v0-.1Z" fill="#d17100" fill-rule="evenodd" stroke-width="0"/><path d="M71.4,293.6c.6.4.9.8.9,1.2v.2c0,.5-.7,1-1.8,1.5-.8.3-1.8.6-3,.9-.7.2-1.3.3-2.1.4-2.8.4-6,.7-9.5.7h-.1c-3.5,0-6.6-.2-9.3-.7-.7-.1-1.4-.2-2.1-.4-1.3-.3-2.3-.6-3.1-1-.1,0-.2-.1-.3-.2-.8-.4-1.3-.9-1.3-1.4v0c0-.5.3-.9,1-1.3.3.2.7.4,1.1.5.7.3,1.6.6,2.7.8.2,0,.3,0,.5,0c.8.1,1.6.3,2.5.4c0,0,0,0,.1,0c2.5.3,5.3.5,8.5.5s5.8-.2,8.3-.5c1.2-.1,2.3-.3,3.3-.5c1.8-.4,3.1-.9,3.9-1.4v0l-.2.3Z" fill="#d17100" fill-rule="evenodd" stroke-width="0"/><path d="M72.4,289.2c-.1.9-1.7,1.6-4.7,2.3c0,0,0,0-.1,0-.7.1-1.3.3-2.1.4-2.8.4-6,.6-9.5.6h-.1c-3.5,0-6.6-.2-9.3-.6-.1,0-.3,0-.4,0-.6-.1-1.2-.2-1.7-.4-.5-.1-.9-.2-1.3-.3-.5-.1-1-.3-1.4-.5-1.4-.5-2-1.1-2.1-1.7v0c0-.5.3-.9,1-1.3.3.2.7.4,1.1.5s.8.3,1.3.4c.4.1.9.2,1.5.4.9.2,1.9.4,3,.5c2.5.4,5.4.5,8.6.5s2.4,0,3.5,0c3-.1,5.7-.5,8-1c1.8-.4,3.1-.8,3.9-1.3.6.4.9.7.9,1.1v.3v0l-.1.1Z" fill="#d17100" fill-rule="evenodd" stroke-width="0"/><path d="M11.4,288.1c.7.5,1.9.9,3.6,1.3c0,0,.1,0,.2,0c.9.2,1.9.4,3,.5c2.5.4,5.4.5,8.6.5s7.5-.3,10.4-.9v2.5c-.3,0-.6.1-.9.2-2.8.4-6,.6-9.5.6h-.2c-3.5,0-6.6-.2-9.3-.6-.8-.1-1.5-.3-2.1-.4-2.2-.5-3.7-1-4.4-1.7-.3-.2-.4-.5-.4-.8v0c0-.5.3-.9,1-1.3v0v.1Z" fill="#d17100" fill-rule="evenodd" stroke-width="0"/><path d="M43.2,254.3c-.2.9-1.8,1.7-4.8,2.3-.7.2-1.4.3-2.1.4-2.8.4-6,.7-9.5.7h-.2c-3.5,0-6.6-.2-9.3-.7-.8,0-1.5-.2-2.1-.4-3.2-.7-4.7-1.5-4.8-2.5c0-1,1.6-1.9,4.8-2.6s7-1.1,11.5-1.1s8.4.4,11.6,1.1c3.1.7,4.7,1.5,4.8,2.5v.3v0h.1Z" fill="#ffdc78" fill-rule="evenodd" stroke-width="0"/><path d="M19.2,252.8c-2,.4-3,.9-3,1.6s1,1.2,3,1.6s4.5.6,7.3.6s5.3-.2,7.3-.6c2-.5,3-1,3-1.6s-1-1.1-3-1.6c-2-.4-4.4-.7-7.3-.7s-5.3.2-7.3.7Z" fill="#ffdc78" fill-rule="evenodd" stroke-width="0"/><path d="M72.4,283.3c-.1.9-1.7,1.7-4.8,2.4-.7.2-1.3.3-2.1.4-2.8.4-6,.6-9.5.6h-.1c-3.5,0-6.6-.2-9.3-.6-.7-.1-1.4-.2-2.1-.4-.5-.1-.9-.2-1.3-.3-.5-.1-1-.3-1.4-.5-1.3-.5-2.1-1.1-2.1-1.7v0c0-.9,1.2-1.6,3.5-2.3.4-.1.8-.2,1.3-.3c3.2-.7,7-1,11.5-1s8.4.4,11.6,1c3.1.7,4.7,1.5,4.8,2.5v.3v0-.1Z" fill="#ffdc78" fill-rule="evenodd" stroke-width="0"/><path d="M66,283.3c0-.6-1-1.1-3-1.6-2-.4-4.5-.7-7.3-.7s-5.3.2-7.3.7c-2,.4-3,.9-3,1.6s1,1.2,3,1.6s4.4.6,7.3.6s5.3-.2,7.3-.6c2-.5,3-1,3-1.6Z" fill="#ffdc78" fill-rule="evenodd" stroke-width="0"/><path d="M37.2,286.2c0,0,0,0,0-.1.2-1.4,1-2.3,2.4-2.9c0,0,0,0,0,0v2.5c-.4.1-.8.2-1.3.3-.3,0-.6.1-.8.2-.1,0-.2,0-.3,0Zm0,5.9v-2.5c.3,0,.7-.1,1-.2c0,0,.1,0,.2,0c.5-.1.9-.2,1.3-.3v2.5c-.4.1-.8.2-1.3.3-.4,0-.8.2-1.2.3v0-.1Z" fill="#8e563c" fill-rule="evenodd" stroke-width="0"/><path d="M40.6,287.8c-.7.4-1,.8-1,1.2v0c-.4.1-.8.2-1.3.4c0,0-.1,0-.2,0-.3,0-.7.1-1,.2v-3.4c.1,0,.2,0,.3,0c.3,0,.6-.1.8-.2.5-.1.9-.2,1.3-.3v.9c0,.4.3.8,1,1.2v0h.1Zm-.9,7.1c-.4.1-.8.2-1.3.3-.4.1-.8.2-1.2.2v-3.4c.4-.1.8-.2,1.2-.3.5-.1.9-.2,1.3-.3v.9c0,.4.3.9,1,1.2-.7.4-1,.8-1,1.2v0c0,0,0,0,0,0v.2Z" fill="#e58525" fill-rule="evenodd" stroke-width="0"/></g><g><polygon points="303.8,240.5 290.2,242.8 276.5,240.4 290.1,238.1 293.8,238.7 303.8,240.5 303.8,240.5" fill="#ff65a7" fill-rule="evenodd" stroke-width="0"/><path d="M290.2,242.8l13.6-2.3v32.4l-11.4-2-2.2.4v-28.5v0Z" fill="#ed428b" fill-rule="evenodd" stroke-width="0"/><path d="M352.8,255.9c-.1,0-.3-.2-.4-.2-.3-.2-.6-.4-.9-.7-.7-.5-1.4-1.1-2.1-1.7-1.9-1.6-4-2.3-6.4-2.3.3,0,.5-.2.8-.2c1.1-.2,2.2-.3,3.3-.3c1.8.3,3.5.9,5.1,1.7.4.2.8.4,1.2.7l.5.3h.2c0,.5,0,.8-.2,1.2-.1.2-.3.4-.4.7-.1.2-.3.5-.5.7v0c0,0-.1.1-.2.1v0Z" fill="#ff65ab" fill-rule="evenodd" stroke-width="0"/><path d="M375.4,258.7c.5,1.5.8,3.1.8,4.9c0,.9,0,1.7-.2,2.6-.1.9-.3,1.7-.5,2.6c0-.8-.2-1.6-.3-2.5-.1-.8-.3-1.7-.5-2.5-.2-.6-.4-1.2-.5-1.9-.4-1.2-.8-2.2-1.3-3.2-.4-.9-.8-1.7-1.3-2.4c0-.1-.2-.3-.2-.4-1.1-1.7-2.6-2.4-4.6-2.3c1.3-.4,2.6-.3,3.9.2.7.3,1.4.7,2.1,1.3.2.2.5.5.9.8c0,0,.1.2.2.3.7.7,1.2,1.4,1.5,2c0,0,0,0,0,0c0,.1,0,.2.2.3v0l-.2.2Z" fill="#ff65ab" fill-rule="evenodd" stroke-width="0"/><path d="M360.8,314l-24.7-4.3l14.8-2.6v1.3c.3,1.2,1.1,1.9,2.5,2.2c1.5.2,3,.3,4.4.2s2.4-.2,2.9-.3c0,0,0,0,0,0v.5c0,.4.3.8.9,1.2-.6.4-.9.7-.9,1.1v.7v0h.1Z" fill="#f0f0ff" fill-rule="evenodd" stroke-width="0"/><path d="M393.1,315c3,.8,4.5,1.7,4.5,2.8s-2,2.3-5.9,3.1c-4,.9-8.7,1.3-14.4,1.3s-10.4-.4-14.3-1.3c-4-.9-5.9-1.9-5.9-3.1s1.2-1.9,3.7-2.6v1.5c0,.4.3.8.9,1.2.8.5,2,.9,3.8,1.3c3.1.7,7,1,11.4,1s6-.2,8.5-.5c1.1-.2,2-.3,2.9-.5c1.8-.4,3-.8,3.8-1.3.6-.4,1-.8,1-1.2v-1.7v0Z" fill="#f0f0ff" fill-rule="evenodd" stroke-width="0"/><path d="M421.9,308.7c3.2.8,4.8,1.8,4.8,2.9s-2,2.3-5.9,3.1c-4,.9-8.7,1.3-14.4,1.3s-9.6-.4-13.3-1.1v-1.5c.4.1.8.2,1.2.3.4,0,.7.2,1.1.2c2.9.5,6.3.8,10.3.8s6-.2,8.5-.5c1.1-.2,2-.4,2.9-.5c1.8-.4,3-.8,3.8-1.3.6-.3,1-.7,1-1.2v-2.5v0Z" fill="#f0f0ff" fill-rule="evenodd" stroke-width="0"/><polygon points="325.6,306.7 350.7,302.3 350.8,304.2 325,308.8 249.4,295.4 258.6,293.8 258.6,294.9 325.6,306.7 325.6,306.7" fill="#f0f0ff" fill-rule="evenodd" stroke-width="0"/><polygon points="365.1,141.7 357.7,140.2 357.7,141.4 365.1,143 367.7,142.7 368.8,142.5 368.7,141.2 365.1,141.7 365.1,141.7" fill="#f0f0ff" fill-rule="evenodd" stroke-width="0"/><path d="M376.1,144.4l-8.2-1.7h-.3v1.7l-19.1-4.1v-1l4.4-.5v-1l-4.4.6v-1.8c5,1,19.7,4,44.1,9.1l-11,1.6-5.6-1l5.4-.9v-1.8l-5.4.9v0l.1-.1Z" fill="#f0f0ff" fill-rule="evenodd" stroke-width="0"/><polygon points="345.5,139.6 347.3,139.4 347.3,140 345.5,139.6" fill="#f0f0ff" fill-rule="evenodd" stroke-width="0"/><path d="M335.4,143.4l11.9,2.2v1c0,.2,0,.3.2.4.1.1.2.2.4.2s.3,0,.4-.2c.1-.1.2-.3.2-.4v-.8l33,6.2h1.8c0,0-20.9,3.2-20.9,3.2L316.5,146l18.9-2.7v0v.1Z" fill="#f0f0ff" fill-rule="evenodd" stroke-width="0"/><path d="M328.5,174l34.7,7.1-.7.3c-3.9-.8-9.2-1.9-16.2-3.3-7.5-1.6-12.9-2.7-16.2-3.3-.3,0-.8-.2-1.4-.3s-1-.3-1.4-.5c.2,0,.3,0,.4-.2l.4.2h.4c0,.1,0,.1,0,.1v-.1Z" fill="#f0f0ff" fill-rule="evenodd" stroke-width="0"/><path d="M362.6,189c0,.1,0,.2,0,.2s0,0-.1,0c-.4,0-6.3-1.2-17.5-3.5-11.3-2.3-17.3-3.6-17.9-3.8h.1c0,0,.2,0,.2,0c.4,0,.7,0,1.1,0l34.2,7v0l-.1.1Z" fill="#f0f0ff" fill-rule="evenodd" stroke-width="0"/><path d="M362.8,236.5l.6.3h-.9c-.3,0-.7,0-1.1-.2-.2,0-.5-.1-1.1-.2-21.1-4.3-32.1-6.6-33.1-6.9.4,0,.8-.1.9-.2h.4c0,0,34.4,7.1,34.4,7.1v0l-.1.1Z" fill="#f0f0ff" fill-rule="evenodd" stroke-width="0"/><path d="M328.4,205.7l34.2,7.1c.1.1.1.2,0,.3c0,0,0,0-.1,0-.5,0-6.5-1.2-17.9-3.6-11.2-2.3-17-3.5-17.5-3.7.4,0,.7-.1,1-.2h.3c0,0,0,0,0,0v.1Z" fill="#f0f0ff" fill-rule="evenodd" stroke-width="0"/><path d="M362.5,205.2c-.7,0-6.6-1.3-17.8-3.6-11.3-2.3-17.2-3.6-17.5-3.8l.4-.2h.5c0,.1.3.2.3.2l34.4,7.1c0,0,0,.2-.1.2c0,0-.1,0-.2,0v0v.1Z" fill="#f0f0ff" fill-rule="evenodd" stroke-width="0"/><path d="M328.4,221.5l34,7c0,0,0,0,.1,0c0,0,0,0,0,0s0,0,0,.1c0,0,0,0-.1,0-.4,0-.8,0-1.3-.2-.3,0-.7-.1-1.3-.2-3.3-.7-9.9-2-19.9-4.1-8.3-1.7-12.7-2.6-13.1-2.8h1.1c0,0,.3,0,.3,0v0l.2.2Z" fill="#f0f0ff" fill-rule="evenodd" stroke-width="0"/><path d="M362.5,244.8c-.9-.2-2.2-.5-3.8-.8-1.8-.4-3.1-.6-3.7-.8-2.2-.4-10.5-2.1-24.8-5.1-.3,0-.8-.2-1.4-.3s-1-.2-1.4-.4v-.2c.2,0,.3,0,.4-.2l.7.2l34.8,7.1-.7.4v0l-.1.1Z" fill="#f0f0ff" fill-rule="evenodd" stroke-width="0"/><path d="M328.2,189.8l34.4,7.1c-.4.2-5.1-.7-14-2.5-4.9-1-12.1-2.4-21.5-4.4l.3-.4.7.2v0h.1Z" fill="#f0f0ff" fill-rule="evenodd" stroke-width="0"/><path d="M328.4,213.6l34,7.2v0c-.4.1-.8.1-1.1,0-.3,0-.9-.2-1.5-.3-3.4-.7-10-2.1-19.8-4.1-8.2-1.7-12.4-2.7-12.7-2.9.5,0,.9,0,1.1,0v0v.1Z" fill="#f0f0ff" fill-rule="evenodd" stroke-width="0"/><path d="M328.4,245.3l28.8,5.9c-.2,0-.4.2-.5.3-11.3-2.3-20.3-4.2-27-5.6-.3,0-.8-.1-1.4-.3-.5-.1-1-.2-1.4-.4l.2-.2h.9c0,0,.3.2.3.2v0l.1.1Z" fill="#f0f0ff" fill-rule="evenodd" stroke-width="0"/><path d="M328.5,261.1l14.3,2.9c0,.1-.1.3-.2.4-6.6-1.4-11.8-2.4-15.5-3.2c0,0,.2,0,.6-.2h.4c0,0,.4,0,.4,0v0v.1Z" fill="#f0f0ff" fill-rule="evenodd" stroke-width="0"/><path d="M328.4,269l11.6,2.4c0,.1,0,.2,0,.3l-12.9-2.6h1c0,0,.3,0,.3,0v0-.1Z" fill="#f0f0ff" fill-rule="evenodd" stroke-width="0"/><path d="M347.4,136.4v2.2l-1.8.2-4.3-.9v1l-5.8-1.1c6.5-1,10.3-1.5,11.2-1.6c0,0,.3,0,.7.1v0v.1Z" fill="#f0f0ff" fill-rule="evenodd" stroke-width="0"/><path d="M328.4,253.2l12.1,2.5c0,.1,0,.3,0,.4l-6.6-1.3c-.6-.1-1.7-.3-3.3-.7-1.4-.3-2.5-.5-3.3-.7l.3-.5.3.2h.2c0,0,.4,0,.4,0v0l-.1.1Z" fill="#f0f0ff" fill-rule="evenodd" stroke-width="0"/><path d="M361.7,306.4c0,0-.2-.1-.2-.2-.5-.3-.7-.7-.7-1v-3.2c.1.8,1.5,1.5,4.1,2.2.2,0,.4.1.7.2.6.2,1.3.3,2,.4c1.7.2,3.5.4,5.4.5c1.3,0,2.6.1,4,.1h.1c3.5,0,6.5-.2,9.2-.6.7-.1,1.4-.2,2.1-.4.4-.1.8-.2,1.2-.3.5-.1,1-.3,1.4-.5c1.4-.5,2.1-1.1,2.2-1.7v3.3c0,.4-.3.8-1,1.2-.3.2-.7.4-1.1.5s-.8.3-1.2.4-.9.2-1.4.4c-.9.2-1.9.4-2.9.5-2.5.4-5.3.5-8.5.5s-1.3,0-1.9,0c-3.6,0-6.8-.4-9.5-1-1.1-.2-2-.5-2.7-.8c0,0,0,0,0,0-.4-.1-.8-.3-1-.5v0h-.3Z" fill="#ffa300" fill-rule="evenodd" stroke-width="0"/><path d="M420.9,283.5c-.8.5-2,1-3.8,1.4-.9.2-1.9.3-2.9.5-1.1.2-2.4.3-3.7.4-1.5,0-3.1.1-4.8.1-4.5,0-8.3-.3-11.4-1-1.8-.4-3-.9-3.8-1.4-.6-.4-.9-.8-.9-1.2v-3.2c.1.9,1.7,1.7,4.8,2.4.6.1,1.3.3,2,.4c2.8.4,5.9.6,9.4.6h.1c2,0,3.9,0,5.6-.2c1.3-.1,2.5-.2,3.6-.4.7-.1,1.4-.3,2.1-.4c3.1-.7,4.7-1.5,4.8-2.5v3.4c0,.4-.3.8-1,1.2v0l-.1-.1Z" fill="#ffa300" fill-rule="evenodd" stroke-width="0"/><path d="M421.9,284.7v3.4c0,.4-.3.8-1,1.2-.8.5-2,.9-3.8,1.3-.9.2-1.9.4-2.9.5-2,.3-4.1.5-6.5.5-.6,0-1.3,0-2,0-4.5,0-8.3-.4-11.4-1-1.8-.4-3-.8-3.8-1.3-.6-.4-.9-.8-.9-1.2v-3.2c.1.9,1.7,1.7,4.8,2.3.6.2,1.3.3,2,.4c2.8.4,5.9.7,9.4.7h.1c1.3,0,2.5,0,3.6,0c2-.1,3.9-.3,5.6-.6.7-.1,1.4-.2,2.1-.4c3.1-.7,4.7-1.5,4.8-2.5v0l-.1-.1Z" fill="#ffa300" fill-rule="evenodd" stroke-width="0"/><path d="M389.6,296.4c.1.9,1.7,1.6,4.8,2.3.6.2,1.3.3,2,.4c1.4.2,2.8.4,4.3.5.4,0,.8,0,1.2,0c1.2,0,2.5.1,3.9.1h.1c3.5,0,6.5-.2,9.2-.6.7-.1,1.4-.2,2.1-.4c3.1-.7,4.7-1.5,4.8-2.4v3.3c0,.4-.3.9-1,1.2-.8.5-2,.9-3.8,1.3-.9.2-1.9.4-2.9.5-2.5.4-5.3.5-8.5.5s-2.7,0-4-.1c-1.9-.1-3.7-.3-5.4-.6-.3,0-.6-.1-.9-.2-.4,0-.8-.2-1.1-.2-.4-.1-.8-.2-1.2-.3v0c0-.9-1.2-1.7-3.5-2.3v-3.1v0l-.1.1Z" fill="#ffa300" fill-rule="evenodd" stroke-width="0"/><path d="M393.1,307.6v0c0,0,0,3.2,0,3.2c0,.4-.3.8-1,1.2-.3.2-.7.4-1.1.6-.7.3-1.6.5-2.6.8c0,0-.2,0-.3,0-.5.1-1.1.2-1.7.3-.3,0-.6.1-1,.2-2.5.3-5.3.5-8.5.5s-8.3-.3-11.4-1c-1.8-.4-3-.8-3.8-1.3-.6-.4-.9-.8-.9-1.2v-3.2c0,.4.5.9,1.3,1.3s.5.2.8.4c.7.3,1.6.5,2.6.8.6.1,1.3.3,2,.4c2,.3,4.3.5,6.7.5.9,0,1.8,0,2.7,0h.1c3.5,0,6.5-.2,9.2-.6.7-.1,1.4-.3,2.1-.4.4-.1.8-.2,1.2-.3.5-.1,1-.3,1.4-.5c1.3-.5,2-1.1,2.1-1.7v0h.1Z" fill="#ffa300" fill-rule="evenodd" stroke-width="0"/><path d="M420.9,306.6c-.7.5-1.8.9-3.4,1.2-.1,0-.3,0-.4.1-.9.2-1.9.4-2.9.5-2.5.4-5.3.5-8.5.5s-7.4-.3-10.3-.8v-3.4c.3,0,.6,0,.9.1c1.7.3,3.5.5,5.4.6c1.3,0,2.6.1,4,.1h.1c3.5,0,6.5-.2,9.2-.7.7-.1,1.4-.2,2.1-.4c3.1-.7,4.7-1.5,4.8-2.5v3.3c0,.4-.3.8-1,1.2v0v.2Z" fill="#ffa300" fill-rule="evenodd" stroke-width="0"/><path d="M421.9,307.9v3.3c0,.4-.3.8-1,1.2-.8.5-2,.9-3.8,1.3-.9.2-1.9.4-2.9.5-2.5.3-5.3.5-8.5.5s-7.4-.3-10.3-.8v-3.4c.3,0,.6.1.9.2c2.8.4,5.9.6,9.4.6h.1c3.5,0,6.5-.2,9.2-.6.7-.1,1.4-.3,2.1-.5c2.3-.5,3.8-1,4.4-1.7.2-.2.3-.5.4-.7v0v.1Z" fill="#ffa300" fill-rule="evenodd" stroke-width="0"/><path d="M421.9,290.5v3.3c0,.4-.3.9-1,1.2-.8.5-2,.9-3.8,1.3-.9.2-1.9.4-2.9.5-2.5.4-5.3.5-8.5.5s-1.8,0-2.6,0c-3.3-.1-6.3-.5-8.8-1-1.8-.4-3-.8-3.8-1.3-.6-.4-.9-.8-.9-1.2v-3.2c.1.9,1.7,1.7,4.8,2.4.6.1,1.3.3,2,.4c2.8.4,5.9.6,9.4.6h.3c1.3,0,2.6,0,3.7-.1c1.9-.1,3.7-.3,5.3-.5.7-.1,1.4-.3,2.1-.4c3.1-.7,4.7-1.5,4.8-2.5v0h-.1Z" fill="#ffa300" fill-rule="evenodd" stroke-width="0"/><path d="M420.9,277.7c-.8.5-2,.9-3.8,1.3-.9.2-1.9.4-2.9.5-.7.1-1.5.2-2.3.2-1.9.2-3.9.2-6.2.2-4.5,0-8.3-.3-11.4-1-1.8-.4-3-.8-3.8-1.3-.6-.4-.9-.8-.9-1.2v-3.2c.1.9,1.7,1.7,4.8,2.3.6.2,1.3.3,2,.4c2.8.4,5.9.7,9.4.7h.1c2.3,0,4.4,0,6.3-.3c1-.1,2-.2,2.9-.4.7,0,1.4-.2,2.1-.4c3.1-.7,4.7-1.5,4.8-2.5v3.4c0,.4-.3.8-1,1.2v0l-.1.1Z" fill="#ffa300" fill-rule="evenodd" stroke-width="0"/><path d="M411.8,271.5c.5,0,1,.2,1.5.3c2,.4,2.9.9,2.9,1.5s-1,1.2-2.9,1.6c-.4,0-.7.1-1.1.2-1.8.3-3.8.4-6.1.4s-5.2-.2-7.2-.6c-2-.5-2.9-1-2.9-1.6s1-1.1,2.9-1.5c2-.4,4.4-.7,7.2-.7s4,.1,5.7.4v0Z" fill="#ffa300" fill-rule="evenodd" stroke-width="0"/><path d="M367.1,301.9c0-.6,1-1.1,2.9-1.6c2-.4,4.4-.6,7.2-.6s5.2.2,7.2.6s2.9,1,2.9,1.6-1,1.2-2.9,1.6c-2,.4-4.4.6-7.2.6s-5.2-.2-7.2-.6c-2-.5-2.9-1-2.9-1.6Z" fill="#ffa300" fill-rule="evenodd" stroke-width="0"/><path d="M393.1,313.4v3.4c0,.4-.3.8-1,1.2-.8.5-2,.9-3.8,1.3-.9.2-1.9.4-2.9.5-2.5.4-5.3.5-8.5.5s-8.3-.4-11.4-1c-1.8-.4-3-.8-3.8-1.3-.6-.4-.9-.8-.9-1.2v-3.2c0,.2.1.3.2.5.2.3.6.6,1.2.8.8.4,1.9.7,3.3,1c.6.2,1.3.3,2,.4c2.8.4,5.9.6,9.4.6h.1c3.5,0,6.5-.2,9.2-.6.7-.1,1.4-.2,2.1-.4c1.5-.3,2.7-.7,3.5-1.1v0c.7-.4,1.1-.8,1.2-1.3v0c0,0,0,0,0,0l.1-.1Z" fill="#ffa300" fill-rule="evenodd" stroke-width="0"/><path d="M389.6,296.4v-.3c0-.4.4-.8.9-1.1.8.5,2,.9,3.8,1.3c2.5.6,5.4.9,8.8,1c.9,0,1.7,0,2.6,0c3.2,0,6-.2,8.5-.5c1.1-.2,2-.3,2.9-.5c1.8-.4,3-.8,3.8-1.3.6.4,1,.8,1,1.2v0c0,1-1.6,1.8-4.8,2.5-.6.2-1.3.3-2.1.4-2.6.4-5.7.6-9.2.6h-.1c-1.4,0-2.6,0-3.9-.1-.4,0-.8,0-1.2,0-1.5-.1-3-.3-4.3-.5-.7-.1-1.4-.2-2-.4-3-.6-4.6-1.4-4.8-2.3v0h.1Z" fill="#d17100" fill-rule="evenodd" stroke-width="0"/><path d="M390.5,289.3c.8.5,2,.9,3.8,1.3c3.1.7,7,1,11.4,1s1.3,0,2,0c2.4,0,4.5-.2,6.5-.5c1.1-.1,2-.3,2.9-.5c1.8-.4,3-.8,3.8-1.3.6.4,1,.8,1,1.2v0c0,1-1.6,1.8-4.8,2.5-.6.1-1.3.3-2.1.4-1.6.2-3.4.4-5.3.5-1.2,0-2.4.1-3.7.1h-.3c-3.5,0-6.6-.2-9.4-.6-.7-.1-1.4-.3-2-.4-3-.7-4.6-1.5-4.8-2.4v-.3c0-.4.4-.8.9-1.1v0l.1.1Z" fill="#d17100" fill-rule="evenodd" stroke-width="0"/><path d="M389.6,279v-.3c0-.4.4-.8.9-1.1.8.5,2,.9,3.8,1.3c3.1.7,7,1,11.4,1s4.3,0,6.2-.2c.8,0,1.6-.1,2.3-.2c1.1-.2,2-.3,2.9-.5c1.8-.4,3-.8,3.8-1.3.6.4,1,.8,1,1.2v0c0,1-1.6,1.8-4.8,2.5-.6.1-1.3.3-2.1.4-1.1.2-2.3.3-3.6.4-1.7.1-3.6.2-5.6.2h-.1c-3.5,0-6.6-.2-9.4-.6-.7-.1-1.4-.3-2-.4-3-.7-4.6-1.5-4.8-2.4v0h.1Z" fill="#d17100" fill-rule="evenodd" stroke-width="0"/><path d="M390.5,283.5c.8.5,2,1,3.8,1.4c3.1.6,7,1,11.4,1s3.3,0,4.8-.1c1.3,0,2.5-.2,3.7-.4c1.1-.2,2-.3,2.9-.5c1.8-.4,3-.9,3.8-1.4.6.4,1,.8,1,1.2c0,1-1.6,1.8-4.8,2.5-.6.2-1.3.3-2.1.4-1.7.3-3.6.5-5.6.6-1.1,0-2.4,0-3.6,0h-.1c-3.5,0-6.6-.2-9.4-.7-.7-.1-1.4-.2-2-.4-3-.7-4.6-1.5-4.8-2.3v-.2c0-.4.4-.8.9-1.2v0l.1.1Z" fill="#d17100" fill-rule="evenodd" stroke-width="0"/><path d="M420.9,300.9c.6.4,1,.8,1,1.2v0c0,1-1.6,1.8-4.8,2.5-.6.1-1.3.2-2.1.4-2.6.4-5.7.7-9.2.7h-.1c-1.4,0-2.7,0-4-.1-1.9-.1-3.7-.3-5.4-.6-.3,0-.6,0-.9-.1c0-.6-.3-1.1-.5-1.5-.4-.6-1-1.1-1.8-1.5v0c.4,0,.8.2,1.2.3.4,0,.7.2,1.1.2.3,0,.6.1.9.2c1.6.3,3.4.5,5.4.6c1.3,0,2.6.1,4,.1c3.2,0,6-.2,8.5-.5c1.1-.1,2-.3,2.9-.5c1.8-.4,3-.8,3.8-1.3v0-.1Z" fill="#d17100" fill-rule="evenodd" stroke-width="0"/><path d="M420.9,306.6c.6.4,1,.8,1,1.2v0c0,.3-.1.5-.4.8-.6.6-2.1,1.2-4.4,1.7-.6.2-1.3.3-2.1.5-2.6.4-5.7.6-9.2.6h-.1c-3.5,0-6.6-.2-9.4-.6-.3,0-.6-.1-.9-.2v-2.4c2.9.5,6.3.8,10.3.8s6-.2,8.5-.5c1.1-.1,2-.3,2.9-.5.1,0,.3,0,.4-.1c1.6-.4,2.7-.8,3.4-1.2v0-.1Z" fill="#d17100" fill-rule="evenodd" stroke-width="0"/><path d="M393.1,307.6c0,.6-.8,1.2-2.1,1.7-.4.2-.9.3-1.4.5-.4.1-.8.2-1.2.3-.6.1-1.3.3-2.1.4-2.6.4-5.7.6-9.2.6h-.1c-.9,0-1.8,0-2.7,0-2.5,0-4.7-.3-6.7-.5-.7-.1-1.4-.3-2-.4-1-.2-1.9-.5-2.6-.8-.3-.1-.6-.2-.8-.4-.8-.4-1.2-.8-1.3-1.3v-.3c0-.4.4-.8.9-1.1.3.2.6.3,1,.5c0,0,0,0,0,0c.7.3,1.6.5,2.7.8c2.7.6,5.9.9,9.5,1c.6,0,1.3,0,1.9,0c3.2,0,6-.2,8.5-.5c1.1-.1,2-.3,2.9-.5.5-.1,1-.2,1.4-.4.5-.1.9-.3,1.2-.4.5-.2.9-.4,1.1-.5.6.4,1,.8,1,1.2v0c0,.1,0,.1,0,.1h.1Z" fill="#d17100" fill-rule="evenodd" stroke-width="0"/><path d="M392.1,312.1c.6.4,1,.8,1,1.2v0c0,.5-.5.9-1.2,1.3v0c-.8.4-2,.8-3.5,1.1-.6.2-1.3.3-2.1.4-2.6.4-5.7.6-9.2.6h-.1c-3.5,0-6.6-.2-9.4-.6-.7-.1-1.4-.2-2-.4-1.4-.3-2.5-.6-3.3-1-.6-.3-1-.5-1.2-.8-.1-.2-.2-.3-.2-.5v-.2c0-.4.4-.8.9-1.1.8.5,2,.9,3.8,1.3c3.1.7,7,1,11.4,1s6-.2,8.5-.5c.3,0,.7-.1,1-.2.6,0,1.1-.2,1.7-.3c0,0,.2,0,.3,0c1.1-.2,2-.5,2.6-.8.5-.2.8-.4,1.1-.6v0l-.1.1Z" fill="#d17100" fill-rule="evenodd" stroke-width="0"/><path d="M393.1,301.9c0,.6-.8,1.2-2.2,1.7-.4.2-.9.3-1.4.5-.4.1-.8.2-1.2.3-.6.2-1.3.3-2.1.4-2.6.4-5.7.6-9.2.6h-.1c-1.4,0-2.7,0-4-.1-1.9-.1-3.7-.3-5.4-.5-.7-.1-1.4-.2-2-.4-.2,0-.5-.1-.7-.2-2.6-.6-4-1.4-4.1-2.2v-.3c.1-.9,1.7-1.7,4.8-2.4s7-1,11.4-1s8.2.4,11.4,1c.4.1.8.2,1.2.3c2.4.6,3.5,1.4,3.5,2.2v0c0,0,0,0,0,0l.1.1Z" fill="#ffdc78" fill-rule="evenodd" stroke-width="0"/><path d="M421.9,273.1c0,1-1.6,1.8-4.8,2.5-.6.2-1.3.3-2.1.4-.9.2-1.9.3-2.9.4-1.9.2-4,.3-6.3.3h-.1c-3.5,0-6.6-.2-9.4-.7-.7,0-1.4-.2-2-.4-3-.6-4.6-1.4-4.8-2.3v-.2c.1-1,1.7-1.8,4.8-2.5s7-1,11.4-1s3.9,0,5.7.2c2.1.2,4,.4,5.7.8c3.2.7,4.8,1.5,4.8,2.5v0Z" fill="#ffdc78" fill-rule="evenodd" stroke-width="0"/><path d="M411.8,271.5c-1.7-.3-3.6-.4-5.7-.4s-5.2.2-7.2.7c-2,.4-2.9.9-2.9,1.5s1,1.2,2.9,1.6c2,.4,4.4.6,7.2.6s4.3-.1,6.1-.4c.4,0,.8-.1,1.1-.2c2-.5,2.9-1,2.9-1.6s-1-1.1-2.9-1.5c-.5-.1-1-.2-1.5-.3v0Z" fill="#ffdc78" fill-rule="evenodd" stroke-width="0"/><path d="M367.1,301.9c0,.6,1,1.2,2.9,1.6c2,.4,4.4.6,7.2.6s5.2-.2,7.2-.6c2-.5,2.9-1,2.9-1.6s-1-1.1-2.9-1.6c-2-.4-4.4-.6-7.2-.6s-5.2.2-7.2.6-2.9,1-2.9,1.6Z" fill="#ffdc78" fill-rule="evenodd" stroke-width="0"/><path d="M393.1,304.3v-2.4c.8.4,1.4.8,1.8,1.5.3.4.5.9.5,1.5-.4-.1-.8-.2-1.1-.2-.4-.1-.8-.2-1.2-.3v0-.1Z" fill="#8e563c" fill-rule="evenodd" stroke-width="0"/><path d="M395.5,310.6c-.4,0-.8-.2-1.1-.3-.4,0-.8-.2-1.2-.3v-2.4c.4.1.8.2,1.2.3v0c.4,0,.7.2,1.1.2v2.4v0v.1Z" fill="#8e563c" fill-rule="evenodd" stroke-width="0"/><path d="M393.1,307.6v0c0-.5-.3-.9-1-1.2.6-.4,1-.8,1-1.2v-.9c.4.1.8.2,1.2.3.4,0,.7.1,1.1.2v3.4c-.4,0-.7-.1-1.1-.2v0c-.4-.1-.8-.2-1.2-.3v0c0,0,0,0,0,0v-.1Z" fill="#e58525" fill-rule="evenodd" stroke-width="0"/><path d="M393.1,313.4c0-.4-.3-.9-1-1.2.6-.4,1-.8,1-1.2v-.9c.4.1.8.2,1.2.3s.7.2,1.1.3v3.4c-.4,0-.8-.2-1.1-.2-.4-.1-.8-.2-1.2-.3v0c0,0,0,0,0,0v-.2Z" fill="#e58525" fill-rule="evenodd" stroke-width="0"/><polygon points="376.1,144.4 376.1,146.2 381.8,147.2 381.6,152.1 348.6,145.9 348.6,140.2 367.7,144.4 367.7,142.7 367.9,142.6 376.1,144.4 376.1,144.4" fill="#dbdfff" fill-rule="evenodd" stroke-width="0"/><polygon points="365.1,143 357.7,141.4 357.7,140.2 365.1,141.7 365.1,143" fill="#dbdfff" fill-rule="evenodd" stroke-width="0"/><path d="M328.1,261h-.4c-.3.1-.5.2-.6.2c3.7.8,8.9,1.8,15.5,3.2-.8,1.3-1.4,2.9-1.9,4.6l-12.2-2.5c-.2,0-.3.1-.5.2l.2,2.3h-1c0,0,12.9,2.7,12.9,2.7c0,.4-.2.8-.2,1.2-.2,1-.3,1.9-.4,2.8-.1.1-.2.2-.3.4c0,.1-.2.2-.2.4l-10.4-2.1h-.5c0-.1.2,2.7.2,2.7l1.2.3-12.8-2.3v-47.6c0,0,0-1.6,0-1.6v-79.8c0,0,45.9,9.2,45.9,9.2v23.1c0,0-33.8-6.9-33.8-6.9l-.7-.2c0,1.1.1,2,.2,2.5l-.4-.2c0,.2-.2.3-.4.2.3.2.8.4,1.4.5s1.1.2,1.4.3c3.2.6,8.6,1.8,16.2,3.3c6.9,1.4,12.3,2.5,16.2,3.3v5l-34-7h-.5c0,.6.1,1.4.2,2.3l-.8.2h-.2c0,0-.1,0-.1,0c.6.2,6.6,1.4,17.9,3.8c11.3,2.3,17.1,3.5,17.5,3.5v5c0,0-.2,0-.5,0l-34-6.8.3,2.3-.7-.2-.3.4c9.4,1.9,16.5,3.4,21.5,4.4c8.9,1.9,13.6,2.7,14,2.5h.4c0,0-.5,5.3-.5,5.3l-33.3-6.8h-.5c0-.1-.2-.1-.2-.1s-.1,0-.2,0c-.2,0-.3,0-.5-.1.1,1,.2,1.8.2,2.5h-.5c0-.1-.4.1-.4.1.4.2,6.2,1.5,17.5,3.8c11.1,2.3,17.1,3.5,17.8,3.6v5c0,0-34-7-34-7h-.5c0,0,0,.5.1,1.2c0,.5,0,.9.1,1.3-.3,0-.6,0-1,.2.5.1,6.3,1.4,17.5,3.7c11.4,2.4,17.3,3.6,17.9,3.6v4.9c0,0-.3,0-.3,0l-33.8-6.9v2.5c-.3,0-.6,0-1.1,0c.3.2,4.5,1.2,12.7,2.9c9.8,2,16.4,3.4,19.8,4.1.7.2,1.2.3,1.5.3s.7,0,1.1,0v0c0,0,0,5.2,0,5.2l-34-6.9h-.5c.1,1.4.2,2.3.2,2.4h-1.1c.4.2,4.7,1.2,13.1,2.9c9.9,2.1,16.5,3.4,19.9,4.1.6.1,1,.2,1.3.2.5.1.9.2,1.3.2v5.1c0,0-34-7-34-7h-.5c0,.9.1,1.7.2,2.4-.2,0-.5,0-.9.2c1,.3,12,2.6,33.1,6.9.6.1,1,.2,1.1.2.4,0,.8.1,1.1.2l-.2,5-33.9-7v2.5l-.7-.2c0,.2-.2.3-.4.2v.2c.4.1.9.2,1.4.4.6.1,1,.2,1.4.3c14.4,2.9,22.6,4.6,24.8,5.1.7.2,1.9.4,3.7.8c1.6.3,2.9.6,3.8.8v3.9c0,0-.2.1-.2.1-.5.2-.9.4-1.4.6l-32.5-6.6h-.5c0,.5.1,1.3.2,2.4h-.9c0,0-.2,0-.2,0c.4.2.8.3,1.4.4s1,.2,1.4.3c6.7,1.4,15.7,3.2,27,5.6-1,.5-1.9,1.1-2.8,1.7l-.5-.3c-.4-.2-.8-.4-1.2-.7-1.6-.9-3.3-1.4-5.1-1.7-1.1,0-2.2,0-3.3.3-.3,0-.5.2-.8.2-1,.3-1.7.9-2.1,1.9c0,.1,0,.2-.1.3l-12.3-2.5-.5-.2c0,1,.1,1.9.1,2.6h-.2c0,0-.3-.2-.3-.2l-.3.5c.8.2,1.9.4,3.3.7c1.6.3,2.7.6,3.3.7l6.6,1.3c0,.8.2,1.6.5,2.4.4,1,.9,2,1.4,3l-13.8-2.8h-.7c0,0,.1,2.4.1,2.4v0l-.5-.2Z" fill="#dbdfff" fill-rule="evenodd" stroke-width="0"/><path d="M344.2,261.8c1.1-1.4,2.2-2.6,3.1-3.5.1-.1.2-.2.3-.3-1.2,1.1-2.3,2.4-3.4,3.8v0c0,0,0,0,0,0Z" fill="#dbdfff" fill-rule="evenodd" stroke-width="0"/><polygon points="335.4,143.4 335.4,137.8 341.2,138.9 341.2,137.9 345.5,138.8 345.5,139.6 347.3,140 347.3,145.7 335.4,143.4 335.4,143.4" fill="#dbdfff" fill-rule="evenodd" stroke-width="0"/><path d="M326.6,160.9c.2.1.4.2.5.4.2.1.3.3.4.5s0,.4,0,.6v0c0,.3,0,.5,0,.6c0,.2-.1.3-.3.4-.1,0-.2.1-.4.2-.2,0-.5,0-.8,0l-1.3-.2v-2.8l1,.2c.4,0,.6.2.9.3v-.2Z" fill="#dbdfff" fill-rule="evenodd" stroke-width="0"/><path d="M326.8,156.6l.2.5v.6c0,0,0,.5,0,.5c0,.1,0,.2-.2.2v0c0,.2-.1.2-.2.2-.2,0-.4,0-.7,0v0c0,0-1-.2-1-.2v-2.5h.7c.3.2.6.3.7.4v0c.2,0,.3.1.4.3c0,0,0,0,0,0v0h.1Z" fill="#dbdfff" fill-rule="evenodd" stroke-width="0"/><path d="M325.8,154.2l-2.5-.5c-.3,0-.5,0-.6.2-.2,0-.3.3-.4.6v9.6c0,.3,0,.4.3.6.2.2.3.3.5.3l3.8.7v0c.4,0,.7,0,1-.1.3,0,.6-.1.9-.2.3-.2.5-.4.7-.6s.4-.5.5-.9c.1-.3.1-.7,0-1.1c0-.4,0-.7,0-1.1-.2-.3-.3-.6-.5-.9s-.4-.5-.7-.7c-.1,0-.3-.2-.4-.3c0,0,.1,0,.2-.1.2-.1.4-.3.5-.6.1-.2.2-.4.4-.6c0-.2,0-.5,0-.8c0-.5,0-.9-.3-1.3-.1-.4-.3-.7-.6-1s-.7-.6-1.1-.8-1-.3-1.7-.4v0Z" fill="#dbdfff" fill-rule="evenodd" stroke-width="0"/><polygon points="336.4,162.8 334,162.3 335.2,158.6 336.4,162.8 336.4,162.8" fill="#dbdfff" fill-rule="evenodd" stroke-width="0"/><path d="M336.9,156.6v0c0,0,0-.3,0-.3c0-.1-.2-.2-.3-.3l-.4-.2-1.4-.2v0c0,0-.4,0-.4,0v0c0,0-.2,0-.3.2h-.1c0,.1,0,.4,0,.4v0c0,0-3.2,9.2-3.2,9.2v.6c-.1.1-.1.2,0,.3c0,.1.2.2.4.2l1.4.2v0c.1,0,.2,0,.3-.2c0,0,0,0,.1-.1c0,0,0-.2,0-.3l.6-1.8l3.5.7.7,2.5h.2c0,.1,1.6.5,1.6.5v0c0,0,.4,0,.4,0s0,0,.1-.1c.2,0,.2-.2.1-.5l-3.3-10.8v0Z" fill="#dbdfff" fill-rule="evenodd" stroke-width="0"/><path d="M349.3,158.4l-.9-.2h-.4c-.1,0-.2.1-.2.2c0,0,0,0-.1.1v6.9l-3.2-7.2v0c0,0-.3-.5-.3-.5l-.4-.2v0l-1.6-.4c-.3,0-.5,0-.7.1v0c-.2.1-.3.4-.3.7v10.1l.2.2c0,0,0,0,0,0l.7.2v0c0,0,.8,0,.8,0s.1,0,.3-.2c0-.1.1-.2.1-.3v-7.3c0,0,3.4,7.8,3.4,7.8v0c0,0,.3.5.3.5s0,0,0,.1c.1,0,.2.2.4.2l1.4.3v0c0,0,.3,0,.3,0s0,0,0,0h.3c0,0,0-.1,0-.2l.2-.2c0,0,0,0,0-.1v-.4c0,0,0-9.9,0-9.9v-.2c0,0,0,0,0,0l-.2-.2v0c0,0-.3-.1-.3-.1v0c0,0,0,0,0,0l.2.2Z" fill="#dbdfff" fill-rule="evenodd" stroke-width="0"/><path d="M357.3,159.8c0,0,0,0-.2,0c0,0,0,0,0,.1l-.2.2v0c0,0-2.6,3.8-2.6,3.8v-4.5c0,0-.1,0-.1,0h-.2c0,0-.3-.3-.3-.3l-1-.2h-.4c0,0-.2,0-.3.2c0,0,0,0,0,0c0,.2-.1.3-.1.4v10.3c0,0,0,0,0,0v.2c0,0,0,0,0,0v.2c0,0,.2,0,.2,0l.8.3h.9c0,0,0,0,0,0s.1,0,.2-.1c0,0,0,0,0-.1c0,0,.1-.1.1-.2v-4.4l2.6,5.1v0c0,0,.2.2.2.2c0,.1.2.2.4.3l.7.2h.9c.1,0,.2,0,.3-.2c0,0,.1,0,.1,0v-.5l-.2-.6v0c0,0-3-5.5-3-5.5l2.6-3.3v0l.2-.5v0c0,0,0-.4,0-.4v0c0,0,0-.2,0-.2v0c0,0-.5-.4-.5-.4s0,0,0,0l-1-.2v0c0,0-.3,0-.3,0v0l.2.1Z" fill="#dbdfff" fill-rule="evenodd" stroke-width="0"/><path d="M347.7,258.1c0,0-.2.2-.3.3-1,.9-2,2-3.1,3.5c0,0-.1.2-.2.3l-.7-1.7c-.1-.4-.4-1-.8-1.9-.3-.6-.4-1.3-.5-2.2c0-.1,0-.3,0-.4v-.8c1.6-.3,2.9-.4,3.7-.2.9.2,2,.8,3.4,1.9v0c0,0-.1.2-.1.2s-.2.2-.4.3c-.1.1-.2.2-.4.4-.1.1-.2.2-.4.3h-.1c0,.1,0,.1,0,.1l-.1-.1Z" fill="#dd2b78" fill-rule="evenodd" stroke-width="0"/><path d="M373.1,262.4c-1.6-1.2-3.7-2.1-6.1-2.8-1.4-.4-3-.7-4.7-1c1.3,0,2.6,0,3.9,0c1.2.1,2.3.3,3.5.6.9.2,1.9.5,2.8.8.2.8.5,1.6.7,2.3v0l-.1.1Z" fill="#dd2b78" fill-rule="evenodd" stroke-width="0"/><path d="M360.4,269.9c0,.8-.3,1.5-.9,2-.4.4-.7.6-1.2.7-.3.1-.6.2-1,.2-.8,0-1.5-.3-2-.8c0,0,0,0-.1-.1-.6-.6-.9-1.3-.9-2.2s.3-1.6.9-2.2c.2-.1.3-.3.5-.4s.4-.2.6-.3c.3-.1.7-.2,1-.2.6,0,1.1.1,1.6.4-.2,0-.5-.1-.7-.1s-.5,0-.7.1c-.2,0-.4.2-.6.3-.1,0-.2.2-.3.2-.4.4-.7,1-.7,1.6s.2,1.2.7,1.6s1,.7,1.6.7s1.2-.2,1.6-.7.5-.6.6-1v0v.2Z" fill="#dd2b78" fill-rule="evenodd" stroke-width="0"/><path d="M330.1,162.7c0-.4,0-.7,0-1-.2-.3-.3-.7-.5-.9-.2-.3-.4-.5-.7-.7-.1,0-.3-.2-.4-.3c0,0,.1,0,.2-.1.2-.1.4-.3.5-.5s.2-.4.4-.6c0-.2,0-.5,0-.8c0-.5,0-.9-.3-1.3-.1-.4-.3-.7-.6-1s-.7-.6-1.1-.8c-.5-.2-1-.3-1.7-.4v0c0,0-2.5-.5-2.5-.5-.3,0-.5,0-.6.2-.2,0-.3.3-.3.6v9.6c0,.2,0,.5.3.6.2.2.3.3.5.3l3.8.7v0c.4,0,.7,0,1-.1.3,0,.6-.1.9-.2.3-.2.5-.4.7-.6s.3-.5.5-.9c.1-.3.1-.7,0-1.1l-.1-.2Zm-5.3-6.7h.7c.3.2.6.3.7.4v0c.2,0,.3.1.4.3c0,0,0,0,0,0l.2.5v.6c0,0,0,.5,0,.5c0,.1,0,.2-.2.2v0c0,.2-.1.2-.2.2-.2,0-.4,0-.7,0v0c0,0-1-.2-1-.2v-2.5h.1Zm2.8,6.5c0,.2,0,.4,0,.6s-.1.3-.3.3-.2.1-.4.2c-.2,0-.5,0-.8,0l-1.3-.2v-2.8l1,.2c.4,0,.6.1.9.3.2,0,.4.2.5.4.2.1.3.3.3.5s0,.4,0,.6v0l.1-.1Z" fill="#dd2b78" fill-rule="evenodd" stroke-width="0"/><path d="M357.3,159.8h.3c0,0,0,0,0,0l1,.2c0,0,0,0,0,0l.5.3v0c0,0,0,.2,0,.2v0c0,0,0,.4,0,.4v0c0,0-.2.6-.2.6v0l-2.6,3.3l3,5.4v0c0,0,.2.6.2.6v.5c0,0,0,0-.1,0c0,.1-.2.2-.3.2v0c0,0-.9,0-.9,0l-.7-.2c-.2,0-.3-.1-.4-.3l-.2-.2v0c0,0-2.6-5.2-2.6-5.2v4.4c0,0,0,.1-.1.2c0,0,0,0,0,.1c0,0-.1.1-.2.1c0,0,0,0,0,0h-.9c0,0-.8-.4-.8-.4v0c0,0,0-.2,0-.2s0,0,0,0v-.2c0,0,0,0,0,0v-10.3c0-.1,0-.2.1-.4c0,0,0,0,0,0c.1-.1.2-.1.3-.1h.4c0,0,1,.1,1,.1l.3.2h.2c0,.1,0,.2,0,.2v.2c0,0,0,4.3,0,4.3l2.6-3.7v0c0,0,.2-.2.2-.2s0,0,0-.1c.1,0,.2,0,.2,0v0h-.3Z" fill="#dd2b78" fill-rule="evenodd" stroke-width="0"/><path d="M349.3,158.4v0c0,0,.3,0,.3,0v0c0,0,.2.2.2.2v0c0,0,0,.2,0,.2v10.3c0,0-.1,0-.2.1l-.2.2c0,0,0,0,0,0h-.3c0,0,0,0,0,0h-.3c0,0,0,0,0,0l-1.4-.3c-.1,0-.2-.2-.4-.2c0,0,0,0,0-.1l-.3-.5v0c0,0-3.4-7.8-3.4-7.8v7.3c0,0,0,.2,0,.3-.1.1-.2.2-.3.2h-.9c0,0-.7-.2-.7-.2s0,0,0,0l-.2-.2v-10.1c0-.4,0-.6.3-.7v0c.2-.2.4-.2.7-.1l1.6.4v0l.4.2.3.5v0c0,0,3.2,7.3,3.2,7.3v-6.9c0,0,0,0,.1-.1c0,0,.1-.1.2-.2h.4l.9.2v0Z" fill="#dd2b78" fill-rule="evenodd" stroke-width="0"/><path d="M340.2,167.4l-3.3-10.8v0c0,0,0,0,0,0v-.2c-.1-.1-.2-.2-.4-.3l-.4-.2-1.4-.2v0c0,0-.4,0-.4,0v0c0,0-.2,0-.3.2h-.1c0,.1,0,.4,0,.4v0c0,0-3.2,9.2-3.2,9.2v.5c-.1,0-.1.2,0,.3c0,0,.2.2.4.2l1.4.2v0c0,0,.2-.1.3-.2c0,0,0,0,.1-.1c0,0,0-.2,0-.3l.6-1.8l3.5.7.7,2.5h.2c0,.1,1.6.5,1.6.5v0c0,0,.4,0,.4,0h.1c.2-.2.2-.4.1-.6h.1Zm-6.2-5.1l1.2-3.7l1.2,4.1-2.4-.4Z" fill="#dd2b78" stroke-width="0"/><path d="M344,269.7c-.4-.5-.5-1.1-.5-1.8s.3-1.6.9-2.2c.3-.3.7-.6,1.1-.7.3-.1.7-.2,1-.2s.2,0,.3,0h.7c.4.3.8.5,1.1.8v0c.6.7.9,1.4.9,2.2s-.3,1.6-.9,2.2c-.2.2-.4.3-.5.5-.5.3-1,.5-1.6.5-.9,0-1.6-.3-2.2-.9-.1-.1-.2-.3-.4-.4v0h.1Z" fill="#dd2b78" fill-rule="evenodd" stroke-width="0"/><path d="M344.5,268c0,.6.2,1.2.7,1.6s.4.4.7.5l.9.2c.6,0,1.2-.2,1.6-.7s.7-1,.7-1.6-.2-1.2-.7-1.6-1-.7-1.6-.7-1.2.2-1.6.7-.7,1-.7,1.6Z" fill="#dd2b78" fill-rule="evenodd" stroke-width="0"/><path d="M375.4,258.7c0,0,.1.2.2.2c0,0,.3.2.6.4c1.7.9,2.6,2.2,2.8,3.9c0,.4,0,.8,0,1.2c0,.5-.2,1-.4,1.4-.2.6-.6,1.1-1,1.5-.6.7-1.4,1.2-2.3,1.5.2-.9.4-1.8.5-2.6.1-.9.2-1.8.2-2.6c0-1.8-.2-3.4-.8-4.9v0h.2Z" fill="#b91a5f" fill-rule="evenodd" stroke-width="0"/><path d="M372.5,260c-.9-.3-1.8-.6-2.8-.8-1.1-.3-2.3-.5-3.5-.6-1.3,0-2.6,0-3.9,0c.3-.4.5-.8.8-1.2c1-1.3,2.1-2.1,3.2-2.4c1.4-.4,2.6,0,3.7,1.1c0,0,.2.2.2.3.6.7,1.1,1.5,1.6,2.4.2.4.4.8.5,1.2v0h.2Z" fill="#b91a5f" fill-rule="evenodd" stroke-width="0"/><path d="M350.9,255.3c-.2.1-.5.3-.7.5-.4.3-.8.7-1.2,1.1v0c-1.4-1.2-2.6-1.8-3.4-1.9s-2.1,0-3.7.2v.8c0,.2,0,.3,0,.4c0,.8.2,1.6.5,2.2.4.8.6,1.5.8,1.9l.7,1.7-.2.2c-.1-.2-.2-.4-.4-.7-.9-1.5-1.5-3-2-4.3-.1-.4-.2-.8-.2-1.1c0-.1,0-.3,0-.4c0-.8.1-1.6.6-2.3c0-.1.1-.2.2-.3.9-1.3,2.2-1.5,4.1-.7s3.5,1.8,4.8,2.9v0c0,0,0,0,0,0l.1-.2Z" fill="#b91a5f" fill-rule="evenodd" stroke-width="0"/><path d="M346.3,280.2c0-.5.2-.9.5-1.2s.8-.4,1.2-.3c.5,0,.9.3,1.2.7s.5.9.5,1.4v.2c0,.4-.2.8-.5,1-.4.3-.8.4-1.2.3-.5,0-.9-.3-1.2-.7s-.5-.8-.5-1.2v-.2v0Z" fill="#b91a5f" fill-rule="evenodd" stroke-width="0"/><path d="M340,279.4v-.2c0-.4.2-.8.5-1c.3-.3.8-.4,1.2-.3.5,0,.9.3,1.2.7s.5.8.5,1.2v.2c0,.5-.2.9-.5,1.2-.2.1-.3.2-.5.2s-.5,0-.7,0c-.3,0-.5-.1-.7-.3-.2-.1-.4-.3-.5-.5-.4-.4-.5-.9-.5-1.4v0v.2Z" fill="#b91a5f" fill-rule="evenodd" stroke-width="0"/><path d="M348.6,140.2v6.4c0,.2,0,.3-.2.4-.1.1-.2.2-.4.2s-.3,0-.4-.2c-.1-.1-.2-.3-.2-.4v-25.3c0-.2,0-.3.2-.4.1-.1.2-.2.4-.2s.3,0,.4.2c.1,0,.2.2.2.4v18.9v0Z" fill="#00406b" fill-rule="evenodd" stroke-width="0"/><polygon points="376.1,146.2 376.1,144.4 381.6,143.5 381.6,145.3 376.1,146.2" fill="#abb1eb" fill-rule="evenodd" stroke-width="0"/><path d="M381.7,147.2l11-1.6v102.4c-.3-.1-.6-.3-.8-.4-.4-.2-1-.4-1.7-.7-.7-.2-1.2-.4-1.7-.5-.4-.1-.9-.2-1.3-.4-1.6-.4-3.2-.7-4.8-.8-.9-.1-1.8-.2-2.5-.2-.5,0-1.2,0-2,0-.4,0-.9,0-1.5,0-.4,0-.9,0-1.6.1-.6,0-1.5.2-2.5.4-.5.1-1.4.3-2.5.5-2,.5-4,1.1-5.8,1.8-.1,0-.2,0-.4,0l-1,.4v-3.9c0,0,.7-.4.7-.4l20.8-3.3v-2.4l-21.8,3.1.2-5h.9l-.6-.3l21.3-3.3v-2.5c0,0-21.6,3.1-21.6,3.1v-5.1c0,0,0,0,0,0s0,0,0-.1s0,0,0,0s0,0-.1,0l21.5-3.2v-2.4c0,0-21.5,3.1-21.5,3.1v-5.2c0,0,21.5-3.4,21.5-3.4v-2.4l-21.8,3.1h.3c0,0,0-5,0-5s0,0,.1,0c.2-.1.2-.2,0-.3l21.4-3.2v-2.5l-21.5,3.1v-5c0,0,.1,0,.1,0s.1-.2.1-.2l21.2-3.3v-2.4c0,0-21.4,3.1-21.4,3.1l.5-5.3l20.9-3.1v-2.6l-21.5,3v-4.9c0,0,0,0,.1,0c0,0,0-.1,0-.2l21.4-3.3v-2.3l-21.5,3.1v-5l.7-.3l20.8-3.3v-2.5c0,0-21.5,3.1-21.5,3.1v-23.1c0,0,21-3.3,21-3.3h-1.8c0,0,.2-4.8.2-4.8v0Z" fill="#abb1eb" fill-rule="evenodd" stroke-width="0"/><polygon points="365.1,141.7 368.7,141.2 368.8,142.5 367.7,142.7 365.1,143 365.1,141.7 365.1,141.7" fill="#abb1eb" fill-rule="evenodd" stroke-width="0"/><polygon points="348.6,139.3 348.6,138.4 353,137.8 353,138.8 348.6,139.3" fill="#abb1eb" fill-rule="evenodd" stroke-width="0"/><polygon points="347.4,139.4 345.5,139.6 345.5,138.8 347.4,138.6 347.4,139.4 347.4,139.4" fill="#abb1eb" fill-rule="evenodd" stroke-width="0"/><path d="M328.7,171.6l-.2,2.5h-.4c0-.7,0-1.5-.2-2.6l.7.2v0l.1-.1Z" fill="#abb1eb" fill-rule="evenodd" stroke-width="0"/><path d="M328.4,179.4v2.5c-.4,0-.7,0-1.1,0l.8-.2c0-.9-.1-1.7-.2-2.4h.5c0,0,0,0,0,0v.1Z" fill="#abb1eb" fill-rule="evenodd" stroke-width="0"/><path d="M328.8,195.3h.2c0,0-.5,0-.5,0v2.4c0,0-.4,0-.4,0c0-.7,0-1.6-.2-2.5.2,0,.4,0,.5.1c0,0,.1,0,.2,0h.2v0Z" fill="#abb1eb" fill-rule="evenodd" stroke-width="0"/><path d="M328.4,203.2v2.5h-.3c0-.4,0-.8-.1-1.3c0-.7,0-1.1-.1-1.3h.5q0,.1,0,.1Z" fill="#abb1eb" fill-rule="evenodd" stroke-width="0"/><path d="M328.4,221.5h-.3c0-.2,0-1.1-.2-2.6h.5v2.6v0Z" fill="#abb1eb" fill-rule="evenodd" stroke-width="0"/><path d="M328.4,226.9v2.5h-.4c0-.8,0-1.6-.2-2.6h.5c0,0,0,0,0,0l.1.1Z" fill="#abb1eb" fill-rule="evenodd" stroke-width="0"/><path d="M328.4,242.8v2.5h-.3c0-1.2-.1-2-.2-2.6h.5c0,0,0,0,0,0v.1Z" fill="#abb1eb" fill-rule="evenodd" stroke-width="0"/><path d="M328.5,250.7v2.5c0,0-.4,0-.4,0c0-.7,0-1.5-.1-2.6l.5.2v0-.1Z" fill="#abb1eb" fill-rule="evenodd" stroke-width="0"/><path d="M328.4,266.5v2.5h-.3c0,0-.2-2.4-.2-2.4.2,0,.3-.1.5-.2v0v.1Z" fill="#abb1eb" fill-rule="evenodd" stroke-width="0"/><polygon points="328.1,261 328,258.7 328.7,258.6 328.5,261.1 328.1,261 328.1,261" fill="#abb1eb" fill-rule="evenodd" stroke-width="0"/><path d="M329.4,277.4l-1.2-.3-.2-2.9h.5c0,.1,0,2.6,0,2.6c1.4.3,2.8.6,4.2.9c1.8.4,3.6.8,5.4,1.2l-8.8-1.5v0h.1Z" fill="#abb1eb" fill-rule="evenodd" stroke-width="0"/><polygon points="316.6,225.9 316.6,227.5 307.5,229 307.4,229 293.8,226.6 307.4,224.2 316.6,225.9 316.6,225.9" fill="#4eeef1" fill-rule="evenodd" stroke-width="0"/><polygon points="286.5,259.6 286.5,272 272.8,274.4 272.8,261.9 286.5,259.6 286.5,259.6" fill="#ffbd59" fill-rule="evenodd" stroke-width="0"/><polygon points="303.8,240.5 293.8,238.7 293.8,226.6 307.4,229 307.5,229 307.5,273.5 303.8,272.9 303.8,240.5" fill="#0d8e90" fill-rule="evenodd" stroke-width="0"/><polygon points="316.6,227.5 316.6,275.1 307.5,273.5 307.5,229 316.6,227.5" fill="#1fbcbf" fill-rule="evenodd" stroke-width="0"/><polygon points="290.2,242.8 290.2,271.3 286.5,272 286.5,259.6 276.5,257.8 276.5,240.4 290.2,242.8" fill="#cb2069" fill-rule="evenodd" stroke-width="0"/><polygon points="272.8,261.9 259.2,259.6 271.9,257.4 272.9,257.2 276.5,257.8 286.5,259.6 272.8,261.9" fill="#ffdb59" fill-rule="evenodd" stroke-width="0"/><polygon points="272.8,274.4 259.2,276.8 259.2,269.7 259.2,259.6 272.8,261.9 272.8,274.4" fill="#fd9c3c" fill-rule="evenodd" stroke-width="0"/><path d="M328.7,171.6l33.7,6.9l21.6-3.1v2.5c0,0-20.8,3.3-20.8,3.3l-34.7-7.1.2-2.5v0Zm33.8,14.8l21.5-3.1v2.3l-21.4,3.3-34.2-7v-2.5l34,7v0h.1Zm.6,10.5h-.4c0,0-34.4-7.1-34.4-7.1l-.3-2.3l34,6.8c.3,0,.4,0,.5,0v0c0,0,21.5-3.1,21.5-3.1v2.6l-20.9,3.1v0Zm-.6,5.3l21.5-3.1v2.4c0,0-21.2,3.3-21.2,3.3l-34.4-7.1v-2.4c0,0,.6,0,.6,0h.2c0,0,33.3,6.9,33.3,6.9v0Zm0,7.9L384,207v2.5l-21.4,3.2-34.2-7.1v-2.5l34.1,7v0Zm.3,26.4l-34.4-7.1v-2.5l34.1,7l21.6-3.1v2.5c0,0-21.3,3.3-21.3,3.3v0-.1ZM328.4,219l34,6.9l21.5-3.1v2.4c0,0-21.5,3.2-21.5,3.2l-34-7v-2.5v0v.1Zm0,23.8l32.5,6.6c-1.2.5-2.4,1.1-3.6,1.8l-28.8-5.9v-2.5v0h-.1Zm33.8-1l21.8-3.1v2.4l-20.8,3.3-34.8-7.1v-2.5l33.9,7v0h-.1Zm-33.8-28.2v-2.5l33.8,6.9l21.8-3.1v2.4l-21.6,3.4-34-7.2v0v.1Zm20.7,43.2c.4-.4.8-.7,1.2-1.1.2-.2.5-.3.7-.5-.3.2-.6.5-.9.7l-1,.8v0v.1Zm-6.3,7.2l-14.3-2.9.2-2.5l13.8,2.8c.3.5.6,1,.9,1.5l.5-.7.2-.2c0,0,.1-.2.2-.3v0c-.2.3-.4.6-.6.9-.3.4-.6.9-.9,1.4v0Zm-1.9-10.8c-.2.8-.4,1.6-.4,2.4l-12.1-2.5v-2.5c0,0,12.4,2.5,12.4,2.5v0l.1.1Zm-12.5,13.3l12.2,2.5c-.2.5-.3,1-.5,1.6c0,.3-.1.5-.2.8L328.3,269v-2.5v0h.1Zm9.7,12.5c-1.8-.4-3.6-.8-5.4-1.2-1.4-.3-2.8-.6-4.2-.9v-2.5c0,0,10.3,2.1,10.3,2.1-.3.5-.5,1.1-.7,1.8c0,.2,0,.4,0,.6v0v.1Z" fill="#1f2a38" fill-rule="evenodd" stroke-width="0"/><path d="M290.3,275.4h-.1c-1.4,0-2.7.1-3.7.3c0,0-.2,0-.2,0-1.1.2-1.6.5-1.6.7c0,.3.5.5,1.6.7c0,0,.1,0,.2,0c1,.1,2.3.2,3.7.2h.1c1.6,0,2.9,0,4-.3c1.1-.2,1.7-.5,1.7-.7s-.6-.5-1.7-.7-2.4-.3-4-.3v0v.1Zm48,5.4c0,.1,0,.3,0,.5.2,1,.6,1.9,1.1,2.7l-14.6,2.5-54.5-9.6l23.1-4.1l44.8,7.9v0l.1.1Zm-6,2.3c0-.3-.6-.5-1.7-.7s-2.5-.3-4-.3-2.9.1-4.1.3-1.7.5-1.7.7c0,.3.5.5,1.6.7s2.5.3,4.1.3s2.9-.1,4-.3s1.7-.5,1.7-.7v0h.1Zm-15.6-5.3c0,0,0,0-.1,0-2.5-.4-5.5-.6-9.1-.6v0c-1.3,0-2.5,0-3.6,0-2.1.1-3.9.3-5.5.6-2.5.4-3.8,1-3.8,1.6s1.3,1.2,3.8,1.6c1.1.2,2.2.3,3.5.4c1.7.1,3.6.2,5.7.2c3.6,0,6.6-.2,9.1-.6c0,0,0,0,0,0c2.5-.4,3.8-1,3.8-1.6s-.5-.7-1.4-1c-.6-.2-1.4-.4-2.4-.6v0Z" fill="#7dbf5c" fill-rule="evenodd" stroke-width="0"/><path d="M325.6,288.7l-67-11.9h.6c0-.1,13.6-2.5,13.6-2.5l13.6-2.4l3.7-.7l2.2-.4l11.4,2l3.6.6l9.1,1.6l12.8,2.3l8.8,1.5c0,.5,0,1.1.1,1.8l-44.8-7.9-23.1,4.1l54.5,9.6l14.6-2.5c.2.2.3.4.5.6.1.1.3.2.4.4c0,.2.1.4.2.6c0,.1,0,.3.1.5l-15.1,2.7v0h.2Zm-35.3-13.3c1.6,0,2.9,0,4,.3c1.1.2,1.7.5,1.7.7s-.6.5-1.7.7-2.4.3-4,.3h-.1c-1.5,0-2.7,0-3.7-.2c0,0-.2,0-.2,0-1.1-.2-1.7-.4-1.6-.7c0-.3.5-.5,1.6-.7c0,0,.2,0,.2,0c1.1-.2,2.3-.3,3.7-.3h.1v-.1Zm42,7.7c0,.3-.6.5-1.7.7s-2.5.3-4,.3-3-.1-4.1-.3-1.7-.4-1.6-.7c0-.3.6-.5,1.7-.7s2.5-.3,4.1-.3s2.9,0,4,.3c1.1.2,1.7.5,1.7.7v0h-.1Zm-15.6-5.3c1,.2,1.8.4,2.4.6.9.3,1.4.7,1.4,1c0,.6-1.3,1.2-3.8,1.6c0,0,0,0,0,0-2.5.4-5.5.6-9.1.6-2.1,0-4,0-5.7-.2-1.3-.1-2.4-.2-3.5-.4-2.5-.4-3.8-1-3.8-1.6s1.3-1.2,3.8-1.6c1.6-.3,3.5-.5,5.5-.6c1.1,0,2.4,0,3.6,0v0c3.6,0,6.6.2,9.1.6c0,0,0,0,.1,0v0Z" fill="#eee6bc" fill-rule="evenodd" stroke-width="0"/><path d="M325.6,301.7v5l-67-11.8v-5l67,11.8v0Zm0-2.1l-67-11.8v-4.5l67,11.8v4.5Zm0-6.5l-67-11.8v-4.4l67,11.9v4.4v0-.1Z" fill="#c9c29d" fill-rule="evenodd" stroke-width="0"/><path d="M258.6,283.3v-2.1l67,11.8v2.1l-67-11.8v0Zm0,4.5l67,11.8v2.1l-67-11.8v-2.1v0Z" fill="#b2aa81" fill-rule="evenodd" stroke-width="0"/><path d="M325.6,293.1v0c0,0,16.8-3,16.8-3c.3.5.6,1.1,1,1.8c0,0,0,0,0,.1l-17.8,3.2v-2.1v0Zm22.3,4.7l-22.3,3.9v-2.1l20.7-3.6c.5.6,1.1,1.2,1.6,1.8v0Z" fill="#807a5d" fill-rule="evenodd" stroke-width="0"/><path d="M342.4,290.1l-16.8,3v-4.4l15.1-2.7c.2.9.6,1.8,1,2.8.2.4.4.8.6,1.3v0h.1Zm3.9,5.9l-20.7,3.6v-4.5l17.8-3.2c.3.5.5.8.7,1c.3.5.5.9.8,1.2.4.6.9,1.2,1.4,1.8v0v.1Zm-20.7,10.7v-5l22.3-3.9c.7.7,1.4,1.3,2.2,1.9c0,0,.1.1.3.3.1.1.2.2.3.2v2.1c0,0-25.1,4.4-25.1,4.4v0Z" fill="#908a6d" fill-rule="evenodd" stroke-width="0"/><path d="M392.7,248.1c.7.3,1.5.7,2.5,1.1c3.1,1.6,5.9,3.6,8.1,6c1.3,1.3,2.3,2.5,3.1,3.7c2,2.6,3.4,5.5,4.4,8.7.2.7.4,1.5.6,2.2-1.8-.1-3.6-.2-5.7-.2-4.5,0-8.3.3-11.4,1s-4.6,1.5-4.8,2.5v3.5c0,.4.3.8.9,1.2-.6.3-.9.7-.9,1.1v3.5c0,.4.3.8.9,1.2-.6.4-.9.8-.9,1.2v3.5c0,.4.3.8.9,1.2-.6.3-.9.7-.9,1.1v3.5c0,.4.3.9.9,1.2-.6.4-.9.7-.9,1.1v3.4c-.4-.1-.8-.2-1.2-.3-3.1-.7-6.9-1-11.4-1s-8.3.4-11.4,1c-3.1.7-4.6,1.5-4.8,2.4v3.5c0,.3.2.7.7,1c0,0-.1,0-.2,0-.5-.2-1-.4-1.4-.7c0,0,0,0-.1,0-.5-.2-1-.5-1.5-.7s-1-.5-1.5-.8c-.3-.2-.6-.4-.9-.5l-.6-.3c-.5-.3-1-.6-1.5-.9-.2,0-.3-.2-.5-.3-.3-.2-.7-.4-1-.6-.5-.3-1-.6-1.5-1c0,0-.2-.1-.3-.2-.2-.2-.3-.2-.3-.3-.7-.6-1.5-1.2-2.2-1.9-.5-.6-1.1-1.2-1.6-1.8-.5-.5-.9-1.1-1.4-1.8-.3-.3-.6-.7-.8-1.2-.1-.2-.4-.6-.7-1c0,0,0,0,0-.1-.4-.6-.7-1.2-1-1.8-.2-.5-.5-.9-.6-1.3-.4-1-.8-1.9-1-2.8c0-.1,0-.3-.1-.5c0-.2-.1-.4-.2-.6.4.4.8.7,1.2.9s.8.4,1.2.6c1,.4,2.3.4,3.8,0c.1,0,.2,0,.4-.1l2.6-.5c1.1-.2,2-.5,2.8-.8.1,0,.2-.1.4-.2.7-.3,1.3-.7,1.8-1.3.1-.2.3-.3.4-.5.2-.3.4-.6.6-1c.1-.2.2-.5.2-.7.1-.4.2-.9.2-1.3c0-1.1-.1-2.1-.6-3.1-.2-.3-.3-.5-.5-.7-1.2-1.2-2.7-1.5-4.4-1.1-1,.3-2,.2-2.9-.5-.6-.5-1.2-.7-1.9-.6l-4.6,1.1c-.2,0-.5,0-.7.2c0,0-.1,0-.2,0-.3.1-.5.3-.7.5c0-.9.2-1.9.4-2.8c0-.4.2-.8.2-1.2c0-.1,0-.2,0-.3c0-.3.1-.5.2-.8.1-.5.3-1.1.5-1.6.5-1.7,1.2-3.2,1.9-4.6c0-.1.1-.3.2-.4.3-.5.6-.9.9-1.4.2-.3.4-.6.6-.8c1.1-1.4,2.2-2.6,3.4-3.8h.1c.1-.2.3-.3.4-.4.2-.1.3-.3.4-.4.2-.1.3-.2.4-.3h.1c0-.1,1-.9,1-.9.3-.2.6-.5.9-.7l1.2,1l.6-.4c0,0,.1,0,.2-.1v0c.2-.2.3-.5.5-.7.1-.2.3-.4.4-.7.2-.3.2-.7.2-1.1h-.2c.9-.7,1.9-1.3,2.8-1.8.2-.1.4-.2.5-.3c1.2-.7,2.4-1.3,3.6-1.8.5-.2.9-.4,1.4-.6h.3c0-.1,1-.5,1-.5.1,0,.2,0,.4,0c1.9-.7,3.8-1.3,5.8-1.8c1.1-.2,2-.4,2.5-.5c1-.2,1.9-.4,2.5-.4.7,0,1.2-.1,1.6-.1.6,0,1.1,0,1.5,0c.9,0,1.5,0,2,0c.7,0,1.6,0,2.5.2c1.6.1,3.2.4,4.8.8.4.1.9.2,1.3.4.5,0,1,.2,1.7.5.8.3,1.3.5,1.7.7.2,0,.5.2.9.4v0l-.2-.9Zm-10.4-2.6c-.6,0-1.1,0-1.5,0-.6,0-1.4.1-2.3.3-3.4.6-6.6,1.7-9.6,3-.3.2-.7.3-1,.5l-.8.4c-.3.2-.4.4-.5.6.7.4,1.6.4,2.8-.2c1.5-.8,3.1-1.4,4.7-2s3.2-1,4.8-1.4c2-.4,3.9-.6,5.9-.7-.3,0-.6-.1-.9-.2-.5-.1-1-.2-1.6-.3v0Zm-15.7,8.1c-1.7.7-3.1,1.7-4.2,3.1-.2.2-.4.5-.5.8c0,0,0,0,0,0c0,.2-.2.3-.3.5l.7.5c1.7.2,3.3.6,4.7,1c2.4.7,4.5,1.6,6.1,2.8.1.5.3,1.1.4,1.6s.2,1,.3,1.5c0,.3.1.7.2,1c0,.5.1,1,.2,1.5l1.2.8c.9-.3,1.6-.8,2.3-1.5.5-.5.8-1,1-1.5.2-.4.3-.9.4-1.4c0-.4,0-.8,0-1.2-.2-1.6-1.1-2.9-2.8-3.9-.3-.2-.5-.3-.6-.4-.1,0-.2-.2-.2-.2c0-.1-.1-.2-.2-.3c0,0,0,0,0,0-.3-.6-.8-1.3-1.5-2c0-.1-.2-.2-.2-.3-.3-.4-.6-.6-.9-.8-.7-.6-1.4-1-2.1-1.3-1.3-.5-2.6-.6-3.9-.2v0l-.1-.1ZM359,267.1c-.5-.3-1-.4-1.6-.4s-.7,0-1,.2c-.2,0-.4.2-.6.3s-.4.2-.5.4c-.6.6-.9,1.4-.9,2.2s.3,1.6.9,2.2c0,0,0,0,.1.1.6.5,1.2.8,2,.8s.7,0,1-.2c.4-.1.8-.4,1.2-.7.6-.6.9-1.2.9-2c0-.2,0-.4,0-.6c0-.4-.1-.8-.3-1.2-.1-.1-.2-.3-.4-.4h-.1c-.2-.3-.5-.5-.8-.5v0l.1-.2Zm-15,2.6c.1.1.2.3.4.4.6.6,1.3.9,2.2.9s1.1-.1,1.6-.5c.2-.1.4-.3.5-.5.6-.6.9-1.3.9-2.2s-.3-1.6-.9-2.2v0c-.3-.4-.7-.6-1.1-.7h-.7c0-.2-.2-.2-.3-.2-.4,0-.7,0-1,.2-.4.1-.8.4-1.1.7-.6.6-.9,1.4-.9,2.2s.2,1.3.5,1.8v0l-.1.1Z" fill="url(#esOUr50uag7199-fill)" fill-rule="evenodd" stroke-width="0"/><path d="M382.3,245.5c.5.1,1.1.2,1.6.3.3,0,.6.1.9.2-2,.1-4,.4-5.9.7-1.6.4-3.2.8-4.8,1.4s-3.2,1.2-4.7,2c-1.1.6-2.1.6-2.8.2c0-.2.2-.4.5-.6l.8-.4c.3-.2.7-.3,1-.5c3-1.4,6.2-2.4,9.6-3c.9-.1,1.6-.2,2.3-.3.4,0,.9,0,1.5,0v0Z" fill="#8f5773" fill-rule="evenodd" stroke-width="0"/><path d="M343.9,262.3l-.5.7c-.3-.5-.6-1-.9-1.5-.5-1-1-2-1.4-3-.3-.8-.5-1.6-.5-2.4c0-.1,0-.3,0-.4c0-.8.1-1.6.4-2.4c0-.1,0-.2.1-.3.3-1,1-1.6,2.1-1.9c2.4,0,4.5.7,6.4,2.3.7.6,1.4,1.1,2.1,1.7.3.2.6.4.9.7.1,0,.3.2.4.2l-.6.4-1.2-1v0c-1.3-1.1-2.9-2.1-4.8-2.9s-3.3-.6-4.1.7c0,.1-.1.2-.2.3-.4.7-.6,1.5-.6,2.3c0,.1,0,.3,0,.5c0,.4.1.7.2,1.1.5,1.4,1.1,2.8,2,4.3.1.2.2.4.4.7v0l-.2-.1Zm18.5-3.7l-.7-.5c0-.2.2-.4.3-.5c0,0,0,0,0,0c.2-.3.4-.5.5-.8c1.1-1.4,2.5-2.4,4.2-3.1c2-.2,3.5.6,4.6,2.3c0,.1.2.3.2.4.5.7.9,1.5,1.3,2.4.5,1,.9,2.1,1.3,3.2.2.6.4,1.2.5,1.9.2.9.4,1.7.5,2.5s.2,1.7.3,2.5l-1.2-.8c0-.5-.1-1-.2-1.5c0-.4-.1-.7-.2-1c0-.5-.2-1-.3-1.5s-.2-1.1-.4-1.6c-.2-.8-.4-1.6-.7-2.3-.2-.4-.4-.8-.5-1.2-.5-.9-1-1.7-1.6-2.4c0,0-.2-.2-.2-.3-1-1.1-2.2-1.5-3.7-1.1-1.1.3-2.2,1.1-3.2,2.4-.3.4-.5.8-.8,1.2v0-.2Z" fill="#ffd4e6" fill-rule="evenodd" stroke-width="0"/><path d="M360.4,269.9c-.1.4-.3.7-.6,1-.4.4-1,.7-1.6.7s-1.2-.2-1.6-.7-.7-1-.7-1.6.2-1.2.7-1.6.2-.2.3-.2c.2-.1.4-.2.6-.3.2,0,.4-.1.7-.1s.5,0,.7.1c.3,0,.5.2.8.4h.1c.1.2.2.4.4.5.2.4.3.7.3,1.2s0,.4,0,.6v0h-.1Zm-13.5-3.2c-.2-.2-.4-.2-.6-.2s-.5,0-.7.2-.2.4-.2.7s0,.5.2.6c.2.2.4.3.7.3s.4,0,.6-.3c.2-.2.3-.4.3-.6s0-.5-.3-.7Zm-2.4,1.3c0-.6.2-1.2.7-1.6s1-.7,1.6-.7s1.2.2,1.6.7.7,1,.7,1.6-.2,1.2-.7,1.6-1,.7-1.6.7l-.9-.2c-.2-.1-.5-.3-.7-.5-.4-.4-.7-1-.7-1.6Zm12.1.2c-.2.2-.2.4-.2.7s0,.5.2.6c.2.2.4.3.7.3s.4,0,.6-.3c.2-.2.3-.4.3-.6s0-.5-.3-.7c-.2-.2-.4-.2-.6-.2s-.5,0-.7.2Z" fill="#87264f" fill-rule="evenodd" stroke-width="0"/><g id="esOUr50uag7203_to" transform="translate(399.400009,251.099998)"><g id="esOUr50uag7203_tr" transform="rotate(0)"><g id="esOUr50uag7203_ts" transform="scale(1,1)"><path d="M395.2,249.2l5-2.2c1.7.4,2.8,1.4,3.4,2.8l-.3,5.4c-2.3-2.4-5-4.4-8.1-6v0Z" transform="translate(-399.400009,-251.099998)" fill="url(#esOUr50uag7203-fill)" fill-rule="evenodd" stroke-width="0"/></g></g></g><path d="M350.7,302.2v-2.1c.4.4.9.7,1.4,1c.4.2.7.4,1,.6.2.1.3.2.5.3.5.3,1,.6,1.5.9l.6.3c.3.2.6.4.9.5.5.3,1,.5,1.5.8s1,.5,1.5.7c0,0,0,0,.1,0c.5.2,1,.5,1.4.7c0,0,.1,0,.2,0c0,0,.2.1.2.2-.6.3-.9.7-.9,1.1v2.9c0,0,0,0,0,0-.6,0-1.5.1-2.9.3-1.4.1-2.9,0-4.4-.2-1.4-.3-2.2-1-2.5-2.2v-1.3c0,0-.2-2.8-.2-2.8v-2c0,0,0,0,0,0l.1.3Z" fill="url(#esOUr50uag7204-fill)" fill-rule="evenodd" stroke-width="0"/><path d="M346.9,266.7c.2.2.3.4.3.7s0,.5-.3.6c-.2.2-.4.3-.6.3s-.5,0-.7-.3-.2-.4-.2-.6s0-.5.2-.7.4-.2.7-.2.4,0,.6.2Zm9.7,1.5c.2-.2.4-.2.7-.2s.4,0,.6.2.3.4.3.7s0,.5-.3.6c-.2.2-.4.3-.6.3s-.5,0-.7-.3-.2-.4-.2-.6s0-.5.2-.7Z" transform="translate(0-.250006)" fill="#ffdaea" fill-rule="evenodd" stroke-width="0"/><path d="M347,286.3c.4-.1.8-.2,1.2-.4.2,0,.4-.2.6-.3.5-.3,1-.7,1.4-1.3c0,0,.1-.1.2-.2.4-.5.6-1.1.8-1.7.1-.4.2-.8.2-1.1c0-.8,0-1.5-.2-2.2-.1-.3-.2-.7-.4-1-.1-.3-.3-.5-.5-.7-1.2-1.2-2.7-1.6-4.4-1.2-1,.3-1.9.2-2.6-.3c0,0-.2-.1-.3-.2-.6-.5-1.2-.7-1.9-.6l4.6-1.1c.7,0,1.3.2,1.9.6.9.7,1.9.8,2.9.5c1.7-.4,3.2,0,4.4,1.1.2.2.4.4.5.7.5,1,.7,2,.6,3.1c0,.4-.1.9-.2,1.3c0,.2-.1.5-.2.7-.1.3-.3.7-.6,1-.1.2-.3.4-.4.5-.5.6-1.1,1-1.8,1.3-.1,0-.2.1-.4.2-.8.3-1.7.6-2.8.8l-2.6.5v0Z" fill="url(#esOUr50uag7206-fill)" fill-rule="evenodd" stroke-width="0"/><path d="M340.4,284.9c-.1-.1-.3-.2-.4-.4-.2-.2-.4-.4-.5-.6-.6-.8-1-1.7-1.1-2.7c0-.2,0-.3,0-.5-.1-.8-.1-1.4-.1-1.8c0-.2,0-.5,0-.6.1-.6.4-1.2.7-1.8c0-.1.1-.2.2-.4.1-.1.2-.3.3-.4.2-.2.5-.4.7-.5c0,0,.1,0,.2,0c.3,0,.5-.1.7-.2.7,0,1.3.2,1.9.6.1,0,.2.1.3.2.8.5,1.7.6,2.6.3c1.7-.4,3.2,0,4.4,1.2.2.2.4.4.5.7.2.3.3.7.4,1c.2.7.3,1.5.2,2.2c0,.4-.1.8-.2,1.1-.2.6-.5,1.2-.8,1.7c0,0-.1.1-.2.2-.4.5-.9,1-1.4,1.3-.2.1-.4.2-.6.3-.4.2-.8.3-1.2.4-.1,0-.2,0-.4.1-1.5.4-2.8.4-3.8,0-.4-.2-.8-.4-1.2-.6-.4-.3-.8-.6-1.2-.9v0v.1Zm5.9-4.7v.2c0,.4.2.8.5,1.2s.8.7,1.2.7c.5,0,.9,0,1.2-.3s.5-.6.5-1v-.2c0-.5-.2-1-.5-1.4-.4-.4-.8-.7-1.2-.7-.5,0-.9,0-1.2.3-.4.3-.5.7-.5,1.2v0Zm-6.3-.8c0,.5.2,1,.5,1.4.1.2.3.4.5.5s.5.2.7.3c.2,0,.5,0,.7,0s.4-.1.5-.2c.3-.3.5-.7.5-1.2v-.2c0-.4-.2-.8-.5-1.2-.4-.4-.8-.7-1.2-.7-.5,0-.9,0-1.2.3s-.5.6-.5,1v.2v0-.2Z" fill="#ff9fc8" fill-rule="evenodd" stroke-width="0"/></g></svg>
