<svg id="eev4rcVJqPA1" xmlns="http://www.w3.org/2000/svg" xmlns:xlink="http://www.w3.org/1999/xlink" viewBox="0 0 425.17 431.36" shape-rendering="geometricPrecision" text-rendering="geometricPrecision">
<style><![CDATA[
#eev4rcVJqPA31_ts {animation: eev4rcVJqPA31_ts__ts 3000ms linear infinite normal forwards}@keyframes eev4rcVJqPA31_ts__ts { 0% {transform: translate(230.687515px,269.714973px) scale(1,1)} 23.333333% {transform: translate(230.687515px,269.714973px) scale(1.2,1.2)} 50% {transform: translate(230.687515px,269.714973px) scale(1,1)} 76.666667% {transform: translate(230.687515px,269.714973px) scale(1.2,1.2)} 100% {transform: translate(230.687515px,269.714973px) scale(1,1)}} #eev4rcVJqPA31 {animation: eev4rcVJqPA31_c_o 3000ms linear infinite normal forwards}@keyframes eev4rcVJqPA31_c_o { 0% {opacity: 0.5} 23.333333% {opacity: 1} 50% {opacity: 0.5} 76.666667% {opacity: 1} 100% {opacity: 0.5}} #eev4rcVJqPA115_to {animation: eev4rcVJqPA115_to__to 3000ms linear infinite normal forwards}@keyframes eev4rcVJqPA115_to__to { 0% {transform: translate(377.379944px,182.962494px)} 23.333333% {transform: translate(377.379944px,168.962494px)} 50% {transform: translate(377.379944px,204.15297px)} 50.333333% {transform: translate(377.379944px,205.375589px)} 76.666667% {transform: translate(377.379944px,160.962494px)} 100% {transform: translate(377.379944px,182.962494px)}} #eev4rcVJqPA126_tr {animation: eev4rcVJqPA126_tr__tr 3000ms linear infinite normal forwards}@keyframes eev4rcVJqPA126_tr__tr { 0% {transform: translate(342.132065px,140.212841px) rotate(-42.684192deg)} 23.333333% {transform: translate(342.132065px,140.212841px) rotate(-11.531407deg)} 50% {transform: translate(342.132065px,140.212841px) rotate(-49.513596deg)} 76.666667% {transform: translate(342.132065px,140.212841px) rotate(-11.531407deg)} 100% {transform: translate(342.132065px,140.212841px) rotate(-42.684192deg)}} #eev4rcVJqPA154_ts {animation: eev4rcVJqPA154_ts__ts 3000ms linear infinite normal forwards}@keyframes eev4rcVJqPA154_ts__ts { 0% {transform: translate(406.160004px,100.59px) scale(1,1)} 33.333333% {transform: translate(406.160004px,100.59px) scale(1.3,1.3)} 66.666667% {transform: translate(406.160004px,100.59px) scale(1,1)} 100% {transform: translate(406.160004px,100.59px) scale(1,1)}} #eev4rcVJqPA205_to {animation: eev4rcVJqPA205_to__to 3000ms linear infinite normal forwards}@keyframes eev4rcVJqPA205_to__to { 0% {transform: translate(308.95491px,312.4888px)} 13.333333% {transform: translate(308.95491px,312.4888px)} 36.666667% {transform: translate(308.95491px,261.4888px)} 60% {transform: translate(308.95491px,311.9888px)} 80% {transform: translate(308.95491px,279.4888px)} 100% {transform: translate(308.95491px,312.4888px)}} #eev4rcVJqPA247_to {animation: eev4rcVJqPA247_to__to 3000ms linear infinite normal forwards}@keyframes eev4rcVJqPA247_to__to { 0% {transform: translate(29.047696px,296.875221px)} 30% {transform: translate(29.047696px,296.875221px)} 43.333333% {transform: translate(29.047696px,273.875221px)} 63.333333% {transform: translate(29.047696px,315.875221px)} 83.333333% {transform: translate(29.047696px,273.875221px)} 100% {transform: translate(29.047696px,296.875221px)}} #eev4rcVJqPA253_to {animation: eev4rcVJqPA253_to__to 3000ms linear infinite normal forwards}@keyframes eev4rcVJqPA253_to__to { 0% {transform: translate(50.63632px,275.908356px)} 30% {transform: translate(50.63632px,275.908356px)} 56.666667% {transform: translate(46.63632px,275.908356px)} 100% {transform: translate(50.63632px,275.908356px)}} #eev4rcVJqPA253_tr {animation: eev4rcVJqPA253_tr__tr 3000ms linear infinite normal forwards}@keyframes eev4rcVJqPA253_tr__tr { 0% {transform: rotate(0deg)} 30% {transform: rotate(0deg)} 56.666667% {transform: rotate(-16.391132deg)} 100% {transform: rotate(0deg)}} #eev4rcVJqPA268_to {animation: eev4rcVJqPA268_to__to 3000ms linear infinite normal forwards}@keyframes eev4rcVJqPA268_to__to { 0% {transform: translate(16.468059px,286.924392px)} 30% {transform: translate(16.468059px,286.924392px)} 56.666667% {transform: translate(12.468059px,280.924392px)} 100% {transform: translate(16.468059px,286.924392px)}} #eev4rcVJqPA268_tr {animation: eev4rcVJqPA268_tr__tr 3000ms linear infinite normal forwards}@keyframes eev4rcVJqPA268_tr__tr { 0% {transform: rotate(31.777152deg)} 30% {transform: rotate(31.777152deg)} 56.666667% {transform: rotate(-4.253955deg)} 100% {transform: rotate(31.777152deg)}}
]]></style>
<g style="isolation:isolate"><g><g><g><g><path d="M41.29,106.01c.04-.36.07-.72.12-1.09.01-.1.03-.2.05-.3.02-.13.04-.27.07-.4.1-.57.21-1.15.34-1.72.02-.07.03-.14.04-.2.15-.62.32-1.25.51-1.87.04-.14.09-.29.13-.43.05-.16.1-.32.15-.49.1-.3.22-.61.33-.91.08-.23.16-.45.25-.68.21-.54.43-1.08.66-1.62.05-.11.09-.23.14-.34c0-.01.01-.03.02-.05.27-.61.57-1.21.87-1.81.09-.18.18-.35.27-.52.13-.26.26-.51.4-.77.11-.2.23-.4.35-.6.1-.17.2-.35.3-.52.34-.57.69-1.14,1.06-1.69.01-.02.02-.04.04-.06c0,0,0,0,0-.01.38-.57.78-1.13,1.19-1.68.12-.16.25-.33.37-.49.17-.22.33-.44.5-.66.12-.15.25-.29.37-.44.19-.23.39-.46.58-.69.28-.32.56-.63.85-.94.2-.22.4-.43.61-.64.09-.1.18-.2.27-.29.2-.2.41-.39.62-.58.22-.21.43-.42.65-.61.32-.28.64-.55.96-.82.21-.18.42-.36.64-.53.36-.28.73-.55,1.1-.81.18-.13.37-.27.55-.4.56-.38,1.13-.73,1.7-1.05l77.01-43.12c4.91-2.75,9.38-2.96,12.52-.96c1.24.79,4.92,3.23,4.92,3.23-3.16-1.96-7.6-1.79-12.52.96L63.27,82.53l-.26-.16.26.16c-.58.32-1.14.68-1.7,1.05-.19.13-.37.27-.55.4-.37.26-.74.52-1.1.81-.22.17-.43.35-.64.53-.32.27-.64.54-.96.82-.22.2-.44.41-.65.61-.3.28-.6.57-.89.87-.21.21-.41.42-.61.64-.29.31-.57.62-.85.94-.2.23-.39.46-.59.69-.3.36-.59.73-.88,1.1-.12.16-.25.32-.37.49-.41.56-.81,1.12-1.2,1.69-.01.02-.03.04-.04.06-.37.55-.72,1.12-1.06,1.69-.1.17-.2.35-.3.52-.26.45-.51.91-.75,1.36-.09.17-.19.35-.27.52-.31.61-.61,1.23-.89,1.86-.05.11-.1.23-.15.35-.23.54-.46,1.08-.66,1.62-.09.23-.16.46-.25.68-.17.46-.33.93-.48,1.4-.04.14-.09.29-.13.43-.19.63-.36,1.25-.51,1.87-.02.07-.03.13-.04.2-.13.58-.24,1.15-.34,1.73-.02.13-.05.27-.07.4-.07.47-.12.93-.17,1.39-.02.22-.05.44-.07.65-.05.66-.08,1.31-.08,1.96l.69,225.51c0,.3,0,.6.02.89c0,.09.01.18.02.27.01.2.03.4.04.6c0,.1.02.2.03.3.02.19.04.38.07.56.01.09.02.18.04.27c0,.04.01.08.02.12c0,.07.03.13.04.2.04.25.09.49.14.73.02.11.05.21.07.32.06.24.12.48.19.71.02.07.04.15.06.23.09.3.2.59.3.87.03.06.05.12.08.18.09.22.18.43.28.64.02.04.03.08.05.12.04.07.08.14.12.22s.08.16.13.24c.07.13.15.26.22.38.04.07.08.14.13.21.1.15.2.3.3.44.03.04.05.08.08.11.12.17.25.33.38.49c0,0,0,0,.02.02.2.24.42.46.64.67.05.05.11.1.16.15.23.21.46.4.71.59v0c.18.13.36.25.54.37l-4.92-3.23c-.18-.11-.36-.23-.54-.36c0,0,0,0,0,0-.24-.18-.48-.38-.7-.58-.05-.05-.11-.1-.16-.15-.22-.21-.43-.43-.64-.67c0,0,0,0,0-.01-.13-.16-.26-.32-.39-.49-.03-.03-.05-.07-.08-.11-.1-.14-.2-.29-.3-.44-.04-.07-.08-.14-.12-.21-.08-.13-.15-.25-.22-.38-.04-.08-.09-.16-.13-.24-.04-.07-.07-.14-.11-.21-.02-.04-.04-.08-.06-.12-.1-.21-.19-.42-.28-.64-.03-.06-.05-.12-.08-.18-.11-.28-.21-.58-.3-.87-.02-.08-.04-.15-.07-.23-.07-.23-.13-.47-.19-.71-.02-.1-.05-.21-.07-.32-.05-.24-.1-.48-.14-.72-.01-.07-.02-.13-.03-.2c0-.04-.01-.08-.02-.12-.01-.09-.03-.18-.04-.27-.03-.19-.05-.37-.07-.56c0-.1-.02-.2-.03-.3-.02-.2-.03-.4-.04-.6c0-.09-.01-.18-.02-.27-.01-.29-.02-.59-.02-.89v0l-.69-225.51c0-.64.03-1.3.08-1.95.02-.22.05-.44.07-.66l.01-.06Z" fill="#2d4383" stroke-width="0"/><path d="M63.31,82.53l77.01-43.12c9.56-5.35,17.34-.9,17.38,9.93l.69,225.51c.04,10.84-7.68,23.97-17.25,29.32L71.57,343.12l-7.44,4.17c-9.56,5.35-17.35.91-17.38-9.92l-.69-225.51c-.04-10.84,7.69-23.97,17.25-29.33Z" fill="#e8eeff" stroke-width="0"/><path d="M64.29,85.19L141.3,42.07c3.79-2.12,7.27-2.48,9.79-1c2.45,1.44,3.81,4.54,3.83,8.71l.69,225.51c.02,4.48-1.5,9.63-4.27,14.48-2.92,5.12-6.99,9.39-11.16,11.73L63.17,344.62c-3.79,2.12-7.27,2.48-9.79,1-2.45-1.44-3.81-4.53-3.83-8.71L48.86,111.4c-.02-4.48,1.5-9.63,4.28-14.49c2.92-5.12,6.99-9.39,11.16-11.73l-.01.01Z" fill="#2c4482" stroke-width="0"/><path d="M91.37,77.19l21.67-12.04c.44-.24.9.03.9.53c0,.2,0,.41,0,.63c0,.83-.49,1.64-1.21,2.04L91.06,80.39c-.44.24-.9-.03-.9-.53v-.61c0-.83.48-1.66,1.2-2.06h.01Z" fill="#4a70d5" stroke-width="0"/><path d="M92.65,308.9c.86-1.5,2.05-2.76,3.28-3.45l22.64-12.68c1.11-.62,2.14-.73,2.88-.29.72.42,1.12,1.33,1.12,2.56l-.23,3.14c0,1.32-.44,2.83-1.26,4.26-.86,1.51-2.06,2.76-3.28,3.45L95.16,318.57c-1.11.62-2.14.73-2.88.29-.72-.42-1.12-1.33-1.13-2.56l.23-3.14c0-1.32.44-2.83,1.26-4.26h.01Z" fill="#97caff" stroke-width="0"/><polygon points="151.6,267.9 52.54,322.58 52.54,107.32 151.6,52.64 151.6,267.9" opacity="0.609" fill="#97caff" stroke-width="0"/></g><g><g opacity="0.42"><g style="mix-blend-mode:multiply"><polygon points="209.2,351.91 205.78,353.89 171.42,373.86 168.28,375.68 160.3,371.07 201.21,347.3 209.2,351.91" fill="#d0deff" stroke-width="0"/><polygon points="205.52,344.79 201.21,347.3 160.3,371.07 157.65,372.61 88.99,333.48 136.86,305.66 205.52,344.79" fill="#d0deff" stroke-width="0"/><path d="M257.68,386.65c-1.01,1.14-2.34,2.21-3.99,3.17l-20.34,11.82c-8.19,4.76-21.37,5.01-30.15.57-2.57-1.3-5.17-2.68-7.56-4.06-5.05-2.91-9.19-5.84-10.25-8.08-2.11-4.43-4.75-9.26-13.97-16.22l34.36-19.97c11.64,5.09,19.14,6.13,28.05,8.04c2.88.62,6.51,2.2,10.32,4.22L233.2,372.5l24.48,14.13v.02Z" fill="#d0deff" stroke-width="0"/><ellipse rx="30.21" ry="52.16" transform="matrix(.002793-.999996 0.999996 0.002793 225.41 380.772572)" fill="#d0deff" stroke-width="0"/></g></g><g clip-path="url(#eev4rcVJqPA25)"><g><g style="mix-blend-mode:multiply"><rect width="51.47" height="172.79" rx="0" ry="0" transform="translate(78.83 157.64)" fill="#d9d9d9" stroke-width="0"/><path d="M102.8,117.18c13.45-7.76,24.38-1.53,24.42,13.92s-10.82,34.26-24.26,42.03c-13.45,7.76-24.38,1.53-24.42-13.92s10.82-34.27,24.26-42.03Z" fill="#d9d9d9" stroke-width="0"/></g></g><clipPath id="eev4rcVJqPA25"><path d="M170.66,222.51L170.03,0L33.23,79.14l.63,222.51.07,25.71c.01,3.98,2.83,5.58,6.29,3.58l124.27-71.75c3.46-2,6.26-6.84,6.24-10.82l-.07-25.86Z" transform="translate(0 0.000001)" fill="none" stroke-width="0"/></clipPath></g><g><g><g><path d="M263.49,272.66c0,26.86-21.5,39.89-48.36,39.89s-48.91-13.02-48.91-39.89s21.78-63.16,48.64-63.16s48.64,36.3,48.64,63.16h-.01Z" fill="#ffe200" stroke-width="0"/><g id="eev4rcVJqPA31_ts" transform="translate(230.687515,269.714973) scale(1,1)"><g id="eev4rcVJqPA31" style="mix-blend-mode:screen" transform="translate(-230.687515,-269.714973)" opacity="0.5"><path d="M244.39,275.83c-.52,8.82-7.08,13.44-9.55,15.18-.36,1.9-.87,3.51-1.52,4.84-1.82.85-3.73,1.59-5.72,2.22.46-1.18.84-2.6,1.11-4.29-4.5,1.1-7.65,1.12-11.22.07c1.11-3.43,1.31-4.05,2.22-7.92c12.13,3.54,19.15-4.31,16.57-7.94-.65-.91-2.22-1.4-4.79-1.49-3.25-.11-10.85-.37-13.3-6.02-.21-.49-5.04-12.06,5.98-20.52-.64-2.38-1.32-4.73-2.04-7.03c1.38-.45,2.71-.97,3.97-1.57.86,2.06,1.68,4.16,2.44,6.29c2.88-1.11,4.34-1.37,6.77-1.2c1.37,5.18,1.46,5.49,2.03,8.8-9.26-.81-13.55,5.1-10.59,8.73c1.63,2.01,5.8,2.04,7.37,2.06c4.82.04,10.83.1,10.26,9.78v0l.01.01Z" fill="#fdf7c7" stroke-width="0"/></g></g><path style="mix-blend-mode:multiply" d="M216.08,216.09c.84,8.04,3.31,22.65.95,23.71-2.27-1.59-2.92-15.66-.95-23.71Z" fill="#feee72" stroke-width="0"/><path style="mix-blend-mode:multiply" d="M217.02,238.8c-1.04-2.45-1.62-9.67-1.02-16.29.46,3.67.97,7.79,1.16,11.07.17,2.98.03,4.48-.14,5.22Z" fill="#feed62" stroke-width="0"/><path style="mix-blend-mode:multiply" d="M231.92,226.92c-2.25-2.86-10.02-10.7-10.64-9.89.51-1.02,13.33,7.55,10.64,9.89Z" fill="#feee72" stroke-width="0"/><path style="mix-blend-mode:multiply" d="M231.87,226.21c-1.34-1.59-4.08-4.52-6.46-6.73c2.64,1.79,5.69,4.32,6.36,6.09.1.27.12.48.1.63v.01Z" fill="#feee72" stroke-width="0"/><path style="mix-blend-mode:multiply" d="M226.44,235.32c3.57-3.57-6.64-18.08-9.18-17.57c1.75-1.21,9.21,17.13,9.18,17.57Z" fill="#feee72" stroke-width="0"/><path style="mix-blend-mode:multiply" d="M226.53,233.72c-1.02-2.71-3.35-8.12-5.42-12.02c2.19,2.76,4.53,6.71,5.25,9.81.16.68.28,1.5.17,2.21Z" fill="#feee72" stroke-width="0"/><path style="mix-blend-mode:multiply" d="M189.95,230.14c2.59-2.92,13.54-16.88,14.33-14.95-.94-1.88-16.97,11.87-14.33,14.95Z" fill="#feee72" stroke-width="0"/><path style="mix-blend-mode:multiply" d="M190.36,228.71c.07-.25.17-.5.26-.69c1.16-2.52,4.51-5.96,7.59-8.58-1.7,1.91-3.75,4.34-6.18,7.27-.62.75-1.19,1.43-1.66,2h-.01Z" fill="#feee72" stroke-width="0"/><path style="mix-blend-mode:screen" d="M259.94,283.09c0,1.56-.07,3.07-.19,4.55c1.51-4.17,2.28-8.79,2.28-13.77c0-13.04-5.37-28.74-14.02-40.95-4.47-6.31-9.7-11.53-15.14-15.1-5.95-3.91-12.1-5.89-18.27-5.89-.08,0-.16,0-.24,0c25.95,7.92,45.58,43.79,45.58,71.16Z" fill="#e07e05" stroke-width="0"/><path style="mix-blend-mode:multiply" d="M168,272.06c0,26.86,22.05,39.89,48.91,39.89c6.12,0,11.95-.68,17.32-2.04-31.87-4.16-56.07-22.72-56.07-56.47c0-6.71.95-13.83,2.71-21.02-7.99,12.09-12.88,26.92-12.88,39.64h.01Z" opacity="0.44" fill="#fdcc06" stroke-width="0"/><path style="mix-blend-mode:multiply" d="M214.91,305.88c-25.68,0-46.94-12.75-48.56-39.02-.07,1.15-.1,2.28-.1,3.4c0,28.47,21.94,42.28,48.66,42.28s48.12-13.81,48.12-42.28c0-1.11-.04-2.24-.1-3.38-1.59,26.25-22.34,38.99-48.02,38.99v.01Z" fill="#fdefa3" stroke-width="0"/></g><g><path style="mix-blend-mode:multiply" d="M222.95,235.85c-.26,0-.52-.05-.77-.15-1.05-.42-1.56-1.62-1.14-2.68.99-2.47.43-4.81-.23-7.53-.56-2.31-1.13-4.71-.73-7.32.17-1.12,1.22-1.89,2.35-1.72c1.12.17,1.89,1.22,1.72,2.35-.28,1.82.18,3.72.66,5.73.71,2.97,1.52,6.34.04,10.03-.32.8-1.09,1.29-1.91,1.29h.01Z" fill="#fded99" stroke-width="0"/><path style="mix-blend-mode:multiply" d="M235.23,256.96h-.02c-1.14,0-2.05-.94-2.04-2.07.1-12.99-6.97-30.59-12.51-34.75-.91-.68-1.09-1.97-.41-2.88s1.97-1.09,2.88-.41c5.01,3.76,8.52,12.33,10.17,17.11c2.54,7.37,4.03,15.21,3.99,20.96c0,1.13-.93,2.04-2.06,2.04Z" fill="#fded99" stroke-width="0"/><path d="M225.01,235.58c-.16,0-.31-.02-.47-.05-1.11-.26-1.79-1.37-1.53-2.47.61-2.59-.31-4.82-1.37-7.41-.9-2.2-1.83-4.48-1.83-7.12c0-1.14.92-2.06,2.06-2.06s2.06.92,2.06,2.06c0,1.84.74,3.65,1.53,5.57c1.16,2.83,2.47,6.04,1.57,9.91-.22.95-1.07,1.59-2,1.59l-.02-.02Z" fill="#de7c00" stroke-width="0"/><path d="M237.83,255.91c-1.07,0-1.98-.83-2.05-1.92-.85-12.97-9.19-30-15.03-33.74-.96-.61-1.24-1.89-.62-2.84.61-.96,1.89-1.23,2.84-.62c5.27,3.38,9.41,11.67,11.4,16.32c3.08,7.17,5.14,14.87,5.52,20.61.07,1.13-.78,2.11-1.92,2.19-.05,0-.09,0-.14,0Z" fill="#de7c00" stroke-width="0"/><path style="mix-blend-mode:multiply" d="M214.8,224.13c-.83,0-1.7-.02-2.61-.08-9.99-.57-16.28-4.29-16.01-9.48.06-1.2,1.08-2.13,2.28-2.06c1.2.06,2.12,1.08,2.06,2.28-.1,2.03,4.43,4.49,11.93,4.92c7.53.43,14.04-1.59,14.22-4.42.08-1.2,1.11-2.11,2.3-2.03c1.2.08,2.1,1.11,2.03,2.3-.28,4.4-5.41,8.56-16.19,8.56l-.01.01Z" fill="#fef2b3" stroke-width="0"/><path d="M214.8,222.39c-.83,0-1.7-.02-2.61-.08-9.99-.57-16.28-4.29-16.01-9.48.06-1.2,1.08-2.13,2.28-2.06c1.2.06,2.12,1.08,2.06,2.28-.1,2.03,4.43,4.49,11.93,4.92c7.53.43,14.04-1.59,14.22-4.42.08-1.2,1.11-2.1,2.3-2.03c1.2.08,2.1,1.11,2.03,2.3-.28,4.4-5.41,8.56-16.19,8.56l-.01.01Z" fill="#de7c00" stroke-width="0"/><path d="M213.65,218.63c-8.13,0-16.92-2.1-17.65-8.02-.15-1.23.72-2.35,1.95-2.5c1.23-.16,2.35.72,2.5,1.95.18,1.43,3.14,3.26,9.23,3.88c8.95.92,15.59-1.37,16-2.58.13-1.23,1.24-2.12,2.46-1.98c1.23.13,2.12,1.24,1.99,2.47-.52,4.89-8.65,6.71-16.08,6.77-.13,0-.27,0-.41,0l.01.01Z" fill="#de7c00" stroke-width="0"/></g></g><g style="mix-blend-mode:multiply"><g clip-path="url(#eev4rcVJqPA56)"><g><path d="M231.4,210.46c-4.62-4.73-16.87-6.33-23.44-5.62-2.11.23-5.36,1.29-8.3,2.69-.48-11.39-3.7-23.06-9.19-27.04-1.9.07-6.42,1.71-8.43,1.58-1.77-.11-24.25-14.2-27.19-16.33-10.82,4.08-14.3,29.46-7.97,39.14c6.22,3.71,18.94,8.06,24.4,11.24c1.24.72,7.86-.05,8.77,1.27c4.61,6.65,8.35,12.91,12.23,13.78.53,1.06,1.5,2.18,2.19,2.85c2.47,2.43,7.76,4.51,11.21,4.9c1.96.22,6.89.78,8.73.06c3.55-1.37,10.25-5.73,12.34-8.91c1.16-1.76,1.29-4.14,1.85-6.41c2.5-1.99,3.55-3.74,4.13-4.99.79-1.71-1.32-6-1.33-8.21Z" fill="#d9d9d9" stroke-width="0"/></g><clipPath id="eev4rcVJqPA56"><path d="M263.49,272.66c0,26.86-21.5,39.89-48.36,39.89s-48.91-13.02-48.91-39.89s21.78-63.16,48.64-63.16s48.64,36.3,48.64,63.16h-.01Z" fill="none" stroke-width="0"/></clipPath></g></g><path d="M90.91,172.22l63.08,28.04c12.8,1.34,29.1-46.22,23.73-49.1l-57.1-29.99-29.71,51.05Z" fill="#2d4383" stroke-width="0"/><path d="M105.98,173.46l56.86,25.49c8.92,4.75,25.79-40.26,20.93-42.86l-55.88-31.91-21.91,49.27v.01Z" fill="#ccc" stroke-width="0"/><path d="M233.6,200.74c-.95,2.63-.86,5.64-2.25,7.76-2.09,3.18-8.79,7.54-12.34,8.91-1.84.71-6.86,1.69-8.82,1.48-3.44-.38-8.65-4-11.12-6.44-.93-.92-2.39-2.66-2.55-3.95-.15-1.24,1.68-6.29,3.02-6.99c2.1-1.1,6.97-1.51,9.33-1.78c6.14-.72,20.51-3.47,24.75,1.02l-.02-.01Z" fill="#ffcc9c" stroke-width="0"/><path d="M212.97,215.52c.57-1.01,1.01-2,1.35-3.06.36-1.05.62-2.13.99-3.23.1,1.15-.07,2.31-.43,3.42-.37,1.09-.98,2.16-1.91,2.87Z" fill="#d4aa8c" stroke-width="0"/><path d="M209.46,217.56c.38-1.08.79-2.1,1.16-3.15.38-1.04.72-2.09,1.18-3.15c0,1.15-.25,2.27-.63,3.34-.4,1.07-.93,2.1-1.71,2.95v.01Z" fill="#d4aa8c" stroke-width="0"/><path d="M238.34,189.15c.02,2.22.88,5.99.09,7.7-1.39,3-11.78,10.17-14.35,11.63-2.53,1.44-8.56,3.91-11.4,3.29-5.62-1.22-14.64-9.82-16.16-15.36-.44-1.61.71-5.17,1.78-6.45c2.54-3.01,10.34-6.3,14.26-6.72c6.57-.71,21.17,1.16,25.78,5.9v.01Z" fill="#ffcc9c" stroke-width="0"/><path d="M214,208.78c.44-1.07.91-2.06,1.29-3.1.4-1.03.7-2.09,1.05-3.19.11,1.15-.11,2.31-.51,3.39-.41,1.08-1.01,2.09-1.84,2.9h.01Z" fill="#d4aa8c" stroke-width="0"/><path d="M245.48,180.92c.45.77.16,2.95-.2,3.77-1.08,2.5-4.21,3.65-7.12,6.47-2.9,2.81-5.57,7.3-7.9,8.68-1.48.87-4.88,2.15-6.58,1.92-3.08-.42-8.37-4.37-10.56-6.58-2.97-3-10.23-10.44-8.78-14.4c1.02-2.78,8.32-4.16,11.25-3.7c2.43.38,6.86,2.51,7.27,1.51c1.01-2.5,5.95-6.34,8.64-6.45c4.13-.17,11.92,5.2,13.99,8.78h-.01Z" fill="#ffcc9c" stroke-width="0"/><path d="M225.7,200.44c.91-1,1.53-2.12,1.95-3.35.43-1.22.67-2.51.98-3.82.15,1.34.02,2.72-.42,4.02-.23.64-.54,1.27-.96,1.82s-.94,1.02-1.54,1.33h-.01Z" fill="#d4aa8c" stroke-width="0"/><path d="M223.26,197.02c.91-1,1.53-2.12,1.95-3.35.43-1.22.67-2.51.98-3.82.15,1.34.02,2.72-.42,4.02-.23.64-.54,1.27-.96,1.82s-.94,1.02-1.54,1.33h-.01Z" fill="#d4aa8c" stroke-width="0"/><path d="M238.16,191.17c-.88.96-1.7,1.97-2.49,3.01-.8,1.03-1.58,2.08-2.4,3.1-.41.51-.83,1.02-1.3,1.48-.47.47-.95.93-1.55,1.29-1.16.68-2.39,1.16-3.66,1.56-.64.18-1.29.34-1.96.42-.34.03-.68.06-1.03.02-.18,0-.34-.06-.51-.09s-.33-.07-.49-.13c-1.29-.39-2.47-1.01-3.58-1.71-2.22-1.41-4.3-3.03-6.08-4.94.97.87,1.99,1.68,3.05,2.43c1.05.76,2.14,1.48,3.26,2.12c1.13.63,2.28,1.24,3.49,1.58c1.2.41,2.45.08,3.68-.27c1.22-.36,2.45-.83,3.55-1.45c1.06-.65,1.92-1.66,2.78-2.61.85-.98,1.67-1.99,2.52-2.99.86-.98,1.73-1.96,2.71-2.83l.01.01Z" fill="#d4aa8c" stroke-width="0"/><path d="M195.07,158.91c-1.9.07-6.42,1.71-8.43,1.58-1.77-.11-24.25-14.2-27.19-16.33-10.82,4.08-14.3,29.46-7.97,39.14c6.22,3.71,18.94,8.06,24.4,11.24c1.24.72,3.65,2.73,4.56,4.05c6.03,8.72,17.82,11.99,18.66,11.09c8.56-9.28,6.19-43.34-4.03-50.76v-.01Z" fill="#ffcc9c" stroke-width="0"/><path d="M238.42,190.46c.16,1.47.41,2.94.42,4.44c0,.37-.02.75-.07,1.12-.06.37-.15.76-.36,1.08-.1.16-.18.34-.29.49l-.34.45c-.22.31-.49.56-.74.85-2.09,2.14-4.45,3.96-6.83,5.75-1.19.89-2.4,1.75-3.64,2.58-1.23.82-2.5,1.66-3.86,2.28-1.35.65-2.74,1.21-4.16,1.69-1.43.46-2.88.87-4.41.97-.19.02-.38.02-.58,0-.19,0-.39,0-.59-.04-.4-.03-.75-.18-1.13-.27-.37-.09-.72-.26-1.07-.4-.36-.13-.69-.3-1.03-.48-1.35-.68-2.6-1.51-3.78-2.43-2.38-1.81-4.53-3.92-6.38-6.27-.91-1.18-1.75-2.43-2.43-3.77-.15-.34-.32-.68-.46-1.03-.12-.36-.25-.71-.35-1.08-.16-.78-.05-1.54.09-2.28.15-.74.38-1.45.66-2.15.29-.69.61-1.37,1.08-1.97.98-1.15,2.26-1.96,3.54-2.7-1.24.79-2.49,1.66-3.41,2.8-.44.58-.74,1.27-1,1.95-.26.69-.46,1.4-.59,2.12-.12.71-.21,1.46-.06,2.14.1.34.24.69.36,1.03.14.34.31.66.47.99.68,1.3,1.53,2.51,2.45,3.66c1.88,2.26,3.99,4.36,6.35,6.12c1.17.89,2.41,1.7,3.71,2.35.32.17.65.33.99.46s.67.29,1.02.37c.35.09.69.23,1.03.25.17.03.35.04.52.04.18,0,.35,0,.53,0c1.44-.08,2.87-.48,4.27-.92c1.4-.46,2.77-1.01,4.1-1.63c1.34-.61,2.57-1.4,3.81-2.22c1.23-.82,2.45-1.66,3.66-2.52c2.4-1.73,4.78-3.52,6.89-5.58.25-.27.53-.52.75-.81l.35-.43c.11-.14.19-.3.29-.46.39-.61.43-1.38.47-2.1.03-1.48-.17-2.96-.27-4.44h.02Z" fill="#d4aa8c" stroke-width="0"/><path d="M238.88,167.78c-6.54-2.74-20.86-11.14-25.5-10.95-5.13.21-16.16,1.57-20.41,2.43-1.32,5.43,13,10.17,17.36,13.68c2.61,2.1,7.78,4.81,10.89,6.05c3.37,1.35,10.92.4,14.51.98c2.72.44,5.55-11.18,3.14-12.19h.01Z" fill="#ffcc9c" stroke-width="0"/><path d="M220.76,180.8c.65,0,1.29.1,1.88.1.14,0,.28-.01.39-.04.12-.02.14-.08.09-.04c0,0,0,.02,0,0l.02-.06.05-.12.11-.24c.08-.15.16-.3.25-.44.37-.57.81-1.05,1.31-1.48.49-.43,1.03-.79,1.63-1.06-.37.55-.76,1.04-1.14,1.53-.37.49-.74.98-1.07,1.48-.08.12-.16.25-.23.37l-.23.43c-.09.16-.24.25-.37.31-.13.05-.24.07-.35.07-.21.01-.39-.02-.56-.05-.67-.15-1.25-.43-1.8-.78l.02.02Z" fill="#b8947a" stroke-width="0"/><path d="M222.16,182.84c-1.97-3.43-6.03-9.07-10.87-11.74-.64-1.45-.95-4.39-.51-5.95-5.24-3.16-18.1,6.66-22.89,8.16-.19,1.93,6.42,4.95,7.72,6.38c2.11,2.32,4.41,8.34,6.31,10.83c2.29,3.01,6.36,9.03,9.68,10.83c1.57.85,5.27,1.81,6.99,1.37c2.42-.61,6.61-4.45,7.27-6.86.9-3.26-2.01-10.09-3.7-13.03v.01Z" fill="#ffcc9c" stroke-width="0"/><g><path d="M244.51,171.83c.55.7.56,2.9.32,3.76-.72,2.62-3.67,4.19-6.17,7.39-2.49,3.18-4.52,8-6.64,9.68-1.34,1.07-4.54,2.8-6.26,2.81-3.11,0-8.89-3.18-11.36-5.07-3.35-2.56-11.57-8.94-10.67-13.06.63-2.89,7.67-5.26,10.63-5.21c2.45.04,7.14,1.54,7.41.5.66-2.61,5.02-7.09,7.67-7.57c4.06-.73,12.52,3.52,15.06,6.77h.01Z" fill="#ffcc9c" stroke-width="0"/><path d="M225.99,192.87c.72-1.14,1.13-2.36,1.33-3.64.21-1.28.21-2.59.28-3.94.39,1.29.5,2.67.29,4.03-.11.68-.31,1.35-.62,1.96s-.74,1.17-1.28,1.59Z" fill="#d4aa8c" stroke-width="0"/><path d="M227.74,193.91c.91-1,1.53-2.12,1.95-3.35.43-1.22.67-2.51.98-3.82.15,1.34.02,2.72-.42,4.02-.23.64-.54,1.27-.96,1.82s-.94,1.02-1.54,1.33h-.01Z" fill="#d4aa8c" stroke-width="0"/></g><path d="M209.29,171.78c2.78,1.49,5.22,3.55,7.43,5.79c1.1,1.13,2.13,2.33,3.07,3.6.96,1.27,1.71,2.66,2.53,4c.81,1.35,1.59,2.72,2.27,4.15.67,1.43,1.3,2.9,1.58,4.51.13.79.15,1.66-.15,2.46-.3.78-.76,1.45-1.25,2.09-.99,1.26-2.16,2.37-3.46,3.31-.65.46-1.35.88-2.13,1.17-.8.29-1.65.31-2.46.21-1.62-.21-3.12-.82-4.53-1.57-.7-.37-1.38-.83-2-1.35-.6-.52-1.18-1.07-1.72-1.65-1.09-1.15-2.09-2.38-3.05-3.63s-1.88-2.52-2.81-3.8c-.45-.64-.95-1.25-1.37-1.94-.42-.68-.77-1.38-1.11-2.1-.68-1.42-1.29-2.87-1.95-4.29-.33-.71-.67-1.42-1.05-2.1-.38-.69-.78-1.37-1.29-1.96c1.05,1.18,1.77,2.6,2.48,4c.7,1.41,1.36,2.84,2.07,4.24.35.7.72,1.39,1.13,2.05.41.65.92,1.26,1.38,1.89.95,1.26,1.89,2.51,2.87,3.74.98,1.22,1.98,2.43,3.06,3.56.53.57,1.1,1.1,1.69,1.6.6.49,1.23.91,1.91,1.27c1.36.72,2.83,1.3,4.34,1.48.75.09,1.51.05,2.2-.19.7-.26,1.36-.67,1.98-1.11c1.25-.89,2.4-1.97,3.36-3.17.47-.6.91-1.25,1.18-1.94.27-.68.25-1.44.14-2.19-.25-1.51-.85-2.96-1.51-4.37-.67-1.41-1.42-2.78-2.2-4.15-.8-1.36-1.52-2.75-2.44-4.01-.9-1.28-1.92-2.47-2.98-3.62-2.13-2.29-4.51-4.39-7.22-5.98h.01Z" fill="#d4aa8c" stroke-width="0"/><path d="M223.95,192.89c-1.05,3.21-5.85,6.31-9.49,7.48-2.65-2.09-5.73-6.53-6.23-9.09c1.26-2.05,5.53-5.4,8.3-6.13c2.94,1.49,6.28,4.59,7.43,7.75l-.01-.01Z" fill="#fccda7" stroke-width="0"/><path d="M182.53,186.3c1.09.88,2.27,1.55,3.52,2.07c1.25.51,2.56.88,3.89,1.11c1.33.24,2.69.35,4.05.37s2.74-.06,4.13-.16c-1.32.46-2.7.74-4.11.85-1.4.12-2.83.05-4.23-.19-1.39-.26-2.77-.68-4.02-1.35-1.25-.66-2.41-1.55-3.23-2.69v-.01Z" fill="#d4aa8c" stroke-width="0"/><path d="M181.27,196.06c-.54-1.95-.99-3.9-1.67-5.76-.67-1.86-1.55-3.65-2.97-5.1.86.54,1.59,1.3,2.16,2.15.58.85,1.01,1.79,1.37,2.75.68,1.93,1.04,3.94,1.12,5.96h-.01Z" fill="#d4aa8c" stroke-width="0"/><path d="M184.66,162.29c-2.16.65-3.97,2.26-4.63,4.37-.73,2.08-.8,4.34-.74,6.56.03,2.23.23,4.47.32,6.72.1,2.25.15,4.51-.07,6.75-.02-1.13-.05-2.25-.13-3.37-.06-1.12-.15-2.24-.25-3.36-.19-2.24-.38-4.48-.46-6.74-.01-1.13.01-2.27.13-3.4s.33-2.27.77-3.34c.21-.54.5-1.04.81-1.52.35-.46.72-.91,1.17-1.26.9-.72,1.96-1.19,3.06-1.42l.02.01Z" fill="#d4aa8c" stroke-width="0"/><path d="M199.07,212.44c-.82-.66-1.57-1.42-2.16-2.33-.29-.45-.55-.94-.66-1.52-.05-.31-.01-.6.03-.87s.1-.53.16-.79c.28-1.03.65-2.03,1.13-2.97.23-.48.51-.93.81-1.37.32-.42.66-.87,1.15-1.09-.41.33-.67.78-.91,1.24-.23.46-.45.93-.64,1.41-.38.96-.72,1.94-.98,2.93-.12.48-.25,1.01-.21,1.43.06.46.27.92.51,1.37.49.89,1.11,1.74,1.76,2.56h.01Z" fill="#d4aa8c" stroke-width="0"/><path style="mix-blend-mode:multiply" d="M181.28,157.75c-5.69-3.28-14.38-8.71-19-11.7l-3.4-1.65c-10.37,4.75-13.62,29.39-7.4,38.89c3.31,1.97,9.82,4.8,14.73,6.86-2.16-7.16,9.03-30.64,15.07-32.41v.01Z" fill="#d0deff" stroke-width="0"/><path d="M106.17,174.58l56.66,24.37c-7.19-8.51,11.45-44.18,20.93-42.86l-55.88-31.91-21.71,50.4Z" fill="#f0f0f0" stroke-width="0"/><path d="M161.25,192.38l-48.97-21.07l19.38-44.98-3.76-2.15-21.71,50.4l56.66,24.37c-1.25-1.48-1.72-3.79-1.59-6.57h-.01Z" fill="#d0deff" stroke-width="0"/><path d="M183.25,156.06c.18,0,.35,0,.52.03l-.34-.2c-.06.06-.12.11-.18.16v.01Z" fill="#d0deff" stroke-width="0"/><path style="mix-blend-mode:multiply" d="M149.42,135.35l-21.69-11.49-21.55,50.71l49.3,21.21c-3.09-14.04,11.61-39.83,21.23-43.96l-27.29-16.47Z" fill="#d0deff" stroke-width="0"/><path d="M90.54,173.08l63.45,27.17c-11.48-12.39,13.23-50.56,23.73-49.1l-55.64-31.61c-26.88-3.03-43.24,39.96-31.54,53.53v.01Z" fill="#6e6fda" stroke-width="0"/><path d="M153.99,200.26c-.25-.27-.47-.55-.69-.84-.02-.03-.04-.05-.06-.08c0,0,0,0,0,0-.12-.17-.24-.35-.36-.52c0,0,0,0,0,0-.02-.04-.04-.07-.07-.11-.16-.25-.3-.51-.43-.78-.03-.06-.06-.12-.09-.18c0,0,0,0,0,0-.13-.27-.25-.55-.36-.84c0,0,0,0,0,0c0-.02-.01-.04-.02-.05c0,0,0,0,0,0-.1-.27-.19-.55-.28-.83v0c-.03-.09-.05-.18-.07-.27c0,0,0,0,0,0-.06-.24-.12-.47-.18-.72-.02-.08-.04-.17-.05-.25c0,0,0,0,0,0-.05-.24-.09-.49-.13-.74c0,0,0,0,0,0-.01-.08-.03-.15-.04-.23c0,0,0,0,0,0-.04-.34-.08-.68-.11-1.02c0,0,0,0,0,0c0-.02,0-.03,0-.05c0,0,0,0,0,0-.02-.32-.04-.66-.04-.99c0,0,0,0,0,0c0-.09,0-.18,0-.27c0,0,0,0,0,0c0-.27,0-.55.01-.82v0c0-.07,0-.14,0-.21.01-.36.04-.72.07-1.09c0-.03,0-.06,0-.1v0c.07-.78.18-1.58.32-2.39.01-.06.02-.13.03-.19c0,0,0,0,0,0c.06-.32.12-.64.19-.97c0,0,0,0,0,0c.02-.08.03-.16.05-.25c0,0,0,0,0,0c.08-.37.17-.75.26-1.12c0,0,0,0,0,0c0-.02,0-.03.01-.05.11-.43.22-.86.35-1.29c0,0,0,0,0,0v0c0,0-64.95-29.63-64.95-29.63-1.32,7.17-.76,13.91,2.13,18.37.02.02.03.05.05.07.13.19.26.38.4.57.19.25.38.5.58.73l63.45,27.17c0,0,0,0,0,0l.03-.03Z" fill="#2d4383" stroke-width="0"/><path d="M153.38,140.95c.23.22.41.46.5.72.35.96-.58,1.72-2.1,1.7-1.11-.02-2.22-.46-2.87-1.07-.23-.22-.41-.46-.5-.72-.35-.96.59-1.72,2.1-1.7c1.11.02,2.22.46,2.87,1.07Z" fill="#e8a800" stroke-width="0"/><path d="M159.97,144.58c.23.22.41.46.5.72.35.96-.59,1.72-2.1,1.7-1.11-.02-2.22-.46-2.87-1.07-.23-.22-.41-.46-.5-.72-.35-.96.59-1.72,2.1-1.7c1.11.02,2.22.46,2.87,1.07Z" fill="#e8a800" stroke-width="0"/><path d="M166.74,147.98c.23.22.41.46.5.72.35.96-.59,1.72-2.1,1.7-1.11-.02-2.22-.46-2.87-1.07-.23-.22-.41-.46-.5-.72-.35-.96.59-1.72,2.1-1.7c1.11.02,2.22.46,2.87,1.07Z" fill="#e8a800" stroke-width="0"/><path d="M243.18,178.29c-1.36,1.61-2.96,3-4.21,4.67-1.25,1.66-2.27,3.49-3.35,5.3-.54.9-1.09,1.81-1.71,2.68-.61.85-1.34,1.72-2.27,2.29-.9.58-1.84,1.08-2.81,1.5-.98.38-2,.78-3.07.75c1.05-.11,2.02-.55,2.95-1.01s1.84-1,2.67-1.6c.84-.6,1.49-1.37,2.07-2.24.59-.85,1.13-1.75,1.66-2.66c1.08-1.8,2.13-3.64,3.5-5.28.68-.82,1.44-1.57,2.21-2.28.79-.7,1.58-1.39,2.34-2.11l.02-.01Z" fill="#d4aa8c" stroke-width="0"/><path d="M222.74,168.48c.26.4.44.82.59,1.25.15.42.27.86.35,1.3.09.44.14.88.16,1.33s.01.91-.08,1.38c-.26-.4-.44-.82-.59-1.25-.15-.42-.27-.86-.35-1.3s-.14-.88-.16-1.33-.01-.91.08-1.38Z" fill="#b8947a" stroke-width="0"/><path d="M224.08,181.23c-.51-.35-.89-.77-1.25-1.22-.36-.44-.56-.99-.82-1.49-.53-1-1.05-2.01-1.53-3.04l.08-.05c.72.88,1.4,1.79,2.07,2.71.33.46.73.87.98,1.39.25.51.47,1.04.55,1.65l-.08.05Z" fill="#d4aa8c" stroke-width="0"/><g><path d="M232.82,174.99c-1.43.63-4.07,2.39-5.62,1.54-1.48-.81-2.95,1.69-4.31,1.28-1.84-.54-2.34,1.89-4.07,1.46-1.56-.39-2.29-3.06-3.67-2.87-2.02.28-4.09-3.88-5.91-5.09l-6.59-14.69l40.93,6.39c-2.61,4.71-6.16,8.73-10.75,11.98h-.01Z" fill="#ffe200" stroke-width="0"/><path style="mix-blend-mode:multiply" d="M228.82,176.69l7.82-12.54c-1.25.11-2.56.38-3.66,1.39-.33.3-.76.52-1.26.68l-4.01,10.49c.34.07.72.05,1.11-.02Z" fill="#fef2b3" stroke-width="0"/><path style="mix-blend-mode:multiply" d="M211.69,173.9c.36.43.72.85,1.08,1.23l.86-13.97c-1.16-1.52-3.11-1.88-4.93-2l2.99,14.75v-.01Z" fill="#fef2b3" stroke-width="0"/><path style="mix-blend-mode:multiply" d="M220.8,178.51c.29-.24.57-.48.91-.63l1.21-13.99c-.83-.48-1.97-.58-3.17-.59l1.05,15.21Z" fill="#fef2b3" stroke-width="0"/><g style="mix-blend-mode:screen"><path style="mix-blend-mode:screen" d="M241.61,162.7c-1.97,4.57-4.83,8.65-8.66,12.19c4.53-3.23,8.04-7.22,10.62-11.89l-1.96-.31v.01Z" fill="#1c1c1c" stroke-width="0"/></g><g style="mix-blend-mode:screen"><polygon style="mix-blend-mode:screen" points="204.19,156.86 202.65,156.62 209.21,171.25 204.19,156.86" fill="#1c1c1c" stroke-width="0"/></g><path d="M243.53,163.12c-.16,1.03-1.88.11-3.62.69-1.79.6-4.74-.25-6.92,1.73-2.49,2.27-10.86.26-10.01-1.62-2.43-1.48-7.65.51-8.91-2.06-1.91-3.9-7.86-2.14-9.38-3.26-1.48-1.09-1.14-.73-2.06-1.93.16-1.03,3.62-4,5.33-3.34c1.81.69,4.63.33,6.81-1.21c2,1.09,6.75,2.44,9.77.7c3.34-1.93,8.16,1.85,8.79,4.64.5,2.24,4.18,1.51,6.01.92c1.75-.56,4.36,3.7,4.2,4.73l-.01.01Z" fill="#ffe200" stroke-width="0"/><path style="mix-blend-mode:multiply" d="M227.4,165.67c-2.2-.34-3.54-1.08-3.75-1.47c0,0,0,0,0,0l.25-.56-.55-.33c-.48-.29-1.07-.49-1.79-.61-.88-.14-1.84-.13-2.77-.13-.89,0-1.72,0-2.44-.1-.89-.14-1.39-.42-1.64-.92-.8-1.64-2.31-2.61-4.61-2.97-.89-.14-1.79-.18-2.59-.21-.64-.03-1.24-.05-1.71-.12-.45-.07-.63-.17-.7-.22-.25-.18-.45-.33-.61-.44-.6-.43-.62-.44-1.05-1.01.58-.89,2.87-2.78,4.11-2.59.05,0,.09.02.13.03.35.14.74.24,1.15.3c1.93.3,4.15-.2,5.97-1.35c1.18.57,2.72,1.04,4.14,1.26c1.65.26,4.03.33,5.94-.78.67-.39,1.45-.51,2.32-.38c2.51.39,5,2.81,5.39,4.55.18.78.74,1.76,2.42,2.02c1.66.26,3.71-.31,4.51-.56.05-.02.12-.02.19,0c1.25.2,2.98,3.1,3.07,3.84-.18.01-.52,0-.68-.01-.69-.04-1.54-.08-2.45.22-.52.18-1.23.21-1.99.24-1.59.07-3.57.16-5.19,1.64-.84.77-2.8,1.02-5.1.66h.03Z" opacity="0.44" fill="#fdcc06" stroke-width="0"/><g><path style="mix-blend-mode:multiply" d="M228.04,153.27l-.18,12.46c1.11.14,2.13.13,2.96-.02l1.82-7.97c0,0-.02-.08-.03-.12-.35-1.55-2.36-3.63-4.57-4.35Z" fill="#fef2b3" stroke-width="0"/><path style="mix-blend-mode:multiply" d="M242.12,162.89c.16,0,.5.03.68.01-.09-.7-1.65-3.36-2.88-3.79-.05-.02-.1-.03-.13-.04-.02,0-.04,0-.06-.01-.07-.01-.14,0-.19,0-.06.02-.12.04-.19.06-.02,0-.03,0-.05.01-.06.02-.12.04-.18.05-.02,0-.04.01-.05.02-.07.02-.15.04-.23.06-.01,0-.02,0-.03,0-.39.1-.85.21-1.35.29c0,0-.01,0-.02,0-.12.02-.25.04-.38.05v0c0,0-1.31,3.9-1.31,3.9.16-.03.31-.05.47-.06.03,0,.05,0,.08,0c.31-.03.6-.05.89-.07.03,0,.06,0,.1,0c.13,0,.27-.01.4-.02.75-.03,1.47-.07,1.99-.24.91-.3,1.76-.26,2.45-.22h-.01Z" fill="#fded99" stroke-width="0"/><path style="mix-blend-mode:multiply" d="M207.98,154.12c-.1-.03-.19-.06-.28-.1-.04-.02-.08-.03-.13-.03-1.23-.19-3.52,1.69-4.11,2.59.43.56.44.57,1.05,1.01.16.12.36.26.61.44.07.05.25.15.7.22.47.07,1.07.1,1.71.12.37.02.77.03,1.17.06l-.71-4.31h-.01Z" fill="#fded99" stroke-width="0"/><path style="mix-blend-mode:multiply" d="M222.09,154.32c-1.13.13-2.24.04-3.14-.1-1.42-.22-2.94-.68-4.12-1.25l-.12,8.55c0,0,0,.01,0,.02.24.5.75.79,1.64.92.72.11,1.55.11,2.44.1.41,0,.82,0,1.24,0l2.06-8.26v.02Z" fill="#fef2b3" stroke-width="0"/></g></g><path style="mix-blend-mode:multiply" d="M228.47,175.24c-1.68-.92-3.35,1.92-4.91,1.46-2.09-.62-2.67,2.15-4.63,1.66-1.78-.45-2.6-3.48-4.17-3.26-2.12.29-4.29-3.72-6.25-5.42c0,0,2.53,7.07,6.5,7.62c1.38.19,2.11,2.47,3.67,2.87c1.73.44,2.24-2,4.07-1.46c1.37.4,2.84-2.09,4.31-1.28c1.55.85,4.39-.82,5.49-1.74.58-.48,1.54-1.63,2.15-2.12-1.66.77-4.53,2.62-6.24,1.68l.01-.01Z" fill="#fded99" stroke-width="0"/></g></g><g><g id="eev4rcVJqPA115_to" transform="translate(377.379944,182.962494)"><g transform="translate(-377.379944,-182.962494)"><g><g><path d="M359.6,230.76c-2.18-1.47,1.22-6.95,4.12-12c2.38-4.14,3.18-7.53,6.05-5.74c2.87,1.78,2.99,4.03.53,8.26-1.32,2.27-1.95,4.95-3.95,7.43-1.87,2.32-5.2,3.11-6.76,2.06l.01-.01Z" fill="#040404" stroke-width="0"/><path d="M358.55,230.96c-2.18-1.47,1.22-6.95,4.12-12c2.38-4.14,3.18-7.53,6.05-5.74c2.87,1.78,2.99,4.03.53,8.26-1.32,2.27-1.95,4.95-3.95,7.43-1.87,2.32-5.2,3.11-6.76,2.06l.01-.01Z" fill="#cb2069" stroke-width="0"/><path d="M366.78,221.95c1.46.33,6.36-6.47,1.01-8.83l-18.85-3.26c1.77-8.32,5.42-15.18,10.48-23.62l-13.36-7.91c-5.55,9.13-12.59,32.71-9.58,38.73c2.18,4.36,30.3,4.89,30.3,4.89Z" fill="#0d8e90" stroke-width="0"/></g><g><path d="M388.64,208.93l-7.35-1.4c-.5-3.14,0-5.29,2.28-5.58c3.09-.4,5.47.81,5.93,6.08-.26.15-.75.02-.97.17.03.24.07.48.11.73Z" fill="#040404" stroke-width="0"/><path d="M385.68,222.8c-2.63.11-3.14-6.32-3.79-12.11-.54-4.74-1.9-7.95,1.47-8.21c3.36-.26,4.8,1.47,5.33,6.33.28,2.61,1.36,5.14,1.22,8.33-.13,2.97-2.34,5.58-4.22,5.66h-.01Z" fill="#040404" stroke-width="0"/><path d="M384.96,223.58c-2.63.11-3.14-6.32-3.79-12.11-.54-4.74-1.9-7.95,1.47-8.21c3.36-.26,4.8,1.47,5.33,6.33.28,2.61,1.36,5.14,1.22,8.33-.13,2.97-2.34,5.58-4.22,5.66h-.01Z" fill="#cb2069" stroke-width="0"/><path d="M386.25,211.44c1.37-.6,1.29-8.98-4.42-7.71l-17.07,6.75c-1.69-8.34-.93-14.22.35-23.97l-15.39-2.28c-1.45,10.58,1.48,35.36,6.64,39.68c3.74,3.13,29.89-12.47,29.89-12.47Z" fill="#1fbcbf" stroke-width="0"/></g></g><g id="eev4rcVJqPA126_tr" transform="translate(342.132065,140.212841) rotate(-42.684192)"><g transform="translate(-341.132065,-127.212841)"><path d="M343.51,107.36c.17.69-.25,2.84-1.13,2.88-1.86.08-2.34,2.08-3.6,2.29-1.2.2-.42,2.63-.42,2.63l-5.05-1.77c0,0,.29-1.6.56-3.55.21-1.51,2.82-4.29,3.69-4.51c1.6-.41,5.8,1.38,5.96,2.03h-.01Z" fill="#ffb087" stroke-width="0"/><path d="M344.16,110.04c.13-.07.19-.23.12-.37-.22-.41-.85-.75-1.56-.29-.63.4-1.7,1.11-2.64.61l-1.51,2.38c0,0,1.94-.25,2.36-.34.8-.16,2.72-1.73,3.23-2v.01Z" fill="#ffb087" stroke-width="0"/><path d="M354.47,142.47c1.16,4.11-3.03,7.18-4.95,6.62-5.39-3.75-21.11-9.82-21.76-12.38-1.25-4.92,4.99-24.27,4.99-24.27c1.35-.63,5.22.09,6.03,1.14l-2.38,18.88l14.38,6.34c1.59.68,3,1.21,3.69,3.68v-.01Z" fill="#d0deff" stroke-width="0"/></g></g><path d="M365.6,141.26l-11.37-1.1.45-1.94c4.04-1.56,8.34-2.47,11.06.48.28,1,.36,2.3-.13,2.56h-.01Z" fill="#abb1eb" stroke-width="0"/><path d="M365.22,177.44l4.17-31.42c-1.23-1.21-.65-4-2.16-4.8-3.76-1.97-8.9-2.93-12.99-3.14-1.33-.07-2.96,2.65-4.36,3.43l-3.99,34.06l19.33,1.86v.01Z" fill="#ffb087" stroke-width="0"/><path d="M342.83,179.21c.93-2.34,2.56-4.52,2.92-7.39.55-4.41.76-9.41.97-13.61.26-5.14-.71-9.86-.03-12.56.42-1.67,2.13-6.75,7.33-7.14-.29.3-.53.69-.73,1.15-1.57,3.62-.1,11.5.98,12.94l.31.42.33-.41c.72-.88,3.88-3.55,6.67-5.9c3.74-3.15,5.21-4.44,5.75-5.06c1.64.79,4.52,2.57,5.4,3.37c2.81,2.54.04,7.15-.69,11.11-.74,4.02-.77,7.78-2.3,10.96-.75,1.55-1.55,3.09-1.99,4.26-1.56,4.17-2.98,9.73-3.93,13.41-1.58,6.12-22.82-.95-21-5.55h.01Z" fill="#d0deff" stroke-width="0"/><path d="M373,144.72c-1.02-.92-4.25-2.89-5.81-3.58-.17.74-12.69,15.58-14.19,17.42l-4.09,21.4c0,0,.64,9.2,1.68,10.01c3.83,2.98,16.27-.29,15.87-4.61-.37-4.04.13-9.89,1.84-14.46c1.36-3.63,4.07-9.3,5.18-15.28.73-3.98,2.52-8.19-.49-10.9h.01Z" fill="#ed428b" stroke-width="0"/><path d="M352.53,142.15c.55-2.37,1.84-3.87,3.12-4.02-5.87-.58-8.49,3.98-9.35,7.42-1.27,5.05.25,19.78-1.37,26.03-.66,2.56-1.56,6.52-2.82,8.19-.14,3.03,1.67,7.27,3.52,5.79c2.09-1.67,3.44-5.71,3.44-5.71l3.94-21.28c-.91-1.22-1.78-10.79-.47-16.41l-.01-.01Z" fill="#ed428b" stroke-width="0"/><path d="M353.98,138.88c0,0,.99-.85,1.71-1.09c1.31-.43,3.96-.51,3.96-.51l-.15,2.01-5.51-.41h-.01Z" fill="#abb1eb" stroke-width="0"/><path d="M358.32,127.58c0,0-3.25,9.89-2.57,11.65c2.05,5.33,9.2,3.46,9.4,2.61-1.78-1.5,3.29-12.36,3.29-12.36l-10.13-1.9h.01Z" fill="#f18d69" stroke-width="0"/><path d="M353.04,142.94c-.31-1.05-3.5-.09-3.79,0c0-2.46,3.92-4.83,4.83-5.18.99-.38,2.08-.1,2.08-.1-1.69.52-2.57,2.14-3.12,5.28Z" fill="#d0deff" stroke-width="0"/><path d="M366.96,146.16c-.51-.89-3.57-1.77-4.68-1.49c2.63-2.25,3.63-5.32,2.82-6.57c1,.43,2.56,3.06,2.53,3.81-.06,1.43-.67,4.25-.67,4.25Z" fill="#d0deff" stroke-width="0"/><path d="M364.52,144.61c-3.55,2.53-7.02,5.96-9.98,8.4c2.43-2.46,4.74-5.97,7.8-8.36.41-.14,1.61-.22,2.18-.05v.01Z" fill="#d0deff" stroke-width="0"/><path d="M351.63,142.13c.17,4.54.93,7.8,2.98,11.06-1.15-3.15-1.6-6.31-1.57-10.36-.21-.38-.87-.46-1.41-.7Z" fill="#d0deff" stroke-width="0"/><g style="mix-blend-mode:multiply"><path d="M352.88,158.87c-.21,1.73-.48,3.46-.75,5.18s-.6,3.44-.89,5.15c-.34,1.71-.65,3.43-1.01,5.13-.36,1.71-.73,3.41-1.15,5.11.21-1.73.48-3.46.75-5.18.28-1.72.59-3.44.89-5.15.34-1.71.65-3.43,1.01-5.13.36-1.71.73-3.41,1.15-5.11Z" fill="#ab9384" stroke-width="0"/></g><path d="M352.33,162.18c.33.24.57.75.53,1.16-.04.4-.34.54-.67.3s-.57-.75-.53-1.16c.04-.4.34-.54.67-.3Z" fill="#040404" stroke-width="0"/><path d="M350.94,168.8c.33.24.57.75.53,1.16-.04.4-.34.54-.67.3s-.57-.75-.53-1.16c.04-.4.34-.54.67-.3Z" fill="#040404" stroke-width="0"/><path d="M349.69,176.38c.33.24.57.75.53,1.16-.04.4-.34.54-.67.3s-.57-.75-.53-1.16c.04-.4.34-.54.67-.3Z" fill="#040404" stroke-width="0"/><path d="M350.54,183c.33.24.57.75.53,1.16-.04.4-.34.54-.67.3s-.57-.75-.53-1.16c.04-.4.34-.54.67-.3Z" fill="#040404" stroke-width="0"/><path d="M393.86,120.2c.71-3.1,1.3-5.91,1.68-7.72.01-1.92-6.01-3.66-7.16-.2-.38,1.07-1.18,3.44-2.09,6.2l7.57,1.71v.01Z" fill="#bababa" stroke-width="0"/><path d="M391.8,104.11c.15.75-.13,1.96.05,2.18.07.03.75-.89,1.16-2.25.48-1.61.58-2.17.8-2.38.93-1.4,4.04.92,4.34,1.26c1.11,1.24.88,3.85.56,5.09-.36,1.38-1.87,2.6-2.65,3.15-.51.36-1.36,2.65-1.56,3.09-.81,1.76-5.38,1.15-5.06.09.28-.98.81-3.22.42-3.98-.72-1.41-.4-3.62-.18-3.98.48-.8.62-2.41.56-3.05-.02-.17.11-.33.28-.34.53-.04,1.11.19,1.29,1.14l-.01-.02Z" fill="#ffb087" stroke-width="0"/><path d="M388.38,112.29c-1.24,3.45-6.37,18.95-6.37,18.95s-8.78,10.13-10.52,12.31c-1.74,2.19-.84,10.49,2.11,11.84c2.03-.94,13.29-14.76,15.97-20.44c2.54-5.37,4.97-17.61,5.97-22.47-.96,2.45-5.74,2.17-7.16-.2v.01Z" fill="#d0deff" stroke-width="0"/><g><path d="M371.85,131.99c-2.05,2.84-5.22,5.82-7.9,5.97-2.81.16-5.48,1.15-7.9-.26-2.74-1.59-2.25-7.28.98-12.33.6-.94,1.66-2.79,2.26-3.77.48-.79.33-1.91,2.42-3.34c2.75-1.88,6.65-1.31,9.93,1.06c5.66,4.07,4.3,6.99.2,12.68l.01-.01Z" fill="#ffb087" stroke-width="0"/><path d="M372.24,117.68c-3.11-2.29-8.66-3.38-11.6-.45-.51.5-2.93,4.4-1.34,4.46-.25,1.66,6.71,4.92,7.94,8.36.25.71-.5,2.22-.72,2.59.18.24.42.54.68.95.83-.8,1.42-2.45,2.27-1.9.88.57.14,1.87-.74,2.84-.6.65-2.06,2.21-2.23,2.53.46.71,3.12-2.32,4.49-3.69c7.62-4.35,6.85-11.57,1.25-15.69Z" fill="#00406b" stroke-width="0"/></g><g><g id="eev4rcVJqPA154_ts" transform="translate(406.160004,100.59) scale(1,1)"><g style="isolation:isolate" transform="translate(-406.160004,-100.59)"><polygon points="392.72,90.73 391.64,95.42 392.29,95.21 393.37,90.53 392.72,90.73" fill="#90c4fd" stroke-width="0"/><polygon points="393.37,90.53 392.29,95.21 411.81,112.88 412.89,108.2 393.37,90.53" fill="#92c6fc" stroke-width="0"/><polygon points="412.89,108.2 411.81,112.88 424.09,109.04 425.17,104.36 412.89,108.2" fill="#294482" stroke-width="0"/><polygon points="412.24,108.4 411.16,113.09 411.81,112.88 412.89,108.2 412.24,108.4" fill="#1f1f1f" stroke-width="0"/><polygon points="392.72,90.73 391.64,95.42 411.16,113.09 412.24,108.4 392.72,90.73" fill="#27417b" stroke-width="0"/><polygon points="412.24,108.4 412.89,108.2 393.37,90.53 392.72,90.73 412.24,108.4" fill="#6e96be" stroke-width="0"/><polygon points="407.75,109.81 406.67,114.49 411.16,113.09 412.24,108.4 407.75,109.81" fill="#294482" stroke-width="0"/><polygon points="407.75,109.81 412.24,108.4 392.72,90.73 393.37,90.53 412.89,108.2 425.17,104.36 405.64,86.69 393.37,90.53 392.72,90.73 388.23,92.14 407.75,109.81" fill="#9bcaff" stroke-width="0"/><polygon points="388.23,92.14 387.15,96.82 406.67,114.49 407.75,109.81 388.23,92.14" fill="#3c4b84" stroke-width="0"/></g></g><g style="isolation:isolate"><polygon points="394.41,100.79 394.15,101.96 395.06,101.68 395.33,100.51 394.41,100.79" fill="#bddeff" stroke-width="0"/><polygon points="395.33,100.51 395.06,101.68 395.84,102.39 396.11,101.22 395.33,100.51" fill="#d7ebff" stroke-width="0"/><polygon points="394.41,100.79 394.15,101.96 394.92,102.68 395.19,101.51 394.41,100.79" fill="#92c6fc" stroke-width="0"/><polygon points="395.19,101.51 394.92,102.68 395.84,102.39 396.11,101.22 395.19,101.51" fill="#294482" stroke-width="0"/><polygon points="395.19,101.51 396.11,101.22 395.33,100.51 394.41,100.79 395.19,101.51" fill="#e6edff" stroke-width="0"/><polygon points="393.79,101.95 393.52,103.12 394.92,102.68 395.19,101.51 393.79,101.95" fill="#2a3949" stroke-width="0"/><polygon points="398.17,104.27 397.9,105.44 398.82,105.15 399.08,103.98 398.17,104.27" fill="#bddeff" stroke-width="0"/><polygon points="399.08,103.98 398.82,105.15 399.59,105.87 399.86,104.7 399.08,103.98" fill="#d7ebff" stroke-width="0"/><polygon points="398.17,104.27 397.9,105.44 398.67,106.15 398.94,104.98 398.17,104.27" fill="#92c6fc" stroke-width="0"/><polygon points="398.94,104.98 399.86,104.7 399.08,103.98 398.17,104.27 398.94,104.98" fill="#e6edff" stroke-width="0"/><polygon points="398.94,104.98 398.67,106.15 399.59,105.87 399.86,104.7 398.94,104.98" fill="#294482" stroke-width="0"/><polygon points="396.64,105.71 396.37,106.88 398.67,106.15 398.94,104.98 396.64,105.71" fill="#2a3949" stroke-width="0"/><polygon points="392.11,101.51 391.84,102.68 396.37,106.88 396.64,105.71 392.11,101.51" fill="#739cc6" stroke-width="0"/><polygon points="396.64,105.71 398.94,104.98 398.17,104.27 399.08,103.98 399.86,104.7 399.08,103.98 396.77,104.71 393.79,101.95 395.19,101.51 394.41,100.79 395.33,100.51 396.11,101.22 395.33,100.51 392.11,101.51 396.64,105.71" fill="#d6eaff" stroke-width="0"/></g><g style="mix-blend-mode:multiply"><polygon points="394.91,101.65 399.74,106.12 400.04,104.58 395.21,100.11 394.91,101.65" fill="#d4e9ff" stroke-width="0"/></g><g style="isolation:isolate"><g style="isolation:isolate"><path d="M403.72,101.1c.05-.02,1.07-.33,1.43-.45.28-.09.45-.25.49-.44l-.05.23c-.04.19-.21.35-.49.44-.36.11-1.37.43-1.43.45l.05-.23Z" fill="#7eccf4" stroke-width="0"/><g style="isolation:isolate"><path d="M403.72,101.1l-.05.23c.05-.02,1.07-.33,1.43-.45c0,0,0,0,0,0l.05-.23c0,0,0,0,0,0-.36.11-1.37.43-1.43.45v0Z" fill="#7eccf4" stroke-width="0"/></g></g><polygon points="401.13,98.7 401.08,98.94 403.67,101.34 403.72,101.1 401.13,98.7" fill="#e6edff" stroke-width="0"/><path d="M403.72,101.1c.05-.02,1.07-.33,1.43-.45.57-.18.67-.65.23-1.06-.25-.23-.75-.7-1.01-.93-.44-.41-1.25-.59-1.82-.41-.36.11-1.37.43-1.43.45l2.59,2.4h.01Z" fill="#e6edff" stroke-width="0"/></g><path d="M403.43,99.5c.12.11.35.17.51.12s.19-.18.06-.29-.35-.17-.51-.12-.19.18-.07.29h.01Z" fill="#2a3949" stroke-width="0"/><path d="M406.44,108.59l1.31,1.22-.38,1.65c-.67-.79-.94-1.76-.93-2.86v-.01Z" fill="#7eccf4" stroke-width="0"/><path d="M407.37,111.46l.38-1.65l1.53-.48c-.36.76-1.05,1.46-1.9,2.12l-.01.01Z" fill="#294482" stroke-width="0"/><path d="M424.48,107.43l-.38,1.65-1.53.48c.36-.76,1.05-1.46,1.9-2.12l.01-.01Z" fill="#294482" stroke-width="0"/><path d="M409.28,109.33l-1.53.48-1.31-1.22c1.1,0,2.08.2,2.84.74Z" fill="#e6edff" stroke-width="0"/><path d="M403.97,87.22l1.53-.48l1.31,1.22c-1.1,0-2.08-.2-2.84-.74Z" fill="#e6edff" stroke-width="0"/><path d="M407.05,112.83l-.38,1.66-1.24-1.15c.51-.37,1.05-.54,1.62-.51Z" fill="#7eccf4" stroke-width="0"/><path d="M408.3,113.98l-1.63.51.38-1.66c.56.22.98.59,1.24,1.15h.01Z" fill="#294482" stroke-width="0"/><path d="M423.54,104.87l1.63-.51-.38,1.66c-.56-.22-.98-.59-1.24-1.15h-.01Z" fill="#294482" stroke-width="0"/><g><path d="M388.41,97.99l-1.26-1.17.37-1.62c.61.77.9,1.7.89,2.79Z" fill="#7eccf4" stroke-width="0"/><path d="M387.86,93.75l.37-1.62l1.28,1.19c-.46.35-1.03.45-1.65.43Z" fill="#7eccf4" stroke-width="0"/></g><path d="M389.51,93.32l-1.28-1.19l1.7-.53c.06.6-.08,1.18-.42,1.72Z" fill="#e6edff" stroke-width="0"/><path d="M423.89,103.18l1.28,1.19-1.63.51c-.06-.6,0-1.15.34-1.69l.01-.01Z" fill="#e6edff" stroke-width="0"/><path d="M393.22,102.48c-.32.64.55,1.73,1.95,2.43s2.79.75,3.11.11-.55-1.73-1.95-2.43-2.79-.75-3.11-.11Z" fill="#ffb087" stroke-width="0"/></g></g></g></g><g><g><g id="eev4rcVJqPA205_to" transform="translate(308.95491,312.4888)"><g transform="translate(-308.95491,-322.4888)"><g transform="matrix(.999867 0.016302-.016302 0.999867 4.752364 4.126164)"><g><path d="M316.57,291.53c1.6-.75,5.17-.18,5.4,1.57.29,2.17-13.7,20.83-15.9,22.07-2.94,1.65-3.67-4.8-3.77-6.41-.13-2.16,12.96-16.63,14.26-17.23h.01Z" fill="#2d4383" stroke-width="0"/><path d="M325.21,271.06c0,0-1.79,20.77-4.25,22.73-.82.65-3.53-2.09-4.03-3.01-.71-1.29,4.22-20.33,4.22-20.33l4.06.61Z" fill="#ffc4b1" stroke-width="0"/><path d="M318.74,279.06c-1.33,5.66-2.64,11.82-2.23,12.57.55,1.01,3.53,4.02,4.43,3.3c1.49-1.18,2.75-8.63,3.58-15.09-1.43-1.42-4.23-1.71-5.78-.79v.01Z" fill="#2d4383" stroke-width="0"/></g><g><path d="M318.99,262.82c-.37.51-.75,2.41-.04,2.73c1.49.69,1.21,2.49,2.18,3.08.6.37.27,1.22.04,1.79-.12.29-.16.54-.16.54l4.21.23c0,0,.4-1.43.84-3.11.33-1.3-.87-4.45-1.5-4.92-1.17-.87-5.2-.82-5.55-.34h-.02Z" fill="#ffc4b1" stroke-width="0"/><path d="M317.55,264.8c-.09-.1-.08-.26.03-.34.32-.26.94-.33,1.37.28.38.54,1.02,1.48,1.95,1.38l.44,2.46c0,0-1.5-.86-1.82-1.07-.6-.4-1.64-2.33-1.97-2.72v.01Z" fill="#ffc4b1" stroke-width="0"/></g></g><g><path d="M324.27,362.3c-6.94,5.85-20.16,12.63-22.39,13.13-2.4.54-4.95-5.59-3.28-7.3c3.72-3.83,11.62-3.86,21.95-11.02c2.31-.68,4.63,1.78,3.72,5.2v-.01Z" fill="#943d3d" stroke-width="0"/><path d="M328.48,359.92l-2.57-5.94c-2.47.98-4.71,2.73-6.41,4.21l2.34,5.15l6.65-3.42h-.01Z" fill="#ffc4b1" stroke-width="0"/><path d="M325.55,361.06c2.42,1.38,2.53.33,4.89,1.99c2.24,1.57,5.08,3.54,6.63,2.38l-9.62-13.66c-1.29.62-2.86,2.11-3.64,3.11-.78,3.29.64,5.31,1.73,6.19l.01-.01Z" fill="#2d4383" stroke-width="0"/><path d="M325.89,353.33c-.03-.17-.04-.33-.04-.49.54-.44,1.1-.83,1.61-1.08l9.62,13.66c-.61.46-1.23.47-1.91.27-.23-.07-8.6-8.36-9.28-12.36Z" fill="#c2c2c2" stroke-width="0"/><path d="M337.1,365.4c.65-.1-.78-5.24-4.94-9.04-1.54-2.29-2.43-4.91-4.39-4.67-.58.07-.77.7-.65,1.37.5,2.96,9.46,12.77,9.98,12.34Z" fill="#969696" stroke-width="0"/></g><path d="M324.27,362.3c-6.94,5.85-20.16,12.63-22.39,13.13-2.4.54-4.95-5.59-3.28-7.3c3.72-3.83,11.62-3.86,21.95-11.02-.57,1.15-.34,4.94,3.72,5.2v-.01Z" fill="#ed4395" stroke-width="0"/><path d="M296.6,347.37c-1.4,3.67-1.63,26.14-1.43,26.69c1.06,2.87,7.68,1.61,8.07.63.83-3.66,1.2-10.77,2.7-19.18c2.14-5.77.78-10.22-.42-11.41-4.51-4.51-8.14,1.2-8.93,3.27h.01Z" fill="#ed4395" stroke-width="0"/><path d="M288.14,290.75c-.24.75,0,1.89-.09,3.04-.17,2.3-.5,4.38-.02,6.57.55,2.54,1.1,4.58,4.12,3.18c2.81-1.3,4.59-1.83,4.39-5.95-.1-2.15,7.15-.1,7.82-3.22c1.19-5.52-2.69-9.81-6.89-10.05-4.87-.28-7.62,1.2-9.33,6.43Z" fill="#ffb087" stroke-width="0"/><path d="M291.69,377.9c.73-5.28,1.55-12.69,3.12-15.17c3.92-6.15,7.72-8.03,5.56-20.18l-14.29,4.72c-1.19,9.23-5.76,25.76-5.4,33.51.24,5.14,11.02-2.88,11.02-2.88h-.01Z" fill="#ff65a7" stroke-width="0"/><path d="M284.65,349.3c-.52-.8,1.86-3.72,2.07-11.08.13-4.68-4.5-14.02-4.53-16.47-.04-3.49,3.93-8.95,4.51-10.11.23-.46,1.62-.32,2.11-.73c3.94-3.38,14.32-5.74,18.07-2.6c2.51,2.1-2.28,16.99-2.95,25.89-.44,5.83,2.46,7.54,2.52,10.27.25,11.41-18.08,10.52-21.81,4.84l.01-.01Z" fill="#4d77c1" stroke-width="0"/><path d="M307.85,308.61c1.13-1.29,2.37-1.4,2.94-3.08.32-.95-.67-2.18-.59-2.79.17-1.27.31-2.3.26-2.93-.11-1.32-2.85-1.96-2.63-3.1.14-.71.5-1.31.61-2.02.16-.98-.83-1.66-.67-2.63.14-.83-.6-1.04-.6-1.88c0-1.17-.72-1.86-1.13-2.65-2.18-4.27-10.48-5.18-14.43-2.56-1.73,1.15-2.63,3.21-2.86,5.67-.11,1.2.26,2.46.34,3.82.07,1.29-.33,2.56-.1,3.92.18,1.06,1.78,2.14,1.99,3.2.22,1.14-.96,3.86-.77,4.95.18,1.03,1.26,1.93,1.38,2.87.42.82,2.39,1.12,3.41,1.56c1.03.44,2.03,1.5,3.36,1.61c1.34.11,2.38-1.48,3.73-1.62c1.36-.15,2.99,1.04,4.04.69c1.04-.35,1.31-2.54,1.72-3.01v-.02Z" fill="#5c3f2a" stroke-width="0"/><g><path d="M306.25,359.82c-1.43.96-2.75,1.68-3.96,2.26v8.95c3.82-2.63,6.65-4.75,6.52-5.03.57-1.69-.26-4.88-2.56-6.18Z" fill="#ab4646" stroke-width="0"/><path d="M313.26,363.93l-1.72-6.24c-2.58.63-5.04,2.05-6.93,3.29l1.6,5.42l7.05-2.47Z" fill="#ffc4b1" stroke-width="0"/><path d="M310.2,364.65c2.21,1.7,2.46.68,4.57,2.64c2,1.86,4.54,4.21,6.24,3.27l-7.63-14.86c-1.36.44-3.12,1.69-4.03,2.57-1.23,3.15-.1,5.34.86,6.37l-.01.01Z" fill="#2d4383" stroke-width="0"/><path d="M311.61,357.04c0-.17,0-.33.03-.49.59-.36,1.2-.67,1.74-.84l7.63,14.86c-.67.37-1.28.3-1.93,0-.21-.1-7.36-9.47-7.48-13.53h.01Z" fill="#c2c2c2" stroke-width="0"/><path d="M321.04,370.55c.66-.01-.04-5.3-3.64-9.64-1.21-2.48-1.73-5.2-3.7-5.24-.59,0-.86.59-.84,1.27.08,3,7.6,13.96,8.18,13.61Z" fill="#969696" stroke-width="0"/></g><path d="M308.81,366.01c-2.09.25-4.45-2.96-2.56-6.18-6.86,4.61-11.19,3.84-12.93,7.46c0,0-12,14.64-9.98,14.92c2.32.32,25.84-15.42,25.48-16.2h-.01Z" fill="#ff65a7" stroke-width="0"/><g transform="matrix(.999821 0.018917-.018917 0.999821 6.914357 0.971974)"><g><path d="M268.97,304.41c-1.81-.32-4.99,2.8-3.96,4.32.72,1.06,15.83,7.36,18.74,8c4.67,1.04,8-3.73,5.59-5.26-1.91-1.21-19.61-6.93-20.37-7.06Z" fill="#2d4383" stroke-width="0"/><path d="M266.34,301.5c-.86-.9-3.03-3.18-4.23-4.43-2.11-.8-4.87,2.62-4.75,4.2c2.64,3.19,6.1,6.45,7.78,7.66l1.2-7.44v.01Z" fill="#2e5194" stroke-width="0"/><path d="M251.26,292.81c0,0,11.71,15.54,14.95,15.94c1.08.14,2-3.76,1.95-4.85-.06-1.32-9.91-10.21-12.88-13.1-.46-.45-.83-.65-.83-.65l-3.19,2.65v.01Z" fill="#ffc4b1" stroke-width="0"/><path d="M269.08,304.47c-.03-.75-3.44-3.74-6.98-7.4.34,1.8-2.26,4.41-4.75,4.2c3.74,4.53,7.91,8.32,9.57,8.53c1.18.15,2.21-4.13,2.15-5.33h.01Z" fill="#2d4383" stroke-width="0"/></g><g><path d="M253.37,282.19c.57.31,1.77,1.92,1.26,2.54-1.09,1.31-.03,2.87-.66,3.86-.6.94,1.21,2.04,1.21,2.04l-3.9,2.17c0,0-1.01-1.16-2.17-2.54-.89-1.07-1.17-4.55-.79-5.27.71-1.34,4.5-3.08,5.04-2.79l.01-.01Z" fill="#ffc4b1" stroke-width="0"/><path d="M255.59,283.4c.03-.13-.04-.27-.17-.31-.41-.1-1.03.12-1.16.88-.11.67-.29,1.84-1.21,2.16l.69,2.49c0,0,1.02-1.47,1.23-1.81.38-.64.5-2.91.63-3.42l-.01.01Z" fill="#ffc4b1" stroke-width="0"/></g></g></g></g><path style="mix-blend-mode:multiply" d="M308.03,407.96c8.9,3.33,10.21,10.93,2.93,16.95-7.29,6.03-20.4,8.22-29.3,4.88-8.9-3.33-10.21-10.92-2.92-16.95c7.28-6.03,20.4-8.22,29.3-4.88h-.01Z" transform="matrix(1 0 0 0.666099 0 139.048122)" opacity="0.42" fill="#d0deff" stroke-width="0"/></g></g><g><g style="mix-blend-mode:multiply" opacity="0.42"><g style="isolation:isolate" transform="matrix(1 0 0 0.67 0 130.540409)"><ellipse rx="22.57" ry="13.07" transform="matrix(.999996-.002793 0.002793 0.999996 29.144739 395.577013)" fill="#d0deff" stroke-width="0"/></g></g><g id="eev4rcVJqPA247_to" transform="translate(29.047696,296.875221)"><g transform="translate(-29.047696,-296.875221)"><path d="M46.13,283.46c0-.99-3.91-6.03-4.38-11.34-.47-5.2-.49-8.28-3.16-9.99-5.4-3.46-8.61,1.17-8.61,1.17s4.43,24.17,13.29,25.65c3.72.62,2.85-5.49,2.85-5.49h.01Z" fill="#f2ac7d" stroke-width="0"/><path d="M47.35,325.66l-24.88-.4-2.68,4.56c0,0,10.73,1.88,13.01,2.82s16.18,6.08,21.08,4s3.54-5.74,3.54-5.74l-10.06-5.23-.01-.01Z" fill="#cb2069" stroke-width="0"/><path d="M14.07,320.79c-1.19.23-2.29.64-2.21,4.29.13,6.04-1.09,12.51.34,13.68c1.72,1.42,3.71,1.31,4.32-1.04.6-2.35,2.14-11.4,2.14-11.4-1.18-3.04-1.15-6.2-4.57-5.54l-.02.01Z" fill="#4a3b13" stroke-width="0"/><path d="M14.85,321.31c0,0-2.38-.74-2.21,4.29.2,6.04-1.21,12.68.34,13.68s3.89.13,4.49-2.21c.6-2.35,1.81-8.72,1.81-8.72-1.18-3.04-1.32-6.84-4.43-7.04Z" fill="#d1e7f4" stroke-width="0"/><path d="M33.2,299.51c0,0,22.47,20.86,24.35,29.98s-7.78,5.03-8.79,4.36-30.92-29.17-30.92-29.17l15.36-5.16v-.01Z" fill="#cb2069" stroke-width="0"/><g id="eev4rcVJqPA253_to" transform="translate(50.63632,275.908356)"><g id="eev4rcVJqPA253_tr" transform="rotate(0)"><g transform="translate(-50.63632,-275.908355)"><path d="M53.42,273.63c0,0,.04-.55-.38-1.53s-1.45-.48-2.26-4.5c0,0-1.3-.64-.66-2.18l1.5-.49c0,0,.91-1.67,1.58-2.14s1.13-1.01,3.64.84c0,0,2.12,4.65.84,7.74c0,0-.02,2.35-.44,2.82s-2.23,1.46-3.81-.56h-.01Z" fill="#ffb584" stroke-width="0"/><path d="M53.25,272.62l-8.61,10.17c0,0-4.1,7.74,1.45,6.57c4.85-1.02,10.57-10.6,11.13-15.24.26-2.18-3.97-1.5-3.97-1.5Z" fill="#ffb584" stroke-width="0"/></g></g></g><path d="M42.12,272.28c-.5-5.53-.52-8.81-3.36-10.63-5.75-3.68-9.16,1.25-9.16,1.25s1.32,7.18,3.95,14.18c3.26,2.79,8.46-1.56,8.56-4.8h.01Z" fill="#0a2a6b" stroke-width="0"/><path d="M10.63,336.93c-1.8.69-2.52,3.57-1.21,8.92.38,1.57-.39,4.39.28,6.37c1.03,3.03,3.26,4.77,4.66,4.59c2.69-.35,1.98-8.95,1.98-8.95s-.38-7.02-1.11-8.74c-.55-1.3-1.55-2.74-4.61-2.19h.01Z" fill="#4a3b13" stroke-width="0"/><path d="M11.6,337.41c-1.8.69-2.52,3.57-1.21,8.92.38,1.57-.39,4.39.28,6.37c1.03,3.03,2.68,4.24,4.09,4.06c2.69-.35,2.56-8.42,2.56-8.42s-1.38-7.31-2.11-9.03c-.55-1.3-.55-2.46-3.61-1.91v.01Z" fill="#d1e7f4" stroke-width="0"/><path d="M13.38,344.78c-1.1,1.35-1.16,3.31-.25,4.34c1.14,1.29,2.6,1.75,3.65,1.14c1.14-.65.82-4.58.82-4.58l-1.04-3.4-3.18,2.5Z" fill="#4a3b13" stroke-width="0"/><path d="M14.13,305.88c0,0,.58,15.66,3.34,24.51s5.7,20.13,5.99,22.89s6.82,7.54,8.56-3.92-.46-14.13-.19-18.1c.58-8.7-3.92-29.15-3.92-29.15l-13.78,3.77Z" fill="#ff65a7" stroke-width="0"/><path d="M27.48,344.88c0,0-8.76-.86-10.41-1.21s-4.51,3.71-1.81,6.57c0,0,2.06.85,3.16,1.91c0,0,3.86,4.26,6.17,4.91s5.87-1.5,6.32-3.61-3.43-8.57-3.43-8.57Z" fill="#ff65a7" stroke-width="0"/><path d="M11.75,344.23c0,0,.15.55,1.45.5s.95-1,2.06-1.2c1.1-.2,1.55.15,1.96-.7.4-.85-2.69-4.97-2.69-4.97l-2.77,6.38-.01-.01Z" fill="#d1e7f4" stroke-width="0"/><path d="M24.29,258.01c0,0-13.5,2.35-15.41,5.96-3.93,7.4,3.47,21.62,5.4,28.43c1.09,3.87-.81,16.92-.22,18.02c1.51,2.77,16.11.87,19.35-2.38c1.44-1.44,2.81-3.41,3.04-4.85.34-2.08-3.12-11.28-2.6-13.84c2.72-13.32,3.07-23.7.35-27.31-2.15-2.84-5.57-3.71-9.91-4.03Z" fill="#4d77c1" stroke-width="0"/><path d="M20.18,251.37l.91,7.17c0,0-1.31.36-1.02,1.6.29,1.23,2.68,6.97,8.48,7.9c5.38.87,1.47-8.5,2.06-13.71l-10.44-2.95.01-.01Z" fill="#f2ac7d" stroke-width="0"/><path d="M33.97,244.75c-1.06-4.13-7.85-9.44-13.23-6.77-9.3,4.63-5.28,12.96-3.94,13.36c0,0-.77,2.74,4.09,4.82c0,0,1.25.39,1.4-.59c0,0,.18,1.09.89,1.43c0,0,7.49,4.42,11.48,1.41c2.3-1.74.58-7.51-.54-11.34-.29-.98.04-1.64-.14-2.31l-.01-.01Z" fill="#ffb584" stroke-width="0"/><path d="M9.22,263.32c-2.21,1.27-4.77,6.7-5.88,13.25-1.22,7.19-3.74,12.78-3.28,15.6c1.1,6.69,4.74,3.7,4.74,3.7s11.7-24.21,11.29-28.44c-.38-3.95-2.81-6.45-6.87-4.12v.01Z" fill="#f2ac7d" stroke-width="0"/><path d="M9.19,262.84c-2.34,1.35-5.04,7.09-6.22,14.01.79,3.41,5.99,6.76,9.64,2.44c2.23-5.4,4.01-10.35,3.84-12.1-.41-4.18-2.97-6.82-7.26-4.35Z" fill="#0a2a6b" stroke-width="0"/><g id="eev4rcVJqPA268_to" transform="translate(16.468059,286.924392)"><g id="eev4rcVJqPA268_tr" transform="rotate(31.777152)"><g transform="translate(-13.468058,-282.924392)"><path d="M17.55,277.25c-.02-.09-1.3-2.06-1.48-3.66-.32-2.86.65-3.22,2.37-3.4.22-.97,1.87-3.63,3-1.05c0,0,.7-1.07,1.36.41c0,0,.89-.39,1.2.84c0,0,.87.29.9,1.51.04,1.22-.64,4.32-2.44,5.95-1.16,1.06-4.9-.6-4.9-.6h-.01Z" fill="#ffb584" stroke-width="0"/><path d="M17.65,277.08c-1,.59-5.02,5.93-6.97,7.37-1.91,1.41-8.28,5.26-8.64,9.87-.17,3.33,3.62,3.76,4.96,3.36s6.36-3.16,8.93-8c2.72-5.12,6.23-10.74,6.19-11.55-.1-1.84-3.47-1.64-4.47-1.05Z" fill="#ffb584" stroke-width="0"/></g></g></g><g><path d="M33.72,248.08c1.71-1.24.56-2.26.21-3.29-1.14-3.42-6.06-10.81-12.98-7.29-2.85,1.45-10.48,7.87-4.27,13.83c1.4-.16,3.46,1.62,4.59,2.87.28.01.47.02.7,0-.2-.53-2.56-2.8-2.5-4.02.14-2.87,1.91-1.1,3.78-1.73c5.7-1.93,7.56,1.74,10.47-.37Z" fill="#4f2914" stroke-width="0"/><path d="M36.19,243.71c.51,1.4-.17,3.31-2.18,4.17-2.01.85-4.51-.83-5.57-3.33-1.06-2.49-2.48-8.24-.65-7.04c2.87,1.88,6.77,1.72,8.4,6.2Z" fill="#4f2914" stroke-width="0"/></g></g></g></g><g style="mix-blend-mode:multiply" transform="matrix(1 0 0 0.67 0 87.058948)" opacity="0.42"><path d="M374.98,252.91c10.43,6.02,10.49,15.79.12,21.81-10.36,6.02-27.22,6.02-37.65,0s-10.49-15.79-.12-21.81c10.36-6.02,27.22-6.02,37.65,0Z" fill="#d0deff" stroke-width="0"/></g></g></g></g></g></svg>
