<svg id="eUyPp7WCs4F1" xmlns="http://www.w3.org/2000/svg" xmlns:xlink="http://www.w3.org/1999/xlink" viewBox="0 0 275.5 359.8" shape-rendering="geometricPrecision" text-rendering="geometricPrecision">
<style><![CDATA[
#eUyPp7WCs4F21 {animation: eUyPp7WCs4F21_c_o 3000ms linear infinite normal forwards}@keyframes eUyPp7WCs4F21_c_o { 0% {opacity: 0} 30% {opacity: 0} 36.666667% {opacity: 1} 100% {opacity: 1}} #eUyPp7WCs4F22_to {animation: eUyPp7WCs4F22_to__to 3000ms linear infinite normal forwards}@keyframes eUyPp7WCs4F22_to__to { 0% {transform: translate(148.67234px,134.81749px)} 6.666667% {transform: translate(148.67234px,134.81749px)} 16.666667% {transform: translate(148.562437px,145.566833px)} 100% {transform: translate(148.562437px,145.566833px)}} #eUyPp7WCs4F22 {animation: eUyPp7WCs4F22_c_o 3000ms linear infinite normal forwards}@keyframes eUyPp7WCs4F22_c_o { 0% {opacity: 0} 6.666667% {opacity: 0} 16.666667% {opacity: 1} 100% {opacity: 1}} #eUyPp7WCs4F29_to {animation: eUyPp7WCs4F29_to__to 3000ms linear infinite normal forwards}@keyframes eUyPp7WCs4F29_to__to { 0% {transform: translate(185.550957px,132.360054px)} 13.333333% {transform: translate(185.550957px,132.360054px)} 23.333333% {transform: translate(184.699999px,143.872441px)} 100% {transform: translate(184.699999px,143.872441px)}} #eUyPp7WCs4F29 {animation: eUyPp7WCs4F29_c_o 3000ms linear infinite normal forwards}@keyframes eUyPp7WCs4F29_c_o { 0% {opacity: 0} 13.333333% {opacity: 0} 23.333333% {opacity: 1} 100% {opacity: 1}} #eUyPp7WCs4F36_to {animation: eUyPp7WCs4F36_to__to 3000ms linear infinite normal forwards}@keyframes eUyPp7WCs4F36_to__to { 0% {transform: translate(226.603981px,127.817493px)} 20% {transform: translate(226.603981px,127.817493px)} 30% {transform: translate(226.426131px,136.687332px)} 100% {transform: translate(226.426131px,136.687332px)}} #eUyPp7WCs4F36 {animation: eUyPp7WCs4F36_c_o 3000ms linear infinite normal forwards}@keyframes eUyPp7WCs4F36_c_o { 0% {opacity: 0} 20% {opacity: 0} 30% {opacity: 1} 100% {opacity: 1}} #eUyPp7WCs4F43_to {animation: eUyPp7WCs4F43_to__to 3000ms linear infinite normal forwards}@keyframes eUyPp7WCs4F43_to__to { 0% {transform: translate(112.11903px,130.960052px)} 10% {transform: translate(112.188474px,143.872437px)} 100% {transform: translate(112.188474px,143.872437px)}} #eUyPp7WCs4F43 {animation: eUyPp7WCs4F43_c_o 3000ms linear infinite normal forwards}@keyframes eUyPp7WCs4F43_c_o { 0% {opacity: 0} 10% {opacity: 1} 100% {opacity: 1}} #eUyPp7WCs4F51_to {animation: eUyPp7WCs4F51_to__to 3000ms linear infinite normal forwards}@keyframes eUyPp7WCs4F51_to__to { 0% {transform: translate(51.048815px,212.618851px)} 36.666667% {transform: translate(51.048815px,212.618851px)} 50% {transform: translate(50.3px,173.202034px)} 100% {transform: translate(50.3px,173.202034px)}} #eUyPp7WCs4F51 {animation: eUyPp7WCs4F51_c_o 3000ms linear infinite normal forwards}@keyframes eUyPp7WCs4F51_c_o { 0% {opacity: 0} 36.666667% {opacity: 0} 50% {opacity: 1} 100% {opacity: 1}} #eUyPp7WCs4F76_to {animation: eUyPp7WCs4F76_to__to 3000ms linear infinite normal forwards}@keyframes eUyPp7WCs4F76_to__to { 0% {transform: translate(142.730782px,255.091667px)} 23.333333% {transform: translate(142.730782px,255.091667px)} 33.333333% {transform: translate(143.277238px,204.45px)} 100% {transform: translate(143.277238px,204.45px)}} #eUyPp7WCs4F76 {animation: eUyPp7WCs4F76_c_o 3000ms linear infinite normal forwards}@keyframes eUyPp7WCs4F76_c_o { 0% {opacity: 0} 23.333333% {opacity: 0} 33.333333% {opacity: 1} 100% {opacity: 1}} #eUyPp7WCs4F85 {animation: eUyPp7WCs4F85_c_o 3000ms linear infinite normal forwards}@keyframes eUyPp7WCs4F85_c_o { 0% {opacity: 0} 23.333333% {opacity: 1} 46.666667% {opacity: 0} 66.666667% {opacity: 1} 86.666667% {opacity: 0} 100% {opacity: 1}} #eUyPp7WCs4F86_to {animation: eUyPp7WCs4F86_to__to 3000ms linear infinite normal forwards}@keyframes eUyPp7WCs4F86_to__to { 0% {transform: translate(222.1511px,326.699997px)} 43.333333% {transform: translate(222.1511px,326.699997px)} 53.333333% {transform: translate(221.077294px,301.6px)} 100% {transform: translate(221.077294px,301.6px)}} #eUyPp7WCs4F86 {animation: eUyPp7WCs4F86_c_o 3000ms linear infinite normal forwards}@keyframes eUyPp7WCs4F86_c_o { 0% {opacity: 0} 43.333333% {opacity: 0} 53.333333% {opacity: 1} 100% {opacity: 1}}
]]></style>
<defs><linearGradient id="eUyPp7WCs4F11-fill" x1="249.4" y1="201.6" x2="203.2" y2="201.6" spreadMethod="pad" gradientUnits="userSpaceOnUse" gradientTransform="translate(0 0)"><stop id="eUyPp7WCs4F11-fill-0" offset="30%" stop-color="#da1066"/><stop id="eUyPp7WCs4F11-fill-1" offset="60%" stop-color="#ff65ab"/></linearGradient><linearGradient id="eUyPp7WCs4F14-fill" x1="211.1" y1="193.2" x2="164.9" y2="193.2" spreadMethod="pad" gradientUnits="userSpaceOnUse" gradientTransform="translate(0 0)"><stop id="eUyPp7WCs4F14-fill-0" offset="30%" stop-color="#4397fb"/><stop id="eUyPp7WCs4F14-fill-1" offset="60%" stop-color="#8ec2ff"/></linearGradient><linearGradient id="eUyPp7WCs4F17-fill" x1="136.4" y1="170.6" x2="90.2" y2="170.6" spreadMethod="pad" gradientUnits="userSpaceOnUse" gradientTransform="translate(0 0)"><stop id="eUyPp7WCs4F17-fill-0" offset="30%" stop-color="#9797ee"/><stop id="eUyPp7WCs4F17-fill-1" offset="60%" stop-color="#c7c7ff"/></linearGradient><linearGradient id="eUyPp7WCs4F20-fill" x1="171" y1="182.6" x2="124.9" y2="182.6" spreadMethod="pad" gradientUnits="userSpaceOnUse" gradientTransform="translate(0 0)"><stop id="eUyPp7WCs4F20-fill-0" offset="30%" stop-color="#ffa600"/><stop id="eUyPp7WCs4F20-fill-1" offset="60%" stop-color="#fc0"/></linearGradient><linearGradient id="eUyPp7WCs4F23-fill" x1="143.4" y1="117.5" x2="156.9" y2="150.9" spreadMethod="pad" gradientUnits="userSpaceOnUse" gradientTransform="translate(0 0)"><stop id="eUyPp7WCs4F23-fill-0" offset="40%" stop-color="#ffc100"/><stop id="eUyPp7WCs4F23-fill-1" offset="100%" stop-color="#ff8200"/></linearGradient><linearGradient id="eUyPp7WCs4F27-fill" x1="137.6" y1="135.2" x2="156.4" y2="135.2" spreadMethod="pad" gradientUnits="userSpaceOnUse" gradientTransform="translate(0 0)"><stop id="eUyPp7WCs4F27-fill-0" offset="40%" stop-color="#ffc100"/><stop id="eUyPp7WCs4F27-fill-1" offset="100%" stop-color="#ff8200"/></linearGradient><linearGradient id="eUyPp7WCs4F30-fill" x1="180.4" y1="115.2" x2="193.9" y2="148.6" spreadMethod="pad" gradientUnits="userSpaceOnUse" gradientTransform="translate(0 0)"><stop id="eUyPp7WCs4F30-fill-0" offset="40%" stop-color="#ffc100"/><stop id="eUyPp7WCs4F30-fill-1" offset="100%" stop-color="#ff8200"/></linearGradient><linearGradient id="eUyPp7WCs4F34-fill" x1="174.6" y1="133" x2="193.4" y2="133" spreadMethod="pad" gradientUnits="userSpaceOnUse" gradientTransform="translate(0 0)"><stop id="eUyPp7WCs4F34-fill-0" offset="40%" stop-color="#ffc100"/><stop id="eUyPp7WCs4F34-fill-1" offset="100%" stop-color="#ff8200"/></linearGradient><linearGradient id="eUyPp7WCs4F37-fill" x1="221.4" y1="110.5" x2="234.9" y2="143.9" spreadMethod="pad" gradientUnits="userSpaceOnUse" gradientTransform="translate(0 0)"><stop id="eUyPp7WCs4F37-fill-0" offset="40%" stop-color="#ffc100"/><stop id="eUyPp7WCs4F37-fill-1" offset="100%" stop-color="#ff8200"/></linearGradient><linearGradient id="eUyPp7WCs4F41-fill" x1="215.6" y1="128.2" x2="234.3" y2="128.2" spreadMethod="pad" gradientUnits="userSpaceOnUse" gradientTransform="translate(0 0)"><stop id="eUyPp7WCs4F41-fill-0" offset="40%" stop-color="#ffc100"/><stop id="eUyPp7WCs4F41-fill-1" offset="100%" stop-color="#ff8200"/></linearGradient><linearGradient id="eUyPp7WCs4F44-fill" x1="106.9" y1="113.7" x2="120.4" y2="147.1" spreadMethod="pad" gradientUnits="userSpaceOnUse" gradientTransform="translate(0 0)"><stop id="eUyPp7WCs4F44-fill-0" offset="40%" stop-color="#ffc100"/><stop id="eUyPp7WCs4F44-fill-1" offset="100%" stop-color="#ff8200"/></linearGradient><linearGradient id="eUyPp7WCs4F48-fill" x1="101.2" y1="131.5" x2="119.9" y2="131.5" spreadMethod="pad" gradientUnits="userSpaceOnUse" gradientTransform="translate(0 0)"><stop id="eUyPp7WCs4F48-fill-0" offset="40%" stop-color="#ffc100"/><stop id="eUyPp7WCs4F48-fill-1" offset="100%" stop-color="#ff8200"/></linearGradient><linearGradient id="eUyPp7WCs4F60-fill" x1="38.448812" y1="163.492815" x2="70.058725" y2="181.742815" spreadMethod="pad" gradientUnits="userSpaceOnUse" gradientTransform="translate(0 0)"><stop id="eUyPp7WCs4F60-fill-0" offset="50%" stop-color="#e87c00"/><stop id="eUyPp7WCs4F60-fill-1" offset="100%" stop-color="#c86d00"/></linearGradient><linearGradient id="eUyPp7WCs4F61-fill" x1="25.2" y1="184.2" x2="88" y2="184.2" spreadMethod="pad" gradientUnits="userSpaceOnUse" gradientTransform="translate(0 0)"><stop id="eUyPp7WCs4F61-fill-0" offset="40%" stop-color="#ffc100"/><stop id="eUyPp7WCs4F61-fill-1" offset="100%" stop-color="#ff8200"/></linearGradient><linearGradient id="eUyPp7WCs4F63-fill" x1="25.2" y1="191.1" x2="88" y2="191.1" spreadMethod="pad" gradientUnits="userSpaceOnUse" gradientTransform="translate(0 0)"><stop id="eUyPp7WCs4F63-fill-0" offset="40%" stop-color="#ffc100"/><stop id="eUyPp7WCs4F63-fill-1" offset="100%" stop-color="#ff8200"/></linearGradient><linearGradient id="eUyPp7WCs4F64-fill" x1="25.2" y1="197.9" x2="88" y2="197.9" spreadMethod="pad" gradientUnits="userSpaceOnUse" gradientTransform="translate(0 0)"><stop id="eUyPp7WCs4F64-fill-0" offset="40%" stop-color="#ffc100"/><stop id="eUyPp7WCs4F64-fill-1" offset="100%" stop-color="#ff8200"/></linearGradient><linearGradient id="eUyPp7WCs4F65-fill" x1="25.2" y1="204.7" x2="88.1" y2="204.7" spreadMethod="pad" gradientUnits="userSpaceOnUse" gradientTransform="translate(0 0)"><stop id="eUyPp7WCs4F65-fill-0" offset="40%" stop-color="#ffc100"/><stop id="eUyPp7WCs4F65-fill-1" offset="100%" stop-color="#ff8200"/></linearGradient><linearGradient id="eUyPp7WCs4F68-fill" x1="25.2" y1="211.5" x2="88" y2="211.5" spreadMethod="pad" gradientUnits="userSpaceOnUse" gradientTransform="translate(0 0)"><stop id="eUyPp7WCs4F68-fill-0" offset="40%" stop-color="#ffc100"/><stop id="eUyPp7WCs4F68-fill-1" offset="100%" stop-color="#ff8200"/></linearGradient><linearGradient id="eUyPp7WCs4F69-fill" x1="25.2" y1="218.3" x2="88" y2="218.3" spreadMethod="pad" gradientUnits="userSpaceOnUse" gradientTransform="translate(0 0)"><stop id="eUyPp7WCs4F69-fill-0" offset="40%" stop-color="#ffc100"/><stop id="eUyPp7WCs4F69-fill-1" offset="100%" stop-color="#ff8200"/></linearGradient><linearGradient id="eUyPp7WCs4F70-fill" x1="25.2" y1="225.1" x2="88" y2="225.1" spreadMethod="pad" gradientUnits="userSpaceOnUse" gradientTransform="translate(0 0)"><stop id="eUyPp7WCs4F70-fill-0" offset="40%" stop-color="#ffc100"/><stop id="eUyPp7WCs4F70-fill-1" offset="100%" stop-color="#ff8200"/></linearGradient><linearGradient id="eUyPp7WCs4F71-fill" x1="25.2" y1="231.9" x2="88" y2="231.9" spreadMethod="pad" gradientUnits="userSpaceOnUse" gradientTransform="translate(0 0)"><stop id="eUyPp7WCs4F71-fill-0" offset="40%" stop-color="#ffc100"/><stop id="eUyPp7WCs4F71-fill-1" offset="100%" stop-color="#ff8200"/></linearGradient><linearGradient id="eUyPp7WCs4F72-fill" x1="28" y1="196.3" x2="52" y2="255.7" spreadMethod="pad" gradientUnits="userSpaceOnUse" gradientTransform="translate(0 0)"><stop id="eUyPp7WCs4F72-fill-0" offset="40%" stop-color="#ffc100"/><stop id="eUyPp7WCs4F72-fill-1" offset="100%" stop-color="#ff8200"/></linearGradient><linearGradient id="eUyPp7WCs4F73-fill" x1="9.950544" y1="220.401299" x2="42.862448" y2="240.569761" spreadMethod="pad" gradientUnits="userSpaceOnUse" gradientTransform="translate(0 0)"><stop id="eUyPp7WCs4F73-fill-0" offset="50%" stop-color="#e87c00"/><stop id="eUyPp7WCs4F73-fill-1" offset="100%" stop-color="#c86d00"/></linearGradient><linearGradient id="eUyPp7WCs4F81-fill" x1="92.701955" y1="216.500343" x2="175.584478" y2="266.893686" spreadMethod="pad" gradientUnits="userSpaceOnUse" gradientTransform="translate(0 0)"><stop id="eUyPp7WCs4F81-fill-0" offset="50%" stop-color="#e87c00"/><stop id="eUyPp7WCs4F81-fill-1" offset="100%" stop-color="#c86d00"/></linearGradient><linearGradient id="eUyPp7WCs4F82-fill" x1="138.4" y1="155.5" x2="198.9" y2="304.1" spreadMethod="pad" gradientUnits="userSpaceOnUse" gradientTransform="translate(0 0)"><stop id="eUyPp7WCs4F82-fill-0" offset="40%" stop-color="#ffc100"/><stop id="eUyPp7WCs4F82-fill-1" offset="100%" stop-color="#ff8200"/></linearGradient></defs><path d="M203.5,234.1l-11.4,6.5-3.3-1.9c.6-.1,1.1-.3,1.7-.6l13.1-7.4v3.5v0l-.1-.1Zm-38.2-12.2v.2c0,.1,0,.3,0,.4v0c0,0,0,2.6,0,2.6l-2.9-1.6l2.9-1.6Zm0-11.1L152.7,218l-3.1-1.8c.3-.1.6-.2.8-.4l14.8-8.4v3.4v0h.1ZM88,180.8l2.5-1.4v.2c0,.1,0,.3,0,.5v2.1l-1.3-.8c-.4-.2-.8-.4-1.2-.6v0Zm37.3,9.3v3.5l-7.5,4.3-3.2-1.8c.4-.1.8-.3,1.2-.6l9.5-5.4v0ZM123,200.9l2.3-1.3v.3c0,.1,0,.3,0,.4v0c0,0,0,1.9,0,1.9l-2.2-1.3v0h-.1Z" fill="#d0deff" fill-rule="evenodd" stroke-width="0"/><g><path d="M268.4,80.3v-36.5l1.3-1l5.8-3.4v36.7l-7.1,4.2v0Zm-33.3,35.3L260,75.7l3.5,1.9-21.1,33.9-7.3,4.1v0Zm-61.3,8l-10.7,6.2l25.6-41.1l5.2,3v0c0,0-20,31.8-20,31.8l-.1.1ZM90.6,157L76.1,180.3c-.8.2-1.5.6-2.2.9l-2.2,1.3c-.4-.8-.7-1.5-1.1-2.2-.2-.4-.4-.9-.7-1.3l20.7-33.2v11.2v0Zm20.2-43.7l6.3-10.1l5.2,3v0c0,0-5.8,9.3-5.8,9.3l-15.9,22.8-3.2,1.9v0l-5.2,3v0l6.3-10.1" fill="#e62b7b" fill-rule="evenodd" stroke-width="0"/><polygon points="268.4,45.8 241.3,65.3 239.4,64.3 268.4,43.8 268.4,45.8" fill="#ffb0d2" fill-rule="evenodd" stroke-width="0"/><path d="M193.9,91.8l-5.2-3-25.6,41.1-2.6-1.4-18.1-10.4-20.3-11.7-5.2-3-6.3,10.1-12.3,19.7L92,143.3l-.4.2c-.8.4-1.2.9-1.2,1.3v1.1L69.7,179.1c0-.2-.2-.4-.3-.6-.2-.3-.3-.6-.5-.9v0c0,0-.9-1.7-.9-1.7-1.6-2.9-3.3-5.7-5-8.3l50.4-80.5l45.2,26.1h.1c0,0,.6.4.6.4l.8-1.1v0l25-39.9L231,99.1l.7-1.1l3.1-5l14.4-23.2-7.9-4.4l27.2-19.5v34.5l-4.9-2.7-3.5-1.9-24.9,39.9-41.3-23.9Z" fill="#ff65a7" fill-rule="evenodd" stroke-width="0"/><path d="M162.6,106.9l-3.1,4.9-45.2-26.1v0c0,0,5.9-3.4,5.9-3.4l42.5,24.6v0h-.1Zm72.3-14l-3.1,5-45.9-26.5v0c0,0,5.9-3.5,5.9-3.5l43.1,25v0Z" fill="#fdaacd" fill-rule="evenodd" stroke-width="0"/><path d="M63.1,167.4c-.2-.2-.3-.5-.5-.7l50.2-80.1l1.3-.8v0c0,0,45.2,26.1,45.2,26.1l3.1-4.9l21.9-34.8l1.3-.8v0c0,0,45.9,26.5,45.9,26.5l-.7,1.1-45.9-26.5-25,39.9v0l-.8,1.1-.6-.3h-.1c0,0-45.2-26.2-45.2-26.2L62.8,167.5v0l.3-.1Z" fill="#ffd4e6" fill-rule="evenodd" stroke-width="0"/></g><g><path d="M219.7,133.8c3.1-1.8,7-1.9,10.2-.3l18,8.8c.8.4,1.2.9,1.2,1.4v.3v0c0,.4-.4.8-1.2,1.2l-7.6,4.3v0c0,0-11.7,6.8-11.7,6.8-1.6.9-3.3.9-4.9,0l-19.1-11.1c-.7-.4-1.1-.8-1.2-1.2v0c0-.1,0-.2,0-.4c0-.3.3-.6.7-.9.1-.1.3-.2.5-.3l15-8.6h.1Z" fill="#ff9fc8" fill-rule="evenodd" stroke-width="0"/><path d="M249.2,242v3.9c0,.5-.4,1-1.2,1.5l-19.2,11c-1.7,1-3.3,1-5,0l-19.1-11c-.9-.6-1.3-1.1-1.1-1.7v-2.9c0,0,0,0,0,0c0-.2,0-.4,0-.5v-90.1c0,0,0-8.4,0-8.4.2.4.6.8,1.2,1.2l19.1,11.1c1.7.9,3.3.9,4.9,0l11.7-6.8v0c0,0,7.6-4.4,7.6-4.4.8-.4,1.2-.8,1.2-1.2v98v0l-.1.3Z" fill="url(#eUyPp7WCs4F11-fill)" fill-rule="evenodd" stroke-width="0"/></g><g><path d="M181.1,137.6c4.1-2.3,9-2.4,13.2-.3l9.9,5.4c-.4.3-.6.6-.7.9c0,.1,0,.2,0,.3v8.4l-1.4.8v0l-1.7,1v0l-9.9,5.8c-1.7.9-3.3.9-5,0l-19-11c-.7-.4-1.1-.8-1.3-1.2v0c0,0,0,0,0,0s0-.2,0-.3c0-.4.5-.9,1.2-1.2l.6-.4l14-8.1.1-.1Z" fill="#c6dfff" fill-rule="evenodd" stroke-width="0"/><path d="M203.5,230.6L190.4,238c-.6.3-1.1.6-1.7.6l-23.6-13.5v-2.7c0,0,0,0,0,0c0-.2,0-.3,0-.4v-69.6c0,0,0-4.9,0-4.9.2.4.6.8,1.3,1.2l19,11c1.7.9,3.3,1,5,0l9.9-5.8v0l1.7-1v0l1.4-.8v78.2c0,0,0,0,0,0l.1.3Z" fill="url(#eUyPp7WCs4F14-fill)" fill-rule="evenodd" stroke-width="0"/></g><g><path d="M119,134l15.2,8.7L132,144v0l-5.6,3.3c-.8.4-1.2.9-1.2,1.3v0c0,.1,0,.2,0,.3v0c0,0,0,0,0,0v0c0,0,0,2.8,0,2.8l-9.4,5.5c-1.7.9-3.3.9-5,0l-19-11c-.5-.2-.8-.5-1-.8c0-.1-.2-.2-.2-.4v-.4c0-.4.5-.9,1.2-1.3l.4-.2l5.2-3v0l3.2-1.9l7.5-4.3c3.4-1.9,7.5-1.9,10.9,0v.1Z" fill="#ddf" fill-rule="evenodd" stroke-width="0"/><path d="M90.6,145c0,.1.1.2.2.4.2.3.6.5,1,.8l19.1,11c1.7.9,3.3.9,5,0l9.4-5.5v38.3l-9.5,5.4c-.4.2-.8.4-1.2.6L95.2,184.9l-4.6-2.7v-2.1c0-.2,0-.4,0-.5c0,0,0-34.5,0-34.5v-.1Z" fill="url(#eUyPp7WCs4F17-fill)" fill-rule="evenodd" stroke-width="0"/></g><g><path d="M142,138.3c3.8-2.2,8.5-2.1,12.3,0l12.8,7.4-.6.4c-.8.4-1.2.8-1.2,1.2c0,.1,0,.2,0,.3v5l-3.1,1.8v0c0,0-1.8,1-1.8,1v0l-9.9,5.8c-1.7.9-3.3.9-5,0l-19-11c-.7-.4-1.1-.8-1.2-1.2v0c0-.1,0-.2,0-.3v0c0-.5.4-.9,1.2-1.4l5.6-3.3v0l2.2-1.3v0c0,0,2.5-1.4,2.5-1.4l5.3-3h-.1Z" fill="#ffe064" fill-rule="evenodd" stroke-width="0"/><path d="M125.3,193.6v-44.7c.1.4.5.8,1.2,1.2l19,11c1.7.9,3.3.9,5,0l9.9-5.8v0l1.8-.9v0c0,0,3.1-1.8,3.1-1.8v54.7c0,0-14.8,8.4-14.8,8.4-.3.2-.6.3-.8.4l-24.3-14v-2c0,0,0,0,0,0c0-.2,0-.3,0-.4v-6.3v0l-.1.2Z" fill="url(#eUyPp7WCs4F20-fill)" fill-rule="evenodd" stroke-width="0"/></g><polygon id="eUyPp7WCs4F21" points="191.5,204.6 194.6,204.2 192.4,206.3 189.1,209.5 194.6,214.7 187,213.7 186.8,216.9 186.4,221.3 185.6,220 182.4,214.8 176,219 178.7,211.8 171.4,209.5 178.7,207.1 178,205.3 176,200 178.4,201.5 182.4,204.1 186.3,197.6 187,205.2 191.5,204.6" opacity="0" fill="#fff" fill-rule="evenodd" stroke-width="0"/><g id="eUyPp7WCs4F22_to" transform="translate(148.67234,134.81749)"><g id="eUyPp7WCs4F22" transform="translate(-148.562436,-145.566829)" opacity="0"><path d="M142.5,117.9v0c.1-.1.3-.2.4-.2.2-.1.4-.2.5-.2h.2c.9-.5,1.9-.6,3-.5h.4c.4,0,.7,0,1,0c.8.1,1.6.4,2.4.7.2,0,.4.2.6.3.7.3,1.4.7,2.2,1.2.2.1.3.2.5.4.2,0,.3.2.4.4c1.1.8,2.2,1.8,3.2,3c.1.1.2.2.2.3c1,1.3,1.9,2.6,2.7,4c0,.2.1.4.2.5c0,.2.2.4.2.6.2.4.4.9.6,1.4.3.7.5,1.3.8,2c0,.1,0,.2.1.4.5,1.6.8,3.2.9,4.7c0,.1,0,.3,0,.4.2,1.5.1,2.9-.2,4.3v.5c-.1.2-.2.5-.2.8s0,.1,0,.1c-.2.7-.4,1.4-.7,2.1c0,.2-.1.4-.2.5-.4.8-.8,1.5-1.2,2.1-.2.3-.4.6-.6.7-.9,1-1.9,1.8-3,2.4l-2.2.9c3-1.4,4.9-4.1,5.7-8c.1-.6.2-1.1.3-1.7.5-3.7,0-7.5-1.7-11.4-.6-1.6-1.4-3-2.2-4.3-1.6-2.6-3.6-4.7-6-6.2-.6-.4-1.2-.7-1.8-1.1-2.3-1.1-4.6-1.5-6.7-1.1v0h.2Zm6,6.1c2.2,1.3,4.1,3.4,5.6,6.2c1.6,3.1,2.4,6.1,2.2,9.2c0,.1,0,.2,0,.3-.2,3.2-1.3,5.6-3.3,6.9c0,0,0,0,0,0-2,1.3-4.2,1.3-6.8,0-.2-.2-.6-.3-.9-.5-2.1-1.3-4-3.3-5.5-6.1c0-.2-.2-.3-.3-.5-.3-.6-.6-1.2-.7-1.9-.9-2.4-1.4-4.8-1.2-7.2.2-3.2,1.2-5.5,3.1-6.9.2-.1.4-.2.6-.4c1.9-.9,4-.8,6.4.3.2.2.5.3.7.4v0l.1.2Z" fill="url(#eUyPp7WCs4F23-fill)" fill-rule="evenodd" stroke-width="0"/><path d="M136.7,141.3c-.2-.5-.4-1-.6-1.4-1.9-4.6-2.3-9-1.4-13.2.8-3.9,2.7-6.5,5.5-7.8l2-.8c.1,0,.2,0,.3,0v0c2.1-.4,4.4,0,6.7,1.1.6.4,1.2.7,1.8,1.1c2.4,1.6,4.4,3.7,6,6.2.8,1.3,1.5,2.7,2.2,4.3c1.6,3.9,2.2,7.8,1.7,11.4c0,.6-.2,1.1-.3,1.7-.8,4-2.7,6.6-5.7,8-.2,0-.3,0-.4.1-3.1,1.2-6.2.8-9.6-1.3-.2,0-.4-.2-.5-.4-3.2-2.1-5.7-5.1-7.6-8.9v0l-.1-.1Z" fill="#fff8c7" fill-rule="evenodd" stroke-width="0"/><path d="M160.3,141.7c.5-3.5,0-7.2-1.6-11-.8-1.9-1.6-3.6-2.7-5-1.4-2-3.1-3.7-5.1-5-.6-.4-1.2-.7-1.7-1-1.9-.9-3.8-1.3-5.5-1.2-.7,0-1.4.2-2,.4-.1,0-.3.1-.5.2-1.3.5-2.4,1.3-3.3,2.4-1.6,1.6-2.5,3.9-2.8,6.8-.6,3.6,0,7.4,1.5,11.3.2.5.4.9.6,1.4c1.8,3.7,4.2,6.6,7.3,8.6.2.1.3.2.4.4c3.2,2,6.4,2.4,9.3,1.2.1,0,.3-.1.5-.2c2.7-1.3,4.5-3.8,5.4-7.6.1-.6.2-1.1.3-1.7v0h-.1Z" fill="#fff8c7" fill-rule="evenodd" stroke-width="0"/><path d="M160.3,141.7c0,.6-.2,1.1-.3,1.7-.9,3.8-2.7,6.4-5.4,7.6-.2,0-.4.1-.5.2-3,1.2-6.1.8-9.3-1.2-.1-.1-.3-.2-.4-.4-3.1-2-5.5-4.9-7.3-8.6-.2-.4-.4-.9-.6-1.4-1.5-3.9-2-7.7-1.5-11.3.3-2.9,1.2-5.2,2.8-6.8.9-1.1,2.1-1.9,3.3-2.4.2,0,.4,0,.5-.2.7-.2,1.3-.4,2-.4c1.8-.2,3.6.2,5.5,1.2.6.3,1.1.7,1.7,1c2,1.3,3.7,2.9,5.1,5c1.1,1.5,1.9,3.2,2.7,5c1.6,3.8,2.1,7.4,1.6,11v0h.1Z" fill="#fff07c" fill-rule="evenodd" stroke-width="0"/><path d="M148.5,124c-.2-.1-.5-.3-.7-.4-2.4-1.1-4.6-1.2-6.4-.3-.2.1-.4.2-.6.4-1.9,1.4-2.9,3.7-3.1,6.9-.2,2.4.2,4.8,1.2,7.2.2.6.4,1.2.7,1.9c0,.2.2.3.3.5c1.5,2.8,3.3,4.8,5.5,6.1.4.2.7.4.9.5c2.5,1.3,4.8,1.3,6.8,0c0,0,0,0,0,0c2-1.4,3.1-3.7,3.3-6.9c0-.1,0-.2,0-.3.2-3-.6-6.1-2.2-9.2-1.5-2.8-3.4-4.9-5.6-6.2v0l-.1-.2Z" fill="url(#eUyPp7WCs4F27-fill)" fill-rule="evenodd" stroke-width="0"/><path d="M146.6,127.5c0,0,.2,0,.4.1.2,0,.3.1.3.2.3.4.4.7.4.8s0,.6,0,1.5v0c.9.6,1.6,1.1,1.9,1.7.2.3.3.6.3,1.1c0,0,0,.1.1.3c0,0,0,.1,0,0c0,.1,0,.2,0,.3c0,.2-.2.2-.4.1c0,0-.1,0-.2-.1s-.2-.2-.2-.2c-.5-.4-1-.8-1.5-1.2-.1-.1-.4-.2-.7-.4-1.2-.5-1.8-.4-1.7.5c0,0,0,.2,0,.2.1.5.5,1.1,1,1.6.2.2.9.7,2.1,1.6.9.7,1.6,1.4,2.1,2c.7.9,1.1,1.8,1.2,2.8.1,1.3-.2,2.1-1,2.4-.6.2-1.4.2-2.4-.1c0,1.1,0,1.7-.1,1.9c0,.2-.3.2-.7,0-.1,0-.2,0-.3,0c0,0-.1,0-.2-.1c0,0,0-.1-.1,0c0,0,0,0,0,0s0,0-.2-.2c-.1-.1-.2-.2-.2-.2h-.1c0,0,0-.1,0-.2v-1.8c-1.2-.9-1.9-1.4-2.1-1.6-.3-.3-.5-.7-.5-1.2c0-.8,0-1,.5-.8.1,0,.3.1.4.3.3.3.5.5.6.6.6.5,1.4,1,2.4,1.4.6.2,1,.3,1.4.1.3-.1.4-.4.4-.8c0-.6-.4-1.2-1-1.8-.1-.2-.8-.7-2-1.7-.9-.8-1.6-1.5-2.1-2.1-.6-.8-1-1.6-1.1-2.5c0-.1,0-.2,0-.4-.1-1.1.1-1.8.8-2.1.3-.1.6-.2,1.1-.2.3,0,.7,0,1.1.2c0-1,0-1.7.1-1.8c0-.1.3,0,.7,0v0l-.5-.2Z" fill="#fff" fill-rule="evenodd" stroke-width="0"/></g></g><g id="eUyPp7WCs4F29_to" transform="translate(185.550957,132.360054)"><g id="eUyPp7WCs4F29" transform="translate(-184.699945,-143.872437)" opacity="0"><path d="M199.7,140.2c0,.1,0,.3,0,.5-.2.8-.4,1.5-.7,2.2c0,.2-.1.3-.2.5-.4.8-.8,1.4-1.2,2.1-.2.3-.4.5-.6.7-.8,1-1.8,1.8-3,2.3l-2.1.9c2.9-1.4,4.8-4.1,5.6-8.1.2-.8.3-1.5.4-2.3.4-3.5-.2-7.1-1.7-10.9-1.9-4.6-4.6-8.1-8.1-10.4-.6-.4-1.2-.7-1.8-1.1-2.4-1.2-4.8-1.6-7-1h.2c.2-.2.4-.3.5-.3.2-.1.4-.2.5-.2h.2c.9-.4,1.9-.6,3-.5h.4c.4,0,.7,0,1,.1.8.1,1.5.4,2.3.7.2,0,.5.1.6.2.7.3,1.4.7,2.1,1.2.2.1.4.2.5.4.2,0,.4.2.5.4c1.1.9,2.2,1.9,3.1,3c.1.1.2.2.3.2c1,1.3,1.9,2.6,2.7,4.1c0,.2.1.3.2.4.3.6.6,1.3.8,2c.3.6.6,1.3.8,2c0,.1,0,.2,0,.4.6,1.6.9,3.2.9,4.7c0,.1,0,.3,0,.5.1,1.5,0,2.9-.2,4.3v.5c0,.1-.1.2-.1.4v0l.1.1ZM191.2,128c1.5,2.9,2.3,5.7,2.2,8.5c0,.3,0,.6,0,.9-.2,3.2-1.3,5.6-3.3,6.9c0,0-.1,0-.1.1-2,1.3-4.2,1.3-6.8,0-.2-.2-.5-.4-.9-.5-1.7-1.1-3.2-2.6-4.5-4.5-.3-.5-.7-1.1-1-1.6-.4-.8-.7-1.5-.9-2.3-1-2.4-1.4-4.8-1.2-7.2.2-3.2,1.2-5.4,3.1-6.8.2-.1.4-.2.5-.4c1.9-.9,4-.8,6.4.2.2.2.5.4.7.5c2.3,1.3,4.2,3.4,5.7,6.2v0h.1Z" fill="url(#eUyPp7WCs4F30-fill)" fill-rule="evenodd" stroke-width="0"/><path d="M174.8,141.1c-.7-1.1-1.3-2.3-1.8-3.6-1.8-4.4-2.3-8.7-1.4-12.7c0-.2,0-.3.1-.5.8-3.9,2.6-6.5,5.5-7.8l1.6-.7.4-.2c2.2-.6,4.6-.2,7,1c.6.4,1.2.7,1.8,1.1c3.6,2.3,6.3,5.8,8.1,10.4c1.5,3.8,2.1,7.4,1.7,10.9c0,.8-.2,1.6-.4,2.3-.8,4-2.7,6.7-5.6,8.1-.2,0-.4,0-.5,0-3,1.3-6.2.9-9.6-1.2-.2,0-.4-.2-.5-.4-2.6-1.7-4.7-4-6.4-6.8v0v.1Z" fill="#fff8c7" fill-rule="evenodd" stroke-width="0"/><path d="M186.1,117.4c-2.6-1.3-5.2-1.6-7.6-.7-.1,0-.2,0-.4.2v0c-1.3.5-2.4,1.3-3.4,2.3-1.3,1.3-2.1,3.1-2.6,5.3-.1.5-.2,1-.2,1.5-.5,3.6,0,7.4,1.5,11.3.5,1.2,1.1,2.4,1.8,3.5c1.6,2.7,3.6,4.9,6.1,6.5.2.1.4.2.5.4c3.2,2,6.4,2.4,9.3,1.1.1,0,.3-.1.4-.2c2.8-1.2,4.6-3.8,5.4-7.6.2-.8.3-1.5.4-2.2.4-3.3-.2-6.8-1.7-10.4-1.8-4.4-4.4-7.8-7.8-10-.6-.4-1.2-.7-1.7-1v0Z" fill="#fff8c7" fill-rule="evenodd" stroke-width="0"/><path d="M186.1,117.4c.6.3,1.1.6,1.7,1c3.4,2.2,6,5.5,7.8,10c1.5,3.6,2,7,1.7,10.4c0,.8-.2,1.5-.4,2.2-.8,3.9-2.6,6.4-5.4,7.6-.2,0-.3.1-.4.2-3,1.2-6.1.9-9.3-1.1-.1-.1-.3-.2-.5-.4-2.4-1.6-4.5-3.8-6.1-6.5-.6-1.1-1.2-2.2-1.8-3.5-1.5-3.9-2.1-7.7-1.5-11.3c0-.5.1-1.1.2-1.5.4-2.2,1.3-4,2.6-5.3c1-1.1,2.1-1.8,3.4-2.3v0c.1,0,.3-.1.4-.2c2.4-.9,4.9-.6,7.6.7v0Z" fill="#fff07c" fill-rule="evenodd" stroke-width="0"/><path d="M191.2,128c-1.5-2.8-3.4-4.9-5.7-6.2-.2-.1-.5-.3-.7-.5-2.4-1.1-4.6-1.2-6.4-.2-.2.1-.3.2-.5.4-1.9,1.4-3,3.7-3.1,6.8-.2,2.4.2,4.8,1.2,7.2.2.8.6,1.6.9,2.3.3.6.6,1.1,1,1.6c1.3,2,2.8,3.5,4.5,4.5.4.2.6.3.9.5c2.5,1.3,4.8,1.3,6.8,0c0,0,0-.1.1-.1c2-1.4,3.1-3.7,3.3-6.9c0-.3,0-.6,0-.9c0-2.8-.7-5.7-2.2-8.5v0h-.1Z" fill="url(#eUyPp7WCs4F34-fill)" fill-rule="evenodd" stroke-width="0"/><path d="M183.5,124.4c0,0,.2,0,.4.1.2,0,.3.1.3.2.3.4.4.7.4.8s0,.6,0,1.5v0c.9.6,1.6,1.1,1.9,1.7.2.3.3.6.3,1.1c0,0,0,.1.1.3c0,0,0,.1,0,0c0,.1,0,.2,0,.3c0,.2-.2.2-.4.1c0,0-.1,0-.2-.1s-.2-.2-.2-.2c-.5-.4-1-.8-1.5-1.2-.1-.1-.4-.2-.7-.4-1.2-.5-1.8-.4-1.7.5c0,0,0,.2,0,.2.1.5.5,1.1,1,1.6.2.2.9.7,2.1,1.6.9.7,1.6,1.4,2.1,2c.7.9,1.1,1.8,1.2,2.8.1,1.3-.2,2.1-1,2.4-.6.2-1.4.2-2.4-.1c0,1.1,0,1.7-.1,1.9c0,.2-.3.2-.7,0-.1,0-.2,0-.3,0c0,0-.1,0-.2-.1c0,0,0-.1-.1,0c0,0,0,0,0,0s0,0-.2-.2c-.1-.1-.2-.2-.2-.2h-.1c0,0,0-.1,0-.2v-1.8c-1.2-.9-1.9-1.4-2.1-1.6-.3-.3-.5-.7-.5-1.2c0-.8,0-1,.5-.8.1,0,.3.1.4.3.3.3.5.5.6.6.6.5,1.4,1,2.4,1.4.6.2,1,.3,1.4.1.3-.1.4-.4.4-.8c0-.6-.4-1.2-1-1.8-.1-.2-.8-.7-2-1.7-.9-.8-1.6-1.5-2.1-2.1-.6-.8-1-1.6-1.1-2.5c0-.1,0-.2,0-.4-.1-1.1.1-1.8.8-2.1.3-.1.6-.2,1.1-.2.3,0,.7,0,1.1.2c0-1,0-1.7.1-1.8c0-.1.3,0,.7,0v0l-.5-.2Z" fill="#fff" fill-rule="evenodd" stroke-width="0"/></g></g><g id="eUyPp7WCs4F36_to" transform="translate(226.603981,127.817493)"><g id="eUyPp7WCs4F36" transform="translate(-226.426092,-136.687313)" opacity="0"><path d="M240,137.8c0,.1-.1.3-.1.4c0,.2-.1.4-.2.5-.4.8-.8,1.5-1.2,2.1-.2.3-.4.6-.6.7-.8,1-1.8,1.8-3,2.4l-2.1.9c2.9-1.4,4.8-4,5.6-7.9v0c1-4.3.6-8.7-1.3-13.2-1.9-4.6-4.6-8.1-8.1-10.5-.6-.4-1.2-.7-1.8-1.1-2.4-1.1-4.6-1.5-6.8-1.1.2-.1.4-.2.5-.2.2-.1.3-.2.5-.2h.2c.9-.5,1.9-.6,3-.5h.4c.3,0,.5,0,.7,0c0,0,.2,0,.3,0c.8.1,1.5.4,2.3.7.2,0,.5.2.6.3.7.3,1.4.7,2.1,1.2.2.1.4.2.5.4.2,0,.4.2.5.4.9.6,1.7,1.4,2.5,2.2.2.3.5.5.7.8.1.1.2.2.3.3c1,1.2,1.9,2.6,2.7,4c0,.2.1.4.2.5.3.6.6,1.2.8,2c.3.7.6,1.3.8,2c0,.1,0,.3,0,.4.6,1.6.9,3.2.9,4.7c0,.1.1.3.1.4.1,1.5,0,2.9-.2,4.3v.5c-.1.2-.2.5-.2.8-.2.6-.4,1.2-.6,1.8v0Zm-20.7-21.5c1.9-.9,4-.8,6.4.3.2.2.5.3.7.4c2.3,1.3,4.2,3.4,5.7,6.2c1.7,3.2,2.4,6.4,2.1,9.5c0,.5,0,1.1-.1,1.5-.4,2.4-1.4,4.2-3.1,5.4c0,0-.1,0-.1,0-2,1.3-4.2,1.3-6.8,0-.2-.2-.5-.3-.9-.5-1.8-1.1-3.4-2.7-4.7-4.8-.3-.4-.6-.9-.8-1.3-.4-.8-.7-1.6-.9-2.4-1-2.4-1.4-4.8-1.2-7.2.2-3.2,1.2-5.5,3.1-6.9.2-.1.4-.2.5-.4v0l.1.2Z" fill="url(#eUyPp7WCs4F37-fill)" fill-rule="evenodd" stroke-width="0"/><path d="M232.8,144.8c-.2,0-.4,0-.5.1-3,1.2-6.2.8-9.6-1.3-.2,0-.4-.2-.5-.4-2.7-1.7-4.9-4.1-6.6-7.1-.6-1-1.1-2.1-1.6-3.3-1.9-4.6-2.3-9-1.3-13.2.8-3.9,2.6-6.5,5.5-7.8l2-.8c0,0,.2,0,.2,0c2.1-.4,4.4,0,6.8,1.1.6.4,1.2.7,1.8,1.1c3.5,2.4,6.2,5.9,8.1,10.5s2.3,8.9,1.3,13.2v0c-.8,4-2.7,6.6-5.6,8v0-.1Z" fill="#fff8c7" fill-rule="evenodd" stroke-width="0"/><path d="M219.1,112.2c-1.3.5-2.4,1.3-3.4,2.4-1.5,1.6-2.5,3.9-2.8,6.8-.6,3.6,0,7.4,1.5,11.3.5,1.1,1,2.2,1.6,3.2c1.7,2.8,3.8,5.1,6.3,6.8.2.1.4.2.5.4c3.2,2,6.3,2.4,9.3,1.2.1,0,.3-.1.5-.2c2.8-1.2,4.5-3.8,5.4-7.6c0,0,0,0,0,0c1-4,.6-8.2-1.2-12.6-1.8-4.5-4.4-7.8-7.8-10-.6-.4-1.2-.7-1.7-1-2.6-1.3-5.2-1.5-7.6-.7-.1,0-.3.1-.4.2v0l-.2-.2Z" fill="#fff8c7" fill-rule="evenodd" stroke-width="0"/><path d="M219.1,112.2c.2,0,.3,0,.4-.2c2.4-.8,4.9-.6,7.6.7.6.3,1.1.7,1.7,1c3.4,2.2,6,5.6,7.8,10s2.2,8.6,1.2,12.6c0,0,0,0,0,0-.8,3.8-2.6,6.3-5.4,7.6-.2,0-.4.1-.5.2-2.9,1.2-6,.8-9.3-1.2-.1-.1-.3-.2-.5-.4-2.5-1.7-4.6-4-6.3-6.8-.6-1-1.1-2.1-1.6-3.2-1.6-3.9-2.1-7.7-1.5-11.3.3-2.9,1.2-5.2,2.8-6.8c1-1.1,2.1-1.9,3.4-2.4v0l.2.2Z" fill="#fff07c" fill-rule="evenodd" stroke-width="0"/><path d="M219.3,116.3c-.2.1-.3.2-.5.4-1.9,1.4-3,3.7-3.1,6.9-.2,2.4.2,4.8,1.2,7.2.2.8.6,1.6.9,2.4.2.5.5.9.8,1.3c1.3,2.1,2.9,3.7,4.7,4.8.4.2.6.4.9.5c2.5,1.3,4.8,1.3,6.8,0c0,0,0,0,.1,0c1.6-1.1,2.7-2.9,3.1-5.4c0-.5.1-1,.1-1.5.3-3.1-.4-6.3-2.1-9.5-1.5-2.8-3.4-4.9-5.7-6.2-.2-.1-.5-.3-.7-.4-2.4-1.1-4.6-1.2-6.4-.3v0l-.1-.2Z" fill="url(#eUyPp7WCs4F41-fill)" fill-rule="evenodd" stroke-width="0"/><path d="M224.4,119.6c0,0,.2,0,.4.1.2,0,.3.1.3.2.3.4.4.7.4.8s0,.6,0,1.5v0c.9.6,1.6,1.1,1.9,1.6.2.3.3.6.3,1.1c0,0,0,.2.1.3c0,0,0,0,0,0c0,.1,0,.2,0,.3c0,.2-.2.2-.4.1c0,0-.1,0-.2-.2-.1,0-.2-.2-.2-.2-.5-.4-1-.8-1.5-1.2-.1,0-.4-.2-.7-.4-1.2-.5-1.8-.3-1.7.5c0,0,0,.2,0,.2.1.5.5,1.1,1,1.6.2.2.9.7,2.1,1.6.9.7,1.6,1.4,2.1,2c.7.9,1.1,1.8,1.2,2.8.1,1.3-.2,2.1-1,2.4-.6.2-1.4.2-2.4-.1c0,1.1,0,1.7-.1,1.9c0,.2-.3.2-.7,0-.1,0-.2,0-.3,0c0,0-.1,0-.2-.1c0,0,0-.1-.1,0c0,0,0,0,0,0s0,0-.2-.2c-.1-.1-.2-.2-.2-.2h-.1c0,0,0-.1,0-.2v-1.8c-1.2-.9-1.9-1.4-2.1-1.6-.3-.3-.5-.7-.5-1.2c0-.8,0-1,.5-.8.1,0,.3.1.4.3.3.3.5.5.6.6.6.5,1.4,1,2.4,1.4.6.2,1,.3,1.4.1.3-.1.4-.4.4-.8c0-.6-.4-1.2-1-1.8-.1-.2-.8-.7-2-1.7-.9-.8-1.6-1.5-2.1-2.1-.6-.8-1-1.6-1.1-2.5c0-.1,0-.2,0-.4-.1-1.1.1-1.8.8-2.1.3-.1.6-.2,1.1-.2.3,0,.7,0,1.1.2c0-1,0-1.7.1-1.8c0-.1.3,0,.7,0v0h-.5Z" fill="#fff" fill-rule="evenodd" stroke-width="0"/></g></g><g id="eUyPp7WCs4F43_to" transform="translate(112.11903,130.960052)"><g id="eUyPp7WCs4F43" transform="translate(-112.188446,-143.872433)" opacity="0"><path d="M110.8,113.3c.2,0,.4,0,.6,0c.8.1,1.6.4,2.4.7.2,0,.5.2.7.3.7.3,1.4.6,2.1,1.1c0,0,0,0,0,0c.2.1.4.2.5.4.2,0,.4.2.5.4c1.2.8,2.2,1.8,3.1,3c.1.1.2.2.3.2c1,1.3,1.9,2.6,2.7,4.1c0,.2.1.3.2.4.3.6.6,1.3.8,2c.3.6.6,1.3.8,2c0,.1,0,.2,0,.4.6,1.6.8,3.2.9,4.7c0,.1.1.3.1.5.1,1.5,0,2.9-.2,4.3v.5c-.1.2-.2.5-.2.8-.2.8-.4,1.5-.7,2.2c0,.2-.1.3-.2.5-.4.8-.8,1.5-1.2,2.1-.2.3-.4.5-.7.7-.8,1-1.8,1.8-3,2.3l-2.1.9c2.9-1.4,4.8-4.1,5.6-8.1.2-.9.4-1.9.4-2.8.3-3.3-.3-6.8-1.8-10.3-1.7-4.2-4.2-7.5-7.2-9.8-.3-.2-.6-.4-.9-.6-.6-.4-1.2-.7-1.8-1.1-.9-.4-1.7-.8-2.6-1-1.4-.4-2.9-.4-4.2,0c.2-.2.4-.2.5-.2.2-.1.3-.2.4-.2h.2c1-.4,2-.6,3-.5h.4c.1,0,.3,0,.4,0v0l.2.1Zm2.2,7.6c1.9,1.3,3.4,3.2,4.7,5.6c1.4,2.7,2.1,5.3,2.2,8c0,.5,0,1,0,1.5-.2,3.3-1.2,5.6-3.2,7c0,0-.1,0-.1,0-2,1.3-4.2,1.3-6.8,0-.2-.2-.5-.3-.9-.5-2.1-1.3-3.9-3.3-5.4-5.9v-.2c-.5-.8-.9-1.6-1.1-2.4-.7-1.8-1.1-3.5-1.2-5.3c0-.6,0-1.3,0-1.9.2-3.2,1.2-5.4,3.1-6.8.2-.1.3-.2.5-.4.7-.4,1.5-.6,2.3-.6c1.3,0,2.6.2,4.1.9.2.2.5.4.7.5.3.2.7.4,1,.6v0l.1-.1Z" fill="url(#eUyPp7WCs4F44-fill)" fill-rule="evenodd" stroke-width="0"/><path d="M118.4,148c-.2,0-.4,0-.5,0-3,1.3-6.2.9-9.6-1.2-.2,0-.4-.2-.5-.4-3-1.9-5.5-4.7-7.3-8.2-.3-.7-.7-1.4-1-2.2-.4-1.1-.8-2.1-1-3.1-.9-3.5-1.1-6.8-.3-10.1.9-3.9,2.7-6.5,5.5-7.8l2-.8c0,0,.2,0,.2,0c1.4-.3,2.8-.3,4.2,0c.8.2,1.7.5,2.6,1c.6.4,1.2.7,1.8,1.1.3.2.6.4.9.6c3.1,2.3,5.5,5.6,7.2,9.8c1.4,3.6,2,7,1.8,10.4c0,.9-.2,1.9-.4,2.8-.8,4-2.7,6.7-5.6,8.1v0Z" fill="#fff8c7" fill-rule="evenodd" stroke-width="0"/><path d="M104.6,115.4c-1.3.5-2.4,1.2-3.3,2.3-1.5,1.6-2.5,3.9-2.8,6.9-.4,2.5-.3,5.1.4,7.7.3,1.2.7,2.3,1.2,3.5.3.7.6,1.4.9,2.1c1.7,3.4,4,6,6.9,7.9.2.1.4.2.5.4c3.2,2,6.3,2.4,9.3,1.2.1,0,.3-.1.5-.2c2.8-1.3,4.6-3.8,5.4-7.7.2-.9.4-1.8.4-2.8.3-3.2-.3-6.5-1.7-9.9-1.7-4.1-4.1-7.2-7.1-9.5-.2-.2-.5-.3-.7-.5-.6-.4-1.2-.7-1.7-1-1-.5-1.9-.8-2.9-1-1.6-.3-3.2-.2-4.7.3-.1,0-.3,0-.5.2v0l-.1.1Z" fill="#fff8c7" fill-rule="evenodd" stroke-width="0"/><path d="M104.6,115.4c.2,0,.4-.1.5-.2c1.5-.6,3.1-.7,4.7-.3c1,.2,1.9.5,2.9,1c.5.3,1.1.7,1.7,1c.3.2.5.3.7.5c3,2.2,5.4,5.4,7.1,9.5c1.4,3.4,2,6.7,1.7,9.9c0,.9-.2,1.9-.4,2.8-.8,3.9-2.6,6.4-5.4,7.7-.2,0-.4.1-.5.2-2.9,1.2-6,.8-9.3-1.2-.1-.1-.3-.2-.5-.4-2.9-1.9-5.2-4.6-6.9-7.9-.3-.7-.7-1.4-.9-2.1-.5-1.2-.9-2.4-1.2-3.5-.6-2.7-.8-5.2-.4-7.7.3-3,1.2-5.3,2.8-6.9.9-1.1,2.1-1.8,3.3-2.3v0l.1-.1Z" fill="#fff07c" fill-rule="evenodd" stroke-width="0"/><path d="M113,120.9c-.3-.2-.6-.4-1-.6-.2-.1-.5-.3-.7-.5-1.4-.6-2.8-.9-4.1-.9-.8,0-1.6.3-2.3.6-.2.1-.4.2-.5.4-1.9,1.4-3,3.7-3.1,6.8c0,.6,0,1.3,0,1.9c0,1.8.5,3.5,1.2,5.3.2.8.6,1.6,1,2.4v.2c1.6,2.6,3.4,4.6,5.5,5.9.4.2.7.4.9.5c2.5,1.3,4.8,1.3,6.8,0c0,0,0,0,.1,0c2-1.4,3.1-3.7,3.2-7c0-.5,0-1,0-1.5c0-2.6-.8-5.3-2.2-7.9-1.3-2.4-2.8-4.3-4.7-5.6v0h-.1Z" fill="url(#eUyPp7WCs4F48-fill)" fill-rule="evenodd" stroke-width="0"/><path d="M110,123.5c0,0,.2,0,.3.1.2,0,.3.1.3.2.3.4.4.7.4.8s0,.6,0,1.5v0c.9.6,1.6,1.1,1.9,1.6.2.3.3.6.3,1.1c0,0,0,.1.1.3c0,0,0,.1,0,0c0,.1,0,.2,0,.3c0,.2-.2.2-.4.1c0,0-.1,0-.2-.1s-.2-.2-.2-.2c-.5-.4-1-.8-1.5-1.2-.2,0-.4-.2-.7-.4-1.2-.5-1.8-.3-1.7.5c0,0,0,.2,0,.2.1.5.5,1.1,1,1.6.2.2.9.7,2.1,1.6.9.7,1.6,1.4,2.1,2c.7.9,1.1,1.8,1.2,2.8.2,1.3-.2,2.1-1,2.4-.6.2-1.4.2-2.4-.1c0,1.1,0,1.7-.1,1.9c0,.2-.3.2-.7,0-.1,0-.2,0-.3,0c0,0-.1,0-.2-.1c0,0,0-.1,0,0c0,0,0,0,0,0s0,0-.2-.2c-.1-.1-.2-.2-.2-.2v0c0,0,0-.1,0-.2v-1.8c-1.2-.9-1.9-1.4-2.1-1.6-.3-.3-.5-.7-.5-1.2c0-.8,0-1,.5-.8.1,0,.3.1.4.3.3.3.5.5.6.6.6.5,1.4,1,2.4,1.4.6.2,1,.3,1.4.1.3-.1.4-.4.4-.8c0-.6-.4-1.2-1-1.8-.2-.2-.8-.7-2-1.7-.9-.8-1.6-1.5-2.1-2.1-.6-.8-1-1.6-1.1-2.5c0-.1,0-.2,0-.4-.1-1.1.1-1.8.8-2.1.3-.1.6-.2,1.1-.2.3,0,.7,0,1.1.2c0-1,0-1.7.1-1.8c0-.1.3,0,.7,0v0l-.6-.1Z" fill="#fff" fill-rule="evenodd" stroke-width="0"/><path d="M109.9,121.8c0,0,.2,0,.4.1.2,0,.3.1.3.2.3.5.5.8.5.9s0,.7,0,1.6v0c1,.7,1.8,1.2,2.1,1.8.2.3.3.7.4,1.2c0,0,0,.2.1.3c0,0,0,.1,0,0c0,.1,0,.2,0,.3c0,.2-.2.2-.5.2c0,0-.2-.1-.3-.2s-.2-.2-.3-.2c-.6-.4-1.1-.8-1.7-1.3-.2-.1-.4-.2-.8-.4-1.4-.6-2-.4-1.9.6c0,0,0,.2,0,.3.1.6.5,1.2,1.1,1.8.2.2,1,.8,2.3,1.9c1.1.8,1.8,1.6,2.4,2.3.8,1,1.2,2,1.3,3.2.2,1.4-.2,2.3-1.2,2.7-.7.3-1.6.2-2.7-.2c0,1.2,0,1.9-.1,2.2c0,.2-.4.2-.8,0-.1,0-.2,0-.3-.1c0,0-.2-.1-.2-.2c0,0,0-.1-.1-.1c0,0,0,0,0,0s0-.1-.2-.2c-.1-.1-.2-.2-.2-.2h-.1c0,0,0-.2,0-.2v-2c-1.3-.9-2.1-1.6-2.4-1.8-.3-.4-.5-.8-.6-1.4c0-.9,0-1.2.6-.9.1,0,.3.2.4.3.3.3.6.6.6.6.7.6,1.6,1.1,2.7,1.6.7.3,1.2.3,1.5.2s.5-.5.4-.9c0-.6-.5-1.3-1.2-2-.2-.2-.9-.8-2.3-1.9-1.1-.9-1.8-1.6-2.3-2.4-.7-.9-1.1-1.8-1.3-2.8c0-.1,0-.3,0-.4-.2-1.2.1-2,.9-2.4.3-.2.7-.2,1.2-.2.3,0,.8,0,1.2.2c0-1.2,0-1.8.1-2.1c0-.1.4,0,.8.1v0l.2-.1Z" fill="#fff" fill-rule="evenodd" stroke-width="0"/></g></g><g id="eUyPp7WCs4F51_to" transform="translate(51.048815,212.618851)"><g id="eUyPp7WCs4F51" transform="translate(-50.3,-173.202034)" opacity="0"><ellipse style="isolation:isolate" rx="19.8" ry="34.4" transform="matrix(.392337-.919822 0.919822 0.392337 59.054506 231.913439)" opacity="0.4" fill="#d0deff" stroke-width="0"/><ellipse style="isolation:isolate" rx="11.4" ry="23.1" transform="matrix(.392337-.919822 0.919822 0.392337 32.867927 250.688698)" opacity="0.4" fill="#d0deff" stroke-width="0"/><path d="M40.3,260.4c-.3,0-.6.2-.9.3-5.3,2.2-11,1.5-17-2.2-.4-.2-.7-.4-1-.6-3.9-2.5-7.2-5.8-10-9.9-1.7-2.6-3.2-5.4-4.5-8.6-3.3-8.2-4.1-16.1-2.4-23.5C6,209,9.3,204.3,14.4,202l3.4-1.4c2.4-.6,4.8-.6,7.2,0c.2,0,.5.1.7.1.7.2,1.5.4,2.2.6.8.3,1.6.6,2.4,1c1.1.6,2.1,1.2,3.2,1.9c2,1.3,3.9,2.9,5.6,4.6c1.3,1.4,2.6,2.9,3.8,4.5.9,1.3,1.8,2.7,2.6,4.2.6,1.2,1.2,2.4,1.8,3.6.2.5.5,1.1.7,1.6.3.7.6,1.4.8,2.2.4,1.1.7,2.2,1,3.4s.6,2.4.8,3.6c.2,1.1.3,2.2.4,3.3c0,1.2.1,2.4.1,3.5s0,2.2-.2,3.2c-.1,1.2-.3,2.4-.6,3.5c0,.2,0,.4-.1.6-.2.9-.4,1.7-.7,2.5-1.8,5.7-4.9,9.6-9.4,11.7v0l.2.2Z" fill="#fff8c7" fill-rule="evenodd" stroke-width="0"/><path d="M88.1,173.9c0,.9-.2,1.8-.5,2.7-1.1,3.6-4,6.8-8.8,9.5-6.1,3.5-13.5,5.3-22.2,5.3s-16.1-1.8-22.2-5.3c-.9-.5-1.7-1.1-2.5-1.7-3.3-2.3-5.3-5-6.2-7.9-.2-.8-.4-1.7-.5-2.6c0-.3-.1-.5-.1-.7c0-.5,0-1,.1-1.5.6-4.4,3.6-8.1,9.1-11.3c6.1-3.5,13.5-5.3,22.2-5.4c7.5,0,14.1,1.4,19.7,4.1.8.4,1.7.8,2.5,1.3c5.6,3.2,8.7,7.1,9.3,11.4v2.1v0h.1Z" fill="#fff8c7" fill-rule="evenodd" stroke-width="0"/><path d="M33,183.8c.7.6,1.5,1.1,2.4,1.6c5.8,3.4,12.9,5.1,21.2,5c8.3,0,15.3-1.6,21.1-5c5.5-3.2,8.4-7,8.7-11.3v-.9c0-4.7-2.9-8.8-8.7-12.2-.8-.5-1.7-.9-2.6-1.3-5.3-2.5-11.5-3.7-18.6-3.7s-15.3,1.7-21.1,5c-1.9,1.1-3.4,2.2-4.6,3.4-2.2,2.1-3.6,4.4-4,6.9-.1.6-.2,1.2-.2,1.8v.9c.2,3.6,2.3,6.9,6.2,9.7v0l.2.1Z" fill="#fff8c7" fill-rule="evenodd" stroke-width="0"/><path d="M22.6,257.3c5.8,3.5,11.2,4.2,16.4,2.1.3,0,.6-.1.9-.3c4.2-1.9,7.1-5.4,8.8-10.6.3-.9.6-1.9.8-3c0,0,0,0,0-.1.3-1.2.5-2.3.6-3.5.1-1.1.2-2.1.2-3.2c0-1.2,0-2.4-.2-3.6c0-1.1-.2-2.2-.4-3.3-.2-1.2-.5-2.4-.8-3.6-.3-1.1-.7-2.2-1.1-3.4-.2-.6-.4-1.1-.7-1.7-.3-.8-.6-1.5-1-2.2-.6-1.3-1.2-2.5-1.9-3.7-.9-1.6-1.9-3-2.9-4.4-1.5-2-3.2-3.7-5-5.3-1-.8-2-1.6-3.1-2.3s-2.1-1.3-3.1-1.8c0,0-.1,0-.2,0-1.2-.6-2.5-1.1-3.7-1.4-.4-.1-.7-.2-1.1-.3v0c-2.9-.6-5.7-.5-8.4.5-.3.1-.5.2-.8.4-2.3.9-4.3,2.3-6,4.3-2.8,2.9-4.5,6.9-5,12.1-.9,6.4,0,13.1,2.8,20.1c1.5,3.6,3.3,6.9,5.4,9.7c2.4,3.3,5.3,6,8.5,8.2.3.2.6.3.9.5v0l.1-.2Z" fill="#fff8c7" fill-rule="evenodd" stroke-width="0"/><path d="M75.2,159.7L69,163.3c-4.6-2.1-9.8-3-15.6-2.7-6.1.3-11,1.8-14.9,4.4-.2.2-.5.3-.7.5-.8.5-1.4,1.1-2,1.7-1.2,1.4-2,2.8-2.3,4.4-.2.8-.2,1.7,0,2.6v0c.4,2.6,2,4.8,4.6,6.7l-5.2,3c-3.9-2.9-6-6.1-6.2-9.7v-.9c0-.7,0-1.3.2-1.8.4-2.5,1.7-4.9,4-6.9c1.2-1.2,2.8-2.3,4.6-3.4c5.8-3.4,12.8-5,21.1-5s13.3,1.2,18.6,3.7v0-.2Z" fill="#fff07c" fill-rule="evenodd" stroke-width="0"/><path d="M30.2,203.5v0c0,0-1.1,7.7-1.1,7.7-.4-.2-.9-.5-1.3-.8-.2-.1-.5-.2-.7-.3-.6-.2-1.1-.4-1.6-.6c0,0-.2,0-.2,0-3.2-1-6.1-.8-8.7.6-.4.2-.7.4-.9.6-3.5,2.4-5.4,6.5-5.8,12.2-.3,4.3.4,8.5,2.1,12.8.5,1.4,1.1,2.7,1.9,4.1c1.1,2.1,2.3,3.9,3.6,5.5c1.9,2.3,3.9,4.1,6.2,5.4l-1,6.6c-.3-.2-.6-.4-.9-.5-3.2-2.2-6.1-4.9-8.5-8.2-2.1-2.8-3.9-6.1-5.4-9.7-2.8-7-3.7-13.6-2.8-20.1.5-5.2,2.2-9.3,5-12.1c1.7-1.9,3.7-3.4,6-4.3.2-.1.5-.2.8-.4c2.7-.9,5.5-1.1,8.4-.5v0c.4,0,.7.2,1.1.3c1.2.4,2.4.8,3.7,1.4c0,0,.1,0,.2,0v0l-.1.3Z" fill="#fff07c" fill-rule="evenodd" stroke-width="0"/><path d="M68.9,163.3c.2,0,.4.1.6.2c2.4,1.1,4.4,2.5,5.8,4.1c1.3,1.4,2.1,2.9,2.4,4.6.6,3.5-1.1,6.6-4.9,9.3s-8.8,4.2-15,4.4c-6,.2-11.4-.8-16.1-3.1-1.3-.6-2.5-1.3-3.5-2-2.7-1.9-4.2-4.1-4.6-6.6v0c-.2-1-.2-1.8,0-2.7.3-1.6,1.1-3.1,2.3-4.4.5-.6,1.2-1.1,2-1.7.2-.2.4-.3.7-.5c3.8-2.7,8.8-4.2,14.9-4.4c5.8-.3,11,.6,15.6,2.7v0l-.2.1ZM35.3,174.1c.4,2.2,1.7,4.2,4,6c1,.7,2.1,1.4,3.4,2c4.4,2.1,9.4,3,15,2.7c5.5-.2,10.1-1.5,13.7-4c3.5-2.4,5-5.3,4.4-8.5-.5-3.2-3-5.9-7.4-8.1-.2-.1-.5-.2-.7-.3-.3-.1-.6-.2-.9-.4-1.8-.7-3.7-1.2-5.6-1.5-2.5-.4-5.1-.6-7.9-.5-3.2.2-6.1.7-8.7,1.6-1.8.6-3.4,1.5-4.9,2.5-1.5,1.1-2.6,2.2-3.4,3.4-1,1.6-1.4,3.3-1.1,5.1v0h.1Z" fill="url(#eUyPp7WCs4F60-fill)" fill-rule="evenodd" stroke-width="0"/><path d="M25.2,173.9c0,.9.2,1.8.5,2.6.8,2.9,2.9,5.6,6.2,7.9.8.6,1.6,1.1,2.5,1.7c6.1,3.5,13.5,5.3,22.2,5.3s16.1-1.8,22.2-5.3c4.8-2.7,7.7-5.9,8.8-9.5.2-.9.4-1.8.5-2.7v3.4c0,.2,0,.5,0,.8-.2,1.5-.8,2.9-1.5,4.2-.2.4-.5.8-.8,1.2-.7,1-1.6,1.9-2.7,2.9-.3.2-.6.4-.8.6-1,.8-2.1,1.5-3.4,2.2-.3.2-.6.4-.9.6-.2.2-.5.3-.8.4-2.2,1.1-4.5,1.9-6.9,2.6-.3,0-.6.2-.8.2-2.6.6-5.3,1.1-8.1,1.3-.3,0-.6,0-1,0-1.2,0-2.4.1-3.7.1s-2.4,0-3.6-.1h-.8c-2.9-.2-5.6-.7-8.2-1.4-.3,0-.5-.1-.8-.2-2.5-.7-4.8-1.6-6.9-2.7-.3-.1-.5-.3-.8-.4-.4-.2-.7-.4-1.1-.6-1.2-.7-2.3-1.4-3.3-2.1-.3-.2-.5-.4-.8-.6-1-.9-1.8-1.8-2.5-2.7-.3-.4-.5-.7-.8-1.1c0,0-.1-.2-.2-.3-.8-1.4-1.3-2.8-1.4-4.3c0-.2,0-.5-.1-.7v-3.4v0l-.2.1Z" fill="url(#eUyPp7WCs4F61-fill)" fill-rule="evenodd" stroke-width="0"/><path d="M25.3,198.5c0,0,0,.1,0,.2v0c0,0,0-.1,0-.2Zm3.9.6c-.4-.1-.9-.2-1.3-.2-.5-.1-1-.2-1.6-.2-.3-.6-.5-1.2-.7-1.8-.2-.8-.4-1.7-.5-2.6c0-.3-.1-.5-.1-.7c0-.5,0-1,.1-1.5c0-.2,0-.3.1-.4.2,1.5.6,2.9,1.4,4.3c0,0,.1.2.2.2.2.4.5.8.8,1.2.5.6,1,1.1,1.5,1.7v0h.1Zm58.9-11.5c0,.9-.2,1.7-.5,2.6-1.1,3.6-4,6.8-8.8,9.6-6.1,3.5-13.5,5.3-22.2,5.3s-16.1-1.8-22.2-5.3c-.9-.5-1.7-1.1-2.5-1.7-3.3-2.4-5.3-5-6.2-7.9-.2-.8-.4-1.7-.5-2.6c0-.3-.1-.5-.1-.8c0-.5,0-1,.1-1.5c0-.1,0-.3.1-.4.2,1.5.6,3,1.4,4.3c0,0,.1.2.2.3.2.4.5.8.8,1.1.7.9,1.6,1.8,2.5,2.7.3.3.5.5.8.7c1,.8,2,1.5,3.3,2.1.4.2.7.4,1.1.6.3.2.5.3.8.4c2.1,1.1,4.4,2,6.9,2.7.3,0,.5.1.8.2c2.6.7,5.3,1.1,8.2,1.3.3,0,.5,0,.8,0c1.2,0,2.4.1,3.6.1s2.5,0,3.7-.1c.3,0,.6,0,1,0c2.8-.2,5.6-.7,8.1-1.3.3,0,.6-.2.8-.2c2.4-.7,4.7-1.6,6.9-2.7.3-.1.5-.3.8-.4.4-.2.7-.3.9-.5c1.3-.7,2.4-1.4,3.4-2.2.3-.2.6-.5.8-.6c1.1-.9,2-1.9,2.7-2.9.3-.4.5-.8.8-1.2.8-1.4,1.3-2.8,1.5-4.2c0,.2,0,.3,0,.5v2.1v0l.2-.1Zm0-6.9c0,.9-.2,1.8-.5,2.6-1.1,3.6-4,6.8-8.8,9.6-6.1,3.5-13.5,5.3-22.2,5.3s-16.1-1.8-22.2-5.3c-.9-.5-1.7-1.1-2.5-1.7-3.3-2.3-5.3-5-6.2-7.9-.2-.8-.4-1.7-.5-2.6c0-.3-.1-.5-.1-.7c0-.6,0-1.1.1-1.5c0-.2,0-.3.1-.4.2,1.5.6,2.9,1.4,4.3c0,.1.1.2.2.3.2.4.5.8.8,1.1.7.9,1.6,1.9,2.5,2.7.3.2.5.4.8.6c1,.8,2,1.5,3.3,2.1.4.2.7.4,1.1.6.3.2.5.3.8.4c2.1,1.1,4.4,2,6.9,2.7.3,0,.5.1.8.2c2.6.7,5.3,1.1,8.2,1.4h.8c1.2,0,2.4.1,3.6.1s2.5,0,3.7-.1c.3,0,.6,0,1,0c2.8-.2,5.6-.7,8.1-1.3.3,0,.6-.2.8-.2c2.4-.7,4.7-1.5,6.9-2.6.3-.1.5-.3.8-.4.4-.2.7-.4.9-.6c1.3-.7,2.4-1.4,3.4-2.2.3-.2.6-.5.8-.6c1.1-.9,2-1.9,2.7-2.9.3-.4.5-.9.8-1.2.8-1.4,1.3-2.8,1.5-4.2c0,.2,0,.3,0,.5v2.1v0l.2-.2Zm0,13.6c0,.9-.2,1.8-.5,2.7-1.1,3.6-4,6.8-8.8,9.5-6.1,3.5-13.5,5.3-22.2,5.3s-7.5-.4-10.9-1c-.2-.3-.5-.6-.7-.9-.2-.2-.3-.4-.5-.6-1-1.1-2-2.2-3.1-3.2.6.2,1.1.4,1.7.5.3,0,.5.1.8.2c2.6.7,5.3,1.2,8.2,1.4.3,0,.5,0,.8,0c1.2,0,2.4,0,3.6,0s2.5,0,3.7,0c.3,0,.6,0,1-.1c2.8-.2,5.6-.6,8.1-1.3.3,0,.6-.1.8-.2c2.4-.7,4.7-1.5,6.9-2.6.3-.1.5-.3.8-.4.4-.2.7-.3.9-.5c1.3-.7,2.4-1.5,3.4-2.2.3-.2.6-.4.8-.6c1.1-.9,2-1.9,2.7-2.9.3-.4.5-.8.8-1.2.8-1.4,1.3-2.8,1.5-4.2c0,.2,0,.3,0,.5v2.1v0l.2-.3Zm0,6.8c0,.9-.2,1.8-.5,2.6-1.1,3.6-4,6.8-8.8,9.6-2.1,1.2-4.3,2.2-6.7,3-4.6,1.5-9.7,2.3-15.5,2.3s-4.3-.1-6.3-.3c0-.2-.2-.3-.2-.5-.1-.2-.2-.5-.4-.7-.5-.9-1-1.8-1.5-2.6.7.1,1.5.2,2.2.3.5,0,1.1.1,1.7.1h.8c1.2,0,2.4.1,3.6.1s2.5,0,3.7-.1c.3,0,.6,0,1,0c.5,0,1.1-.1,1.6-.1c2.2-.3,4.4-.6,6.5-1.2.3,0,.6-.2.8-.2c2.4-.7,4.7-1.5,6.9-2.6.3-.1.5-.3.8-.4.4-.2.7-.4.9-.6c1.3-.7,2.4-1.4,3.4-2.2.3-.2.6-.4.8-.6c1.1-.9,2-1.9,2.7-2.9.3-.4.5-.9.8-1.2.8-1.3,1.3-2.8,1.5-4.2c0,.2,0,.3,0,.5v2.1v0l.2-.2Zm0,6.9c0,.9-.2,1.7-.5,2.6-1,3.3-3.5,6.2-7.5,8.8-.4.3-.8.5-1.2.8-6.1,3.5-13.5,5.3-22.2,5.3s-2.4,0-3.5,0c0-.2-.1-.4-.2-.6-.3-1-.7-2.1-1.2-3.1.1,0,.3,0,.4,0c.3,0,.5,0,.8,0c1.2,0,2.4.1,3.6.1s2.5,0,3.7-.1c.3,0,.6,0,1,0c2.9-.2,5.6-.7,8.1-1.3.3,0,.6-.2.8-.2c2.2-.6,4.3-1.4,6.3-2.4.2,0,.4-.2.6-.3.3-.1.5-.3.8-.4.4-.2.7-.3.9-.5c1.3-.7,2.4-1.5,3.4-2.2.3-.2.6-.4.8-.6c1.1-.9,2-1.9,2.7-2.9.3-.4.5-.8.8-1.2.8-1.3,1.3-2.8,1.5-4.2c0,.2,0,.3,0,.5v2.1v0l.1-.2Zm0,6.7c0,.9-.2,1.8-.5,2.7-.5,1.7-1.4,3.3-2.8,4.8-1.5,1.7-3.5,3.2-6,4.7-6.1,3.5-13.5,5.3-22.2,5.3s-1.3,0-1.9,0c-.2-1.2-.4-2.4-.7-3.6.8,0,1.7,0,2.6,0c1.3,0,2.5,0,3.7,0c.3,0,.6,0,1-.1c2.9-.2,5.6-.6,8.1-1.3.3,0,.6-.1.8-.2c2.4-.7,4.7-1.5,6.9-2.6.3-.1.5-.3.8-.4.4-.2.7-.3.9-.5c1.3-.7,2.4-1.5,3.4-2.2.1-.1.3-.2.4-.3s.3-.2.4-.4c1.1-.9,2-1.9,2.7-2.9.3-.4.5-.8.8-1.2.8-1.4,1.3-2.8,1.5-4.2c0,.2,0,.3,0,.5v2.1v0l.1-.2Zm0,6.9c0,.9-.2,1.8-.5,2.6c0,0,0,.2,0,.3-1.1,3.5-4,6.6-8.7,9.3-6.1,3.5-13.5,5.3-22.2,5.3s-1.1,0-1.6,0c0-1.2,0-2.4,0-3.6.5,0,1.1,0,1.7,0c1.3,0,2.5,0,3.7-.1.3,0,.6,0,1,0c2.9-.2,5.6-.7,8.1-1.3.3,0,.6-.2.8-.2c2.4-.7,4.7-1.5,6.9-2.6.3-.1.5-.3.8-.4.4-.2.7-.4.9-.6c1.3-.7,2.4-1.4,3.4-2.2.3-.2.6-.4.8-.6c1.1-.9,2-1.9,2.7-2.9.2-.4.4-.7.6-1c0,0,0-.2.2-.2.8-1.3,1.3-2.8,1.5-4.2c0,.2,0,.3,0,.5v2.1v0l-.1-.2Zm0,6.8c-.1,2.2-.9,4.3-2.2,6.2c0,0-3.9,4-7.4,6-3.6,2.1-9.7,3.9-9.7,3.9-3.7.9-7.8,1.3-12.1,1.3s-1.8,0-2.6,0c0-.3.2-.7.2-1c0-.5.2-1,.3-1.5c0-.3,0-.6.1-.9c0,0,0-.1,0-.1.6,0,1.3,0,1.9,0c1.3,0,2.5,0,3.7-.1.3,0,.6,0,1-.1c2.8-.2,5.6-.6,8.1-1.2.3,0,.6-.2.8-.2c2.4-.7,4.7-1.6,6.9-2.7.3-.1.5-.3.8-.4.4-.2.7-.3.9-.5c1.3-.7,2.4-1.5,3.4-2.2.3-.2.6-.4.8-.6c1.1-.9,2-1.9,2.7-2.9.3-.4.5-.8.8-1.2.8-1.3,1.3-2.8,1.5-4.2c0,.2,0,.3,0,.5v2.1v0l.1-.2Z" fill="#de7c00" fill-rule="evenodd" stroke-width="0"/><path d="M25.2,180.7c0,.9.2,1.8.5,2.6.8,2.9,2.9,5.6,6.2,7.9.8.6,1.6,1.1,2.5,1.7c6.1,3.5,13.5,5.3,22.2,5.3s16.1-1.8,22.2-5.3c4.8-2.7,7.7-5.9,8.8-9.6.2-.8.4-1.7.5-2.6v3.4c0,.2,0,.5,0,.8-.2,1.5-.8,2.9-1.5,4.2-.2.4-.5.8-.8,1.2-.7,1-1.6,2-2.7,2.9-.3.2-.6.4-.8.6-1,.8-2.1,1.5-3.4,2.2-.3.2-.6.4-.9.5-.2.2-.5.3-.8.4-2.2,1.1-4.5,2-6.9,2.7-.3,0-.6.2-.8.2-2.6.6-5.3,1.1-8.1,1.3-.3,0-.6,0-1,0-1.2,0-2.4.1-3.7.1s-2.4,0-3.6-.1c-.3,0-.5,0-.8,0-2.9-.2-5.6-.6-8.2-1.3-.3,0-.5-.1-.8-.2-2.5-.7-4.8-1.6-6.9-2.7-.3-.1-.5-.3-.8-.4-.4-.2-.7-.4-1.1-.6-1.2-.7-2.3-1.4-3.3-2.1-.3-.2-.5-.4-.8-.7-1-.8-1.8-1.7-2.5-2.7-.3-.4-.5-.7-.8-1.1c0-.1-.1-.2-.2-.3-.8-1.4-1.3-2.8-1.4-4.3c0-.2,0-.5-.1-.6v-3.4v0h-.2Z" fill="url(#eUyPp7WCs4F63-fill)" fill-rule="evenodd" stroke-width="0"/><path d="M25.2,187.6c0,.9.2,1.7.5,2.6.8,2.9,2.9,5.6,6.2,7.9.8.6,1.6,1.1,2.5,1.7c6.1,3.5,13.5,5.3,22.2,5.3s16.1-1.8,22.2-5.3c4.8-2.8,7.7-5.9,8.8-9.6.2-.9.4-1.7.5-2.6v3.4c0,.3,0,.6,0,.8-.2,1.4-.8,2.8-1.5,4.2-.2.4-.5.8-.8,1.2-.7,1-1.6,1.9-2.7,2.9-.3.2-.6.5-.8.6-1,.8-2.1,1.5-3.4,2.2-.3.2-.6.4-.9.5-.2.2-.5.3-.8.4-2.2,1.1-4.5,1.9-6.9,2.6-.3.1-.6.2-.8.2-2.6.7-5.3,1.1-8.1,1.3-.3,0-.6,0-1,.1-1.2,0-2.4,0-3.7,0s-2.4,0-3.6,0c-.3,0-.5,0-.8,0-2.9-.2-5.6-.6-8.2-1.4-.3,0-.5-.1-.8-.2-.6-.2-1.1-.3-1.7-.5-.8-.7-1.7-1.4-2.5-2.1-.3-.2-.5-.4-.8-.6s-.6-.4-1-.6c-1.3-.8-2.6-1.5-3.9-2.1-.4-.2-.8-.3-1.1-.5-1-.4-2-.7-3-.9-.6-.6-1.1-1.1-1.5-1.7-.3-.4-.5-.8-.8-1.2c0,0-.1-.2-.2-.2-.8-1.4-1.3-2.8-1.4-4.3c0-.2,0-.5-.1-.7v-3.4v0h-.1Z" fill="url(#eUyPp7WCs4F64-fill)" fill-rule="evenodd" stroke-width="0"/><path d="M25.2,194.3c0,.9.2,1.8.5,2.6.2.6.4,1.2.7,1.8v0c-.2,0-.5,0-.7,0h-.2v-.2c0-.3-.1-.5-.2-.7v-3.4v0l-.1-.1ZM88,198.5c-.2,1.5-.8,2.9-1.5,4.2-.2.4-.5.8-.8,1.2-.7,1-1.6,1.9-2.7,2.9-.3.2-.6.4-.8.6-1,.8-2.1,1.5-3.4,2.2-.3.2-.6.4-.9.6-.2.2-.5.3-.8.4-2.2,1.1-4.5,1.9-6.9,2.6-.3,0-.6.2-.8.2-2.1.5-4.2.9-6.5,1.2-.5,0-1.1.1-1.6.1-.3,0-.6,0-1,0-1.2,0-2.4.1-3.7.1s-2.4,0-3.6-.1h-.8c-.6,0-1.1-.1-1.7-.1-.8,0-1.5-.2-2.2-.3-.8-1.3-1.6-2.5-2.5-3.7c3.4.7,7,1,10.9,1c8.7,0,16.1-1.8,22.2-5.3c4.8-2.7,7.7-5.9,8.8-9.5.2-.9.4-1.8.5-2.7v3.4c0,.2,0,.5,0,.8v0l-.2.2Z" fill="url(#eUyPp7WCs4F65-fill)" fill-rule="evenodd" stroke-width="0"/><path d="M68.9,163.3l6.2-3.6c.9.4,1.7.8,2.6,1.3c5.8,3.4,8.7,7.5,8.7,12.2v.9c-.3,4.4-3.2,8.1-8.7,11.3-5.8,3.4-12.8,5.1-21.1,5-8.3,0-15.3-1.6-21.2-5-.9-.5-1.7-1.1-2.4-1.6l5.2-3c1,.7,2.2,1.3,3.5,2c4.7,2.3,10.1,3.3,16.1,3.1c6.2-.3,11.2-1.8,15-4.4c3.9-2.6,5.5-5.7,4.9-9.3-.4-1.7-1.2-3.2-2.4-4.6-1.4-1.6-3.3-2.9-5.8-4.1-.2-.1-.4-.2-.6-.2v0Z" fill="#ffe200" fill-rule="evenodd" stroke-width="0"/><path d="M23.6,250.7c.5.3,1.1.6,1.6.9c4.5,2.2,8.4,2.2,11.9,0c0,0,.1-.2.2-.2c1.7-1.1,3-2.7,4-4.6.4-.9.8-1.8,1.1-2.9.3-1,.5-2.1.6-3.4c0-.4,0-.9.1-1.4c0-.6,0-1.2,0-1.8c0-1.2,0-2.4-.2-3.6-.1-1.1-.4-2.3-.7-3.4-.3-1.3-.7-2.6-1.2-3.9s-1.1-2.6-1.8-3.8c0,0,0-.1,0-.2-1-1.8-2-3.4-3.1-4.9-2.1-2.7-4.4-4.8-7-6.3l1.1-7.6v0c1,.4,2.1,1.1,3.1,1.8c1.1.7,2.1,1.5,3.1,2.3c1.8,1.5,3.5,3.3,5,5.3c1,1.4,2,2.8,2.9,4.4.7,1.2,1.3,2.4,1.9,3.7.3.7.7,1.4,1,2.2.2.6.4,1.1.7,1.7.4,1.1.8,2.3,1.1,3.4.3,1.2.6,2.4.8,3.6.2,1.1.3,2.2.4,3.3.1,1.2.2,2.4.2,3.6c0,1.1,0,2.2-.2,3.2-.1,1.2-.3,2.3-.6,3.5c0,0,0,0,0,.1-.2,1.1-.5,2-.8,3-1.7,5.2-4.6,8.7-8.8,10.6-.3.2-.6.3-.9.3-5.1,2.1-10.6,1.4-16.4-2.1l1-6.6v0l-.1-.2Z" fill="#ffe200" fill-rule="evenodd" stroke-width="0"/><path d="M88,205.4c-.2,1.5-.8,2.9-1.5,4.2-.2.4-.5.8-.8,1.2-.7,1-1.6,2-2.7,2.9-.3.2-.6.4-.8.6-1,.8-2.1,1.5-3.4,2.2-.3.2-.6.4-.9.5-.2.2-.5.3-.8.4-.2.1-.4.2-.6.3-2,1-4.1,1.8-6.3,2.4-.3,0-.6.2-.8.2-2.6.6-5.3,1.1-8.1,1.3-.3,0-.6,0-1,0-1.2,0-2.4.1-3.7.1s-2.4,0-3.6-.1c-.3,0-.5,0-.8,0s-.3,0-.4,0c0-.1,0-.2-.2-.3-.4-1.1-.8-2.1-1.3-3.1c2,.2,4.1.3,6.3.3c5.7,0,10.9-.8,15.5-2.3c2.4-.8,4.6-1.8,6.7-3c4.8-2.7,7.7-5.9,8.8-9.6.2-.8.4-1.7.5-2.6v3.4c0,.2,0,.5,0,.8v0l-.1.2Z" fill="url(#eUyPp7WCs4F68-fill)" fill-rule="evenodd" stroke-width="0"/><path d="M88,212.2c-.2,1.4-.8,2.8-1.5,4.2-.2.4-.5.8-.8,1.2-.7,1-1.6,1.9-2.7,2.9-.1.1-.3.2-.4.4-.1.1-.3.2-.4.3-1,.8-2.1,1.5-3.4,2.2-.3.2-.6.4-.9.5-.2.2-.5.3-.8.4-2.2,1.1-4.5,1.9-6.9,2.6-.3.1-.6.2-.8.2-2.6.7-5.3,1.1-8.1,1.3-.3,0-.6,0-1,.1-1.2,0-2.4,0-3.7,0s-1.7,0-2.6,0c-.2-1-.5-2.1-.9-3.1c0,0,0-.1,0-.1c1.1,0,2.3,0,3.5,0c8.7,0,16.1-1.8,22.2-5.3.4-.2.8-.5,1.2-.8c4.1-2.6,6.6-5.5,7.5-8.8.2-.9.4-1.7.5-2.6v3.4c0,.3,0,.6,0,.8v0v.2Z" fill="url(#eUyPp7WCs4F69-fill)" fill-rule="evenodd" stroke-width="0"/><path d="M88,218.9c-.2,1.5-.8,2.9-1.5,4.2c0,0,0,.2-.2.2-.2.3-.4.7-.6,1-.7.9-1.6,1.9-2.7,2.9-.3.2-.6.4-.8.6-1,.8-2.1,1.5-3.4,2.2-.3.2-.6.4-.9.6-.2.2-.5.3-.8.4-2.2,1.1-4.5,1.9-6.9,2.6-.3,0-.6.2-.8.2-2.6.6-5.3,1.1-8.1,1.3-.3,0-.6,0-1,0-1.2,0-2.4.1-3.7.1s-1.1,0-1.7,0c0-.2,0-.5,0-.7c0-.3,0-.6,0-.9c0-.5,0-1.1-.2-1.6.6,0,1.3,0,1.9,0c8.7,0,16.1-1.8,22.2-5.3c2.5-1.4,4.5-3,6-4.7c1.3-1.5,2.3-3.1,2.8-4.8.2-.9.4-1.8.5-2.7v3.4c0,.2,0,.5,0,.8v0l-.1.2Z" fill="url(#eUyPp7WCs4F70-fill)" fill-rule="evenodd" stroke-width="0"/><path d="M88,225.8c-.2,1.5-.8,2.9-1.5,4.2-.2.4-.5.8-.8,1.2-.7,1-1.6,2-2.7,2.9-.3.2-.6.4-.8.6-1,.8-2.1,1.5-3.4,2.2-.3.2-.6.4-.9.5-.2.2-.5.3-.8.4-2.2,1.1-4.5,2-6.9,2.7-.3,0-.6.2-.8.2-2.6.6-5.3,1.1-8.1,1.2-.3,0-.6,0-1,.1-1.2,0-2.4.1-3.7.1s-1.3,0-1.9,0c.2-1.1.3-2.2.3-3.3.5,0,1.1,0,1.6,0c8.7,0,16.1-1.8,22.2-5.3c4.7-2.7,7.6-5.8,8.7-9.3c0,0,0-.2,0-.3.2-.8.4-1.7.5-2.6v3.4c0,.2,0,.5,0,.8v0v.3Z" fill="url(#eUyPp7WCs4F71-fill)" fill-rule="evenodd" stroke-width="0"/><path d="M25.4,198.6h.2c.2,0,.5,0,.7,0v0c.5,0,1,0,1.6.2.4,0,.9.1,1.3.2c1,.2,2,.5,3,.9.4.2.7.3,1.1.5c1.3.6,2.5,1.3,3.9,2.1.3.2.6.4,1,.6.2.2.5.4.8.6.9.7,1.7,1.4,2.5,2.1c1.1,1,2.1,2.1,3.1,3.2.2.2.3.4.5.6.2.3.5.6.7.9.9,1.2,1.7,2.4,2.5,3.7.5.9,1,1.7,1.5,2.6.1.2.2.5.4.7c0,.2.2.3.2.5.5,1,.9,2,1.3,3.1c0,.1,0,.2.2.3.5,1,.8,2.1,1.2,3.1c0,.2.1.4.2.6c0,0,0,.1,0,.1.3,1.1.6,2.1.9,3.1.3,1.2.5,2.4.7,3.6c0,.6.1,1.1.2,1.6c0,.3,0,.6,0,.9c0,.2,0,.5,0,.7c0,1.2,0,2.4,0,3.6c0,1.1-.2,2.2-.3,3.3c0,0,0,.1,0,.1c0,.3,0,.6-.1.9-.1.5-.2,1-.3,1.5c0,.3-.2.7-.2,1-.3,1-.6,2-1,2.9c0,.1,0,.2-.1.3c0,.2-.2.5-.3.7-.6,1.4-1.3,2.6-2.1,3.7-.3.5-.7.9-1.1,1.3-.8.9-1.6,1.7-2.5,2.3l-3.5,2-3.1,1.3c4.5-2.1,7.7-6.1,9.4-11.7.2-.8.5-1.6.7-2.5c0-.2,0-.4.1-.6.2-1.2.4-2.3.6-3.5.1-1.1.2-2.1.2-3.2c0-1.2,0-2.3-.1-3.5c0-1.1-.2-2.2-.4-3.3-.2-1.2-.5-2.4-.8-3.6-.3-1.1-.7-2.2-1-3.4-.3-.7-.5-1.4-.8-2.2-.2-.6-.5-1.1-.7-1.6-.6-1.2-1.2-2.5-1.8-3.6-.8-1.5-1.7-2.9-2.6-4.2-1.2-1.6-2.4-3.1-3.8-4.5-1.7-1.8-3.6-3.3-5.6-4.6-1.1-.7-2.1-1.3-3.2-1.9-.8-.4-1.6-.7-2.4-1-.7-.3-1.5-.5-2.2-.6-.2,0-.5-.1-.7-.1-2.5-.5-4.9-.5-7.2,0l.5-.2c.3-.2.5-.3.8-.4.2-.2.5-.3.8-.4h.2c1.6-.7,3.3-1,5-.9v0v0l-.1.1Z" fill="url(#eUyPp7WCs4F72-fill)" fill-rule="evenodd" stroke-width="0"/><path d="M29.1,211.2c2.6,1.5,5,3.6,7,6.3c1.1,1.4,2.2,3.1,3.1,4.9c0,0,0,.1,0,.2.7,1.3,1.2,2.5,1.8,3.8.5,1.3.9,2.6,1.2,3.9.3,1.1.5,2.3.7,3.4.2,1.2.2,2.4.2,3.6c0,.6,0,1.2,0,1.8c0,.5,0,.9-.1,1.4-.1,1.2-.3,2.3-.6,3.4-.3,1-.7,2-1.1,2.9-1,1.9-2.3,3.4-4,4.6-.1,0-.2.2-.2.2-3.5,2.2-7.5,2.2-11.9,0-.5-.3-1-.6-1.6-.9-2.3-1.4-4.4-3.2-6.2-5.4-1.3-1.6-2.5-3.4-3.6-5.5-.8-1.4-1.4-2.8-1.9-4.1-1.7-4.3-2.4-8.5-2.1-12.8.3-5.7,2.2-9.8,5.8-12.2.3-.2.6-.4,1-.6c2.6-1.4,5.5-1.5,8.7-.6c0,0,.1,0,.2,0c.5.2,1.1.4,1.6.6.2,0,.5.2.7.3.4.3.9.5,1.3.8v0Zm-.2,1.5c-.4-.2-.8-.5-1.2-.6-.6-.3-1.2-.5-1.8-.7-.2,0-.5-.2-.7-.2-3.3-1-6.2-.6-8.7,1.3-1.2.8-2.2,1.7-2.9,2.9-1.5,2.1-2.3,4.9-2.5,8.3-.3,5.2.9,10.4,3.6,15.7c1,1.8,2.1,3.4,3.3,4.9c1.4,1.7,3,3.2,4.7,4.4c0,0,.1,0,.2.2c0,0,0,0,.1,0c.2.2.5.4.8.5.4.2.8.5,1.2.7.1,0,.2,0,.2.1c1.9.9,3.8,1.4,5.5,1.4c2,0,3.9-.6,5.8-1.8c1.3-.9,2.3-2,3.2-3.3.5-.8.9-1.8,1.2-2.8s.6-2.1.7-3.3c0-.5.1-1.1.2-1.6c0-.5,0-1.1,0-1.6c0-1.2,0-2.4-.3-3.6-.2-1.1-.4-2.3-.7-3.5-.4-1.4-.8-2.7-1.4-4.1-.4-.9-.8-1.9-1.3-2.9-.2-.4-.5-.8-.7-1.2-1.5-2.5-3.2-4.7-5-6.4-.8-.8-1.7-1.4-2.5-2-.3-.2-.6-.4-1-.6v0-.2Z" fill="url(#eUyPp7WCs4F73-fill)" fill-rule="evenodd" stroke-width="0"/><path d="M40.9,229.8c-.4-1.4-.8-2.7-1.4-4.1-.4-.9-.8-1.9-1.3-2.9-.2-.4-.5-.8-.7-1.2-1.5-2.5-3.2-4.7-5-6.4-.8-.8-1.7-1.4-2.5-2-.3-.2-.6-.4-1-.6s-.8-.5-1.2-.6c-.6-.3-1.2-.5-1.8-.7-.2,0-.5-.2-.7-.2-3.3-1-6.2-.6-8.7,1.3-1.2.8-2.2,1.7-2.9,2.9-1.5,2.1-2.3,4.9-2.5,8.3-.3,5.2.9,10.4,3.6,15.7c1,1.8,2.1,3.4,3.3,4.9.4.5.9,1,1.3,1.4.1.1.2.2.3.3c1,1,2,1.8,3,2.6c0,0,.1,0,.2.2c0,0,0,0,.1,0c.2.2.5.4.8.5.4.2.8.5,1.2.7.1,0,.2,0,.2.1c1.9.9,3.8,1.4,5.5,1.4c2,0,3.9-.6,5.8-1.8c1.3-.9,2.3-2,3.2-3.3.5-.8.9-1.8,1.2-2.8s.6-2.1.7-3.3c0-.5.1-1.1.2-1.6c0-.5,0-1.1,0-1.6c0-1.2,0-2.4-.3-3.6-.2-1.1-.4-2.3-.7-3.5v0l.1-.1Z" fill="#ff9417" fill-rule="evenodd" stroke-width="0"/><path d="M68.5,164.2c-.2-.1-.5-.2-.7-.3-.3-.1-.6-.2-.9-.4-1.8-.7-3.7-1.2-5.6-1.5-2.5-.4-5.1-.6-7.9-.5-3.2.2-6.1.7-8.7,1.6-1.8.6-3.4,1.5-4.9,2.5-1.5,1.1-2.6,2.2-3.4,3.4-1,1.6-1.4,3.3-1.1,5.1.4,2.2,1.7,4.2,4,6c1,.7,2.1,1.4,3.4,2c4.4,2.1,9.4,3,15,2.7c5.5-.2,10.1-1.5,13.7-4c3.5-2.4,5-5.3,4.4-8.5-.5-3.2-3-5.9-7.4-8.1v0h.1Z" fill="#ff9417" fill-rule="evenodd" stroke-width="0"/></g></g><g id="eUyPp7WCs4F76_to" transform="translate(142.730782,255.091667)"><g id="eUyPp7WCs4F76" transform="translate(-143.277238,-204.449998)" opacity="0"><ellipse style="isolation:isolate" rx="21.6" ry="55.4" transform="matrix(.392337-.919822 0.919822 0.392337 148.562437 307.27962)" opacity="0.4" fill="#d0deff" stroke-width="0"/><path d="M178.4,201.5l-2.3-1.5l2,5.4c-7.1-11.5-15.8-20.7-26.3-27.6-2.6-1.7-5.3-3.2-7.9-4.5-2-1-4.1-1.8-6.1-2.5-2.4-.9-4.9-1.5-7.3-2-7-1.3-13.7-.8-20.2,1.4-.7.3-1.3.6-2,.8-5.8,2.2-10.8,5.9-15,10.8-7.1,7.2-11.2,17.3-12.5,30.4-2.1,16,.3,32.7,7.2,50.1c1.2,3,2.6,5.8,3.9,8.6.6,1.2,1.2,2.3,1.8,3.4c1.1,2.1,9.1,12.8,10.3,14.8l-6-3.4c-1.5-2.3-5-7.8-6.3-10.2-.6-1.1-1.2-2.3-1.8-3.4-1.4-2.8-2.8-5.8-4.1-8.8-8.3-20.5-10.4-40.1-6.3-58.8c3.8-17.4,12-29.1,24.7-35.1l8.4-3.3c3.6-.9,7.2-1.3,10.8-1.2c4.6.1,9.3,1,14.1,2.7c2.1.8,4.3,1.7,6.5,2.8c2.8,1.3,5.5,2.9,8.1,4.7c10.2,6.8,18.9,15.6,26,26.5v0l.3-.1ZM125.3,308.4c9.3,5.6,18.2,8.4,26.9,8.2c4.9-.1,9.6-1.1,14.2-3c.7-.2,1.4-.4,2.1-.7c5.3-2.4,9.8-5.9,13.5-10.4c5-6.1,8.6-14,10.7-23.9c3.6-16.1,2.3-33-3.9-50.6-.7-1.9-1.4-3.8-2.2-5.7-.3-.8-.7-1.6-1-2.4l.8,1.3.4-4.4c.7,1.5,1.4,3,2,4.6c1.1,2.8,2.2,5.6,3.1,8.4c5.7,17.4,6.8,34.2,3.2,50.3-2.5,11.3-6.9,20.3-13.1,26.9-3.5,3.7-7.6,6.7-12.3,8.9-.6.2-1.4.4-2.1.7-5,2.1-10.2,3.1-15.4,3.1-8.7,0-17.8-2.9-27.2-8.6-.8-.5-1.5-1-2.4-1.5-5.9-3.9-11.3-8.5-16.2-13.8h.4c0,0-2.2-2-2.2-2-1-1.1-5.3-6.8-6.3-8l5,2.9c5.8,7.3,12.4,13.4,19.9,18.4.7.5,1.4,1,2.1,1.4v0-.1Z" fill="#fff8c7" fill-rule="evenodd" stroke-width="0"/><path d="M143.9,173.2l-2.6,19.5c-1.1-.7-2.3-1.3-3.4-1.9-10.7-5-20.1-5.3-28.1-.9-.9.4-1.7.9-2.4,1.5-8.8,6.2-13.6,16.4-14.5,30.6-.6,10.7,1.2,21.4,5.4,32.1c1.3,3.5,2.8,6.9,4.8,10.3c0,0,0,.1,0,.2.6,1.2,1.2,2.3,1.9,3.4c6.2,10.6,13.8,18.5,22.6,23.7l-2.2,16.7c-.8-.4-1.5-.9-2.1-1.4-7.5-5-14.1-11.1-19.9-18.4l-2-2.6c-.8-1.1-1.7-2.3-2.5-3.5l-1.4-2.1c-1.2-1.9-2.4-4-3.6-6-.6-1.1-1.2-2.3-1.8-3.4-1.4-2.8-2.7-5.6-3.9-8.6-6.9-17.4-9.3-34.1-7.2-50.1c1.2-13.1,5.4-23.3,12.5-30.4c4.2-4.9,9.2-8.5,15-10.8.6-.2,1.3-.5,2-.8c6.5-2.3,13.2-2.8,20.2-1.4c2.4.4,4.8,1.1,7.3,2c2,.7,4,1.5,6.1,2.5v0l-.2-.2Z" fill="#fff07c" fill-rule="evenodd" stroke-width="0"/><path d="M127.6,291.7c1.5.9,2.9,1.6,4.3,2.3c7.3,3.6,14.1,4.9,20.4,3.7c3.3-.6,6.4-1.8,9.4-3.7.2-.3.4-.5.5-.6c8.9-6.1,13.8-16.3,14.6-30.7.7-11.1-1.2-22.1-5.6-33-.5-1.2-1-2.5-1.6-3.7-.8-1.9-1.8-3.7-2.8-5.6-6.8-12.8-15.3-22.1-25.4-27.8l2.6-19.5c2.6,1.3,5.3,2.8,7.9,4.5c10.5,6.9,19.2,16.1,26.3,27.6l.6,1.8-7.3,2.4l7.3,2.3-2.7,7.2l6.4-4.2l3.2,5.2c.3.8.7,1.6,1,2.4.8,1.9,1.5,3.8,2.2,5.7c6.2,17.6,7.6,34.4,3.9,50.6-2.1,9.9-5.7,17.8-10.7,23.9-3.7,4.5-8.2,7.9-13.5,10.4-.8.3-1.5.5-2.1.7-4.6,1.9-9.4,2.9-14.2,3-8.6.2-17.6-2.6-26.9-8.2l2.2-16.7v0Z" fill="#ffe200" fill-rule="evenodd" stroke-width="0"/><path d="M141.3,192.7c10.1,5.8,18.6,15.1,25.4,27.8c1,1.9,1.9,3.7,2.8,5.6.6,1.2,1.1,2.4,1.6,3.7c4.4,10.9,6.3,21.9,5.6,33-.8,14.4-5.7,24.6-14.6,30.7-.1.1-.3.3-.5.6-3,1.9-6.1,3.1-9.4,3.7-6.3,1.1-13.1-.1-20.4-3.7-1.3-.7-2.8-1.4-4.3-2.3-8.8-5.2-16.3-13.1-22.6-23.7-.6-1.1-1.3-2.2-1.9-3.4v-.2c-2-3.4-3.6-6.8-4.8-10.3-4.2-10.7-6-21.4-5.4-32.1.9-14.2,5.7-24.4,14.5-30.6.7-.6,1.5-1.1,2.4-1.5c8.1-4.4,17.4-4.1,28.1.9c1.1.6,2.3,1.2,3.4,1.9v0l.1-.1ZM102.4,203c-3.7,5.3-5.8,12.2-6.2,20.8-.7,13,2.4,26.1,9.2,39.2c0,0,0,.1.1.2.7,1.1,1.3,2.3,2,3.4c11.1,16.6,20.1,20.9,20.7,21.3c1.1.7,2.1,1.3,3.1,1.8.3.2.5.3.6.4c4.8,2.2,9.4,3.4,13.8,3.4c2.2,0,4.4-.2,6.5-.8c2.7-.8,5.4-2,7.9-3.8c8.1-5.4,12.6-14.6,13.4-27.6.5-9.9-1.2-19.8-5.1-29.8-.5-1.2-1-2.5-1.5-3.7-.8-1.9-1.8-3.8-2.8-5.7-6.2-11.6-14-20.1-23.4-25.4-.9-.5-1.9-1.1-3-1.6-10.8-5.2-20.2-4.9-28.1.8-2.9,1.9-5.3,4.4-7.2,7.2v0-.1Z" fill="url(#eUyPp7WCs4F81-fill)" fill-rule="evenodd" stroke-width="0"/><path d="M120.5,163c3.9-1.1,7.8-1.7,11.8-1.7s1.3,0,1.9,0c1.2.1,2.4.2,3.6.4.2,0,.3,0,.5,0c3.5.6,7.1,1.5,10.7,3c.9.4,1.8.8,2.7,1.2c3.2,1.5,6.4,3.3,9.7,5.5.8.5,1.6,1.1,2.3,1.6.7.4,1.4.9,2,1.4c5.1,3.8,9.9,8.2,14.2,13.2.4.5.8,1,1.3,1.5c1.6,2,3.2,4.1,4.8,6.3.2.2.3.5.5.7c1.8,2.6,3.5,5.4,5,8.3l-4.5.6-.8-7.6-3.9,6.5-4.1-2.6c-7.1-10.9-15.8-19.7-26-26.5-2.6-1.8-5.4-3.4-8.1-4.7-2.2-1.1-4.3-2-6.5-2.8-4.8-1.7-9.5-2.6-14.1-2.7-3.7,0-7.3.3-10.8,1.2l1.5-.7c.6-.3,1.2-.6,2-.8.6-.4,1.3-.6,2-.8l.4-.3c.6-.2,1.1-.4,1.7-.5v0l.2.3ZM182,310.6c-.9.5-1.7.9-2.6,1.4v0c0,.1-9.6,4-9.6,4c4.7-2.2,8.8-5.2,12.3-8.9c6.3-6.6,10.6-15.6,13.1-26.9c3.6-16.1,2.5-32.9-3.2-50.3-.9-2.8-1.9-5.6-3.1-8.4-.6-1.6-1.3-3.1-2-4.6l.3-3.1l7.5,1-5.5-5.3l3.4-3.2c.2.3.3.6.5.9.1.2.2.4.3.6.2.4.4.9.6,1.3.4.7.7,1.5,1.1,2.2c1,2.1,1.9,4.2,2.8,6.5c1.3,2.9,2.4,5.8,3.3,8.7.3.7.5,1.3.6,2c.9,2.8,1.6,5.6,2.3,8.3c1,4.2,1.6,8.3,2.1,12.4c0,.7.1,1.4.2,2c.5,6.7.3,13.2-.6,19.5-.2.8-.3,1.5-.4,2.3-.2,1.2-.5,2.4-.8,3.6-.4,2.1-1,4.1-1.5,6.1-.4,1.3-.8,2.5-1.2,3.8-.4.9-.7,1.8-1,2.6-1.5,3.4-3.3,6.5-5.2,9.4-.8,1.1-1.7,2.2-2.6,3.3-3.1,3.5-6.7,6.5-10.8,8.8v0h-.3Z" fill="url(#eUyPp7WCs4F82-fill)" fill-rule="evenodd" stroke-width="0"/><path d="M166.8,227.7c-.8-1.9-1.8-3.8-2.8-5.7-6.2-11.6-14-20.1-23.4-25.4-.9-.5-1.9-1.1-3-1.6-10.8-5.2-20.2-4.9-28.1.8-2.9,1.9-5.3,4.4-7.2,7.2-3.7,5.3-5.8,12.2-6.2,20.8-.7,13,2.4,26.1,9.2,39.2c0,0,0,.1.1.2.7,1.1,1.3,2.3,2,3.4c5.1,8.2,11.1,14.8,17.9,19.7.1,0,.3,0,.6.2.2-.1.3,0,.4.1.6.4,1.2.8,1.8,1.2c1.1.7,2.1,1.3,3.1,1.8.3.2.5.3.6.4c4.8,2.2,9.4,3.4,13.8,3.4c2.2,0,4.4-.2,6.5-.8c2.7-.8,5.4-2,7.9-3.8c8.1-5.4,12.6-14.6,13.4-27.6.5-9.9-1.2-19.8-5.1-29.8-.5-1.2-1-2.5-1.5-3.7v0Z" fill="#ff9417" fill-rule="evenodd" stroke-width="0"/><path d="M131.8,203.9c.3,0,.8.2,1.6.5s1.1.5,1.2.8c1.2,2,1.9,3.2,2,3.5c0,.5,0,2.7,0,6.5c0,.2,0,.4,0,.6c4.1,2.1,7,4.4,8.5,6.8.7,1.2,1.2,2.8,1.4,4.8c0,.2.2.7.5,1.4.2.4.1.5-.3.3c0,.5-.2.9-.4,1.3-.4.8-1,1-2,.6-.3-.2-.6-.4-1-.7-.5-.5-.8-.7-1-.8-2.2-1.6-4.5-3.4-6.9-5.3-.7-.4-1.7-1-3-1.6-5.5-2.4-8-1.6-7.4,2.4c0,.4,0,.7.2,1.1.5,2.4,2,4.7,4.5,7c.8.7,3.9,3.2,9.2,7.4c4.2,3.3,7.3,6.3,9.4,9.1c3,3.9,4.7,8.1,5.3,12.7.7,5.7-.9,9.2-4.6,10.7-2.6,1-6.2.8-10.8-.6.2,4.8,0,7.7-.6,8.7-.4.8-1.4.8-3.3,0-.6-.2-1-.3-1.3-.4-.4-.2-.6-.4-.7-.7c0-.4-.2-.5-.4-.4s-.3,0-.3-.3c0,0-.2-.4-.7-1s-.8-.8-.9-.8l-.4-.3c.2-.2.2-.4.1-.6v-8.1c-5.4-3.8-8.5-6.2-9.5-7.4-1.3-1.4-2.1-3.2-2.3-5.6-.4-3.4.4-4.6,2.4-3.8.6.2,1.2.6,1.8,1.4c1.4,1.4,2.2,2.2,2.5,2.5c2.7,2.4,6.4,4.5,10.9,6.4c2.6,1.1,4.6,1.4,6.1.6c1.4-.6,2-1.9,1.7-3.8-.3-2.5-1.8-5.2-4.7-7.9-.7-.7-3.7-3.2-9.1-7.5-4.2-3.4-7.3-6.6-9.3-9.3-2.6-3.5-4.3-7.2-5-11.3-.1-.5-.2-1.1-.3-1.6-.6-4.8.5-8,3.5-9.5c1.3-.6,2.9-.9,4.8-.8c1.4,0,3,.3,4.7.8-.2-4.6,0-7.4.6-8.3.4-.5,1.5-.3,3.3.4v0v.1Z" fill="#fff" fill-rule="evenodd" stroke-width="0"/></g></g><path id="eUyPp7WCs4F85" d="M8.8,119.4c-1.1-.6-1.6-1.6-1.6-2.8v-14.5c0-.6.1-1,.4-1.2s.7,0,1.2.2l5,2.9v0c0,0,7.6,4.4,7.6,4.4c1.1.6,1.7,1.6,1.7,2.8v14.5c0,.5-.1.9-.3,1.1c0,0-.1,0-.2.1-.2,0-.6,0-1.1-.3l-3.7-2.1v0c0,0-9-5.2-9-5.2v0v.1ZM54.2,62.7c.3-.2.7,0,1.2.2l5,2.9v0c0,0,7.7,4.4,7.7,4.4c1.1.6,1.7,1.6,1.7,2.8v14.5c0,.5,0,.9-.3,1.1c0,0-.1,0-.2.1-.2,0-.6,0-1.1-.3l-3.7-2.1v0c0,0-9-5.2-9-5.2-1.1-.6-1.6-1.6-1.6-2.8v-14.5c0-.6.1-1,.4-1.2v0l-.1.1ZM32.4,86.3c0-.8.2-1.3.5-1.5.4-.2.8,0,1.5.4l16,9.2c1.4.8,2.1,2,2.1,3.6v18.3c0,.7-.1,1.2-.4,1.4c0,0-.1,0-.2.1-.3.1-.8,0-1.4-.4l-16-9.2c-1.3-.8-2-2-2-3.6c0,0,0-18.2,0-18.2l-.1-.1ZM25.8,69.2c1,.6,1.4,1.4,1.4,2.4v12.6c0,.5-.1.8-.3.9c0,0-.1,0-.2.1-.2,0-.5,0-1-.2l-11-6.3c-.9-.6-1.4-1.4-1.4-2.5v-12.6c0-.5.1-.9.4-1.1.2-.1.6,0,1,.2c0,0,11,6.4,11,6.3l.1.2ZM11.1,50.6c0,.4,0,.7-.2.8c0,0-.1,0-.2.1-.2,0-.4,0-.8-.2L7.3,49.8v0c0,0-6.2-3.6-6.2-3.6-.7-.5-1.1-1.2-1.1-2v-10c0-.5,0-.8.3-.9.2-.1.5,0,.8.1l8.8,5.1c.8.4,1.2,1.1,1.2,2v10.1ZM50.7,39.3c1,.5,1.4,1.4,1.4,2.4v12.6c0,.5,0,.8-.3,1c0,0,0,0-.2.1-.2,0-.5,0-1-.2l-11-6.3c-1-.5-1.4-1.4-1.4-2.5v-12.6c0-.5.1-.9.4-1.1.2-.1.6,0,1,.2c0,0,11,6.3,11,6.3l.1.1ZM35.2,0c.2-.1.5,0,.8.1l8.8,5.1c.8.4,1.2,1.1,1.2,2v10.1c0,.4,0,.6-.2.8c0,0,0,0-.2.1-.2,0-.4,0-.8-.2l-2.5-1.5v0c0,0-6.2-3.6-6.2-3.6-.8-.5-1.1-1.1-1.1-2v-10c0-.5,0-.8.3-.8L35.2,0Z" opacity="0" fill="#e7f2ff" fill-rule="evenodd" stroke-width="0"/><g id="eUyPp7WCs4F86_to" transform="translate(222.1511,326.699997)"><g id="eUyPp7WCs4F86" transform="translate(-221.077284,-301.6)" opacity="0"><ellipse style="isolation:isolate" rx="7.2" ry="10" transform="matrix(.252069-.967709 0.967709 0.252069 182.154282 348.780688)" opacity="0.4" fill="#d0deff" stroke-width="0"/><ellipse style="isolation:isolate" rx="7.2" ry="10" transform="matrix(.252069-.967709 0.967709 0.252069 199.155703 345.222182)" opacity="0.4" fill="#d0deff" stroke-width="0"/><ellipse style="isolation:isolate" rx="7.2" ry="10" transform="matrix(.252069-.967709 0.967709 0.252069 180.894183 335.188593)" opacity="0.4" fill="#d0deff" stroke-width="0"/><ellipse style="isolation:isolate" rx="7.2" ry="10" transform="matrix(.252069-.967709 0.967709 0.252069 262.700111 347.956461)" opacity="0.4" fill="#d0deff" stroke-width="0"/><polygon style="isolation:isolate" points="208.7,343.1 238.9,359.8 274.9,339.2 210.9,301.6 179.5,322.7 208.7,343.1" opacity="0.4" fill="#d0deff" fill-rule="evenodd" stroke-width="0"/><path d="M249.2,348.8l-10.3,5.9v0-14.5l12.5-7.2c0,.4.2.7.4,1-.3.6-.5,1.2-.5,1.7s0,.7.1,1c0,.4-.1.7-.1,1c0,.5.1,1.1.4,1.5-.3.5-.4,1.1-.4,1.7s0,.6.2,1c0,.2-.1.4-.2.6v.4c0,.6.1,1.1.4,1.6-.3.5-.4,1-.4,1.6s0,.8.2,1.2l-2.4,1.4v0l.1.1Zm19.1-25.4v5.3c0,0-.2-.1-.2-.2-1-.6-2.1-1-3.4-1.3-.8-.2-1.7-.3-2.6-.3l6.2-3.6v0v.1Z" fill="#c9c29d" fill-rule="evenodd" stroke-width="0"/><path d="M211.6,296.7l2-1.2l3.2-1.9l14.4,8.3l6.1,3.5l1,.6l15.7,9l14.3,8.2-6.2,3.6c-.1,0-.2,0-.3,0-.2,0-.4,0-.6,0-2.7,0-5,.5-6.9,1.7-1.9,1.1-2.9,2.4-2.9,4s0,.4,0,.6l-12.5,7.2-49.7-28.5c0-.3.1-.5.1-.8c0-.4,0-.8-.2-1.1l21.3-12.4l1.1-.6v0l.1-.2Zm16,12.6c1.5,0,2.9.1,4.2.3c1.7.3,3.2.8,4.6,1.4.4.2.7.3,1.1.5.4.3.9.5,1.2.8c1.1.8,1.9,1.7,2.4,2.6.4.7.5,1.5.5,2.3c0,2.2-1.4,4.1-4.1,5.6-1.4.9-2.9,1.5-4.7,1.9-1.6.4-3.3.5-5.2.5-3.8,0-7.1-.8-9.8-2.4-2.7-1.4-4.1-3.3-4.2-5.8c0-1.2.5-2.3,1.4-3.4.8-.8,1.7-1.6,2.9-2.2c2.7-1.5,6-2.2,9.8-2.2v0l-.1.1Zm-15.5,1.5c-1.4,0-2.5-.3-3.3-.8-.9-.4-1.5-1-1.6-1.7c0-.8.5-1.4,1.6-1.8.8-.6,1.8-.9,3.1-.9s2.5.2,3.4.7c.8.5,1.2,1.2,1.2,2s-.4,1.4-1.2,1.9c-1,.4-2.1.6-3.2.6v0Zm6-11.9l-22.3,12.6l41.8,23.9l22.1-12.8-41.5-23.7v0h-.1Zm28.7,29c-1,.5-2.1.7-3.3.7s-2.4-.3-3.3-.9c-.9-.4-1.4-1-1.5-1.8c0-.7.5-1.3,1.5-1.7.8-.5,1.9-.8,3.1-.8s2.5.2,3.4.6c.8.5,1.2,1.2,1.2,1.9s-.4,1.5-1.2,2v0h.1Z" fill="#eee6bc" fill-rule="evenodd" stroke-width="0"/><path d="M270.4,330.5c.3.5.5,1,.6,1.6c0,.1,0,.3,0,.4c0,.6-.1,1.1-.4,1.7-.4.8-1.2,1.6-2.2,2.2c0,0-.2,0-.2.1-1.9,1.1-4.1,1.6-6.9,1.6s-5-.5-6.9-1.6c-1.2-.7-2-1.5-2.5-2.4-.2-.3-.3-.6-.4-1c0-.2,0-.4,0-.6c0-1.6,1-2.9,2.9-4s4.2-1.7,6.9-1.7.4,0,.6,0c.1,0,.2,0,.3,0c.9,0,1.8.2,2.6.3c1.2.3,2.4.7,3.4,1.3c0,0,.2.1.2.2.9.5,1.6,1.1,2,1.8v0v.1Zm.3,8.8c-.5.9-1.3,1.7-2.5,2.4-.4.2-.8.5-1.2.6-1.1.4-2.3.7-3.7.9-.6,0-1.3.1-2,.1s-1.5,0-2.2-.1c-1.7-.2-3.3-.8-4.7-1.5-1.2-.7-2-1.5-2.6-2.4-.3-.5-.4-1-.4-1.5s0-.6.1-1c.4,1.1,1.3,2.2,2.9,3c1.9,1.1,4.2,1.7,6.9,1.7h.9c2.3-.2,4.3-.7,6-1.7c1.5-.9,2.5-1.9,2.7-3c.1.3.2.6.2,1c0,.5-.1,1.1-.4,1.5v0Zm.3,4l-.4,1.4c-.5.9-1.3,1.6-2.5,2.3-.8.4-1.6.8-2.4,1.1-1.3.4-2.8.6-4.5.6-2.7,0-5-.5-6.9-1.7-.2,0-.3-.1-.5-.2-.1-.1-.3-.2-.4-.3-.8-.6-1.3-1.3-1.7-1.9-.3-.5-.4-1-.4-1.6v-.4c0-.2.1-.5.2-.6.4,1.1,1.3,2.1,2.8,2.9.3.2.6.4.9.5c1.7.8,3.7,1.1,6,1.1s1.5,0,2.2-.1c1.8-.2,3.3-.8,4.6-1.5c1-.5,1.8-1.2,2.3-2c.2-.3.3-.6.4-1c.1.4.2.7.2,1v.3v0l.1.1ZM207.9,341c.1.4.2.7.2,1.1c0,.5-.1,1-.4,1.5-.4.9-1.2,1.7-2.5,2.4-1.9,1.1-4.3,1.7-7,1.7s-4.9-.5-6.8-1.7c-.6-.4-1.1-.7-1.5-1.1c0,.2,0,.4,0,.5c0,.7-.2,1.3-.5,1.8c0,0,0,.1-.1.2-.4.7-1.2,1.4-2.3,2-1.9,1.1-4.2,1.7-6.9,1.7s-4.9-.5-6.8-1.7c-1.2-.7-2-1.4-2.5-2.2-.3-.5-.4-1.1-.4-1.7c0-1,.4-1.8,1.2-2.6.5-.5,1-1,1.7-1.3c1.1-.6,2.2-1.1,3.6-1.3c1.1-.2,2.2-.4,3.3-.4s1.9,0,2.9.2c.8.1,1.5.3,2.2.5s1.3.5,1.9.9c.6.3,1.1.7,1.5,1.1v-.5c0-.4,0-.8.2-1.1.3,1.1,1.2,2,2.7,2.9c1.9,1.1,4.2,1.6,6.8,1.6s5.1-.5,7-1.6c1.4-.8,2.3-1.8,2.7-2.9v0h-.2Zm-19.2-3.1c0-.3-.1-.6-.1-1s0-.7.2-1.1c.1.5.4,1,.8,1.5.5.5,1.2,1,2,1.5.2.1.4.2.6.3c1.8.9,3.9,1.3,6.2,1.3s5.1-.5,7-1.6c1.1-.7,1.9-1.4,2.2-2.1.2-.3.3-.5.4-.8.1.4.2.7.2,1.1v0c0,.5-.1,1-.4,1.5-.4.9-1.2,1.7-2.5,2.5-1.9,1.1-4.3,1.7-7,1.7s-4.9-.5-6.8-1.7c-.5-.3-.9-.6-1.2-.8-.7-.5-1.1-1.1-1.4-1.7c0-.2-.1-.3-.2-.5v0-.1Zm-18.8-14.6c.3.8.8,1.6,1.7,2.2.4.3.7.5,1.1.7c1.9,1.1,4.2,1.7,6.9,1.7s5-.5,6.9-1.7c.5-.3.9-.6,1.3-1c.7-.5,1.1-1.2,1.3-2c.1.3.2.7.2,1.1s-.1,1-.4,1.6c-.4.9-1.2,1.6-2.4,2.3-1.9,1.1-4.2,1.7-6.9,1.7s-5-.6-6.9-1.7c-1.1-.6-1.8-1.3-2.2-2l-.2-.4c-.3-.5-.4-1-.4-1.5s0-.8.2-1.1v0l-.2.1Zm.2-5.7c.4,1,1.3,1.8,2.6,2.5c1.9,1.1,4.2,1.7,6.9,1.7s5-.5,6.9-1.7c.3-.2.6-.4.9-.6.8-.6,1.3-1.2,1.6-1.9.2.5.3,1,.3,1.5s-.1,1.1-.4,1.7-.8,1.2-1.5,1.7c-.3.2-.6.4-.9.6-.8.4-1.7.8-2.6,1.1-1.3.4-2.8.5-4.3.5s-3.1-.2-4.4-.5c-.9-.3-1.8-.7-2.6-1.1-1.2-.7-2.1-1.5-2.5-2.4-.3-.5-.4-1-.4-1.6s.1-1,.4-1.5v0Zm-.2-5.7c.4,1.1,1.3,2.1,2.7,3c1.9,1.1,4.2,1.7,6.9,1.7s5-.5,6.9-1.7c.3-.2.6-.4.9-.6.9-.7,1.5-1.5,1.7-2.3.1.3.2.6.2,1s-.1,1-.4,1.5c-.3.6-.8,1.2-1.5,1.8-.3.2-.6.5-.9.6-1.9,1.1-4.2,1.6-6.9,1.6s-5-.5-6.9-1.6c-1.2-.8-2-1.6-2.5-2.4-.3-.5-.4-1-.4-1.5s0-.8.2-1.1v0Zm.3-2.7c-.3-.5-.5-1.1-.5-1.7s0-.7.1-1c.4,1.1,1.3,2.1,2.8,3c1.9,1.1,4.2,1.7,6.9,1.7s5-.5,6.9-1.7c1.5-.9,2.4-1.9,2.6-3c.1.3.2.6.2,1c0,.5-.1,1.1-.4,1.7-.2.4-.4.7-.8,1.1-.2.1-.3.2-.5.4c0,0-.1.1-.2.2-.3.2-.6.5-.9.6-1.9,1.1-4.2,1.7-6.9,1.7s-5-.5-6.9-1.7c-1.1-.7-2-1.5-2.4-2.3v0Zm18.7-5.1c-.4.8-1.2,1.6-2.4,2.2-1.9,1.1-4.2,1.7-6.9,1.7s-5-.6-6.9-1.7c-1.1-.7-2-1.4-2.4-2.2-.3-.5-.5-1.1-.5-1.7c0-1.5.9-2.9,2.9-4c1.9-1.1,4.3-1.7,7-1.7s5,.5,6.9,1.7c1.9,1.1,2.8,2.4,2.8,4s-.1,1.1-.4,1.7v0h-.1Zm.2,24.4c0,.2.1.4.1.7.6-.6,1.3-1.2,2.1-1.7c0,0,.1,0,.2,0c1.8-1,4.1-1.5,6.7-1.5s5.1.5,7,1.6s2.9,2.4,2.9,4-.2,1.2-.5,1.7c-.4.8-1.2,1.5-2.3,2.2v0c-1.7,1-3.8,1.6-6.2,1.7h-.8c-2.6,0-4.9-.5-6.8-1.7c0,0-.1,0-.2-.1-.9-.5-1.6-1.1-2.1-1.7c0-.2-.1-.4-.2-.5-.2-.4-.3-.8-.4-1.3-.5.6-1.1,1.2-2,1.7-1.9,1.1-4.2,1.6-6.9,1.6s-5-.5-6.9-1.6c-1.1-.7-2-1.5-2.4-2.3-.3-.5-.5-1.1-.5-1.7s0-.8.2-1.1c.4,1.1,1.3,2,2.7,2.9c1.9,1.1,4.2,1.7,6.9,1.7s5-.5,6.9-1.7c1.5-.9,2.3-1.8,2.6-2.9v0h-.1Z" fill="#fc0" fill-rule="evenodd" stroke-width="0"/><path d="M270.8,336.8c-.3,1.1-1.2,2.1-2.7,3-1.7,1-3.7,1.5-6,1.7h-.9c-2.7,0-5-.5-6.9-1.7-1.5-.9-2.4-1.9-2.9-3c0-.3-.1-.6-.1-1c0-.5.2-1.1.5-1.7.5.9,1.3,1.7,2.5,2.4c1.9,1.1,4.2,1.6,6.9,1.6s5-.5,6.9-1.6c0,0,.2,0,.2-.1c1.1-.6,1.8-1.4,2.2-2.2.3.5.4,1.1.4,1.7s0,.7-.2,1v0l.1-.1Zm0,5.2c-.1.4-.3.7-.4,1-.5.8-1.3,1.4-2.3,2-1.3.8-2.9,1.3-4.6,1.5-.7,0-1.5.1-2.2.1-2.3,0-4.3-.4-6-1.1-.3-.2-.6-.3-.9-.5-1.5-.8-2.4-1.8-2.8-2.9-.1-.4-.2-.7-.2-1c0-.6.1-1.1.4-1.7.5.9,1.4,1.7,2.6,2.4c1.4.8,2.9,1.3,4.7,1.5.7,0,1.4.1,2.2.1s1.3,0,2-.1c1.4-.2,2.7-.5,3.7-.9.4-.2.8-.4,1.2-.6c1.2-.7,2.1-1.5,2.5-2.4.2.5.4,1.1.4,1.7s0,.7-.2,1v0l-.1-.1ZM170.1,325.9l.2.4c.4.8,1.2,1.4,2.2,2c1.9,1.1,4.2,1.7,6.9,1.7s5-.6,6.9-1.7c1.2-.7,2-1.4,2.4-2.3.2.4.4.9.4,1.5s0,.8-.2,1.1c-.3,1.1-1.1,2-2.6,2.9-1.9,1.1-4.2,1.7-6.9,1.7s-5-.5-6.9-1.7c-1.4-.9-2.3-1.8-2.7-2.9-.1-.4-.2-.7-.2-1.1s0-.6.1-.9c0-.2.2-.4.3-.6v0l.1-.1Zm19-2.6c-.2.8-.6,1.4-1.3,2-.4.4-.8.7-1.3,1-1.9,1.1-4.2,1.7-6.9,1.7s-5-.5-6.9-1.7c-.4-.2-.7-.4-1.1-.7-.8-.6-1.4-1.4-1.7-2.2-.1-.4-.2-.7-.2-1c0-.6.1-1.1.4-1.6.4.9,1.3,1.7,2.5,2.4.8.4,1.6.8,2.6,1.1c1.3.4,2.8.5,4.4.5s3-.2,4.3-.5c.9-.3,1.8-.7,2.6-1.1.3-.2.6-.4.9-.6.7-.5,1.2-1.1,1.5-1.7.2.4.4,1,.4,1.5s0,.6-.2,1v0-.1Zm-.1-5.7c-.3.7-.9,1.3-1.6,1.9-.3.2-.6.4-.9.6-1.9,1.1-4.2,1.7-6.9,1.7s-5-.5-6.9-1.7c-1.3-.7-2.1-1.5-2.6-2.5-.2-.4-.4-.9-.4-1.5s.1-1.1.4-1.6c.5.9,1.3,1.7,2.5,2.4c1.9,1.1,4.2,1.6,6.9,1.6s5-.5,6.9-1.6c.3-.2.6-.4.9-.6.7-.5,1.2-1.1,1.5-1.8.2.5.4,1.1.4,1.6s-.1,1-.3,1.5v0h.1Zm-19.1-11c0-.3-.1-.6-.1-1c0-.6.2-1.1.5-1.7.5.8,1.3,1.6,2.4,2.2c1.9,1.1,4.2,1.7,6.9,1.7s5-.6,6.9-1.7c1.1-.6,1.9-1.4,2.4-2.2.3.5.4,1,.4,1.6s0,.7-.2,1c-.2,1.1-1.1,2.1-2.6,3-1.9,1.1-4.2,1.7-6.9,1.7s-5-.5-6.9-1.7c-1.5-.9-2.4-1.9-2.8-3v0v.1Zm.3,2.6c.5.8,1.3,1.6,2.4,2.3c1.9,1.1,4.2,1.7,6.9,1.7s5-.5,6.9-1.7c.3-.2.6-.4.9-.6c0,0,.1-.1.2-.2.2-.1.3-.2.5-.4.4-.4.7-.7.8-1.1c0,.1.2.3.2.5.1.4.2.7.2,1.1s0,.5-.1.8c0,0,0,.2,0,.2-.2.8-.8,1.6-1.7,2.3-.3.2-.6.4-.9.6-1.9,1.1-4.2,1.7-6.9,1.7s-5-.5-6.9-1.7c-1.5-.9-2.4-1.9-2.7-3-.1-.3-.2-.6-.2-1c0-.6.2-1.1.5-1.7v0l-.1.2Zm100.5,35.4c.7,1.9.3,3.5-1.3,4.8-1.8,1.4-3.9,2.2-6.2,2.4-3.2.4-6.1,0-8.8-1.5-1.2-.7-2.1-1.7-2.7-2.9-.2-.4-.2-.9-.2-1.2s.1-1.1.4-1.6c.4.6.9,1.3,1.7,1.9.2,0,.3.2.4.3.2,0,.3.1.5.2c1.9,1.1,4.2,1.7,6.9,1.7s3.1-.2,4.5-.6c.9-.3,1.7-.6,2.4-1.1c1.2-.7,2.1-1.4,2.5-2.3v0l-.1-.1Zm-62.8-8.7c0,.3-.2.5-.4.8-.4.8-1.1,1.5-2.2,2.1-1.9,1.1-4.3,1.6-7,1.6s-4.4-.4-6.2-1.3c-.2,0-.4-.2-.6-.3-.8-.5-1.4-1-2-1.5-.4-.5-.6-1-.8-1.5c0-.2-.1-.5-.2-.7-.5.6-1.1,1.2-2,1.7-1.9,1.1-4.2,1.7-6.9,1.7s-5-.5-6.9-1.7c-1.9-1.1-2.9-2.4-2.9-4c0-.6.2-1.1.5-1.7.5.8,1.3,1.6,2.4,2.3c1.9,1.1,4.2,1.6,6.9,1.6s5-.5,6.9-1.6c.9-.5,1.5-1.1,2-1.7c0,.5.2.9.4,1.3.1.2.2.3.2.5.5.6,1.2,1.1,2.1,1.7c0,0,.1,0,.2.1c1.9,1.1,4.2,1.7,6.8,1.7h.8c2.4-.1,4.5-.7,6.2-1.7v0c1.1-.7,1.9-1.5,2.3-2.3.3.5.5,1,.5,1.7s0,.7-.2,1v0l.1.2ZM188.7,341c-.1-.4-.2-.8-.2-1.1c0-.5.1-1,.3-1.5.2.5.7,1.1,1.4,1.7.3.2.7.5,1.2.8c1.9,1.1,4.2,1.7,6.8,1.7s5.1-.5,7-1.7c1.3-.8,2.1-1.6,2.5-2.5.2.5.4,1,.4,1.5s0,.7-.2,1.1c-.4,1.1-1.3,2-2.7,2.9-1.9,1.1-4.3,1.6-7,1.6s-4.9-.5-6.8-1.6c-1.5-.8-2.4-1.8-2.7-2.9v0Zm19.1,2.6c.2.5.4,1,.4,1.5c0,1.5-.9,2.9-2.9,4-1.9,1.1-4.3,1.6-7,1.6s-4.9-.5-6.8-1.6c-.7-.4-1.2-.8-1.7-1.2.2.3.2.6.2,1.1c0,1.5-1,2.9-2.9,4s-4.2,1.6-6.9,1.6-4.9-.5-6.8-1.6-2.9-2.4-2.9-4c0-.6.1-1.2.4-1.8.5.8,1.3,1.6,2.5,2.2c1.9,1.1,4.2,1.7,6.8,1.7s5-.5,6.9-1.7c1.1-.6,1.9-1.3,2.3-2c0,0,0-.1.1-.2.3-.5.5-1.1.5-1.8s0-.3,0-.5c.4.4.9.8,1.5,1.1c1.9,1.1,4.2,1.7,6.8,1.7s5.1-.5,7-1.7c1.3-.8,2.1-1.6,2.5-2.4v0Z" fill="#d68d00" fill-rule="evenodd" stroke-width="0"/><path d="M189.1,312c0,0,0-.2,0-.2l49.7,28.5v14.5L208,337.1v0c0-.4,0-.8-.2-1.1.1-.3.2-.6.2-1c0-.6-.2-1.2-.5-1.7.3-.5.5-1.1.5-1.7c0-1.5-.9-2.9-2.9-4-1.9-1.1-4.3-1.6-7-1.6s-4.9.5-6.7,1.5l-2.6-1.5c.2-.5.4-1.1.4-1.6s0-.8-.2-1.1c.1-.4.2-.7.2-1c0-.6-.1-1.1-.4-1.5.2-.5.4-1.1.4-1.7s-.1-1-.3-1.5c.2-.4.3-.9.3-1.5s-.1-1-.4-1.6c.2-.5.4-1,.4-1.5s0-.7-.2-1v0h.1Z" fill="#908a6d" fill-rule="evenodd" stroke-width="0"/><path d="M227.6,309.3c-3.8,0-7.1.8-9.8,2.2-1.1.7-2.1,1.4-2.9,2.2-.9,1.1-1.3,2.2-1.4,3.4c0,2.4,1.5,4.3,4.2,5.8c2.7,1.6,6,2.4,9.8,2.4s3.6-.2,5.2-.5c1.7-.4,3.3-1,4.7-1.9c2.8-1.5,4.1-3.4,4.1-5.6s-.2-1.6-.5-2.3c-.5-1-1.3-1.8-2.4-2.6-.4-.3-.8-.5-1.2-.8-.4-.2-.7-.4-1.1-.5-1.4-.6-3-1.1-4.6-1.4-1.3-.2-2.7-.3-4.2-.3v0l.1-.1Zm-15.5,1.5c1.1,0,2.2-.2,3.2-.6.8-.5,1.2-1.2,1.2-1.9s-.4-1.5-1.2-2c-.9-.5-2-.7-3.4-.7s-2.3.3-3.1.9c-1.1.4-1.6,1-1.6,1.8.1.7.6,1.3,1.6,1.7.8.5,1.9.8,3.3.8v0Zm34.7,17.1c.8-.5,1.2-1.2,1.2-2s-.4-1.4-1.2-1.9c-.9-.4-2-.6-3.4-.6s-2.3.3-3.1.8c-1,.4-1.5,1-1.5,1.7.1.8.6,1.4,1.5,1.8.8.6,1.9.9,3.3.9s2.2-.2,3.3-.7v0h-.1Zm-28.7-29l41.5,23.7-22.1,12.8-41.8-23.9L218,298.9v0h.1Z" fill="#7dbf5c" fill-rule="evenodd" stroke-width="0"/></g></g><line x1="98.5" y1="133" x2="110.8" y2="113.3" fill="#e62b7b" stroke-width="0"/></svg>
