<svg id="eHltJfmN0Yv1" xmlns="http://www.w3.org/2000/svg" xmlns:xlink="http://www.w3.org/1999/xlink" viewBox="0 0 299.9 337.5" shape-rendering="geometricPrecision" text-rendering="geometricPrecision">
<style><![CDATA[
#eHltJfmN0Yv47 {animation: eHltJfmN0Yv47_c_o 3000ms linear infinite normal forwards}@keyframes eHltJfmN0Yv47_c_o { 0% {opacity: 0} 43.333333% {opacity: 0} 53.333333% {opacity: 1} 100% {opacity: 1}} #eHltJfmN0Yv50 {animation: eHltJfmN0Yv50_c_o 3000ms linear infinite normal forwards}@keyframes eHltJfmN0Yv50_c_o { 0% {opacity: 0} 56.666667% {opacity: 0} 66.666667% {opacity: 1} 100% {opacity: 1}} #eHltJfmN0Yv51 {animation: eHltJfmN0Yv51_c_o 3000ms linear infinite normal forwards}@keyframes eHltJfmN0Yv51_c_o { 0% {opacity: 0} 66.666667% {opacity: 0} 76.666667% {opacity: 1} 100% {opacity: 1}} #eHltJfmN0Yv52 {animation: eHltJfmN0Yv52_c_o 3000ms linear infinite normal forwards}@keyframes eHltJfmN0Yv52_c_o { 0% {opacity: 0} 76.666667% {opacity: 0} 86.666667% {opacity: 1} 100% {opacity: 1}} #eHltJfmN0Yv58_to {animation: eHltJfmN0Yv58_to__to 3000ms linear infinite normal forwards}@keyframes eHltJfmN0Yv58_to__to { 0% {transform: translate(219.39679px,144.60001px)} 23.333333% {transform: translate(219.39679px,152.9px)} 50% {transform: translate(219.39679px,144.6px)} 73.333333% {transform: translate(219.39679px,135.900023px)} 100% {transform: translate(219.39679px,144.6px)}} #eHltJfmN0Yv88 {animation: eHltJfmN0Yv88_c_o 3000ms linear infinite normal forwards}@keyframes eHltJfmN0Yv88_c_o { 0% {opacity: 0} 10% {opacity: 0} 20% {opacity: 1} 100% {opacity: 1}} #eHltJfmN0Yv89 {animation: eHltJfmN0Yv89_c_o 3000ms linear infinite normal forwards}@keyframes eHltJfmN0Yv89_c_o { 0% {opacity: 0} 10% {opacity: 0} 20% {opacity: 1} 100% {opacity: 1}} #eHltJfmN0Yv99 {animation: eHltJfmN0Yv99_c_o 3000ms linear infinite normal forwards}@keyframes eHltJfmN0Yv99_c_o { 0% {opacity: 0} 23.333333% {opacity: 0} 40% {opacity: 1} 56.666667% {opacity: 0} 73.333333% {opacity: 1} 100% {opacity: 1}} #eHltJfmN0Yv100 {animation: eHltJfmN0Yv100_c_o 3000ms linear infinite normal forwards}@keyframes eHltJfmN0Yv100_c_o { 0% {opacity: 0} 13.333333% {opacity: 1} 100% {opacity: 1}} #eHltJfmN0Yv105 {animation: eHltJfmN0Yv105_c_o 3000ms linear infinite normal forwards}@keyframes eHltJfmN0Yv105_c_o { 0% {opacity: 0} 30% {opacity: 0} 43.333333% {opacity: 1} 100% {opacity: 1}}
]]></style>
<defs><linearGradient id="eHltJfmN0Yv4-fill" x1="109.695264" y1="5.160656" x2="263.485611" y2="261.110722" spreadMethod="pad" gradientUnits="userSpaceOnUse" gradientTransform="translate(0 0)"><stop id="eHltJfmN0Yv4-fill-0" offset="30%" stop-color="#d7e8f7"/><stop id="eHltJfmN0Yv4-fill-1" offset="50%" stop-color="#aacce6"/></linearGradient><linearGradient id="eHltJfmN0Yv5-fill" x1="83.156769" y1="15.566371" x2="236.602819" y2="271.956193" spreadMethod="pad" gradientUnits="userSpaceOnUse" gradientTransform="translate(0 0)"><stop id="eHltJfmN0Yv5-fill-0" offset="0%" stop-color="#eae8ed"/><stop id="eHltJfmN0Yv5-fill-1" offset="20%" stop-color="#fcfcfe"/></linearGradient><linearGradient id="eHltJfmN0Yv68-fill" x1="187.7" y1="126.1" x2="216.2" y2="126.1" spreadMethod="pad" gradientUnits="userSpaceOnUse" gradientTransform="translate(0 0)"><stop id="eHltJfmN0Yv68-fill-0" offset="0%" stop-color="#0b44be"/><stop id="eHltJfmN0Yv68-fill-1" offset="80%" stop-color="#327ced"/></linearGradient><linearGradient id="eHltJfmN0Yv72-fill" x1="216.2" y1="188.2" x2="244.7" y2="188.2" spreadMethod="pad" gradientUnits="userSpaceOnUse" gradientTransform="translate(0 0)"><stop id="eHltJfmN0Yv72-fill-0" offset="0%" stop-color="#001888"/><stop id="eHltJfmN0Yv72-fill-1" offset="80%" stop-color="#0048ae"/></linearGradient><linearGradient id="eHltJfmN0Yv73-fill" x1="187.7" y1="169.7" x2="216.2" y2="169.7" spreadMethod="pad" gradientUnits="userSpaceOnUse" gradientTransform="translate(0 0)"><stop id="eHltJfmN0Yv73-fill-0" offset="0%" stop-color="#0034a4"/><stop id="eHltJfmN0Yv73-fill-1" offset="80%" stop-color="#0045ae"/></linearGradient><linearGradient id="eHltJfmN0Yv76-fill" x1="230.3" y1="154.7" x2="196.6" y2="154.7" spreadMethod="pad" gradientUnits="userSpaceOnUse" gradientTransform="translate(0 0)"><stop id="eHltJfmN0Yv76-fill-0" offset="0%" stop-color="#be9800"/><stop id="eHltJfmN0Yv76-fill-1" offset="30%" stop-color="#fc0"/><stop id="eHltJfmN0Yv76-fill-2" offset="90%" stop-color="#fc0"/><stop id="eHltJfmN0Yv76-fill-3" offset="100%" stop-color="#e0b300"/></linearGradient><linearGradient id="eHltJfmN0Yv107-fill" x1="212.4" y1="148.6" x2="252.3" y2="79.6" spreadMethod="pad" gradientUnits="userSpaceOnUse" gradientTransform="translate(0 0)"><stop id="eHltJfmN0Yv107-fill-0" offset="0%" stop-color="#e8faff"/><stop id="eHltJfmN0Yv107-fill-1" offset="100%" stop-color="#c4f2ff"/></linearGradient></defs><g><path d="M224.3,226.5v-28.3v0c0,0,49.8,28.8,49.8,28.8l14.2,8.2l10.9,6.3c2.3,1.3-1.6,4.8-11.6,10.6l-32.4,18.7-8.7,5.1L225,288.3c-10,5.8-16.1,8-18.4,6.7l-104-60c-1.4-.8-.4-2.6,3.2-5.2v0c.3.7.6,1.5,1.1,2.3.4.6.8,1.2,1.2,1.8l.6.7c0,.1.2.2.3.3l.5.5c.5.5,1.1.9,1.7,1.3l3.9,2.2l90.6,52.6c.6.4,1.2.7,1.8.8c1,.4,1.9.4,2.7,0h.2c0,0,.2-.2.2-.2l5.9-3.4v0l.3-.3l5.7-3.3v0l.3-.2c.9-.7,1.3-1.8,1.3-3.4v-54.8l.2-.2Z" fill="#e8eaff" stroke-width="0"/><path d="M212.1,191.6v27.8l12.2,7v0c0,0,0-30.7,0-30.7v-95.1c0,0,0-35.1,0-35.1c0-1.8-.6-3.6-1.7-5.5s-2.5-3.4-4.1-4.2L155.7,19.6L123.4,0.8c-1.4-.8-2.7-1-3.7-.6v0c0,0,0,0,0,0-.1,0-.2,0-.3.1-.1,0-.2.2-.4.3l-5.3,3.1c.3,0,.6-.1.9-.2-.3,0-.7.1-1,.2v0c0,0,0,0,0,0-.1,0-.2,0-.3,0-.1.1-.2.2-.4.3l-5.5,3.1c1.1-.5,2.4-.3,3.9.6l.3.2v.6l11.8,6.8h1.1l31.2,18.1l50.6,29.2c1.6.9,2.9,2.4,4.1,4.3s1.7,3.8,1.7,5.5v24.5m0,159v32.4c0,1.7-.5,2.8-1.5,3.5l5.9-3.4v0l.3-.3l5.7-3.3v0l.3-.2c.9-.7,1.3-1.8,1.3-3.4v-54.8l-12.2-7v36.4l.2.1Z" fill="url(#eHltJfmN0Yv4-fill)" fill-rule="evenodd" stroke-width="0"/><path d="M105.5,11.4c0-1.7.6-2.8,1.7-3.4s2.5-.5,4.1.4l.4.2v-.6l-.3-.2c-1.5-.9-2.8-1.1-3.9-.6c0,0-.2,0-.2.1-1.1.6-1.7,1.8-1.7,3.6c0,0,0,.4,0,.4l-.1.1Zm50.3,23l50.1,29.2c1.6.9,2.9,2.4,4,4.3s1.7,3.7,1.7,5.5v13.8h.5v-14.5c0-1.8-.6-3.6-1.7-5.5s-2.5-3.3-4.1-4.3L155.7,33.7v.8-.8L124.5,15.6h-1.1l32.4,18.9v0-.1Zm55.7,247.5v6.2c0,1.8-.6,3-1.7,3.6-.7.4-1.5.5-2.3.3c1,.4,1.9.4,2.7,0h.2c0,0,.2-.2.2-.2c1-.6,1.5-1.8,1.5-3.5v-6.5h-.6v0v.1Zm-96.4-43.2l-4.1-2.4c-.5-.3-1-.6-1.5-1c.5.5,1.1.9,1.7,1.3l3.9,2.2v0-.1Z" fill="url(#eHltJfmN0Yv5-fill)" fill-rule="evenodd" stroke-width="0"/><path d="M211.5,281.9L105.3,220.5v5.9c0,1.1.2,2.1.6,3.2.3.8.6,1.5,1.1,2.3.4.6.8,1.2,1.2,1.8l.6.7c0,.1.2.2.3.3l.5.5c.5.4,1,.7,1.5,1l4.1,2.4l90.6,52.5c.6.4,1.2.7,1.8.8.9.1,1.6,0,2.3-.3c1.1-.6,1.7-1.8,1.7-3.6v-6.2v0l-.1.1Z" fill="#2c4482" fill-rule="evenodd" stroke-width="0"/><path d="M194.2,71.2c-.5.3-1.1.2-1.8-.2s-1.3-1.1-1.8-1.9c-.5-.9-.7-1.7-.7-2.5s.2-1.4.7-1.7s1.1-.2,1.8.2s1.3,1,1.8,1.9c.5.8.7,1.7.7,2.4s-.2,1.4-.7,1.7v.1Z" fill="#2c4482" fill-rule="evenodd" stroke-width="0"/><path d="M187.3,63.4c.3.6.5,1.2.5,1.8s-.2,1-.5,1.2-.8.2-1.3-.1-.9-.7-1.2-1.3-.5-1.2-.5-1.8.2-1,.5-1.1c.3-.2.8-.2,1.2.2.5.3.9.7,1.3,1.3v0-.2Z" fill="#2c4482" fill-rule="evenodd" stroke-width="0"/><path d="M155.8,50.5L148,45.9c-.4-.2-.8-.7-1.2-1.2-.3-.6-.5-1.1-.5-1.7s.2-.9.5-1.1c.4-.2.8-.2,1.2.1l7.8,4.5l6.1,3.5c.4.2.8.7,1.1,1.3.4.6.6,1.1.6,1.7s-.2.8-.6,1.1c-.3.2-.7.1-1.1-.1l-6.1-3.6v0v.1Z" fill="#2c4482" fill-rule="evenodd" stroke-width="0"/><polyline points="211.5,86.9 211.5,281.9 105.3,220.5 105.3,201.2 105.4,155.1 105.4,151.9 105.5,25" fill="#97caff" stroke-width="0"/><path d="M211.5,202.1v17.1" fill="#97caff" stroke-width="0"/><path d="M142.3,47.2L155.8,55v-4.4v4.4v0c0,0,55.8,32.2,55.8,32.2v-13.8c0-1.8-.6-3.6-1.7-5.5s-2.4-3.3-4-4.3L155.8,34.4L123.4,15.5L111.6,8.7l-.4-.2c-1.6-.9-2.9-1-4.1-.4-1.1.6-1.7,1.7-1.7,3.4v14.7l36.9,21L155.8,55l55.8,32.2" fill="#2c4482" stroke-width="0"/><path d="" fill="#97caff" stroke-width="0"/><g><path d="M194.2,71.2c.5-.3.7-.9.7-1.7s-.2-1.6-.7-2.4c-.5-.9-1.1-1.5-1.8-1.9s-1.3-.5-1.8-.2-.7.8-.7,1.7.2,1.7.7,2.5s1.1,1.4,1.8,1.9c.7.4,1.3.5,1.8.2v-.1Z" fill="#4a70d5" fill-rule="evenodd" stroke-width="0"/><path d="M155.8,50.5v-3.9v3.9l6.1,3.6c.4.2.8.3,1.1.1.4-.2.6-.6.6-1.1s-.2-1.1-.6-1.7c-.3-.6-.7-1-1.1-1.3l-6.1-3.5-7.8-4.5c-.4-.3-.8-.3-1.2-.1-.3.2-.5.5-.5,1.1s.2,1.1.5,1.7c.4.6.8,1,1.2,1.2l7.8,4.6v0-.1Z" fill="#4a70d5" fill-rule="evenodd" stroke-width="0"/><path d="M187.3,63.4c-.3-.6-.8-1-1.3-1.3s-.9-.3-1.2-.2c-.3.2-.5.6-.5,1.1s.2,1.2.5,1.8.8,1,1.2,1.3c.5.3.9.3,1.3.1.3-.2.5-.6.5-1.2s-.2-1.2-.5-1.8v0v.2Z" fill="#4a70d5" fill-rule="evenodd" stroke-width="0"/></g><path d="M211.6,87.2v9.9c.2,0,.3,0,.5,0v-10h-.5v.1Zm.5,132.2v-27.8c-.2-.2-.4-.4-.6-.7v11.1c0,0,0,17.1,0,17.1l.6.3v0Zm0,62.5v-26l-.6-.4v26.4c0,0,.6,0,.6,0Z" fill="#e3f1ff" fill-rule="evenodd" stroke-width="0"/><path d="" fill="#e8eaff" stroke-width="0"/><path d="" fill="#97caff" stroke-width="0"/></g><g><path d="M144.9,134.5c-.6,2-1.9,3.8-4,5.4-.6.5-1.3,1-2.1,1.4v-.3c0,0,0-.1,0-.1-.2-.5-.3-1-.3-1.4c0-1.6,1-2.6,2.9-3.1c1.7-.4,2.8-1.1,3.4-1.9v0h.1Z" fill="#97caff" stroke-width="0"/><path d="M125.4,122.3c0,1.4-.2,2.9-.3,4.5.9-1,1.9-2.4,2.9-4.1c2.5-4.6,4-7.3,4.4-8l-.3-2.1h-.6c-1.1,1.4-2.8,4.1-5,8-.3.6-.7,1.2-1.1,1.7v0Z" fill="#fff" fill-rule="evenodd" stroke-width="0"/><path d="M155.8,98.9v-.7.7c.6,0,1.4.3,2.2.6c1.1.5,2,.9,2.6,1.4.5-.4.9-1,1.2-1.8-2.1-.5-4.1-.8-6-.9-6.3-.4-10.9,1.1-13.9,4.7-.7.8-1.3,1.7-1.9,2.7-1.4,2.3-2.6,5.2-3.7,8.9-.8,2.8-3.1,6.6-6.8,11.2-1.8,2.2-3.3,4.2-4.5,5.8v1.3c0,.3.1,1.1.4,2.4c7.1-6.4,11.2-12.1,12.4-17.1c0-.3.1-.5.1-.7c0,0,0-.2,0-.3c0-.2.1-.4.1-.6s0-.3,0-.4l1.8-5.6c.1-.4.3-.7.5-1.1.3-.8.7-1.5,1.1-2.1c3.2-5.7,7.6-8.5,13.4-8.5s.6,0,.9,0v0l.1.1Z" fill="#fff" fill-rule="evenodd" stroke-width="0"/><path d="M155.8,104.6v-2.2v2.2Z" fill="#fff" fill-rule="evenodd" stroke-width="0"/><path d="M155.8,95.1c2.2.6,4.4,1.6,6.5,2.9.3.2,1.1.8,2.2,1.7-1.1-1.7-2.2-3.1-3.5-4.3-.2-.2-.4-.3-.6-.5-1.7-.9-3.3-1.6-4.7-2.1v2.4-2.4c-4.2-1.5-7.4-1.6-9.8-.2-2.2,1.4-4.6,3.5-7.1,6.3-.1.2-.2.3-.4.4-2.4,2.7-4.3,5.2-5.7,7.5l.4.4c2.1-2.1,4.1-4.1,6.1-5.9.4-.3.7-.6,1-.9c4.3-4,7.8-6,10.5-6s3.3.2,5,.7v0h.1Z" fill="#fff" fill-rule="evenodd" stroke-width="0"/><path d="M131.1,137.1c1.8-1.4,3.4-3,4.8-4.7.1-.2.3-.3.4-.5s.3-.4.4-.5l5.1-9.2c.1-.2.2-.5.3-.7v0c.3-.7.5-1.3.8-2c2.2-5.7,3.9-9.2,4.9-10.7c1.9-2.6,4.6-4,8-4.4.6,0,1.1,0,1.7,0c2.2,0,4.3,1,6.4,3c1.8,2.1,2.7,3.2,3,3.4.6-.2.9-.3,1-.4.1-.2.2-.7.2-1.5c0-2.2-2.2-4.1-6.8-5.5-2-.6-3.8-1-5.5-1-2.4,0-4.6.5-6.5,1.7-2.3,1.5-4.3,3.7-5.9,6.5-.7,1.1-1.4,2.6-2.2,4.3-.3.7-.6,1.4-.9,2.2-1,2.7-2.7,6.9-4.9,12.9-2,3.6-5,6.8-9.1,9.6c0,.2.2.4.2.6.8-.5,1.6-1,2.4-1.5s1.5-1.1,2.2-1.6v0Z" fill="#fff" fill-rule="evenodd" stroke-width="0"/><path d="M131.7,150.6c-.4.5-.8.9-1.1,1.4c0,0,.1-.1.2-.1.8-.5,1.4-.9,2-1.4-.3,0-.7.1-1,.1v0h-.1Z" fill="#fff" fill-rule="evenodd" stroke-width="0"/><path d="M139.7,134.3c.2,0,.3-.1.5-.2.4-.2.9-.4,1.3-.6c0,0,0,0,0,0c0-.2.1-.3.2-.5v0c0,0,0-.2,0-.2l1-3c.3-1,.5-2.2.8-3.5.7-3.5,1.4-6,2.3-7.7c1.5-2.7,3.9-4.9,7.3-6.7h2.6v-4.3v4.3h2.1c5.2,3.4,8.3,7.7,9.4,12.9.3,2,.3,6.5,0,13.4l.6,1c1-.9,1.7-2.1,1.9-3.8.1-.6.1-2.1.1-4.3c0-7.7-2.2-14.2-6.7-19.4-2.4-2.9-4.9-4.3-7.4-4.2s-5.1,1.8-7.6,4.9c-2,2.8-3.8,7.5-5.4,14.2c0,.2-.1.4-.1.6-.6,2.6-1.6,4.9-2.9,7v0v.1Z" fill="#fff" fill-rule="evenodd" stroke-width="0"/><path d="M157.3,123.1c-2.8,1.9-4.3,6.4-4.6,13.4-.9,3.4-2.9,7-6.1,10.8-.2.2-2.4,1.6-6.8,4.3-2.9,1.8-3.9,3.7-3,5.8.3.3.6.5,1.1.6.9-1.2,3.4-3.5,7.6-7.1c3.6-3.1,6-5.9,7.2-8.5.5-1.1,1.1-4.1,1.8-8.8.5-3.7,1.8-6.7,3.9-8.9.8,1.3,1.2,3.1,1.2,5.2c0,5.3-1.5,10.6-4.5,15.8-3.4,6-8.4,11.1-14.9,15.3c0,.3.2.6.7.8c7-3.4,12.4-8.5,16.1-15.4c2.9-5.5,4.4-11.1,4.4-16.6s-.4-5.1-1.3-6.2c-.8-1.1-1.7-1.2-2.8-.4v0-.1Z" fill="#fff" fill-rule="evenodd" stroke-width="0"/><path d="M139,142.7c4.6-2.1,7.2-4.9,7.7-8.2l.2-5.3c0-2.1.6-3.8,1.5-5.1v-.7c-1.7,1-2.6,2.4-2.9,4.2-.1,1-.2,2.7-.3,5c0,0,0,.1,0,.2c0,0,.1,0,.2.1c0,.6-.2,1-.5,1.5-.6,2-1.9,3.8-4,5.4-.6.5-1.3,1-2.1,1.4l.2,1.5v0Z" fill="#fff" fill-rule="evenodd" stroke-width="0"/><path d="M138.6,146.7c0,.1-.1.2-.2.3-.3.6-.7,1.1-1.2,1.5c7.7-2.9,12.1-7.5,13.4-14c.4-3.5.9-6.1,1.3-7.8.8-3,2.2-5.4,4.4-7.3h4.1c2.1,2.7,3.4,4.8,3.8,6.4.2.7.3,2.5.3,5.4c0,4.8-1.6,10.8-4.8,17.9-4.4,9.8-10.2,14.6-17.3,14.6s-1.2.9-1.8,2.8l.4.7c.3.2.7.3,1.4.3c8.1,0,14.6-5.9,19.4-17.6c3.3-7.9,4.9-14.2,4.9-18.9s-.7-3.8-2-6.7c-1.4-3.1-2.9-5.5-4.6-7.2-4.7-4.8-8-2.4-9.9,7.3-.2.9-.4,2.9-.6,5.8-.1,2.5-.5,4.4-.9,5.9-1.4,4-4.7,7.6-10.1,10.6v0Z" fill="#fff" fill-rule="evenodd" stroke-width="0"/><path d="M133.9,97.4c-.5.6-.9,1.2-1.3,1.9-1.3,2.1-2.5,4.4-3.4,6.8c1.1-.9,2.2-1.9,3.3-3.1c2.3-2.6,4.5-5.6,6.5-9.1-1.4.4-3.1,1.6-5.1,3.5v0Z" fill="#fff" fill-rule="evenodd" stroke-width="0"/><path d="M136.4,106.5h-.4c-.2.5-.7,1.6-1.6,3.3-.8,1.4-1.2,2.6-1.4,3.5.1.3.3.5.6.7.7-.6,1.4-1.5,2-2.8.7-1.3,1-2.4,1-3.4s0-.9-.2-1.3v0Z" fill="#fff" fill-rule="evenodd" stroke-width="0"/><path d="M171.7,117.6c-1.2-2.4-2.6-3.9-4.4-4.3.2,1.4.8,3,1.9,4.9c1,1.7,1.5,3,1.5,3.8s.3,1.7.9,4.6.9,5.1.9,6.5c0,3.3-.9,7-2.6,11.3-1,2.5-2.8,6.4-5.5,11.7v1c0,.4.5.6,1.5.6c2.3,0,4.4-4.1,6.5-12.3.4-1.8.7-3.4.9-4.8c0-1.4,0-2.8,0-4.1c0-6.9-.6-13.2-1.8-18.8v0l.2-.1Z" fill="#fff" fill-rule="evenodd" stroke-width="0"/><path d="M165.4,144.6c-.1.3,0,.8.1,1.4c0,3.8-2.4,8.8-7.2,14.9-4.4,5.6-8,8.9-10.6,9.7v.9c-.5.5-.2.8.8.8c5.4,0,10.1-4.3,14-12.9c2.9-8.6,4.3-12.9,4.3-13c0-.7-.2-1.1-.5-1.4-.1-.2-.4-.3-.9-.4v0Z" fill="#fff" fill-rule="evenodd" stroke-width="0"/><path d="M132.2,160.7c.1-.1.2-.3.3-.4.9-1.2,1.6-2.1,1.9-2.8-.8,0-1.8.4-2.8,1.1.2.7.4,1.4.6,2.1v0Z" fill="#fff" fill-rule="evenodd" stroke-width="0"/><path d="M133.2,163.4c.2.6.4,1.2.6,1.8.3.9.6,1.7.9,2.6.7-.1,1.2-.4,1.7-.7.6-.8,1-1.2,1.2-1.4-1.1-.5-2.4-.7-3.8-.4c2.1-1,3.5-1.9,4.1-2.7-1.6,0-3.2.3-4.8.9v0l.1-.1Z" fill="#fff" fill-rule="evenodd" stroke-width="0"/><path d="M147.5,159.5c0,.2.2.4.5.5c2.4-.9,4.4-2.4,6-4.7.1-.1,1.2-2,3.1-5.5h-.4c-.6.7-2.1,2.2-4.5,4.4-2,1.9-3.6,3.7-4.7,5.3v0Z" fill="#fff" fill-rule="evenodd" stroke-width="0"/><path d="M145.8,172.3v-.9c-.6,0-2.4.3-5.4,1-1.2.1-2.4.3-3.8.5.3.7.6,1.4.9,2.1c1.1-.2,2.1-.5,3.3-.9c2.9-.8,4.6-1.4,5-1.8v0Z" fill="#fff" fill-rule="evenodd" stroke-width="0"/><path d="M138.8,168.8c-.5,0-1.6,0-3.5.4.2.5.4.9.6,1.4c1-.2,2-.6,3-1.1v-.8v0l-.1.1Z" fill="#fff" fill-rule="evenodd" stroke-width="0"/><path d="M154.8,179c-1.2.2-3,.8-5.5,1.8-1.9.5-4.4,1-7.4,1.4c4.9-1.7,9.4-4,13.6-6.8c7-4.6,10.2-9.1,9.6-13.2-.4-.1-.6-.2-.6-.3-1.2,4.6-4.7,8.7-10.6,12.2-4,2.4-8.6,4.2-14.1,5.6.5.9,1,1.8,1.4,2.6c0,0,0,.1,0,.1.3.5.6,1,.9,1.5c4.4-.9,7-1.4,7.6-1.6c2.7-.7,4.4-1.7,5.2-2.9v-.5h-.2l.1.1Z" fill="#fff" fill-rule="evenodd" stroke-width="0"/><path d="M168.8,162.7c-2.7,6.1-6.1,10.9-10.4,14.4c2.9.8,6.6-2.9,11.3-11c.7-1.1,1.2-2.2,1.8-3.2.5-3.2.9-6.5,1.3-10-1.1,2.6-2.4,5.9-3.9,9.9v0l-.1-.1Z" fill="#fff" fill-rule="evenodd" stroke-width="0"/><path d="M167.9,177.5c-.1.1-.2.2-.2.3-3,3.1-4.6,4.8-4.8,5.1.2.3.6.5,1.4.6.7-.6,1.3-1.1,1.8-1.6.7-1.3,1.3-2.8,1.8-4.4v0Z" fill="#fff" fill-rule="evenodd" stroke-width="0"/><path d="M167.9,174.3c-1.6.6-4.5,2.5-8.8,5.7-3.5,2.7-8.1,4.5-13.8,5.5l-.2.4c-.4.5,0,.8,1,.8c5,0,10.1-1.9,15.4-5.6c4.3-3.8,6.4-5.7,6.5-5.8v-.9c-.1,0-.1,0-.1,0v-.1Z" fill="#fff" fill-rule="evenodd" stroke-width="0"/><path d="M150.5,190.4c.3,0,1.5-.5,3.8-1.6c2.4-1.1,3.8-1.9,4.4-2.4l-.2-.5c-.5,0-1.9.4-4.4,1.2-2.7.9-4.2,1.7-4.5,2.4c0,.1,0,.4,0,.6s.4.3,1,.3v0h-.1Z" fill="#fff" fill-rule="evenodd" stroke-width="0"/></g><g id="eHltJfmN0Yv47" opacity="0"><path d="M211.5,266.6v-11.1l-52.8-30.4c-2.6-1.5-3.9-3.7-3.9-6.6v10.8c0,3.1,1.3,5.3,3.9,6.9l52.8,30.5v0-.1Z" fill="#6ea9e7" fill-rule="evenodd" stroke-width="0"/><path d="M211.5,219.1l-51.4-29.7c-2-1.2-3.3-1-3.8.6.6,0,1.4.2,2.4.8l91.2,52.7c2.7,1.5,4,3.8,4,6.9v25.2c0,.7,0,1.3-.2,1.7c1.1-.1,1.6-1.1,1.6-3v-25.2c0-3.1-1.3-5.3-4-6.9l-27-15.6-12.2-7-.6-.3v0-.2Z" fill="#4a70d5" fill-rule="evenodd" stroke-width="0"/><polygon id="eHltJfmN0Yv50" points="164.5,203 164.5,206.6 222.4,240 222.4,236.4 164.5,203 164.5,203" opacity="0" fill="#4a70d5" fill-rule="evenodd" stroke-width="0"/><polygon id="eHltJfmN0Yv51" points="164.5,210 164.5,213.5 222.4,247 222.4,243.4 164.5,210 164.5,210" opacity="0" fill="#4a70d5" fill-rule="evenodd" stroke-width="0"/><polygon id="eHltJfmN0Yv52" points="172.5,221.6 172.5,225.1 222.5,254 222.5,250.4 172.5,221.6" opacity="0" fill="#4a70d5" fill-rule="evenodd" stroke-width="0"/><path d="M230,236.2c-2.2-1.2-3.2-.6-3.2,1.8v18.6c0,2.5,1.1,4.4,3.2,5.6l16.1,9.3c2.2,1.2,3.2.6,3.2-1.9v-18.6c0-2.4-1.1-4.3-3.2-5.5L230,236.2v0Z" fill="#4a70d5" fill-rule="evenodd" stroke-width="0"/><path d="M239.4,256.1c.3,0,.8,0,1.4,0c.7.8,1.2,1.5,1.6,1.9.6.7,1.1,1.4,1.4,2c.3.7.6,1.6.9,2.7.2.6.5,1.5.8,2.7.2.4.2.8,0,1.1-.1.3-.4.3-.7.1-1.6-.9-3.8-2.1-6.5-3.6-3.1-1.8-5.3-3.1-6.4-3.7-.5-.3-.8-.5-1-.7-.3-.4-.5-.8-.6-1.2c0-.4.2-.9.4-1.4l.7-1.2c.2-.5.4-.9.5-1.1.2-.3.5-.5.9-.5.3,0,.7,0,1.2,0s.9,0,1.2,0c.6.7,1,1.2,1.3,1.5.5.5,1,.9,1.4,1.2.4.2.9.4,1.4.4v0l.1-.2Z" fill="#4a70d5" fill-rule="evenodd" stroke-width="0"/><path d="M237,244.6c.7.2,1.5.6,2.3,1.3.4.4.9,1,1.2,1.6s.6,1.2.7,1.9c.3,1.2.4,2.3.2,3.2-.2,1-.6,1.7-1.3,2-.5.2-1.2.2-2-.2s-1.5-1.1-2-2c-.8-1.2-1.3-2.6-1.5-4-.1-1.4,0-2.5.5-3.3.4-.5,1-.7,1.8-.5v0h.1Z" fill="#4a70d5" fill-rule="evenodd" stroke-width="0"/><path d="M212.1,255.9l12.2,7l22.3,12.9l3.4,2c2.1,1.2,3.3,1,3.8-.6.1-.5.2-1,.2-1.7v-25.2c0-3.1-1.3-5.3-4-6.9l-91.2-52.7c-1-.6-1.8-.8-2.4-.8-1.1.1-1.6,1.1-1.6,3v25.5c0,2.9,1.4,5.1,3.9,6.6l52.8,30.4.6.4v0v.1ZM164.5,210l57.9,33.4v3.6l-57.9-33.5v-3.5v0Zm0-7l57.9,33.4v3.6l-57.9-33.4v-3.6v0Zm8,18.6l50,28.9v3.6l-50-28.9v-3.6ZM230,236.2l16.1,9.3c2.2,1.2,3.2,3.1,3.2,5.5v18.6c0,2.5-1.1,3.1-3.2,1.9L230,262.2c-2.2-1.2-3.2-3.1-3.2-5.6v-18.6c0-2.5,1.1-3.1,3.2-1.8v0Z" fill="#dceffe" fill-rule="evenodd" stroke-width="0"/><path d="M237,244.6c-.8-.2-1.4,0-1.8.5-.5.8-.7,1.9-.5,3.3s.7,2.8,1.5,4c.6.9,1.2,1.6,2,2s1.4.5,2,.2c.7-.3,1.1-1,1.3-2c.2-.9.1-2-.2-3.2-.1-.6-.4-1.3-.7-1.9-.4-.6-.8-1.1-1.2-1.6-.8-.7-1.6-1.1-2.3-1.3v0h-.1Zm2.4,11.5c-.5,0-1-.2-1.4-.4-.4-.3-.9-.7-1.4-1.2-.3-.3-.7-.8-1.3-1.5-.3,0-.7,0-1.2,0s-.9,0-1.2,0-.6.2-.9.5c-.1.2-.3.6-.5,1.1l-.7,1.2c-.2.5-.4,1-.4,1.4s.2.8.6,1.2c.2.2.6.4,1,.7c1.1.6,3.3,1.9,6.4,3.7c2.7,1.6,4.9,2.8,6.5,3.6.3.2.6.2.7-.1s.1-.7,0-1.1c-.3-1.2-.6-2.1-.8-2.7-.3-1.1-.6-1.9-.9-2.7-.3-.6-.8-1.3-1.4-2-.3-.4-.9-1-1.6-1.9-.6,0-1.1,0-1.4,0v0l-.1.2Z" fill="#d7e8ff" fill-rule="evenodd" stroke-width="0"/></g><g id="eHltJfmN0Yv58_to" transform="translate(219.39679,144.60001)"><g transform="translate(-219.45,-153.299961)"><path d="M220.8,120.7c-1.4-1.8-2.9-3.3-4.6-4.5-.5-.4-1.1-.7-1.7-1.1l-.3-.2c0,0,0,0,0,0s0,0,0,0s0,0-.1,0c0,0,0,0,0,0s-.1,0-.2-.1c0,0,0,0-.1,0-1.9-1-3.6-1.4-5.3-1.4v0l-2.6.5c0,0-.1,0-.1,0-.5.2-.9.4-1.3.7v0c-3,1.5-4.5,4.6-4.5,9.3v10.9c0,.6.3,1.1.7,1.5s1.1.7,1.7.7s1.2-.2,1.7-.7.7-1,.7-1.6v-10.8c0-1.7.3-3,1-3.9.3-.4.7-.8,1.1-1.1c1.2-.6,2.5-.6,4,0c.2,0,.4.2.6.3.3.1.5.3.8.4c2,1.2,3.9,2.9,5.5,5.1.5.7,1,1.5,1.5,2.3c1.9,3.4,2.9,6.6,2.9,9.7v9.9c0,.6.3,1.1.7,1.5.5.5,1,.7,1.7.7s1.3-.2,1.7-.7c.4-.4.6-1,.7-1.6v-9.9c0-3.6-1-7.4-3.1-11.2v0c0,0,0-.1-.1-.2l-.4-.7c0,0,0,0,0,0-.8-1.3-1.6-2.6-2.5-3.7v0l-.1-.1Z" fill="#2c4482" fill-rule="evenodd" stroke-width="0"/><path d="M182.8,138c-1.8,12.5,2.8,27.2,13.9,44.3c4.1,6.3,9.1,12.9,14.9,19.8v-11.1c-17.2-20.4-26.8-38-28.7-53v0h-.1Z" fill="#6ea9e7" fill-rule="evenodd" stroke-width="0"/><path d="M194.8,101.8l-2.9,3.7c2.2,7.8,2.2,14.8,0,20.7-1.3,6.6-.4,13.9,2.7,22c.6,1.7,1.4,3.4,2.2,5.1v-19.2h.3c.2-.5.8-1,1.6-1.5.4-.2.8-.4,1.2-.6v-8.3c0-4.6,1.5-7.7,4.5-9.3v0c.4-.2.9-.5,1.3-.7c0,0,.1,0,.1,0l2.6-.5v0c1.6,0,3.4.5,5.3,1.4c0,0,0,0,.1,0c0,0,.1,0,.2.1c0,0,0,0,0,0s0,0,.1,0c0,0,0,0,0,0s0,0,0,0l.3.2c.6.3,1.1.7,1.7,1.1v-8.8c-1.3.2-2.7.3-4.1.2-.2,0-.3,0-.5,0-1.2,0-2.4-.2-3.6-.5-3.9-.8-8.1-2.5-12.6-5.1-.2,0-.4-.2-.6-.3v0l.1.3Z" fill="#fff" fill-rule="evenodd" stroke-width="0"/><path d="M204.6,131.7c.3,0,.6.1.9.2v-3c0-4.6,1.5-7.7,4.5-9.3v0c.4-.2.9-.5,1.3-.7-.2,0-.4-.2-.6-.3-1.5-.6-2.8-.6-4,0-.4.3-.8.7-1.1,1.1-.6,1-1,2.3-1,3.9v8v0v.1Z" fill="#fff" fill-rule="evenodd" stroke-width="0"/><path d="M204.9,167.5c2,2.9,4.2,6,6.7,9.1.2.2.4.5.6.7c1.3,1.6,2.7,3.3,4.1,5v-8.2L205,167.6v0l-.1-.1Z" fill="#fff" fill-rule="evenodd" stroke-width="0"/><path d="M216.2,137.9v-14.1c-1.4-.5-2.7-.5-3.8,0-.4.3-.8.7-1.1,1.1-.6,1-1,2.3-1,4v5.6l5.9,3.4v0Z" fill="#fff" fill-rule="evenodd" stroke-width="0"/><path d="M254.6,135.2l-5.8,3.4c-2.6,6.3-2.6,14.4,0,24.4c2,12.4-.5,21.4-7.4,26.8.2-.1.4-.2.5-.2l5.1-2.9c7.1-5.4,9.7-14.4,7.7-27-2.6-10-2.6-18.1,0-24.4v0l-.1-.1Zm-38.2,53.2l3.3-2c-1.2-1.4-2.4-2.7-3.5-4-1.4-1.7-2.8-3.4-4.1-5-.2-.2-.4-.5-.6-.7-2.4-3.1-4.7-6.1-6.7-9.1l-.8-.4c-1.2-.7-1.8-1.5-1.8-2.5v-.5l-3.9-2.3c-1.2-.7-1.8-1.5-1.8-2.5v-6.1c-.8-1.7-1.5-3.4-2.2-5.1-3.1-8.1-3.9-15.4-2.7-22c2.2-5.9,2.2-12.8,0-20.7l2.9-3.7h.1c-.2-.2-.4-.3-.5-.4-.2-.1-.4-.2-.6-.4h-.1c0,.1-5.1,6.6-5.1,6.6c2.2,7.8,2.2,14.8,0,20.7-1.3,6.8-.3,14.4,3,22.8c3.8,9.5,10.4,20.1,20,31.6.2.2.4.4.6.7c1.3,1.6,2.7,3.1,4.1,4.8l.2.2v0h.2Z" fill="#2d3154" fill-rule="evenodd" stroke-width="0"/><path d="M212.1,191.6c1.2,1.4,2.5,2.9,3.8,4.4c3,0,5.8,0,8.4-.3c7-.7,12.6-2.6,16.7-5.6.1-.1.3-.2.4-.3c6.9-5.4,9.4-14.4,7.4-26.8-2.6-10-2.6-18.1,0-24.4l-6.1-14.8c-6.6-3.4-12.7-7.9-18.4-13.5-2.9-2.9-5.7-6.1-8.4-9.5-1.2.2-2.5.3-3.8.3h-.5c-6.1-.1-12.9-2.3-20.3-6.6-.7-.4-1.4-.9-2.2-1.3l-6.1,7.7c.9,3.1,1.4,6.1,1.7,8.9.3,3.3.3,6.5-.2,9.5-.3,2.1-.8,4.1-1.5,6-.8,4-.9,8.2-.3,12.7c2,15,11.6,32.6,28.8,53c.2.2.4.4.6.7v0-.1Zm4.1-3.2c-1.4-1.6-2.8-3.2-4.1-4.7-.2-.2-.4-.4-.6-.7-9.7-11.6-16.4-22.2-20.2-31.7-3.4-8.5-4.4-16.2-3.1-23c2.2-5.9,2.2-12.8,0-20.7l5.2-6.6h.1c0,.1.1,0,.1,0c.2.1.4.2.6.4.2.1.4.2.5.3h-.1c.2.2.4.3.6.4c4.5,2.6,8.7,4.3,12.6,5.1c1.2.2,2.4.4,3.6.5.2,0,.3,0,.5,0c1.4,0,2.8,0,4.1-.2c2.6,3.3,5.3,6.3,8.1,9c4.5,4.3,9.4,7.8,14.7,10.5l5.2,12.6c-2.2,5.3-2.2,12.2,0,20.7c1.7,10.6-.4,18.1-6.3,22.7l-.2.2c0,0,0,0-.1,0c0,0-.1.1-.2.2.2,0,.4-.2.5-.2c0,0-.1,0-.1,0-1.8,1.4-4.1,2.5-6.6,3.3-2,.6-4.3,1.1-6.8,1.4-2.4.3-5,.4-7.9.4h-.2l.1.1Z" fill="#526dc4" fill-rule="evenodd" stroke-width="0"/><path d="M211.6,97.1c-5.1-1.1-10.7-3.5-16.6-7.2l-5.9,3.4c.7.4,1.5.9,2.2,1.3c7.4,4.2,14.1,6.4,20.3,6.6h.5c1.3,0,2.6,0,3.8-.3l5.8-3.3c-3,.4-6.2.3-9.6-.4-.2,0-.3,0-.5,0v0-.1Z" fill="#c2c6ee" fill-rule="evenodd" stroke-width="0"/><path d="M191.4,151.3c0,0,.1-.1.1-.2-3.3-8.4-4.3-16.1-3-22.8c2.2-5.9,2.2-12.8,0-20.7l5.1-6.5h-.1c0-.1-5.2,6.5-5.2,6.5c2.2,7.8,2.2,14.8,0,20.7-1.4,6.8-.3,14.5,3.1,23v0Z" fill="url(#eHltJfmN0Yv68-fill)" fill-rule="evenodd" stroke-width="0"/><path d="M242.6,123.9l5.9-3.4c-8.9-4.6-17-11.3-24.2-19.9-.9-1-1.7-2.1-2.5-3.1v0c0,0-5.8,3.4-5.8,3.4c2.7,3.5,5.5,6.6,8.4,9.5c5.7,5.6,11.8,10.1,18.4,13.5v0h-.2Zm-22.9,62.4l-3.3,2c2.8,0,5.5,0,7.9-.4c2.5-.3,4.7-.8,6.8-1.4c2.6-.8,4.8-1.9,6.6-3.3c0,0,.1,0,.1,0-.2,0-.3.1-.5.2v0c-3.5,1.6-7.8,2.6-13,2.8-1.5,0-3,0-4.6,0v0v.1Z" fill="#979dd7" fill-rule="evenodd" stroke-width="0"/><path d="M216.2,116.2c1.7,1.2,3.2,2.7,4.6,4.5c3.2,2,5.9,4.9,8.2,8.9c0,0,0,0,0,0l.4.7c0,0,0,.1.1.1v0c2.1,3.9,3.1,7.6,3.1,11.3v7.6l1.8,1c1.2.7,1.8,1.5,1.8,2.5s0,.5-.1.8v24.8c-.5.5-1.1.9-1.8,1.3-1,.6-2.2.9-3.6,1h-.7c-1.6,0-3.1-.3-4.2-1l-9.6-5.5v8.2c1.1,1.3,2.3,2.7,3.5,4c1.6,0,3.1,0,4.6,0c5.2-.3,9.5-1.2,13-2.8v0c0,0,.1-.1.2-.2c0,0,0,0,.1,0l.2-.2c5.9-4.6,7.9-12.2,6.3-22.7-2.2-8.5-2.2-15.4,0-20.7l-5.2-12.6c-5.2-2.7-10.1-6.2-14.7-10.5-2.8-2.7-5.5-5.7-8.1-9v8.8v0l.1-.3ZM226.9,144l.9.5v-2.9c0-1.7-.3-3.4-.9-5.2v7.6v0Zm-10.7-20.2v14.1l5.8,3.4v-4.8c0-3.1-1-6.4-2.9-9.7-.5-.8-1-1.6-1.5-2.3-.4-.2-.8-.4-1.2-.6c0,0-.1,0-.2,0v0-.1Z" fill="#bdc8dc" fill-rule="evenodd" stroke-width="0"/><polygon points="248.8,138.6 254.6,135.2 248.5,120.5 242.6,123.9 248.8,138.6" fill="#525889" fill-rule="evenodd" stroke-width="0"/><path d="M216.4,188.4l-.2-.2v.2h.2Z" fill="url(#eHltJfmN0Yv72-fill)" fill-rule="evenodd" stroke-width="0"/><path d="M191.4,151.3c3.8,9.5,10.5,20.1,20.2,31.7.2.2.4.4.6.7c1.3,1.6,2.7,3.1,4.1,4.7v-.2c-1.4-1.6-2.8-3.2-4.1-4.8-.2-.2-.4-.4-.6-.7-9.6-11.6-16.3-22.1-20-31.6c0,0,0,.1-.1.2v0h-.1Z" fill="url(#eHltJfmN0Yv73-fill)" fill-rule="evenodd" stroke-width="0"/><path d="M226.9,136.5c.6,1.8.9,3.5.9,5.2v2.9l1,.5c1.2.7,1.8,1.5,1.8,2.5s0,.5-.1.8v24.8c-.5.5-1.1.9-1.8,1.3-1,.6-2.2.9-3.6,1h-.7c-1.6,0-3.1-.3-4.2-1l-17.7-10.2v.5c0,1,.6,1.8,1.8,2.5l.8.4l11.3,6.5l9.6,5.5c1.2.7,2.6,1,4.2,1h.7c1.4-.1,2.6-.4,3.6-1c.7-.4,1.2-.8,1.8-1.3v-24.8c.1-.2.1-.5.1-.8c0-1-.6-1.8-1.8-2.5l-1.8-1v-7.6c0-3.6-1-7.4-3.1-11.2v0c0,0,0-.1-.1-.2l-.4-.7c0,0,0,0,0,0-2.3-3.9-5-6.9-8.2-8.9.9,1.1,1.7,2.3,2.5,3.7c0,0,0,0,0,0l.4.7c0,0,0,0,.1.2v0c2.1,3.9,3.1,7.6,3.1,11.3v0c0,0,0,0,0,0l-.2-.1Zm-15.6-17.6c-.5.2-.9.4-1.3.7v0c-3,1.5-4.5,4.6-4.5,9.3v3c.6.2,1.1.4,1.6.7l3.2,1.9v-5.6c0-1.7.3-3,1-3.9.3-.4.7-.8,1.1-1.1c1.1-.5,2.4-.6,3.8,0c0,0,.1,0,.2,0c.4.1.8.3,1.2.6-1.6-2.2-3.4-3.9-5.5-5.1-.3-.2-.6-.3-.8-.4v0-.1Z" fill="#717e96" fill-rule="evenodd" stroke-width="0"/><path d="M226.9,146.4c.3.3.5.6.5,1s-.3.9-.9,1.2-1.2.5-2.1.5c-.8,0-1.5-.2-2-.5-.6-.3-.9-.7-.9-1.2s.1-.6.4-.9v-5.2l-5.8-3.4-5.9-3.4-3.2-1.9c-.5-.3-1-.5-1.6-.7-.3,0-.6-.2-.9-.2v2.8c.3.3.5.6.5,1s-.3.9-.9,1.2-1.2.5-2.1.5c-.8,0-1.5-.2-2-.5-.6-.3-.9-.7-.9-1.2s.1-.6.4-.9v-2.6c-.4.1-.9.3-1.2.6-.8.5-1.4,1.1-1.6,1.7-.1.2-.1.5-.1.8c0,1,.6,1.8,1.7,2.5l21.6,12.5c1.2.7,2.6,1,4.3,1s3.1-.3,4.3-1c.8-.5,1.4-1.1,1.6-1.7.1-.2.1-.5.1-.8c0-1-.6-1.8-1.8-2.5l-1-.5-.9-.5v2.3v0h.4Z" fill="#ffe270" fill-rule="evenodd" stroke-width="0"/><path d="M196.6,153.3v6.1c0,1,.6,1.8,1.8,2.5l3.9,2.3L220,174.4c1.2.7,2.6,1,4.2,1h.7c1.4-.1,2.6-.4,3.6-1c.7-.4,1.2-.8,1.8-1.3v-24.8c-.2.6-.8,1.2-1.6,1.7-1.2.7-2.6,1-4.3,1s-3.1-.3-4.3-1l-21.6-12.5c-1.2-.7-1.7-1.5-1.7-2.5s0-.5.1-.8h-.3c0-.1,0,19.1,0,19.1v0Zm13.8,4.4c0,0,0,0,0,0v5.5v0c0,0-.9.3-.9.3l-3.3-1.8v-6c0-.1-.1-.2-.2-.3-.6-1-.9-2-.9-3s.3-1.6.9-2c.2-.1.5-.2.8-.2c0,0,.1,0,.2-.1.6-.3,1.3-.3,2.1.2s1.6,1.2,2.2,2.3c.6,1,.9,2,.9,3s-.3,1.6-.9,2c-.2.1-.5.2-.8.3v0l-.1-.2Z" fill="url(#eHltJfmN0Yv76-fill)" fill-rule="evenodd" stroke-width="0"/><path d="M222,146.4c-.3.3-.4.6-.4.9s.3.9.9,1.2s1.2.5,2,.5s1.5-.1,2.1-.5c.6-.3.9-.7.9-1.2s-.2-.7-.5-1c0,.6-.3,1.1-.7,1.6-.5.5-1.1.7-1.7.7s-1.2-.2-1.7-.7c-.4-.4-.6-.9-.7-1.5v0h-.2Zm-22.2-11.8c-.3.3-.4.6-.4.9s.3.9.9,1.2s1.2.5,2,.5s1.5-.1,2.1-.5c.6-.3.9-.7.9-1.2s-.2-.7-.5-1c0,.6-.3,1.1-.7,1.6s-1,.7-1.7.7-1.3-.2-1.7-.7c-.4-.4-.6-.9-.7-1.5v0h-.2Z" fill="#b08c00" fill-rule="evenodd" stroke-width="0"/><path d="M210.3,163.1v0c0,0,0-5.4,0-5.4v0c.3,0,.5-.1.8-.3.6-.3.9-1,.9-2s-.3-2-.9-3-1.3-1.8-2.2-2.3c-.8-.5-1.6-.5-2.1-.2c0,0-.1,0-.2.1-.5.4-.7,1-.7,1.9c0,1,.3,2,.9,3c0,.1.1.2.2.3v6l3.2,1.8v0l.1.1Z" fill="#8f7200" fill-rule="evenodd" stroke-width="0"/><path d="M206.7,150.1c-.3,0-.5.1-.8.2-.6.3-.9,1-.9,2s.3,2,.9,3c0,.1.1.2.2.3v6l3.3,1.8.9-.4-3.2-1.8v-6c0-.1-.1-.2-.2-.3-.6-1-.9-2-.9-3c0-.9.2-1.5.7-1.9v0v.1Zm3.6,7.6c0,0,0,0,0,0v0Z" fill="#d1a000" fill-rule="evenodd" stroke-width="0"/></g></g><g><path d="M35.1,276l-.3-.2v0c-.8,0-1.8,0-3-.1v-4.6c-.3.2-.5.4-.7.6-.4.6-.6,1.9-.6,4.1s.4,1.1,1.2,1.3c.5.1,1.5.3,3.1.6v-1.7c0,0,.2,0,.3,0v0Zm31.4-4.8c0,.1,0,.3,0,.4c0-.1,0-.3.1-.4c0,0,0,0-.1,0Zm-2.9-4.6v1.4h1.3c0,.1,0,.1,0,.1c0-.2,0-.4.1-.4c0,0,0-.1-.3-.1s-.2,0-.3-.1c0-.2-.1-.3-.2-.4c0,0-.7-.4-.7-.4l.1-.1Zm-30.1,1.3l1.1-.2v-.7c0,0-.2.1-.3.2l-.8.7Zm5.4,14.3l-4.1-2.4v-1.7c-.6.5-1,1-1.2,1.3c0,.1-.1.3-.1.5s0,.2-.1.5c0,0,0,.1.2.1s.3,0,.3.2.1.3.2.4c2.7,1.6,4.2,2.4,4.3,2.5c0,0,0,0,.2,0h.3c.3,0,.4,0,.4,0l1.4-.5c1-.3,1.5-.5,1.7-.5.3,0,1,.2,2.1.5.6,1.4.9,2.1.9,2.2.2.1.9.2,2.2.2c3,0,4.8-.1,5.2-.3.3-.1.5-.4.7-.7.2-.5.4-1,.6-1.3l.8-.3c.6-.1,1-.2,1.2-.2s.8.2,1.9.5s1.7.5,1.9.5c.4,0,1.2-.5,2.4-1.4c1.3-1,2-1.7,2-2.1s0-.3,0-.5v-.2c0,0-.2-.3-.5-.6-.2-.3-.3-.6-.3-.7s0-.3,0-.3s0,0,0,0c.5,0,.9,0,1.2,0c.1-.5.2-1,.3-1.5-.8.1-1.5.2-2.2.4v3.4c-.4.3-.9.8-1.5,1.2-.3.2-.9.6-1.7,1.1l-3.7-1-3,.7c-.7,1-1,1.7-1,2v0c-1.1,0-3.2.1-6,.1l-.7-2.2-3.1-.7-3.5,1.1v0l.3-.3ZM23.4,269v0c0-.2,0-.3,0-.4c0,0,0,0-.1,0s-.2,0-.2-.1-.1-.2-.1-.3l-.4-.2v.9c0,0,.9,0,.9,0l-.1.1ZM3,274.4h.2-.2c0-.1,0,0,0,0-.5,0-1.2-.1-2-.2v-3.2c-.2.1-.4.2-.5.4-.4.4-.5,1.3-.5,2.8s.3.8.8.9c.3,0,1,.2,2.1.4v-1.1v0h.1Zm2.8,4.2L3,277v-1.2c-.4.4-.7.7-.8.9c0,.1,0,.2,0,.3s0,.2,0,.3c0,0,0,0,.2,0s.2,0,.2.1s0,.2.2.3c1.8,1.1,2.8,1.6,2.9,1.7c0,0,0,0,.1,0h.2c.2,0,.3,0,.3,0l.9-.3c.6-.2,1-.3,1.2-.3s.7.1,1.4.3c.4,1,.6,1.5.6,1.5.1.1.6.1,1.6.1c2,0,3.2,0,3.5-.2.2,0,.4-.2.5-.4.1-.3.2-.6.4-.9h.6c.4-.3.7-.3.8-.3s.5.1,1.2.3c.8.2,1.2.3,1.3.3.2,0,.8-.3,1.7-1s1.4-1.1,1.4-1.4s0-.2,0-.4v0c0-.1-.1-.3-.3-.6-.1-.2-.2-.4-.2-.5s0-.2,0-.2v0c1.4-.1,2.2-.2,2.5-.3.1,0,.2-.3.3-.6c0-.4.1-.9,0-1.6v-1.2c0-.3-.2-.5-.5-.5-.1,0-.3,0-.4,0c0,.2,0,.3,0,.5v2.7c-.9.1-1.6.2-2.3.4v2.3c-.2.2-.6.5-1,.9-.2.2-.6.4-1.1.8l-2.5-.7-2,.5c-.4.7-.7,1.2-.7,1.4-.8,0-2.1,0-4.1,0l-.5-1.5-2.1-.4-2.3.7v0l-.4-.2Zm16.4-4.3c0,0,0,0,0,0s0-.1-.1-.2v.3c0,0,0,0,0,0l.1-.1ZM2.8,268.8v-.5c0,0-.2.1-.2.2L2,269c-.1,0-.2,0-.1,0l1-.2v0h-.1Zm12.8,3.3c0,0,0,0,0,0c.3-.1.6-.3.8-.5-.5-.5-1.2-.8-2.1-.9-.6-.1-1.3-.2-2.1-.1-.7,0-1.4.2-2,.4-.4.2-.7.4-1,.6.2.2.4.3.8.5c0,0,0,0,0,0c.1,0,.2-.1.4-.2.6-.3,1.4-.4,2.4-.4s1.7.1,2.3.4c.1,0,.3.1.4.2v0h.1Zm39.1-.2c-.7-.7-1.7-1.1-3.1-1.3-.9-.2-1.9-.3-3-.2-1.1,0-2,.3-2.9.6-.6.3-1.1.6-1.5.9.3.2.7.5,1.1.7c0,0,.1,0,.2.1.1,0,.3-.2.5-.3c1-.4,2.1-.7,3.5-.7s2.5.2,3.5.7c.2,0,.3.2.5.3c0,0,.1,0,.2-.1.4-.2.8-.5,1.1-.7v0h-.1Zm8.4,4c0,0,0,0,0-.1s0-.2-.2-.3v.4c0,0,0,0,0,0h.2Z" fill="#b6dcff" fill-rule="evenodd" stroke-width="0"/><path d="M66.5,271.2c0-.5,0-1,0-1.4v-1.6l-1.7-.2h-1.3c0-.1-.2-.2-.2-.2L61.6,266l1.9-2.1-4.3-2.3-2.7,1.1-3.6-.7-.9-2.1c-2.3,0-4.4.1-6.3.2l-.2,1.8-3.6.9-2.7-1.2c-1.4.8-3,1.8-4.7,2.8l2.4,1.7-1.4,1.4-1,.2-1.1.2-1.4.3c-.2.6-.3,1.5-.3,2.9v.6c.7,0,1.2.1,1.8.2.9,0,1.6.1,2.1.2l1.1,1.7-1.1,1.1-.8.9.3.2l3.8,2.2l3.5-1.1l3.1.7.7,2.2c2.9,0,4.9,0,6-.1c0-.3.3-1,1-2l3-.7l3.7,1c.8-.5,1.3-.9,1.7-1.2.6-.4,1.1-.8,1.5-1.1v-.4c-.4-.6-.8-1.1-1.1-1.7l1-1.4c.6-.1,1.3-.3,2.1-.4.4,0,.8-.1,1.3-.2c0,0,0-.1,0-.2s0-.3,0-.4v0h.1ZM2.8,266.5l1.7,1.2-1,1h-.7c0,.1-1,.3-1,.3h-.8c0,.5-.1,1.2-.1,2v.5c.4,0,.8.1,1.2.1.6,0,1.1,0,1.4.1l.8,1.1-.8.8-.6.6h.2c0,.1,2.6,1.6,2.6,1.6l2.3-.7l2.1.4.5,1.5c2,0,3.3,0,4.1,0c0-.2.3-.6.7-1.4l2-.5l2.5.7c.5-.3.9-.6,1.1-.8.4-.3.8-.6,1-.8v-.3c-.3-.4-.5-.8-.7-1.1l.7-.9c.4-.1.9-.2,1.5-.3.3,0,.6,0,.9-.1c0-.2,0-.3,0-.5c0-.3,0-.6,0-.9v-1.1h-1.1c0-.1-.9-.2-.9-.2h-.1c0,0,0,0,0,0l-1.1-1.2l1.2-1.4-2.9-1.6-1.8.7-2.4-.5-.7-1.4c-1.6,0-3,0-4.3.1v1.2c-.1,0-2.5.6-2.5.6L6,264.4c-1,.6-2,1.2-3.1,1.9v0l-.1.2Zm13.7,5.1c-.2.2-.5.3-.8.5c0,0,0,0,0,0-.8.4-1.7.6-2.7.6s-2-.2-2.7-.6c0,0,0,0,0,0-.3-.1-.6-.3-.8-.5-.5-.4-.7-.9-.7-1.5.1-.8.6-1.4,1.7-1.8.6-.2,1.3-.4,2-.4s1.4,0,2.1.1c1.4.2,2.3.9,2.6,1.8.2.7,0,1.3-.5,1.8v0h-.2Zm36.8,1.1c-1.1.5-2.4.8-4,.8s-2.8-.3-3.9-.8c0,0-.1,0-.2-.1-.4-.2-.8-.5-1.1-.7-.7-.6-1-1.3-1-2.1.1-1.2.9-2.1,2.4-2.7.9-.3,1.9-.5,2.9-.6c1.1-.1,2.1,0,3,.2c2.1.3,3.4,1.2,3.9,2.7.3,1.1,0,1.9-.8,2.7-.3.2-.7.5-1.1.7c0,0-.1,0-.2.1v0l.1-.2Z" fill="#d0deff" fill-rule="evenodd" stroke-width="0"/><path d="M63.6,267.9v-4L61.7,266l1.7,1.8h.2v.1Zm-41.1.1v-1.7l-1.2,1.4l1.1,1.2v0c0,0,.1,0,.1,0v-.9v0Zm-.4,6.1v-2.1l-.7.9c.2.3.4.7.7,1.1v0v.1ZM9.3,271.6c.3-.2.6-.5,1-.6.6-.2,1.3-.4,2-.4s1.4,0,2.1.1c.9.1,1.6.5,2.1.9.6-.5.7-1.1.5-1.8-.3-1-1.2-1.6-2.6-1.8-.6-.1-1.3-.2-2.1-.1-.7,0-1.4.2-2,.4-1,.4-1.6,1.1-1.7,1.8c0,.6.2,1.1.7,1.5v0Zm45.4.3c.8-.7,1.1-1.6.8-2.7-.4-1.4-1.7-2.3-3.9-2.7-.9-.2-1.9-.3-3-.2-1.1,0-2,.3-2.9.6-1.5.6-2.3,1.5-2.4,2.7c0,.8.3,1.5,1,2.1.4-.3.9-.6,1.5-.9.9-.3,1.9-.5,2.9-.6c1.1-.1,2.1,0,3,.2c1.4.2,2.4.7,3.1,1.3v0l-.1.2Zm8.3,3.6v-3l-1,1.4c.3.5.7,1.1,1,1.7v-.1Z" fill="#7484aa" fill-rule="evenodd" stroke-width="0"/><path d="M22.1,272v2.1c0,0,0,.1.1.2v.4c.6-.1,1.4-.3,2.3-.4v-2.7c-.3,0-.6,0-.9.1-.5.1-1,.2-1.5.3v0Zm-6.6,6.4l2-.5v-2.7l-2,.5v2.7Zm-4.8,1.4c2,0,3.3,0,4.1,0v-2.7c-.8,0-2.1,0-4.1,0c0,0,0,2.7,0,2.7Zm-2.6-1.9l2.1.4v-2.7l-2.1-.4v2.7Zm-4.6-4.2v-2c-.4,0-.8,0-1.4-.1-.4,0-.8-.1-1.2-.1v2.7c.8.1,1.5.2,2,.2v0c0-.1.6-.7.6-.7v0ZM63,272.5v3c0,.1,0,.2.2.3v.6c.7-.1,1.4-.3,2.2-.4.3-1.4.7-2.8,1.1-4.1-.5,0-.9.1-1.3.2-.8.1-1.5.3-2.1.4v0h-.1Zm-6.8,8.6v-4l-3,.7v4l3-.7v0Zm-10-1.1v4c2.9,0,4.9,0,6-.1v-4c-1.1.1-3.2.1-6,.1v0Zm-3.8-2.9v4l3.1.7v-4l-3.1-.7v0ZM35.7,275v-2.8c-.5,0-1.2-.1-2.1-.2-.5,0-1.1-.1-1.8-.2v4c1.2.1,2.2.2,3,.3v0c0-.1.8-1,.8-1v0l.1-.1Z" fill="#99a9d0" fill-rule="evenodd" stroke-width="0"/><path d="M20,275.9v2.7c.5-.3.9-.6,1.1-.8.4-.3.8-.6,1-.9v-2.7c0,0,0,0,0,0-.2.2-.6.5-1,.8-.2.2-.6.4-1.1.8v0v.1ZM14.8,277v2.7c0-.2.3-.6.7-1.4v-2.7c-.4.7-.7,1.2-.7,1.4Zm-6.7.9v-2.7l-2.3.7v2.7l2.3-.7Zm55-2.1c0,0,0,0,0,.1-.3.3-.8.7-1.5,1.1-.3.3-.9.7-1.7,1.2v4c.8-.5,1.3-.9,1.7-1.1.7-.5,1.2-.9,1.5-1.2v-4v0-.1Zm-9.9,6.1v-4c-.7,1.1-1,1.7-1,2v4c0-.3.3-1,1-2v0Zm-14.3-3.7v4l3.5-1.1v-4l-3.5,1.1v0Z" fill="#8293bb" fill-rule="evenodd" stroke-width="0"/><path d="M34.6,267v.7l1-.2l1.4-1.4-2.4-1.7v2.7-.1Zm.2,11v1.7l4.1,2.4v-4l-3.8-2.2c-.1,0-.2,0-.3,0v2.1v0Zm-17.3-.1l2.5.7v-2.7l-2.5-.7v2.7Zm-7.3.4l.5,1.5v-2.7l-.5-1.5v2.7Zm-4.4.3v-2.7l-2.6-1.5h-.2v2.6l2.8,1.6v0Zm-2.3-6.9v2l.8-.8-.8-1.1v0-.1Zm-.7-5.2v2.3h.7c0-.1,1-1.1,1-1.1l-1.7-1.2v0Zm53.4,10.7v4l3.7,1v-4l-3.7-1Zm-10,6.8v-4l-.7-2.2v4l.7,2.2v0ZM35.7,272.1v2.8l1.1-1.1-1.1-1.7v0Z" fill="#b1c1e6" fill-rule="evenodd" stroke-width="0"/></g><g><path id="eHltJfmN0Yv88" d="M105.4,69.4l29.4,17c1.2.7,2,.8,2.6.5c0,0,.1,0,.1-.1l4.1-2.4c.4-.4.6-1.2.6-2.4v-10.8c0,1-.2,1.8-.6,2.1l-4.1,2.4c0,0-.1,0-.1.1-.6.3-1.5.2-2.6-.5l-29.4-17c0,0,0,11.1,0,11.1Z" opacity="0" fill="#6ea9e7" fill-rule="evenodd" stroke-width="0"/><g id="eHltJfmN0Yv89" opacity="0"><path d="M142.3,71.2v-30.8c0-2.7-1.2-4.7-3.5-6L105.4,15.1L84.4,2.9c-1.2-.6-2-.8-2.6-.5l-4,2.3c.6-.3,1.4-.2,2.6.5l54.4,31.4c2.3,1.3,3.5,3.3,3.5,6v30.6c0,1.2-.2,2-.7,2.4l4.1-2.4c.4-.4.6-1.1.6-2.1v0v.1Z" fill="#0058a9" fill-rule="evenodd" stroke-width="0"/><path d="M105.4,58.3l29.4,17c1.2.7,2,.8,2.6.5c0,0,.1,0,.1-.1.5-.4.7-1.2.7-2.4v-30.6c0-2.7-1.2-4.7-3.5-6L80.4,5.2c-1.2-.6-2-.8-2.6-.5v0c-.6.3-.8,1.2-.8,2.5v30.6c0,2.7,1.2,4.7,3.5,6l25,14.5v0h-.1ZM87.2,14.8h.1L129.2,39c1.2.7,2.3,1.8,3.2,3.4s1.3,3.2,1.3,4.7v.8c0,1.8-.5,3-1.4,3.7-1,.7-2.1.7-3.4,0L85.8,26.7c-1.3-.8-2.5-2-3.4-3.8s-1.4-3.6-1.4-5.4.1-1.7.3-2.3h.1c.3-.7.6-1.2.9-1.4.9-.7,2.1-.7,3.4,0l1.4.9v0l.1.1Zm46.5,47.9v.4c0,1.8-.5,3-1.4,3.7-1,.7-2.1.7-3.4,0L85.8,41.9c-1.3-.8-2.5-2-3.4-3.8s-1.4-3.6-1.4-5.3.1-1.7.3-2.3h.1c.3-.7.6-1.2.9-1.4.9-.7,2.1-.7,3.4,0l1.4.9h.1l41.9,24.2c1.2.7,2.3,1.8,3.2,3.4s1.3,3.2,1.3,4.7v.4v0h.1Z" fill="#6bb8ff" fill-rule="evenodd" stroke-width="0"/><path d="M133.7,47.5c0,1.3-.5,2.3-1.3,2.8-.9.6-1.9.5-3.2-.3L87.4,25.9c-1.2-.7-2.3-1.9-3.2-3.5s-1.3-3.2-1.3-4.7.4-2.6,1.3-3.2c.8-.6,1.8-.6,3,.1l-1.4-.9c-1.3-.8-2.5-.8-3.4,0-.3.2-.6.7-.9,1.4h-.1c-.2.6-.3,1.4-.3,2.3c0,1.8.5,3.5,1.4,5.4.9,1.8,2.1,3,3.4,3.8L129,51.5c1.3.8,2.4.8,3.4,0c.9-.7,1.4-1.9,1.4-3.7v-.4v0l-.1.1ZM87.2,30l-1.4-.9c-1.3-.8-2.5-.8-3.4,0-.3.2-.6.7-.9,1.4h-.1c-.2.6-.3,1.4-.3,2.3c0,1.8.5,3.5,1.4,5.3s2.1,3,3.4,3.8L129,66.8c1.3.8,2.4.8,3.4,0c.9-.7,1.4-1.9,1.4-3.7v-.4c0,1.3-.5,2.3-1.3,2.8-.9.6-1.9.5-3.2-.3L87.5,41.1c-1.2-.7-2.3-1.9-3.2-3.5s-1.3-3.2-1.3-4.7.4-2.6,1.3-3.2c.8-.6,1.8-.5,3,.1v0l-.1.2Z" fill="#017ae8" fill-rule="evenodd" stroke-width="0"/><path d="M133.7,47.5v-.4c0-1.5-.4-3.1-1.3-4.7s-1.9-2.7-3.2-3.4L87.3,14.8h-.1c-1.2-.7-2.2-.7-3-.1-.9.6-1.3,1.6-1.3,3.2s.4,3.1,1.3,4.7s1.9,2.8,3.2,3.5l41.8,24.1c1.2.8,2.3.8,3.2.3.8-.5,1.2-1.5,1.3-2.8v-.2Z" fill="#fff" fill-rule="evenodd" stroke-width="0"/><path d="M88.7,18.8c0,.4,0,1-.1,2c.3,0,.7,0,1.3.1.1,0,.3,0,.4,0l.3,1.4c-.3,0-.5-.1-.8-.2s-.7-.2-1-.3c.2.4.6,1.2,1.2,2.4l-.9.2c-.3-.6-.6-1.4-1-2.4c0,.1-.1.2-.2.3-.3.4-.6.8-.9,1l-.9-1.2c.5-.5,1-.8,1.3-.9-.6-.4-1.2-.9-1.9-1.5l.4-1.1c.7.6,1.2,1.3,1.8,1.9c0-.9-.2-1.7-.2-2.2l1.1.6v0l.1-.1Z" fill="#fff" fill-rule="evenodd" stroke-width="0"/><path d="M92.9,22.7c.5.5,1.1,1,1.5,1.5c0-.1,0-.2,0-.3c0-.8-.2-1.4-.2-2l1,.7c0,.1,0,.3,0,.4c0,.4,0,1,0,1.6h.4c.3,0,.8,0,1.2.1h.2l.4,1.4c-.2,0-.4-.1-.6-.1-.4-.1-.8-.3-1.3-.4.3.4.7,1.2,1.2,2.4l-.9.2c-.2-.5-.5-1.2-.8-2c0-.1-.1-.3-.2-.4v0c-.3.4-.6.8-.8,1.1c0,0,0,.1-.2.1l-.9-1.2c.5-.5,1-.8,1.3-.9-.6-.4-1.3-.9-1.9-1.5l.4-1c0,.1.2.2.3.3v0h-.1Z" fill="#fff" fill-rule="evenodd" stroke-width="0"/><path d="M87.2,30c-1.2-.7-2.2-.7-3-.1-.9.6-1.3,1.6-1.3,3.2s.4,3.1,1.3,4.7s1.9,2.8,3.2,3.5l41.8,24.1c1.2.8,2.3.8,3.2.3.8-.5,1.2-1.5,1.3-2.8v-.4c0-1.5-.4-3.1-1.3-4.7s-1.9-2.7-3.2-3.4L87.3,30.2c0,0-.1,0-.1,0v-.2Z" fill="#fff" fill-rule="evenodd" stroke-width="0"/><path d="M87.6,33.4l1.1.6c0,.4,0,1-.1,2c.3,0,.7,0,1.3.2.1,0,.3,0,.4,0l.3,1.4c-.3,0-.5-.2-.8-.2s-.7-.2-1-.3c.2.4.6,1.2,1.2,2.4l-.9.2c-.3-.6-.6-1.4-1-2.4c0,0-.1.2-.2.3-.3.4-.6.8-.9,1l-.9-1.2c.5-.5,1-.8,1.3-.9-.6-.4-1.2-.9-1.9-1.5l.4-1.1c.7.6,1.2,1.3,1.8,1.9c0-.9-.2-1.7-.2-2.2v0l.1-.2Z" fill="#fff" fill-rule="evenodd" stroke-width="0"/><path d="M92.7,37.6c0,0,.2.2.3.3.5.5,1.1,1,1.5,1.5c0-.1,0-.2,0-.3c0-.8-.2-1.4-.2-2l1,.7c0,.1,0,.3,0,.4c0,.4,0,1,0,1.6h.4c.3,0,.8,0,1.2.2h.2l.4,1.4c-.2,0-.4,0-.6-.2-.4-.1-.8-.3-1.3-.4.3.4.7,1.2,1.2,2.4l-.9.2c-.2-.5-.5-1.2-.8-2c0-.2-.1-.3-.2-.4v0c-.3.4-.6.8-.8,1.1l-.2.2-.9-1.2c.5-.5,1-.8,1.3-.9-.6-.4-1.3-.9-1.9-1.5l.4-1v0l-.1-.1Z" fill="#fff" fill-rule="evenodd" stroke-width="0"/><path id="eHltJfmN0Yv99" d="M100.7,27.4l-.8-.9c0-.1-.1-.2-.2-.2l-.4,1l.2.2c.6.5,1.2,1,1.7,1.4c0,0,0,0,0,0-.3.1-.7.4-1.2.9l.9,1.2c.3-.3.6-.8,1-1.3c0,.1.1.2.2.4.3.9.6,1.5.8,2.1h.1l.8-.2c-.6-1.2-1-2-1.2-2.4.7.2,1.3.4,1.9.5l-.4-1.4c-.6-.1-1.1-.2-1.5-.2h-.2c0-.9.1-1.6.1-2v0c0,0-1-.7-1-.7c0,.6,0,1.3.2,2.2v0c-.2-.3-.5-.5-.8-.8v0l-.2.2Zm-7.8-4.7c0-.1-.2-.2-.3-.3l-.4,1c.6.6,1.2,1.1,1.9,1.5-.3.1-.8.4-1.3.9l.9,1.2c0,0,0-.1.2-.1.3-.3.6-.6.8-1.1v0c0,.2.1.3.2.5.3.8.6,1.5.8,2l.9-.2c-.6-1.2-1-2-1.2-2.4.4.1.9.3,1.3.4.2,0,.4.1.6.1l-.4-1.4h-.2c-.5,0-.9-.1-1.2-.1h-.4c0-.7,0-1.2,0-1.6c0-.1,0-.3,0-.4l-1-.7c0,.5,0,1.2.2,2c0,.1,0,.2,0,.3-.5-.5-1-1-1.5-1.5v0l.1-.1Zm-4.2-3.9l-1.1-.6c0,.6,0,1.3.2,2.2-.5-.6-1.1-1.2-1.8-1.9l-.4,1.1c.7.6,1.3,1.1,1.9,1.5-.3.1-.8.4-1.3.9l.9,1.2c.2-.2.5-.5.9-1c0,0,.1-.2.2-.3.3,1,.7,1.8,1,2.4l.9-.2c-.6-1.2-1-2-1.2-2.4.3.1.7.2,1,.3.2,0,.5.1.8.2l-.3-1.4c-.2,0-.3,0-.4,0-.6-.1-1-.1-1.3-.1c0-1,.1-1.7.1-2v0l-.1.1ZM87.6,33.4c0,.6,0,1.3.2,2.2-.5-.6-1.1-1.2-1.8-1.9l-.4,1.1c.7.6,1.3,1.1,1.9,1.5-.3.1-.8.4-1.3.9l.9,1.2c.2-.2.5-.5.9-1c0,0,.1-.2.2-.3.3,1,.7,1.8,1,2.4l.9-.2c-.6-1.2-1-2-1.2-2.4.3.1.7.2,1,.3.2,0,.5.2.8.2L90.4,36c-.2,0-.3,0-.4,0-.6,0-1-.2-1.3-.2c0-1,.1-1.7.1-2l-1.1-.6v0l-.1.2Zm23.2.7l-.3-1.4c-.6-.1-1.1-.2-1.5-.2h-.2c0-.9.1-1.5.1-1.9v0c0-.1-1.1-.7-1.1-.7c0,.6,0,1.3.2,2.2-.5-.6-1.1-1.2-1.8-1.8l-.3,1.1c.2.2.4.4.6.5.4.4.8.7,1.2,1v0c-.3.2-.7.5-1.2.9l.9,1.2c0,0,0,0,0,0c.3-.2.6-.6,1-1.2c0,0,0,.2.1.3.3.9.6,1.6.8,2.1l.9-.2c-.6-1.2-1-2-1.2-2.4.6.2,1.2.4,1.8.5v0Zm2.7.3l-.4,1c.6.6,1.2,1.1,1.9,1.5-.3.1-.8.4-1.3.9l.9,1.2c.3-.3.6-.7,1-1.3.4,1,.7,1.8,1,2.4l.9-.2c-.6-1.2-1-1.9-1.2-2.4.7.2,1.3.4,1.9.6l-.4-1.4c-.8-.1-1.4-.2-1.7-.2c0-1,.1-1.7.1-2.1l-1-.7c0,.6,0,1.3.2,2.3-.5-.6-1.1-1.2-1.8-1.8v0l-.1.2ZM92.7,37.6l-.4,1c.6.6,1.2,1.1,1.9,1.5-.3.1-.8.4-1.3.9l.9,1.2.2-.2c.3-.3.6-.6.8-1.1v0c0,.2.1.3.2.5.3.8.6,1.5.8,2l.9-.2c-.6-1.2-1-2-1.2-2.4.4.2.9.3,1.3.4.2,0,.4,0,.6.2L97,40h-.2c-.5,0-.9-.1-1.2-.2h-.4c0-.7,0-1.2,0-1.6c0-.2,0-.3,0-.4l-1-.7c0,.5,0,1.2.2,2c0,0,0,.2,0,.3-.5-.5-1-1-1.5-1.5c0-.1-.2-.2-.3-.3v0h.1Zm33.6,20.6c.7.6,1.3,1.1,1.9,1.5-.3.1-.8.4-1.3.9l.9,1.2c.3-.3.6-.7,1-1.3.3,1,.7,1.8,1,2.4l.9-.2c-.6-1.2-1-1.9-1.2-2.4.6.2,1.2.4,1.8.6l-.4-1.4c-.8-.1-1.4-.2-1.7-.2.1-1,.1-1.7.1-2.1l-1.1-.6c0,.6,0,1.3.1,2.3-.5-.6-1.1-1.2-1.8-1.9l-.4,1v0l.2.2Zm-3.6-4.6l-1.1-.6c0,.6,0,1.3.2,2.2-.5-.6-1.1-1.2-1.8-1.8l-.3,1c.6.6,1.2,1.1,1.8,1.5-.3.1-.7.4-1.2.9l.9,1.2c.3-.3.6-.7,1-1.2.4,1,.7,1.8,1,2.4l.9-.2c-.6-1.2-1-2-1.2-2.4.6.2,1.2.4,1.8.6l-.3-1.4c-.8-.1-1.3-.2-1.7-.2c0-1,.1-1.7.1-2.1l-.1.1Zm6.5-9.3c.1-1,.1-1.7.1-2.1l-1.1-.6c0,.6,0,1.3.1,2.3-.5-.6-1.1-1.2-1.8-1.9l-.4,1c.7.6,1.3,1.1,1.9,1.5-.3.1-.8.4-1.3.9l.9,1.2c.3-.3.6-.7,1-1.3.3,1,.7,1.8,1,2.4l.9-.2c-.6-1.2-1-1.9-1.2-2.4.6.2,1.2.4,1.8.6l-.4-1.4c-.8-.1-1.4-.2-1.7-.2v0l.2.2ZM120,38.2l-.3,1c.6.6,1.2,1.1,1.8,1.5-.3.1-.7.4-1.2.9l.9,1.2c.3-.3.6-.7,1-1.2.4,1,.7,1.8,1,2.4l.9-.2c-.6-1.2-1-2-1.2-2.4.6.2,1.2.4,1.8.6l-.3-1.4c-.8-.1-1.3-.2-1.7-.2c0-1,.1-1.7.1-2.1l-1.1-.6c0,.6,0,1.3.2,2.2-.5-.6-1.1-1.2-1.8-1.8l-.1.1Zm-3.9,11.6l-1-.7c0,.6,0,1.3.2,2.3-.5-.6-1.1-1.2-1.8-1.8l-.4,1c.6.6,1.2,1.1,1.9,1.5-.3.1-.8.4-1.3.9l.9,1.2c.3-.3.6-.7,1-1.3.4,1,.7,1.8,1,2.4l.9-.2c-.6-1.2-1-1.9-1.2-2.4.7.2,1.3.4,1.9.6l-.4-1.4c-.8-.1-1.4-.2-1.7-.2c0-1,.1-1.7.1-2.1v0l-.1.2Zm-11.8-4.4l-.4-1.4c-.6-.1-1.1-.2-1.5-.2h-.2c0-.9.1-1.6.1-2v0c0,0-1-.7-1-.7c0,.6,0,1.3.2,2.2v0c-.2-.3-.5-.5-.8-.8l-.8-.8c0,0-.1-.2-.2-.2l-.4,1l.2.2c.6.5,1.2,1,1.7,1.4c0,0,0,0,0,0-.3.2-.7.4-1.2.9l.9,1.2c.3-.3.6-.8,1-1.3c0,.1.1.2.2.4.3.9.6,1.5.8,2.1h.1l.8-.2c-.6-1.2-1-2-1.2-2.4.7.2,1.3.4,1.9.5v0l-.2.1Zm4.6.3v0c0-.1-1.1-.7-1.1-.7c0,.6,0,1.3.2,2.2-.5-.6-1.1-1.2-1.8-1.8l-.3,1.1c.2.2.4.4.6.5.4.4.8.7,1.2,1v0c-.3.2-.7.5-1.2.9l.9,1.2c0,0,0,0,0,0c.3-.2.6-.6,1-1.2c0,0,0,.2.1.3.3.9.6,1.6.8,2.1l.9-.2c-.6-1.2-1-2-1.2-2.4.6.2,1.2.4,1.8.5l-.3-1.4c-.6-.1-1.1-.2-1.5-.2h-.2c0-.9.1-1.5.1-1.9v0Z" opacity="0" fill="#333" fill-rule="evenodd" stroke-width="0"/></g><g id="eHltJfmN0Yv100" opacity="0"><path d="M138.5,54.3c1,.6,1.9,1.5,2.6,2.7s1.1,2.4,1.1,3.6s0,.7-.1,1c-.2.6-.5,1.1-1,1.4-.7.4-1.6.4-2.6-.2s-1.9-1.5-2.6-2.8c-.7-1.2-1-2.4-1-3.6s.4-2,1-2.4c.7-.4,1.6-.3,2.6.3Zm0-3c-1.8-1-3.2-1.2-4.5-.5-1.2.8-1.8,2.1-1.8,4.2s.6,4.1,1.8,6.2s2.8,3.7,4.5,4.7c1.8,1,3.2,1.1,4.4.4c1-.6,1.6-1.6,1.8-3c0-.3,0-.7,0-1c0-2-.6-4.1-1.9-6.2-1.2-2.1-2.7-3.7-4.4-4.7v0l.1-.1Z" fill="#ff65a7" fill-rule="evenodd" stroke-width="0"/><path d="M138.5,54.3c-1-.6-1.9-.7-2.6-.3s-1,1.2-1,2.4.4,2.4,1,3.6c.7,1.3,1.6,2.2,2.6,2.8s1.9.7,2.6.2c.5-.3.8-.7,1-1.4c0-.3.1-.6.1-1c0-1.2-.4-2.4-1.1-3.6s-1.6-2.1-2.6-2.7Z" fill="#fff" fill-rule="evenodd" stroke-width="0"/><path d="M152.4,115.4c.7,0,1.3-.6,1.3-1.3v-46.5c0-.5-.2-.9-.6-1.1l-7.7-4.4c-.6-.4-1.4-.2-1.8.5-.4.6-.1,1.4.5,1.8l7.1,4v45.8c0,.7.6,1.3,1.3,1.3v0l-.1-.1Z" fill="#ff65ab" stroke-width="0"/></g></g><path d="M171.4,280.7v-1.3c0,.2,0,.4,0,.7s0,.4,0,.6Z" fill="#0b2f96" fill-rule="evenodd" stroke-width="0"/><g id="eHltJfmN0Yv105" opacity="0"><path d="M155.1,272c4.5,0,8.4,1,11.6,2.8c2.9,1.7,4.5,3.7,4.8,5.9c0,.2,0,.4,0,.7s0,.4,0,.6v3.2c-.2,2.4-1.8,4.4-4.8,6.1-3.2,1.8-7,2.8-11.5,2.8s-8.3-.9-11.5-2.7c-2.9-1.6-4.4-3.6-4.8-5.9v-3.9c0,0-5.5-3.1-5.5-3.1l-.8-4-6.9-.5-1.1-4.1-7.4-.8-2.4-1.4-1.1-6.4v-3.2l4.9-2.8l30.3,17.5c1.9-.5,4-.7,6.3-.7v0l-.1-.1Zm-.4,9.3l.4-.6c0,0-.1,0-.2.1c0,0,0,0,0,.1s-.1.2,0,.4v0c0,0,0,0,0,0h-.2Zm1.1,3.8c-.4.2-.6.4-.9.7.2.2.5.4.9.6c1.1.6,2.4.9,4,.9c1.5,0,2.8-.3,3.9-.9.4-.2.6-.4.9-.6-.2-.2-.5-.4-.9-.6-1.1-.6-2.4-1-3.9-1s-2.8.3-3.9,1v0l-.1-.1Zm-2.1,1.2c0,.1,0,.2,0,.3c0,0,0,.1.1.2c0,0,0,0,0,0l-.2-.5v0c0,0,0,0,0,0h.1Zm1.2,1.3v0c0,0,0,.1,0,.1h-.1q0-.1,0-.1h.1Zm8.7.4h.3c0,0-.1,0-.2,0c0,0,0,0,0,0v0h-.1Z" fill="#c5e3ff" fill-rule="evenodd" stroke-width="0"/><path d="M134,269.7c0-.3-.2-.6-.5-.8v0c-.2-.2-.5-.4-.9-.4l-5.8-.4-.8-3.1v0c0-.3-.2-.6-.5-.8v0c-.2-.2-.5-.3-.8-.4v0l-7.1-.8-1.6-.9-.8-4.6l3.3-1.9l29.6,17.1c.3.2.7.2,1.1.1c1.8-.4,3.8-.7,5.9-.7c4.2,0,7.8.9,10.8,2.6c2.4,1.4,3.8,3,4,4.8v1c0,.2,0,.5-.1.7c0,0,0,0,0,0-.5,1.5-1.8,2.9-3.9,4.1-.3.2-.7.4-1,.5s-.5.3-.8.4c0,0,0,0,0,0-.9.5-1.9.8-3.1,1-.6.1-1.2.3-1.8.4c0,0-.1,0-.1,0-1.3.2-2.6.3-4,.3-4.2,0-7.8-.8-10.8-2.5-2.1-1.2-3.4-2.5-3.9-4.1c0,0,0,0,0-.1-.1-.4-.1-.7-.2-1.1v0c0-.9.1-1.5.5-2.2v0c.2-.4.2-.7.1-1.1v0c-.1-.4-.3-.7-.7-.9v0c0,0-5.5-3.2-5.5-3.2l-.6-3.3v0v.3Zm-.6,4.2v3.2l-.8-4v-3.2l.8,4Zm21.3,6v0c0,0,.4-.6.4-.6s-.1,0-.2.1c0,0,0,0,0,.1s-.1.2,0,.4v0h-.2Zm.2,4.6c.2.2.5.4.9.6c1.1.6,2.4.9,4,.9c1.5,0,2.8-.3,3.9-.9.4-.2.6-.4.9-.6.5-.5.8-1,.8-1.6c0-.9-.6-1.6-1.7-2.2s-2.4-1-3.9-1-2.8.3-3.9,1c-1.1.6-1.6,1.4-1.6,2.2c0,.6.2,1.2.7,1.7v0l-.1-.1Zm-1.2.5c0,.1,0,.2,0,.3c0,0,0,.1.1.2c0,0,0,0,0,0l-.2-.5v0c0,0,0,0,0,0h.1Zm1.2,1.3v0c0,0,0,.1,0,.1h-.1q0-.1,0-.1h.1Zm8.7.3h.3c0,0-.1,0-.2,0c0,0,0,0,0,0v0h-.1Zm-46.5-18.8l-2.4-1.4v-3.2l2.4,1.4v3.2Zm8.6,4.9l-1.1-4.1v-3.2l1.1,4.1v3.2Z" fill="url(#eHltJfmN0Yv107-fill)" fill-rule="evenodd" stroke-width="0"/><path d="M132.6,273.2l-6.9-.5v-3.2l6.9.5v3.2Zm.8.7l6.1,3.5c-.4.8-.7,1.8-.7,2.7v0c0,.1-5.4-3-5.4-3v-3.2v0Zm5.4,6.4c0,.5,0,1,.2,1.5.6,1.9,2.1,3.6,4.6,5.1c3.2,1.8,7,2.8,11.5,2.7c1.6,0,3-.1,4.4-.3c1.6-.3,3.2-.7,4.6-1.2.9-.3,1.7-.7,2.5-1.2c2.5-1.5,4.1-3.1,4.6-5.1.1-.3.2-.7.2-1v3.2c-.2,2.4-1.8,4.4-4.8,6.1-3.2,1.8-7,2.8-11.5,2.8s-8.3-.9-11.5-2.7c-2.9-1.6-4.4-3.6-4.8-5.9v-3.9c0,0,0,0,0,0v-.1Zm16.1,4.2c-.5-.5-.8-1.1-.7-1.7c0-.8.5-1.6,1.6-2.2s2.4-.9,3.9-1c1.5,0,2.8.3,3.9,1c1.1.6,1.7,1.4,1.7,2.2c0,.6-.3,1.1-.8,1.6-.2-.2-.5-.4-.9-.6-1.1-.6-2.4-1-3.9-1s-2.8.3-3.9,1c-.4.2-.6.4-.9.7v0Zm-41.3-27.7l1.1,6.4v3.2l-1.1-6.4v-3.2Zm3.5,7.7l7.4.8v3.2l-7.4-.8v-3.2Z" fill="#54b2c6" fill-rule="evenodd" stroke-width="0"/><path d="M134,269.7l.6,3.3l5.5,3.2v0c.3.2.6.5.7.9v0c.1.4,0,.7-.1,1.1v0c-.3.6-.5,1.3-.5,2v0c0,.5,0,.9.2,1.2c0,0,0,0,0,.1.5,1.5,1.8,2.9,3.9,4.1c3,1.7,6.6,2.6,10.8,2.5c1.4,0,2.8-.1,4-.3c0,0,.1,0,.1,0c.6-.1,1.2-.2,1.8-.4c1.1-.1,2.2-.5,3.1-1c0,0,0,0,0,0c.2-.1.5-.2.8-.4s.6-.4,1-.5c2.1-1.2,3.4-2.6,3.9-4.1c0,0,0,0,0,0c0-.2.1-.5.1-.7v-1c-.3-1.8-1.6-3.4-4-4.8-3-1.7-6.6-2.6-10.8-2.6-2.1,0-4.1.2-5.9.7-.4.1-.7,0-1.1-.1l-29.6-17.1-3.3,1.9.8,4.6l1.6.9l7.1.8v0c.3,0,.6.2.8.4v0c.2.2.4.4.5.7v0c0,0,.8,3.1.8,3.1l5.9.4c.3,0,.6.1.9.4v0c.2.2.4.5.5.8v0l-.1-.1Zm-1.4.3l-6.9-.5-1.1-4.1-7.4-.8-2.4-1.4-1.1-6.4l4.9-2.8l30.3,17.5c1.9-.5,4-.7,6.3-.7c4.5,0,8.4,1,11.6,2.8c2.9,1.7,4.5,3.7,4.8,5.9v1.3c0,.3-.1.7-.2,1-.6,1.9-2.1,3.6-4.6,5.1-.8.5-1.6.9-2.5,1.2-1.4.6-3,1-4.6,1.2-1.4.2-2.9.3-4.4.3-4.5,0-8.3-.9-11.5-2.7-2.5-1.5-4.1-3.1-4.6-5.1-.1-.5-.2-1-.2-1.5v0c0-1.1.2-2,.7-2.9l-6.1-3.5-.8-4v0l-.2.1Z" fill="#a3d1df" fill-rule="evenodd" stroke-width="0"/><path d="M160,285.3c.8,0,1.5-.7,1.5-1.5v-54.1c0-.8-.7-1.5-1.5-1.5s-1.5.7-1.5,1.5v54.1c0,.8.7,1.5,1.5,1.5Z" fill="#ff65ab" stroke-width="0"/><path d="M186.3,246.4c.5,0,1-.3,1.3-.7.4-.7.2-1.6-.5-2l-26.3-15.2c-.7-.4-1.6-.2-2,.5s-.2,1.6.5,2l26.3,15.2c.2.1.5.2.7.2v0Z" fill="#ff65ab" stroke-width="0"/><path d="M191.5,246.6c0,2.3-.7,3.8-2.1,4.6s-3.1.7-5.1-.5-3.7-2.9-5.1-5.4c-1.4-2.4-2-4.7-2-7s.7-3.9,2-4.7c1.4-.8,3.1-.6,5.1.6s3.7,2.9,5.1,5.3c1.4,2.5,2.1,4.8,2.1,7.1v0Zm-4.2,1c.8-.5,1.2-1.4,1.2-2.7s-.4-2.7-1.2-4.1-1.8-2.4-2.9-3.1-2.1-.8-3-.3c-.8.5-1.2,1.4-1.2,2.7s.4,2.7,1.2,4.1s1.8,2.5,3,3.2c1.1.7,2.1.8,2.9.3v0-.1Z" fill="#ff65a7" fill-rule="evenodd" stroke-width="0"/><path d="M187.3,247.6c-.8.5-1.8.4-2.9-.3s-2.1-1.7-3-3.2c-.8-1.4-1.2-2.8-1.2-4.1s.4-2.2,1.2-2.7s1.8-.4,3,.3s2.1,1.7,2.9,3.1s1.2,2.8,1.2,4.1-.4,2.2-1.2,2.7v0v.1Z" fill="#fff" fill-rule="evenodd" stroke-width="0"/></g><g><path d="M86.9,165.6v2.1c0-.1,0-.1-.2-.1c0,0-.2-.1-.2-.1c0-.1,0-.1-.2-.1v0c0,0,0,0,0,0-.1,0-.2-.1-.4-.1c0,0-.2,0-.4-.1c0,0-.2,0-.2,0l-2-.7c-2-.9-3.9-1.9-5.7-3.1-1-.7-1.9-1.4-2.9-2.2-.7-.7-1.4-1.3-2-2l1.7-2.5c-.6-.1-1.2-.3-1.8-.4-7.6-1.3-12.4,2.5-14.3,11.2-.6,2.8-.6,5.6-.2,8.6.3,1.9.7,3.8,1,5.6.4,2.3.8,4.5,1.1,6.8.3,1.7.6,3.4.8,5.1.6,3.9,1.1,7.8,1.6,11.6c0,.5.1,1.1.2,1.6v4.6c-.1,0,6,7.4,6,7.4c1.9,2.1,3.8,4,5.6,5.6c4.2,3.6,8.1,5.9,11.6,6.8.5.1.9.2,1.4.3c5.5.8,9.7.6,12.4-.6-6.9-5.1-11.4-10.8-13.7-17-2.9-7.9-4.3-14.2-4.3-18.9v-.2c-.5-.6-1-1.2-1.4-1.7-.4-2.1-.7-3.7-.7-4.7c0-1.6.2-3,.5-4.4.5-1.9,1.4-3.5,2.6-5c.7-.8,1.3-1.4,2.1-1.9c1.4-1,3.1-1.5,4.8-1.4.8,0,1.5.1,2.2.3.8.2,1.6.6,2.3,1.1-.2-.5-.5-1-.8-1.5-.9-1.6-1.9-3.2-3-4.6-.4-.6-.9-1.3-1.4-2-.8-.9-1.6-1.9-2.3-2.9v0l.2-.5Z" fill="#4d77c1" fill-rule="evenodd" stroke-width="0"/><path d="M105.8,185v.7c.1,0-.4-.2-.4-.2l-8.4-3-7-1.9c-2.6.1-4.5,1.1-5.9,3-.6.8-1.1,1.8-1.5,3c6.8,2,11.2,3.1,13.1,3.5c2.3.5,5.5,1.3,9.6,2.6c3,.9,6.6,2,10.6,3.3c1,.3,2,.6,3,.9c1.6-1.6,2-3.4,1.4-5.5-2.2-7.4-4.7-14.7-7.4-21.9-.5-1.4-1.1-2.8-1.6-4.1c3-2.2,5.4-4.2,7.4-5.8c1.8-1.4,3.2-2.6,4.2-3.6c1.3-1.2,2-2,2.1-2.4c1.5-1.6,2.9-3,4.1-4.4.4-.5.8-1,1.2-1.4-.3-.4-.6-.8-.9-1.2-.4-.4-.7-.9-1.1-1.3-.6-.6-1.1-1.3-1.7-1.9-.3-.2-.7-.3-1.1-.4-.2,0-.3-.1-.5-.1-.7.9-1.4,1.8-2.1,2.7-1.4,1.7-2.9,3.3-4.6,4.9-2,1.9-4.2,3.7-6.4,5.3-.5.4-1,.7-1.5,1.1-.9.6-1.8,1.2-2.7,1.8.6,1.3,1.1,2.7,1.4,4.3.1.6.2,1.3.3,2l-4.1.9c.6,1,1.2,2,1.5,3c.3.7.5,1.3.6,2c.2.9.5,1.8.7,2.7.8,2.6,1.8,5.3,3.1,7.9c1.4,2.9,2.1,4.6,2.1,4.8c0,1-.2,1.5-.5,1.4h-2.7c-1.8-.9-3.3-1.6-4.6-2.4v0l.3-.3Zm-2-19.1c-.5,0-1-.2-1.4-.3-1.8-.6-3.4-1.4-4.9-2.4-1.5.4-2.9.7-4.4,1-1.9.3-3.9.4-6,.2v1.3c.6,1,1.4,2,2.2,2.9.5.7,1,1.4,1.4,2c1.1,1.5,2.1,3,3,4.6c1.9-.5,3.9-1.1,6-1.8.9-.4,1.7-.8,2.4-1.2.2-.2.5-.4.8-.6l-.9-4.4l1.9-1.4v0l-.1.1ZM83.7,328.7c1.4-.2,2.7-.3,4.1-.2c9.7,1.2,16.9-1.6,21.6-8.6-.9-3.9-3.8-5.3-8.8-4.4-2,.2-4.1.2-6.3,0c.2.3.3.6.3,1c.2,6.3-3.4,10.3-10.9,12.2v0Z" fill="#d1e7f4" fill-rule="evenodd" stroke-width="0"/><path d="M97.3,151.6c0,0,0,0-.2,0-.3.1-.6.2-1,.3l-2.7,7.6c1.2,1.5,2.5,2.7,4,3.8c1.5,1,3.1,1.8,4.9,2.4.5.1.9.2,1.4.3l1.7-.3l4.1-.9c0-.7-.2-1.3-.3-2-.9-.4-1.9-.7-3.1-1.1-.9-.3-1.7-.6-2.4-.9-4.1-1.8-6.2-3.8-6.2-5.9s0-2.4-.3-3.3v0h.1Zm28.3-8.7c.4.1.7.3,1.1.4.6.6,1.2,1.3,1.7,1.9.4.4.8.9,1.1,1.3s.6.8.9,1.2c.5.5.9,1.1,1.3,1.7.1.2.2.4.4.7l-.3.4c.4,0,.7,0,1-.1.6-.1,1.2-.3,1.8-.5-.3-.7-.8-1.6-1.2-2.4-.6-.9-1.2-1.7-1.9-2.4-.2-.2-.4-.4-.6-.6-.6-.6-1.1-1.1-1.8-1.6-.4-.3-.8-.6-1.2-.9c0,0,0,0,0,0-.4-.3-.7-.6-1.1-.8c0,0-.2.2-.2.3-.3.5-.6,1-.9,1.4v0h-.1Zm12.9-3.4c-.5.5-1.1,1.2-1.9,2.2-.3.4-.6.8-.9,1.1-.4.5-.8,1-1.1,1.4-.8.9-1.2,1.4-1.2,1.5-.1.2.2.3,1,.1c1.1-.3,2.5-1.2,4.1-2.9c0,0,0,0,0,0v0c0,.3.1.7.3,1.1.1.2.3.5.3.7c0-.2,0-.3,0-.4l-.2-1.5-.2-1.5v-.3c0,0,0-.1,0-.1-.2-.5-.3-1-.3-1.4v0h.1ZM86.9,165.6v-1.3c0,0,.3-3.1.3-3.1-.6-.7-1.2-1.4-1.8-2-.2,0-.5.2-.7.3-2.3.7-4.2.8-5.9.2.7.8,1.5,1.6,2.4,2.4.5.6,1,1.1,1.5,1.6c1.3,1.3,2.3,2.4,3.2,3.3.1,0,.2.1.4.1c0,0,0,0,0,0v0c0,0,.2,0,.2.1c0,0,.2,0,.2.1.1,0,.2,0,.3.1v-2.1c0,0,0,0,0,0l-.1.3Z" fill="#ed9870" fill-rule="evenodd" stroke-width="0"/><path d="M96.1,151.8l.2-9.1c-.6,1.5-1.2,3-1.8,4.5-.2.4-.3.8-.4,1.1-.3.9-.6,1.8-1,2.6c0,.1-.2.3-.3.5c0,.2-.2.5-.3.7-.6,1.2-1.2,2.4-1.8,3.5-.2.3-.4.6-.6.9l-.2-3.8-2.7.6-1,5.5h.7c0-.1.3,2,.3,2l6.2-1.4l2.7-7.6v0Zm1.2-.2c.2.8.3,1.9.3,3.3c0,2.2,2.1,4.2,6.2,5.9.7.3,1.5.6,2.4.9c1.2.4,2.2.7,3.1,1.1-.3-1.6-.8-3-1.4-4.3s-1.4-2.5-2.4-3.4c-2-2-4.7-3.2-8.1-3.6l-.1.1Zm-18.6,8.2c-1.7-.6-3-1.9-4.1-3.9l-.4.4-1.7,2.5c.6.7,1.3,1.4,2,2c.9.8,1.9,1.6,2.9,2.2c1.8,1.2,3.7,2.3,5.7,3.1l2,.7c0,0,.2,0,.2,0c.2,0,.3.1.4.1-.9-.9-1.9-2-3.2-3.3-.5-.5-1-1-1.5-1.6-.9-.9-1.7-1.7-2.4-2.4v0l.1.2Zm55.9-9.8c.6-.2,1.3-.5,1.9-.9.3-.2.6-.4.8-.6.5-.4.9-.9,1.2-1.5c0-.1.1-.2.2-.3.3-.6.5-1.3.5-2c0-.2-.2-.5-.3-.7-.2-.4-.3-.8-.3-1v0c0,0,0,0,0,0-1.6,1.7-2.9,2.6-4.1,2.9-.8.2-1.1.1-1-.1c0,0,.5-.6,1.2-1.5.3-.4.7-.9,1.1-1.4.3-.4.6-.7.9-1.1.8-1,1.4-1.7,1.9-2.2c0-1.6,1-2.6,2.9-3.1c1.7-.4,2.8-1.1,3.4-1.9.3-.4.5-.9.5-1.5c0,0-.1,0-.2-.1-.9-.5-1.5-.6-2.1-.1-.5.2-1.1.4-1.6.7-.4.2-.9.4-1.3.6-.2,0-.3.1-.5.2-1,.4-2.1.8-3.4,1-1.6.2-2.8.6-3.7,1.1-.5.2-1,.5-1.5.8-.7.6-1.5,1.1-2.2,1.6-.6.5-1.1,1.1-1.6,1.7-.2.2-.4.4-.5.7.4.2.7.5,1.1.8c0,0,0,0,0,0c.4.3.8.6,1.2.9.6.5,1.2,1,1.8,1.6.2.2.4.4.6.6.7.8,1.3,1.6,1.9,2.4.5.9.9,1.7,1.2,2.4v0Z" fill="#ffaa83" fill-rule="evenodd" stroke-width="0"/><path d="M82.6,186.6c-.5,1.8-.8,4.1-.8,6.9.3.4.6.7,1,1c3.9,2.7,8.4,4.1,13.5,4.1h1.2c2.7,1.4,5.4,2.2,7.8,2.6c5,.7,9.5-.7,13.4-4.1h.2c0,0,0-.1,0-.1-1-.3-2-.6-3-.9-4-1.3-7.6-2.4-10.6-3.3-4.1-1.2-7.3-2.1-9.6-2.6-1.9-.4-6.3-1.6-13.1-3.5v0-.1Zm48-34.6c.4-.5.8-.9,1.1-1.4l.3-.4c-.1-.2-.2-.5-.4-.7-.4-.6-.8-1.2-1.3-1.7-.4.5-.8.9-1.2,1.4-1.2,1.4-2.6,2.9-4.1,4.4-.1.4-.8,1.3-2.1,2.4-1,.9-2.4,2.1-4.2,3.6-2,1.6-4.5,3.5-7.4,5.8.5,1.4,1.1,2.8,1.6,4.1c1.1-1,2.2-2,3.3-3c1.9-1.8,3.8-3.6,5.7-5.3c1.9-1.9,3.7-3.8,5.4-5.6c1.2-1.2,2.2-2.4,3.3-3.6v0Zm-25.3,31.3l.4,1.8v0c1.3.7,2.8,1.5,4.6,2.4h2.7c.3.1.5-.4.5-1.4s-.7-1.8-2.1-4.8c-1.3-2.6-2.3-5.3-3.1-7.9-.3-.9-.5-1.8-.7-2.7-.1-.7-.3-1.3-.6-2-.4-1-.9-2-1.5-3l-1.7.3-1.9,1.4.9,4.4c-.2.2-.5.4-.8.6-.7.4-1.5.8-2.4,1.2-2.2.7-4.2,1.3-6,1.8.3.5.5,1,.8,1.5.6,1.2,1.2,2.5,1.7,3.9c0,0,0,.1.1.2.7-.3,1.3-.6,2-.9.8-.4,1.7-.9,2.5-1.4.8-.4,1.5-.9,2.2-1.3.3-.2.7-.4,1-.7l1.4,6.7v0-.1Z" fill="#a7c4e4" fill-rule="evenodd" stroke-width="0"/><path d="M77.8,330.6c-.4-.5-.8-1-1.2-1.6-.3-.2-.5-.5-.7-.8-2.6-5.2-2.8-10.7-.7-16.4v-1.1c-3.4,2.2-6.6,2-9.4-.5v-1.5c-1-1.6-1.7-3.4-2.1-5.3c0-.2,0-.4-.1-.6l-8.5,4.8c-5.7,3.3-6.7,6.1-2.8,8.3l25.6,14.8v0l-.1-.1Zm31.5-10.7c-.1.8-.4,1.5-.8,2.2-4.1,6.5-10.4,8.8-19,7v1.9c-1.5.2-2.9.5-4.2,1-1.8.5-3.4.6-4.7.3l6.7,3.9c3.9,2.2,8.7,1.7,14.4-1.5l12.9-7.5c5.7-3.3,6.7-6,2.8-8.3L91.2,303.8c0,4.4,1.1,8.3,3,11.8c2.1.1,4.2.1,6.3,0c4.9-.9,7.8.6,8.8,4.4v0-.1Z" fill="#e8eaff" fill-rule="evenodd" stroke-width="0"/><path d="M73.6,142.7c-.6,1.4-1,3.1-1.1,4.8c2.8,1.4,5.6,2.2,8.4,2.2c5.9,0,10.4-.8,13.6-2.5.6-1.5,1.2-3,1.8-4.5.3-1.2.5-2.3.4-3.2-.8.5-1.8,1.2-2.8,2.3-2.3,2.3-5.9,3.4-10.8,3.4s-7.3-.8-9.4-2.4v0l-.1-.1Zm19.5,8.2c-.2,0-.5,0-.8,0-.8,0-3.4.6-8,1.8-4.5,0-8.4-1.1-11.8-3.2c0-.1,0-.1-.2-.1v.6c0,2.4.8,4.4,2.3,6c1,2,2.4,3.3,4.1,3.9s3.6.5,5.9-.2c.2-.1.5-.2.7-.3.3-.2.7-.3,1-.5l1-5.5l2.7-.6.2,3.8c.2-.3.4-.6.6-.9.7-1.2,1.3-2.3,1.8-3.5.1-.2.2-.5.3-.7c0-.2.2-.3.3-.5v0l-.1-.1Z" fill="#033660" fill-rule="evenodd" stroke-width="0"/><path d="M93.1,150.9c.4-.8.7-1.7,1-2.6c0-.4.2-.8.4-1.1-3.2,1.6-7.7,2.5-13.6,2.5s-5.7-.7-8.4-2.2c0,.6,0,1.2,0,1.8c0,0,0,0,.2.1c3.4,2.1,7.4,3.2,11.8,3.2c4.6-1.2,7.2-1.8,8-1.8s.6,0,.8,0v0l-.2.1Zm-19.5-8.2c2.1,1.6,5.3,2.4,9.4,2.4s8.5-1.1,10.8-3.4c1-1,2-1.8,2.8-2.3-.2-3.7-3.7-5.3-10.4-4.6-6.6.6-10.8,3.2-12.7,7.9v0h.1Z" fill="#00406b" fill-rule="evenodd" stroke-width="0"/><path d="M85.3,159.3c.7.7,1.3,1.3,1.8,2v-.6c0,0-.2-2.1-.2-2.1h-.7c-.3.3-.6.4-1,.6v0l.1.1Z" fill="#dda274" fill-rule="evenodd" stroke-width="0"/><path d="M96.3,198.6c-5,0-9.5-1.4-13.5-4.1-.4-.3-.8-.6-1-1c0-2.8.3-5.1.8-6.9.4-1.2.9-2.2,1.5-3c1.4-1.9,3.3-2.9,5.9-3l7,1.9c-.1-.2-.2-.5-.3-.9-.1-.3-.3-.6-.4-.9c0,0,0-.1-.1-.2-.5-1.4-1.1-2.7-1.7-3.9-.7-.5-1.5-.9-2.3-1.1-.7-.2-1.4-.3-2.2-.3-1.8,0-3.4.4-4.8,1.4-.7.5-1.4,1.1-2.1,1.9-1.2,1.4-2.1,3.1-2.6,5-.4,1.3-.5,2.8-.5,4.4s.2,2.6.7,4.7c.4.6.8,1.1,1.4,1.7v.2c0,4.6,1.4,10.9,4.3,18.9c2.2,6.2,6.8,11.9,13.7,17c0-.6-.2-1.3-.2-1.9-.2-1.9-.5-3.8-.9-5.7l-2.6-24.2v0h-.1Z" fill="#0a2a6b" fill-rule="evenodd" stroke-width="0"/><path d="M62.8,211c-1.5,3.1-1.9,6.4-1.3,9.8c0,.2,0,.5.2.7.3,1.3.5,2.7.7,4l6.6,5.3c1.4,1.2,2.6,2.3,3.7,3.4c1.4,1.4,2.7,2.9,3.8,4.2c2,2.5,3.3,4.9,3.9,7.1c1.3,4.7,2,8.6,2,11.6s-.6,8.5-1.7,14.1c-.7,3.1-1.8,7.8-3.2,14.1-.2,1.1-.6,5-1.2,11.8-.1,1.7-.3,3.5-.5,5.5-.1,1.8-.3,3.4-.5,4.8c0,0,.1-.1.2-.2v4.5c-2.2,5.7-2,11.1.6,16.4.2.3.4.6.7.8l7.1-.3c7.5-1.9,11.1-5.9,10.9-12.2c0-.4,0-.7-.3-1-1.9-3.5-2.9-7.4-3-11.8c0-2.5.2-5.2.8-8.1c1.4-7,3-14,4.9-21.1c3.5-12.5,4.7-25.1,3.7-38-.2-2.1-.4-4.1-.7-6.2-2.8,1.2-6.9,1.4-12.4.6-.5,0-.9-.1-1.4-.3-3.6-.9-7.5-3.1-11.6-6.8-1.8-1.6-3.7-3.4-5.6-5.6l-6.1-7.4v0l-.3.3Zm.8,91.7c0,.2,0,.4.1.6.4,1.9,1.1,3.7,2.1,5.3c1.9,1,3.7,1.2,5.6.7c0-2.1.4-5.9.9-11.2.2-2.6.5-5.7.8-9.1c1.3-12.5,1.9-18.8,1.9-18.8c0-5.3-.9-10.4-2.6-15.3c0,1.1-.2,2.3-.8,3.5-2,4.1-3.7,8.4-5,12.7c0,.1,0,.3-.1.4c0,0,0,.1,0,.2-.4,1.4-.8,2.7-1.1,4.1-.1.5-.2,1-.3,1.5-1.2,5.2-1.8,10.5-2,16-.2,3,0,6,.7,9.1v0l-.2.3Z" fill="#ff65a7" fill-rule="evenodd" stroke-width="0"/><path d="M71.4,309.4c.4,0,.9-.2,1.3-.4.2,0,.5-.2.7-.3.1,0,.2,0,.2-.1.5-.3,1.1-.6,1.6-1c.2-1.4.4-3,.5-4.8.2-2,.3-3.8.5-5.5.6-6.8,1-10.7,1.2-11.8c1.4-6.3,2.5-11,3.2-14.1c1.2-5.5,1.7-10.2,1.7-14.1s-.7-6.9-2-11.6c-.6-2.2-1.9-4.6-3.9-7.1-1.1-1.4-2.3-2.8-3.8-4.2-1.1-1.1-2.4-2.3-3.7-3.4l-6.6-5.3l2.6,11.4c1.6,5,3.8,10,6.7,14.8.1.2.2.3.2.5v0c0,.1.5,1.4.5,1.4c0,.4.1.8.1,1.2v0c1.7,4.9,2.6,10,2.6,15.3s-.6,6.4-1.9,18.8c-.3,3.4-.6,6.4-.8,9.1-.5,5.4-.8,9.1-.9,11.2v0Z" fill="#cb2069" fill-rule="evenodd" stroke-width="0"/><path d="M76.6,329c.4.6.8,1.2,1.2,1.6.8.8,1.7,1.4,2.8,1.6c1.4.4,2.9.3,4.7-.3c1.3-.4,2.7-.8,4.1-1v-1.9c8.7,1.9,15-.5,19.1-7c.4-.7.7-1.4.8-2.2-4.6,7-11.8,9.9-21.5,8.6-1.3-.1-2.7,0-4.1.2l-7.1.3v0v.1ZM65.8,308.6v1.5c2.9,2.6,6,2.8,9.4.5v1.1c0,0,.2-4.5.2-4.5s0,.1-.2.2c-.5.3-1.1.6-1.6,1c0,0,0,0-.2.1s-.5.2-.7.3c-.4.2-.8.4-1.3.4-1.8.5-3.7.2-5.6-.7v0v.1Z" fill="#3b3a39" fill-rule="evenodd" stroke-width="0"/></g></svg>
