<?xml version="1.0" encoding="UTF-8"?>
<svg id="_圖層_2" data-name="圖層 2" xmlns="http://www.w3.org/2000/svg" viewBox="0 0 102.82 82.5">
  <defs>
    <style>
      .cls-1 {
        fill: #85c5ff;
      }

      .cls-1, .cls-2 {
        fill-rule: evenodd;
        stroke-width: 0px;
      }

      .cls-2 {
        fill: #ff65ab;
      }
    </style>
  </defs>
  <g id="BG">
    <path class="cls-2" d="M6.14,17.18C-.04,20.33-1.55,24.99,1.59,31.17l15.58,30.58c3.15,6.18,7.81,7.7,13.99,4.55l30.59-15.58c6.18-3.15,7.7-7.81,4.55-13.99l-15.58-30.58C47.57-.04,42.91-1.55,36.73,1.59L6.14,17.18Z"/>
    <path class="cls-1" d="M38.65,49.23l12.93,25.38c4.04,7.93,10.03,9.88,17.96,5.84l25.38-12.93c7.93-4.04,9.88-10.03,5.84-17.97l-12.93-25.38c-4.04-7.93-10.03-9.88-17.96-5.84l-25.38,12.93c-7.93,4.04-9.88,10.03-5.84,17.97ZM60,70.33l-12.93-25.38c-1.19-2.33-.61-4.08,1.71-5.27l25.38-12.93c2.33-1.18,4.08-.61,5.26,1.71l12.93,25.38c1.19,2.32.62,4.08-1.71,5.26l-25.38,12.93c-2.32,1.18-4.08.61-5.26-1.71Z"/>
  </g>
</svg>