<?xml version="1.0" encoding="UTF-8"?>
<svg id="_圖層_2" data-name="圖層 2" xmlns="http://www.w3.org/2000/svg" viewBox="0 0 67.73 67.73">
  <defs>
    <style>
      .cls-1 {
        fill: #aedafc;
        fill-rule: evenodd;
        stroke-width: 0px;
      }
    </style>
  </defs>
  <g id="BG">
    <path class="cls-1" d="M65.63,33.73l-13.25,25.95c-4.14,8.11-10.27,10.1-18.38,5.95l-25.95-13.25C-.06,48.24-2.04,42.12,2.1,34.01L15.35,8.05C19.49-.06,25.62-2.04,33.73,2.1l25.95,13.25c8.11,4.14,10.1,10.27,5.95,18.38ZM43.78,55.29l13.25-25.95c1.21-2.38.63-4.17-1.74-5.39l-25.95-13.25c-2.38-1.21-4.17-.63-5.39,1.75l-13.25,25.95c-1.21,2.38-.63,4.17,1.74,5.39l25.95,13.25c2.38,1.21,4.17.63,5.39-1.74Z"/>
  </g>
</svg>