<?xml version="1.0" encoding="UTF-8"?>
<svg id="_圖層_2" data-name="圖層 2" xmlns="http://www.w3.org/2000/svg" viewBox="0 0 153.48 51.82">
  <defs>
    <style>
      .cls-1 {
        fill: none;
        stroke: #fff;
        stroke-linecap: round;
        stroke-linejoin: round;
        stroke-width: .78px;
      }

      .cls-2 {
        fill: #fed400;
      }

      .cls-2, .cls-3, .cls-4, .cls-5, .cls-6 {
        stroke-width: 0px;
      }

      .cls-3 {
        fill: #f83345;
      }

      .cls-4 {
        fill: #00d7fe;
      }

      .cls-5 {
        fill: #00ef77;
      }

      .cls-6 {
        fill: #fff;
      }
    </style>
  </defs>
  <g id="BG">
    <g>
      <g>
        <path class="cls-6" d="M54.03,15.44c0,.95-.28,1.7-.84,2.26-.64.67-1.47,1.01-2.49,1.01s-1.81-.34-2.5-1.02c-.68-.68-1.03-1.52-1.03-2.53s.34-1.85,1.03-2.53c.69-.68,1.52-1.02,2.5-1.02.49,0,.95.1,1.39.28.44.19.8.44,1.06.76l-.6.6c-.45-.54-1.07-.81-1.86-.81-.71,0-1.33.25-1.85.75-.52.5-.78,1.16-.78,1.96s.26,1.46.78,1.96c.52.5,1.14.75,1.85.75.76,0,1.39-.25,1.89-.76.33-.33.52-.79.57-1.38h-2.46v-.81h3.29c.03.18.05.35.05.51"/>
        <polygon class="cls-6" points="59.24 12.61 56.15 12.61 56.15 14.76 58.94 14.76 58.94 15.57 56.15 15.57 56.15 17.73 59.24 17.73 59.24 18.56 55.28 18.56 55.28 11.77 59.24 11.77 59.24 12.61"/>
        <polygon class="cls-6" points="62.92 18.56 62.05 18.56 62.05 12.61 60.15 12.61 60.15 11.77 64.81 11.77 64.81 12.61 62.92 12.61 62.92 18.56"/>
        <rect class="cls-6" x="68.19" y="11.77" width=".87" height="6.79"/>
        <polygon class="cls-6" points="72.93 18.56 72.06 18.56 72.06 12.61 70.16 12.61 70.16 11.77 74.82 11.77 74.82 12.61 72.93 12.61 72.93 18.56"/>
        <path class="cls-6" d="M83.65,17.68c-.67.69-1.5,1.03-2.49,1.03s-1.82-.34-2.49-1.03c-.67-.69-1-1.53-1-2.52s.33-1.83,1-2.52c.67-.68,1.5-1.03,2.49-1.03s1.81.34,2.48,1.03c.67.69,1.01,1.53,1.01,2.51s-.33,1.83-1,2.52M79.32,17.11c.5.51,1.12.76,1.84.76s1.34-.25,1.84-.76c.5-.51.75-1.16.75-1.95s-.25-1.44-.75-1.95c-.5-.51-1.12-.76-1.84-.76s-1.34.25-1.84.76c-.5.51-.75,1.16-.75,1.95s.25,1.44.75,1.95"/>
        <polygon class="cls-6" points="85.88 18.56 85.88 11.77 86.94 11.77 90.24 17.05 90.27 17.05 90.24 15.75 90.24 11.77 91.11 11.77 91.11 18.56 90.2 18.56 86.75 13.02 86.71 13.02 86.75 14.33 86.75 18.56 85.88 18.56"/>
        <path class="cls-6" d="M77.46,28.46c-2.66,0-4.83,2.02-4.83,4.81s2.17,4.81,4.83,4.81,4.83-2.04,4.83-4.81-2.17-4.81-4.83-4.81M77.46,36.19c-1.46,0-2.72-1.2-2.72-2.92s1.26-2.92,2.72-2.92,2.72,1.19,2.72,2.92-1.26,2.92-2.72,2.92M66.93,28.46c-2.66,0-4.83,2.02-4.83,4.81s2.17,4.81,4.83,4.81,4.83-2.04,4.83-4.81-2.17-4.81-4.83-4.81M66.93,36.19c-1.46,0-2.72-1.2-2.72-2.92s1.26-2.92,2.72-2.92,2.72,1.19,2.72,2.92-1.26,2.92-2.72,2.92M54.4,29.94v2.04h4.88c-.15,1.15-.53,1.99-1.11,2.57-.71.71-1.82,1.49-3.77,1.49-3.01,0-5.36-2.42-5.36-5.43s2.35-5.43,5.36-5.43c1.62,0,2.81.64,3.68,1.46l1.44-1.44c-1.22-1.17-2.84-2.06-5.12-2.06-4.12,0-7.58,3.35-7.58,7.47s3.46,7.47,7.58,7.47c2.22,0,3.9-.73,5.21-2.1,1.35-1.35,1.77-3.24,1.77-4.77,0-.47-.04-.91-.11-1.28h-6.87ZM105.64,31.52c-.4-1.08-1.62-3.06-4.12-3.06s-4.54,1.95-4.54,4.81c0,2.7,2.04,4.81,4.78,4.81,2.2,0,3.48-1.35,4.01-2.13l-1.64-1.09c-.55.8-1.29,1.33-2.37,1.33s-1.84-.49-2.33-1.46l6.43-2.66-.22-.55ZM99.08,33.12c-.05-1.86,1.44-2.81,2.52-2.81.84,0,1.55.42,1.79,1.02l-4.3,1.78ZM93.86,37.79h2.11v-14.14h-2.11v14.14ZM90.39,29.53h-.07c-.47-.56-1.39-1.07-2.53-1.07-2.4,0-4.61,2.11-4.61,4.83s2.21,4.79,4.61,4.79c1.15,0,2.06-.51,2.53-1.09h.07v.69c0,1.84-.98,2.82-2.57,2.82-1.29,0-2.1-.93-2.42-1.71l-1.84.77c.53,1.28,1.93,2.84,4.27,2.84,2.48,0,4.57-1.46,4.57-5.01v-8.64h-2v.78ZM87.97,36.19c-1.46,0-2.68-1.22-2.68-2.9s1.22-2.93,2.68-2.93,2.57,1.24,2.57,2.93-1.13,2.9-2.57,2.9M115.55,23.65h-5.06v14.14h2.11v-5.36h2.95c2.34,0,4.64-1.69,4.64-4.39s-2.3-4.39-4.64-4.39M115.6,30.46h-3v-4.85h3c1.58,0,2.48,1.31,2.48,2.42s-.9,2.42-2.48,2.42M128.65,28.43c-1.53,0-3.11.67-3.77,2.16l1.87.78c.4-.78,1.15-1.04,1.93-1.04,1.09,0,2.2.66,2.22,1.82v.15c-.38-.22-1.2-.55-2.2-.55-2.02,0-4.07,1.11-4.07,3.18,0,1.89,1.65,3.11,3.51,3.11,1.42,0,2.2-.64,2.69-1.38h.07v1.09h2.04v-5.42c0-2.51-1.87-3.91-4.29-3.91M128.39,36.18c-.69,0-1.66-.34-1.66-1.2,0-1.09,1.2-1.51,2.24-1.51.93,0,1.36.2,1.93.47-.16,1.31-1.29,2.24-2.51,2.24M140.36,28.74l-2.42,6.13h-.07l-2.51-6.13h-2.27l3.77,8.57-2.15,4.77h2.2l5.8-13.33h-2.35ZM121.35,37.79h2.11v-14.14h-2.11v14.14Z"/>
        <g>
          <path class="cls-2" d="M36.93,27.94l-5.68,3.28-4.81-4.75,4.75-4.76,5.73,3.31c1.12.65,1.12,2.27,0,2.92Z"/>
          <path class="cls-3" d="M31.25,31.22l-17.05,9.84c-.71.41-1.54.24-2.05-.28l14.29-14.31,4.81,4.75Z"/>
          <path class="cls-4" d="M26.44,26.47l-14.29,14.31c-.29-.3-.48-.71-.48-1.18V13.36c0-.43.15-.8.4-1.09l14.37,14.2Z"/>
          <path class="cls-5" d="M31.19,21.71l-4.75,4.76-14.37-14.2c.5-.58,1.38-.81,2.13-.37l16.99,9.81Z"/>
        </g>
      </g>
      <path class="cls-1" d="M153.08,11.17c0-.39,0-.78,0-1.17-.03-.86-.08-1.71-.24-2.56-.14-.86-.4-1.65-.79-2.43-.39-.77-.9-1.46-1.51-2.07-.6-.61-1.3-1.11-2.06-1.5-.78-.4-1.58-.65-2.44-.8-.84-.15-1.7-.2-2.55-.23-.39,0-.79-.01-1.18-.02-.46,0-.93,0-1.38,0H12.56c-.47,0-.93,0-1.4,0-.39,0-.78.01-1.17.02-.85.02-1.71.07-2.56.23-.86.15-1.65.4-2.43.8-.76.39-1.46.9-2.07,1.5-.61.61-1.12,1.3-1.5,2.07-.4.78-.65,1.57-.8,2.43-.15.84-.21,1.7-.23,2.56-.01.39-.01.78-.02,1.17v29.49c0,.4,0,.78.02,1.18.02.85.07,1.71.23,2.56.15.85.4,1.65.8,2.43.39.76.89,1.46,1.5,2.06.6.61,1.3,1.12,2.07,1.5.78.4,1.57.65,2.43.8.85.15,1.71.2,2.56.23.4,0,.78.01,1.17.01.47,0,.93,0,1.4,0h128.37c.46,0,.93,0,1.38,0,.39,0,.79,0,1.18-.01.85-.02,1.71-.07,2.55-.23.85-.15,1.65-.4,2.44-.8.76-.39,1.46-.9,2.06-1.5.61-.6,1.11-1.3,1.51-2.06.39-.77.65-1.58.79-2.43.16-.84.21-1.7.24-2.56,0-.4,0-.78,0-1.18,0-.46,0-.92,0-1.39V12.56c0-.47,0-.93,0-1.39"/>
    </g>
  </g>
</svg>