<svg xmlns="http://www.w3.org/2000/svg" xmlns:xlink="http://www.w3.org/1999/xlink" viewBox="0 0 1811.08 1825"><defs><clipPath id="clip-path" transform="translate(2.98 13.09)"><circle id="SVGID" cx="904.05" cy="904.05" r="903.25" transform="translate(-374.47 904.05) rotate(-45)" fill="none" stroke="#fff" stroke-miterlimit="10" stroke-width="1.13"/></clipPath></defs><g id="圖層_2" data-name="圖層 2"><g id="圖層_3" data-name="圖層 3"><g opacity="0.1"><path d="M1112.63,683.93c-.41-.6-1.09-.95-2.48-.44s-2.06.78-2.65.47-1,0-1.17-.54-.57-.85-.29-1.09.47.13.94.41c.11.08.2-.12.15-.28a7.33,7.33,0,0,1,.09-3.74,1.75,1.75,0,0,0-.23-1.3,5.36,5.36,0,0,1-.51-2.16c.22-2.61,4.63-5.44,5.86-6.2.17-.12.58-.47.53-.72a2.64,2.64,0,0,0-.07-.35c0-.1-.23-.22-.31-.17-5.82,3.82-10,2.86-12,1.67a3,3,0,0,1-1.61-2.6c0-.33-.13-.49-.24-.37a.74.74,0,0,1-1.17-.06.5.5,0,0,1,.07-.77c.18-.16.35-.38.13-.58a6.82,6.82,0,0,0-1.21-.86c-.18-.08-.35.34-.77.33a3.59,3.59,0,0,1-1.19-.42c-1.2-.61-1.56-1.35-1.18-1.7.28-.19,0-.62-.14-.84-4.7-4.92-7-12-8.36-17.42-.59-2.48-1.46-5-1.5-6.29-1.42-1.08-1.65-4.13-2.42-4.12-.4,0-1,1.17-1.61,1.17s-1.27-1.19-1.53-1.15c-.5.11-.46,1.08-1.19,2s-1.24.52-1.31,1.07c-.13,1.17.16,8.14-1.67,11.51-1.29,2.33-2.67,2.49-3,3s-.61,3.21-1.82,5-4.18,1.52-4.69,1.95-.22,3.11-1,3.31c.25,4.34-2.41,5.26-4.46,5.16a2.07,2.07,0,0,1-1.49-1.75c0-.16-.16-.22-.39-.2a4.16,4.16,0,0,1-2.07-.37,9.55,9.55,0,0,1-2.53-3.55c0-.1-.19-.24-.28-.2a1.22,1.22,0,0,1-1.42,0,.33.33,0,0,0-.34,0c-1,2,.39,5.24.39,5.24a8.78,8.78,0,0,0-2.69,1.5c-.93.88-1.66,1.37-2.32.25a.25.25,0,0,0-.33,0,2,2,0,0,1-2.29.91c-1.14-.36-2.28-.72-2.66.73s0,2.21-1.26,2.76-1.52,2.24-.82,2.59.46,1.16,1.15,2a4.48,4.48,0,0,1-.28,4.74c-1.18,1.58-1.89,1.31-2.68,2.85a27.65,27.65,0,0,0-.57,2.93c0,.08.27.28.41.34a2.08,2.08,0,0,1,.94.61.46.46,0,0,0,.44.06,3.79,3.79,0,0,1,2.68-.67.42.42,0,0,0,.42-.33,6.74,6.74,0,0,1,.81-1.74c.62-.91,2.23-.1,2.23-.1l.55-.67c.71-.71,1-.43,1.15,0-.14.58.39.58.59.63a3.06,3.06,0,0,1,1.92,1.65,1.17,1.17,0,0,0,1.54.07c.48-.31.8-.05,1.25-.22.13,0,.16-.37,0-.6-.42-.5-.25-.67-.67-1s-.71-.27-1-1.53-1.1-1.38-1.34-2.64-1.06-1.3-2-1.73-.83-1.14-1.88-2.42,0-2.65,1.75-4,2.7-.62,3.11,0c.95-.35,2,1,1.83,1.41s0,.86.64,1.66a3.19,3.19,0,0,1,.48,2.32c0,.11.33.19.45.12,5.36-2.83,8.71-1.94,10.29-1s1.2,1.87,1.76,2.8,1.24.3,2.31,2.49a21.67,21.67,0,0,0,5.28,6.47,12,12,0,0,1,3.43,4.63c.09.17.27.06.33-.15a3.14,3.14,0,0,1,1.1-1.44,6.33,6.33,0,0,0,1.34-2.75c6.87-7.3,12.74-7.23,16.16-6.5-.31,1,.74,1.6,1.75,1.83a6.21,6.21,0,0,1,2.23,1.25c.16.1.29.11.22-.06a1.25,1.25,0,0,1,.63-1.51c.8-.47,2.06-.17,1.82.45s-1,0-1,0-.55.41.25,1a2.39,2.39,0,0,0,2.92-.45c.66-.8,1.42-.85,1.35-.44,1.65-.09,3,0,3.8.64a.42.42,0,0,0,.55-.09,2.46,2.46,0,0,1,2.62-1.28C1111.93,684.54,1113,684.53,1112.63,683.93Z" transform="translate(2.98 13.09)" fill="#fff"/><path d="M1047.25,722.11c-.69.1.65-.71,1.2-1.91s0-2.2.53-3.24-.21-.59-.37-1.63-.11-1.11.44-1.15.34-.14,0-.71-.27-.29.15-1.08.39-1-.15-2.63l-.34-.84c-.51-1.11-1.08-1.82-1.34-2.63a7.19,7.19,0,0,1,.16-4.44,36.38,36.38,0,0,1,3.81-7.31c.33-.45.09-.52-.15-.45a2.32,2.32,0,0,1-3-2.06c0-.4,0-.59-.51-.67a2.1,2.1,0,0,1-1.28-1.38.25.25,0,0,0-.41-.13,11.38,11.38,0,0,0-3,3.25c-1.07,1.65.19,1.27,1.35,1.58.65.18,1.1.57,1.46.57.77,0,1.74-1,2.34-.59s.53,1.71.27,2.13-.63.16-.88.38-.11.58-.22.88c-.43,1.14-1.85,2.53-2.42,2.18s-.23-.81-.53-1.13a1.57,1.57,0,0,1-.66-.69c-.51-1-.78-1.06-1-1a1.12,1.12,0,0,0-.79.73c-.13.34,0,1.36-1.36.92s.33-5.18.37-5.55a.8.8,0,0,0-.72-.86c-.37,0-.68.62-1.15.35s-.41-1.5-.74-1.57c-.18,0-.42.54-.84.87s-1,.32-1.11.54.45.69.69,1.09a2.36,2.36,0,0,1,.3.89s-.64-.48-.93-.19-1,3.24-2.73,3-1.85-.53-2.29-.44c-.23,0-.54.61-1.06.86s-1.27.17-1.33.33.63,1.91-.17,3.3c0,0,0,0,0,0,.53,1.17.33,2.32-1.1,4-.78.85-1.63,1.8-2.32,1.92s-1.14-.4-1.49-.5c-.75-.19-.9,2,0,2s2.27-.89,2.36,1.71a8.29,8.29,0,0,1-3.32,6.66l-1.7,1.07-.12.07a6.06,6.06,0,0,1-1.81,3.27c-1.68,1.72-2.52,2.72-2.52,2.72s-1-.15-2.8,1.8c-.16.15-.32.35-.5.55a7.54,7.54,0,0,0-2.74,3.51c-.73,1.67-2.14,2.43-5,2.36s-4,.31-5.78,2.87c-.91,1.16-2,1.35-2.79,2a2.67,2.67,0,0,1-2.14.76c-.59-.15-.75.5-2.17.84s-2.17.63-2.91-.25c-1.15.59-2.94,1-6,.56h-.17c-1.35,0-2.88-.12-2.88-.12a2.48,2.48,0,0,1-2.7,1.52c-2-.34-3.68-2.06-1.59-3.7a.56.56,0,0,1,0-.08l.74-1.21s-1.53-.09-2.06-.81a1.14,1.14,0,0,1,1.8-1.35c.91-.41,2.21-1,3-.73,1,.27,1.2-.24,1-.5s.66-1,1.33-.81.77-.84-.35-1.19-2.1.41-3.41.26-2.34-1.09-3.29,0-1.89,1.12-1.79,2a4.72,4.72,0,0,1-.42,3.18c-.7,1.58-.09,1.92-3.94,4-3.07,1.69-4.58,2.24-5.92,2.38l.29.39a4,4,0,0,1-1,0c-1.25,1.35-1.64,2.36-3.68,2.71a2.3,2.3,0,0,1-.17,1.8s.86,1.3.51,2.22-1,1.12-.7.17l.15-.64-1.08.19s0,1.52-.68,1.32a3.25,3.25,0,0,1-1.18-.55s-.56,1-1.07.81l-.61-.49s-.06.86-.47.7-.45-.69-.45-.69a1.37,1.37,0,0,1-1.37,0c-.52-.34-.28-.73-.44-1.07a.67.67,0,0,0-.23-.25c-.59-.4-1.42-.38-1.38.26s-.51.86-.66.09a12.39,12.39,0,0,0-.49-1.6.6.6,0,0,0,.22-.79,1,1,0,0,1,.94.2s0-1.32-.34-1.73a6.49,6.49,0,0,0-4.69.54s0,0,0,0c-.45-.92-.86-1.25-1.53-1.17s-.28-.65-1-.68a2.18,2.18,0,0,1-1.38-.43,2.34,2.34,0,0,0-1.35,0l-.45.13s-1,.68-4.68-.4-3.63-1.77-4.77-2.13-2.08.42-3.17-.26a1.5,1.5,0,0,1-.38-.32c-.41-.53.37-.87.33-1.21,0-.18-.62-.28-1.06-.53s-.74-.57-.89-.62a9.15,9.15,0,0,1-2.35.19l-1.58-.19a2.21,2.21,0,0,1-1,.28c-.51,0-1.06-.27-1.14-.14s0,1.09-.42,1.56-1,.28-1.66.28c-1.63,0-3.18,1.64-3.69,1.63s-1-.22-1.39-.13-1,.64-2.37,1.16A26.26,26.26,0,0,0,906,744c-1.12.53-1.31.73-2.43.29l-.14-.07a2,2,0,0,0-1-.23c-.16,0-.63.78-1.16,1.06s-1.06.14-1.16.22a3.87,3.87,0,0,1-2.83,1c-1.34-.26-1.7-1.23-2-1.31a1.4,1.4,0,0,0-.87-.08c-.24.06-.2.37-.64.46s-.94-.28-1-.31-.51.36-.49.61.53,1,0,1.74-.78.26-1,.35a.68.68,0,0,0-.29.67c.11.25.59.42,0,1.35l-.46.7s-.1.24.41.33c.65-1.16,1.28-1.37,2.14-1s.69,1.64.8,1.84,1.41.67,1.58.59.8-.92,1.13-.87.2.62.28.72a1,1,0,0,0,.49.2c.08,0-.08-.31.53-.24s.3.31.48.41.4-.07,1.08,0,1.45-.41,2.29,1a13.11,13.11,0,0,0,1.43,2.41c.43.35,1,.3,1.1,1s.33.56.51-.35.18-.46.86-.82.5-.85.89-1.59l.38-.74s.08,0,.18-.25a3,3,0,0,0,.17-.66c.13-.83.35,0,1.4-.52s1.07-.64,1.51-.11.77.11.66,1.14-.22,1.51.55,1.62,1.45.48,2.21.17-.17-.7.77-.33,1.11,0,1.94.23.58.41,1.3.15c.24-.08.45-.27.73-.25s.35.5,1.06.16c.33-.13.88-.37.73.18s.33.85.82.76a5.51,5.51,0,0,0,1.33-.49c.05,0,.05,0,.05,0a2.27,2.27,0,0,0,1.5.41c.86-.12,1.36-.44,1.78.14a3.75,3.75,0,0,0,2.12,1.32c.58.05,1.64-1.22,2.87-.95.75.16,1-.19,1.43-.51a5.63,5.63,0,0,1,2-.36l.2,0a7.59,7.59,0,0,0,1.65.15,4.61,4.61,0,0,1,3,1.38c1,.82,1,1.7,1.86,2.48a3.26,3.26,0,0,0,2.89.78c1.33-.13,2.38,0,2.63.58,0,.11-.09.22-.13.33-.72,1.89-1.93,3.49-3.93,3.29-1.72-.06-2,.29-2,.29s-.3.07.11.67.72,1.42.16,1.73a2,2,0,0,1-1.17.18s.93,1.13.37,1.62a1.77,1.77,0,0,1-.94-.18s0,.7-.59.84c1.11.88.56,1.09,1.14,2a3.13,3.13,0,0,0,1.3,1.56c.91.71,0,.52-.15,1.1a2.36,2.36,0,0,0,.78,2.41,13.62,13.62,0,0,1,1.81,1.5c.57.67,1.15-.09,1.87-.07a3.25,3.25,0,0,0,1.31-.1c.69-.18.28-.7.94-1a4.68,4.68,0,0,0,.85-.51.26.26,0,0,0,.09-.1s1.12-1.68,2.19-1.79.91-.53,1.53-.46.83-.22.54-.68-.15-.58.36-.66.16-.91,1.06-1.08.91.17,2.23.07a11.86,11.86,0,0,1,1.7,0c.64,0,.64-.72,1-.39s.38.49,1,.73.11.23.28.66.65,0,.86-.55,0-.52.63-.92.44-1.15-.29-1.6-1-.55-1.26-1.46-.68-.8-1.25-1-.14-.32.09-1.19-.56-.93.34-1.31a3.14,3.14,0,0,0,1.77-1.23c.7-.88.63-1.42,1.61-1.31.25,0,.39.62.59.67a2.58,2.58,0,0,0,.19-.55,4.8,4.8,0,0,1,1.25.48c-1.12.36-1.49,1-1.25,1.83s.26,1-.2,1.23-.49.79.15,1.29,1.08.7.76-.14-.25-1.69.44-1.59.3,1.16.89,1.48.86.59,1.59.37,1.11-.2,1.33.34-.56,1.46-1.7,1.36-2.1-.29-2.18.21.38.86,1.47.66a4.43,4.43,0,0,1,2.89.08c.85.33,2,1.49,2.26,1.41a5.35,5.35,0,0,1-.52-.88.32.32,0,0,0,.08-.26c0-.8.72-1.15,1-.95s-.49,1,.07,1.71a4.41,4.41,0,0,0,2.57,1.18,4.18,4.18,0,0,1,2.55,1.69,2.91,2.91,0,0,0,1.24,1,1.42,1.42,0,0,1,.78-2c1.44-.67,1.06-.65,1.47-1.46s.48-.52,1.74-.47,1.44,0,1.15-.61,1.49-1.27,2.77-.78,1.68,1.1,1.67,1.81-.38.55-.93.33-1,.07-.86.55-.09.67-.45.71-.35.39-.19.71-.6.12-.47.7.31.38-.13.85.06.72.15,1.47.52.55,1.27.49,1-.86,2-1.28a6.07,6.07,0,0,0,2-1.68c.32-.32-.15-.31-.21-1.12a1.69,1.69,0,0,1,.77-1.73h0c.47.18.86-.29,1.34-.89s1.49-.74,2.93-.18,2.27,1,2,2-.33.86-.19,1.44.47.18.74-.51.23-.08.74-.24.58-.3.06-.86a1.76,1.76,0,0,1,.32-2.44c.82-.47.95.37,1.4-.07s.16-.51.35-.89a2,2,0,0,1,.37-.51c.74-.75.95-.33,1.3.16a.29.29,0,0,0,.19.12c.25.08.51-.6,1.11-.14s1,1.07.1,1.89-1.23,1.21-1.87.77c-.21.81-.6,1.54-1.65,1.21.35.94-.15,2-1.09,1.79.38,1.2,0,1.42-.51,1.57.51.81.19,1.21-.56,1.18-.29.77,0,.9,0,.9l.73.46,1.15-.61s-.1-.47,1.19-.68a5.22,5.22,0,0,0,1.78-.55,1.44,1.44,0,0,0,1.69.58,3.17,3.17,0,0,0,2.32-2.45c.38-1.45.71-2.29,2.92-3a5,5,0,0,1,4.36.11c.26.14.37.16.31.08s-1.19-1.34-.84-2.75c-.3-1.35-1.34-1.49-.78-3.4s.28-3.06,1.43-3.67a.79.79,0,0,0,.19-1s1-1.06,2.34-2.44,1.53-2.07,2.07-2.3c.35-.14.23-.41.11-.6a5.35,5.35,0,0,1-1.3-1.36,4.82,4.82,0,0,0,1.14,1.15,7.62,7.62,0,0,1,2.47-.43c1-.24,1-1.48,1-1.48s1.05-1.27,1.68-2.17l.63-.91a6,6,0,0,0,1.16-3,7,7,0,0,1,.41-2.81,9.63,9.63,0,0,0,.24-2.68,2.13,2.13,0,0,0-.75,0,1.35,1.35,0,0,0-.46.42,5.09,5.09,0,0,1,.38-.5.09.09,0,0,1,.06,0,.83.83,0,0,1,.31-.05,2.09,2.09,0,0,1,.47.06,6.15,6.15,0,0,1,.44-1.67,5.14,5.14,0,0,1,3.44-3.26c-.35-.48.51-1.31,1.12-.27a1.88,1.88,0,0,1,3,.56c.47,1.15.45,1.92.8,2.16h.46a10.58,10.58,0,0,1,.12-2.44c.2-.52.83,0,.86-.71s-.91-.81-.49-1.17.63.25.93-.25-1.18-.71-.42-1a5.64,5.64,0,0,0,1.35-.62c.37-.3,0-.87.79-1.11s.15-.64.85-.55.74-1.37.74-1.45a1.61,1.61,0,0,0-.48-.63,1.45,1.45,0,0,1,.68.63c.17.38.66.93.84.47s.49-.62,1.11-.28.74.19.57-.57.16-.56.66-.27.57,0,.41-.54-.19-.26.36-.31-.18-.42.38-.47.17-1.09.58-1-.09-.91,1.09-1.17,1.28-.91.83-1.17,0-.37.76-1S1047.93,722,1047.25,722.11Z" transform="translate(2.98 13.09)" fill="#fff"/><path d="M994.88,730.64c.63.31,1,.31,2.33,0a4.44,4.44,0,0,0,3-2.26c-.7.12-1.16,0-1.31-.66s.48-1,1.22-1.59,1-1.17.75-1.39-.47-.14-1.06.39-2.09.86-2.83,1.41a2.6,2.6,0,0,0-1.07,2c.26-.31.88-.52,1-.07s0,.61-.57,1.1A8.78,8.78,0,0,1,994.88,730.64Z" transform="translate(2.98 13.09)" fill="#fff"/><path d="M941.09,760.11c-.23-.31-.79.2-1.56.36a5.24,5.24,0,0,0-2.43,1.19c-.5.58-.36.52-.87.59s-.33,1.13-.55,1.88a1.39,1.39,0,0,1,.87.34l.56-.29c.55-.27,1.63-.14,1.68-.25s-.15-.27-.26-.78a1.49,1.49,0,0,1,.61-1.51,6.31,6.31,0,0,1,1.48-.86C941.26,760.5,941.29,760.42,941.09,760.11Z" transform="translate(2.98 13.09)" fill="#fff"/><path d="M897.85,768.34c-.36-.16-.46-.24-.56-.53s.26-.32.19-.5,0-.27.22-.37.34-.41.08-.51a.48.48,0,0,1-.37-.55c.06-.29,0-.39-.19-.45s-.5-.12-.27-.49.68-.32,1.16-.72.16-.77-.28-.55-.77.26-1,0a3.39,3.39,0,0,0-1.42-.86c-.79-.3-1.46-.59-1.29-1.26s.73-.57,1.27-.48.75-.29,1.45-.43.82-.27,1-.74a2.61,2.61,0,0,0,0-2.17c-.24-.92-.76-1-1.35-.82a6,6,0,0,0-1.51.72c-.54.3-1,0-1.5-.56a6,6,0,0,0-1.46-1.16l-.11-.06a1.71,1.71,0,0,1-1-1.33,3.23,3.23,0,0,1,0-1.51c0-.46-.13-.58,0-.84s.3-.41.39-.7.3-.3.54-.39.32-.35.06-.55-.42,0-.53.31-.22.16-.51.47A.44.44,0,0,1,890,751c0-.37-.15-.75-.55-.6s-.75,0-.81-.28-.16-.35-.52-.28-.29.33-.65.52-.51,0-.66-.21-.21-.44-.52-.38a9.54,9.54,0,0,1-1,.36c-.42,0-.61.33-.54.6s.17.52-.12.61-.28.28-.62.29-.33.12-.19.4-.24.34-.56.45-.35.34-.87.31-.58-.33-.79-.63-.13-.67-.48-.78-.39.34-.75.27a.33.33,0,0,0-.27.58c.3.16.29.45-.09.45s-.62,0-.95,0a.81.81,0,0,0-.61.08.62.62,0,0,0-.22.21.55.55,0,0,1-.9-.09c-.17-.31-.27-.69,0-.77s.2-.26.06-.44.07-.37-.25-.53-.72.15-.79.52-.14.66-.33.4-.57-.29-.55,0a.69.69,0,0,0,.38.67c.35.24.23.76,0,.58s-.41.13-.19.37.18.35-.06.51-.37,0-.56-.22a.55.55,0,0,1-.12-.39,1.07,1.07,0,0,0-.09-.39.78.78,0,0,0-.77-.23c-.24.11-.49-.13-.68-.38a.53.53,0,0,0-.68,0c-.31.28,0,.48-.27.69a.84.84,0,0,0-.36.93,1.19,1.19,0,0,0,.59.88c.23.22,0,.53.19.78s.38,0,.61.15,0,.3.25.72a5.62,5.62,0,0,0,1,1.16c.45.48.38,1,.14,1.2a.64.64,0,0,0-.22.92c.26.4.29.9,0,1s-.5-.17-.65-.44-.35-.56-.61-.46-.43.24-.7-.14a.6.6,0,0,1,0-.88,1,1,0,0,0,.31-.91c0-.49-.64-.46-.63-.81s.56-.3.37-.57-.44-.31-.88.07a1.59,1.59,0,0,0-.64,1.3,2.06,2.06,0,0,0,.24,1.35c.23.56.61.54.58,1.05a2.35,2.35,0,0,0,.08,1.12c.15.48-.39.77-.67,1s-.33.41.31.18a8.52,8.52,0,0,0,1.55-.74c.55-.32,1,0,1.61-.24a1.11,1.11,0,0,1,1.36.31c.27.41.33.83,0,1.07s-.69.16-.89.48.11.81.44,1,.77,0,1.11-.11a2.48,2.48,0,0,0,1.25-.6,1.57,1.57,0,0,0,.31-1.47c-.15-.57-.38-.87-1-.74a1.84,1.84,0,0,1-1.27-.27c-.34-.16-.31-.48,0-.67a4.85,4.85,0,0,1,1.09-.45,1,1,0,0,0,.28-.16.78.78,0,0,0,0-.82c-.15-.35.13-.46-.12-1.07s0-.63.46-.56.47-.37,1.11-.45.52.42.86.72a1.91,1.91,0,0,0,.32.21c.1.06.15.11.17.39,0,.44.63.49.27,1.1a2.48,2.48,0,0,0-.32.83,5.14,5.14,0,0,0,0,1.05c0,.77.44.87.74,1.49s.21.45.19,1.07-.14.9-.62,1a8.83,8.83,0,0,0-1.26.35c-.58.24-.25.36.09.46s.57.32,1,.21.81-.06.77.29-.45.48-1,.46-.8.37-.91.88-.12.6-.53.81-.62.16-1,.6-.36.73-.85,1a10.44,10.44,0,0,1-1,.56,5.68,5.68,0,0,0-1,.53l-.29.22a.6.6,0,0,1-.94-.16.56.56,0,0,0-.66-.18c-.24,0-.33.14-.15.54s.05.53-.3.62-.55.36-.36.7.22.68.14.88a1.08,1.08,0,0,1-.74.8c-.55.2-.54.52-.33.86s.52.53.67.91a5.09,5.09,0,0,1,.28,1.57,1.23,1.23,0,0,1-.66,1.21,4,4,0,0,0-1,.86c-.48.52-1,.54-1.16.2s-.17-.67-.52-.49-.07.59.33,1,.28.52,0,.51-.33.18-.11.54.28.72.94.88a6.18,6.18,0,0,1,1.8.77c.47.27-.13.63.17,1s.43.25,1,.3.31-.26.61-.37.36-.4,0-.83-.18-1-.34-1.81a1.55,1.55,0,0,1,.61-1.56c.36-.18.59-.29.59-.67a.59.59,0,0,1,.65-.59c.33,0,.36-.06.35-.4s0-.5.6-.7a1.31,1.31,0,0,1,1.43.69c.27.42.59.38.49.86a.84.84,0,0,1-.6.81c-.41.15-.41.41-.83.45s-.4-.43-.29-.8-.29-.53-.65-.45a.52.52,0,0,0-.48.49c.08.38.81.41.88.86s-.23.51-.16,1.07a9.72,9.72,0,0,0,.39,1.36,1.48,1.48,0,0,1-.63,1.35c-.39.36-.39.62-.6.92a7.46,7.46,0,0,1-1.49.89c-.68.4-.7.88-.41.89a3.14,3.14,0,0,0,1-.2,2.62,2.62,0,0,1,1.36-.17A2.29,2.29,0,0,0,877,787a2.41,2.41,0,0,0,1-.51,1.53,1.53,0,0,1,1-.3c.47,0,0-.54.35-.54s.6-.37.22-.49a.67.67,0,0,1-.56-.72c0-.42.34-.62.77-.74a1.86,1.86,0,0,1,1.15,0l.06,0a.94.94,0,0,1,.57.88c.09.53.38.66.58,1s.53.2.73-.15.5-.43.67-.85a4.35,4.35,0,0,1,.6-1,1.25,1.25,0,0,1,1-.6c.34,0,.46-.22.37-.38s-.1-.3.18-.48.2-.36.43-.61.25-.3.18-.8a3,3,0,0,1,.59-1.78,3,3,0,0,1,1.07-1.28,3.48,3.48,0,0,0,.94-1.32,10,10,0,0,1,.7-.89c.31-.41.42-.71.69-.89a2.43,2.43,0,0,0,.59-.55c.18-.21.53,0,.73-.22s0-.42.06-.62.19-.37.56-.19.28-.14.15-.46-.11-.65.37-.77a2.49,2.49,0,0,0,1.14-.38c.36-.29.26-.61.67-.71a2.38,2.38,0,0,0,.78-.25.83.83,0,0,0,.27-.24c.42-.42.6-.16,1.25-.21s.39-.49.79-.8S898.19,768.48,897.85,768.34Z" transform="translate(2.98 13.09)" fill="#fff"/><path d="M878.58,766.37c.43-.23.23-.6-.06-.45C877.68,766.35,878.12,766.59,878.58,766.37Z" transform="translate(2.98 13.09)" fill="#fff"/><path d="M877.21,766.83c-.12-.24-.26-.25-.57,0s-.62,0-1,.13-.48.31-.28.54a5.85,5.85,0,0,0,.56.57c.28.28.49.06.64.38s.48.21.61-.15.19-.56.56-.59a.27.27,0,0,0,0-.54A.45.45,0,0,1,877.21,766.83Z" transform="translate(2.98 13.09)" fill="#fff"/><path d="M874.43,768.11a1.21,1.21,0,0,0,.56-1c0-.43.1-.43.36-1s-.2-1-.62-.6c-.2.15-.24.11-.46,0s-.48-.17-.63.23a1.08,1.08,0,0,1-.91.75.74.74,0,0,0-.41,1.14c.22.44.08.52-.41.68a.65.65,0,0,0-.27.74c.14.3.56.38,1,.13s.74-.33,1-.66S874,768.43,874.43,768.11Z" transform="translate(2.98 13.09)" fill="#fff"/><path d="M873.28,770.78c.29-.22.21-.37.27-.78s-.17-.57-.47-.36-.37,0-.48.21,0,.32-.07.63-.14.48.11.62S873,771,873.28,770.78Z" transform="translate(2.98 13.09)" fill="#fff"/><path d="M933.36,768.38c-.28-.23-.22-.53.26-.53s.49-.53.15-.94-.75-1-.48-1.55a3.82,3.82,0,0,1,.6-.91c.26-.31.59-.53.47-1a1.26,1.26,0,0,0-1.16-.69.86.86,0,0,1-.68-.07s-.19.3-.42.34a.65.65,0,0,0,.33-.25.49.49,0,0,0,0-.11.5.5,0,0,1-.3-.57c0-.44-.16-.46-.54-.61s-.27-.33-.57-.66-.09-.56-.13-.84-.22-.24-.57-.17-.49-.24-.32-.54.1-.41-.3-.26-.62.18-.83.05-.23-.18-.44-.15a.75.75,0,0,1-.68-.66c0-.37-.13-.54-.53-.18a2.24,2.24,0,0,1-1.23.53,14.34,14.34,0,0,1-1.42.33,2.11,2.11,0,0,1-1-.11c-.36-.08-.36.11-.29.52s-.09.68-.45,1.11a2,2,0,0,1-.57.55c0,.15.22.6-.51.94s-.87.49-1.3.24-.58-.54-1-.74a1.82,1.82,0,0,0-1.35-.24,1.82,1.82,0,0,1-1.42-.18,1.76,1.76,0,0,1-.83-1.48,4.18,4.18,0,0,0-.07-1.35c-.13-.51-.14-.85-.49-.93s-.46,0-.32.28.08.59-.63.53-1.09-.1-1.43.31a1.7,1.7,0,0,1-1.15.76c-.56.1-.59.35-.87,1s-.53,1.36-1.42,1.39a20.12,20.12,0,0,0-2.66.33,7.85,7.85,0,0,1-2,.35,9,9,0,0,1-1.5.06c-.63-.09-1.34-.08-1.56.25s0,.65.55.37a2.86,2.86,0,0,1,1.6-.39c.66,0,1-.11,1.29.2s.25.73-.14.86-.27.42-.27.75-.34.55-.16.88.55-.18.84.11.35.67.08.68a.32.32,0,0,0-.18.57c.26.17-.24.29-.59.27s-.83.12-.91.38.32.37.27.7-.14.55-.43.62-.21.31,0,.57.06.44-.24.61-.56.71-.15.86.86-.18.89.17.21.4.61.35c.67-.07,1.35,1.1,1,1.28s-.68.22-.9.48-.66.31-.53.62.5.06.77.15c.49.18.28.39.53.62a1.08,1.08,0,0,0,1,.26.88.88,0,0,1,1.14.36c.17.45.4.91.72.82s.18-.39,0-.77-.46-1,0-1.11.72-.08.92-.6.22-.94.78-1.13.7.15,1-.18.41-.66,1.1-.91a4.66,4.66,0,0,0,1.38-.66c.32-.21.32-.39.34-.88s.16-.72.75-.92a1.69,1.69,0,0,1,1.42,0c.43.18.52-.23,1-.33a4.49,4.49,0,0,1,1.41-.21,9,9,0,0,0,1.2-.05c.41-.06.85.33,1.22.71s1.25.39,1.5,1a3.15,3.15,0,0,0,.77,1.25c.38.35.4.51.41,1.07s.3.6.4,1.08.12.77.44.8.44-.63.88-1.17a6.72,6.72,0,0,1,1.45-1.53,5.34,5.34,0,0,1,.67-.51A5.89,5.89,0,0,1,929,770c.69-.24,1.18-.21,1.81-.49a6.47,6.47,0,0,1,1.72-.57c.48,0,1,.06,1.23-.12S933.62,768.58,933.36,768.38Z" transform="translate(2.98 13.09)" fill="#fff"/><path d="M841.58,817.22c-.75.77-1,1.19-2.16,1.36-.5.08-.75-.64-.75-.64a1,1,0,0,0-.74-.91c-.76-.19-.59.57-.23,1.24s0,.82-.8.93-1.13.52-1.77.28-1,0-.87.81-.27,1-1,1.2-.63.63-.71,1.13,0,1,.62.77,0,0,.68-.08.33-.66.35-1.19a.9.9,0,0,1,1.25-.65c.57.22.49-.53.21-1s.39-.55.76-.33.72.11,1.26-.11.74-.51,1.53-.46.83-.49,1.57-.47a1.38,1.38,0,0,0,1.32-.63c.46-.43.92-.42.74-1.38S842.34,816.47,841.58,817.22Z" transform="translate(2.98 13.09)" fill="#fff"/><path d="M874.37,794c-.28.43-1.3.67-1.58,1.64s-.73,1.15-1.53,1.57-1.08.83-.58,1.47.84.24,1.23-.78,1.12-.46,1.49-1.4,1-.87,1.53-1.74S875.08,792.81,874.37,794Z" transform="translate(2.98 13.09)" fill="#fff"/><path d="M866.49,796.25c-.92-.53-2.09-.18-2.2.68s.37,1.13,1.13,1.61,1.4-.27,1.53-1S867.09,796.61,866.49,796.25Z" transform="translate(2.98 13.09)" fill="#fff"/><path d="M879.31,732.39c-1.06.29-1.57.18-2.16,1.23s-1.18.7-1.87,1.89-1.37,1.43-1.83,2.59.39.88,1.09.07,2.56-1.26,3.05-2.32,1.15-.81,1.71-1.77S880.37,732.06,879.31,732.39Z" transform="translate(2.98 13.09)" fill="#fff"/><path d="M933.49,731.06c.73.29.8.32,1.37-.46a.71.71,0,0,0-.44-1.25c-.73.15-1.39.1-1.47.68C932.92,730.39,932.77,730.78,933.49,731.06Z" transform="translate(2.98 13.09)" fill="#fff"/><path d="M929.88,732.17c1.12.26,1.46-1.19.85-1.2C929.53,731,928.77,731.91,929.88,732.17Z" transform="translate(2.98 13.09)" fill="#fff"/><path d="M1121.29,665.26c-1.06.25-2,.56-2.56-.59s-1.45-.19-3,1.14c-1.3,1.12-1.83,2.13-.82,1.71s.77-.52,2-1.13,1.78.84,3.82-.12C1122.1,665.65,1122.37,665,1121.29,665.26Z" transform="translate(2.98 13.09)" fill="#fff"/><path d="M1150.29,655.88c-.55-1.15-1.87-.58-3.1.42a9.8,9.8,0,0,1-4.55,1.6c-1.66.3-2.77-.4-2.39-1.74s-.52-1.15-1.47.51-1.74,1.22-2.5,1.73-1.37.67-2.64,1.4-2.39,1.1-3.3,2.36a4.66,4.66,0,0,1-2.31,1.66c-1.5.92-3,1.66-2.62,2.36s.87-.06,1.8-.64,1.1,0,1.66-.7,1.58-.75,3.12-1.5,1.71-1.89,2.88-2.39,1.67.78,3.52-.38,2.49-.66,4.67-1.56,4.25-1.58,4.94-1.19,2,.53,1.93-.31S1150.82,657,1150.29,655.88Z" transform="translate(2.98 13.09)" fill="#fff"/><path d="M998.71,780.38c-.42.85.19,1.26.69.45S999.11,779.61,998.71,780.38Z" transform="translate(2.98 13.09)" fill="#fff"/><path d="M997.21,790.05c-.6-.15-2,.57-.75,1S998.16,790.28,997.21,790.05Z" transform="translate(2.98 13.09)" fill="#fff"/><path d="M995.94,805.43c-.74-.29-1.16.54-.47.91S996.76,805.74,995.94,805.43Z" transform="translate(2.98 13.09)" fill="#fff"/><path d="M993.2,814.6c-.57-.22-1.45.35-.58.78S993.94,814.89,993.2,814.6Z" transform="translate(2.98 13.09)" fill="#fff"/><path d="M1069.43,639.92c.44.17.82-.64,1-1.67s-.55-1.69-1.12-.61S1069,639.75,1069.43,639.92Z" transform="translate(2.98 13.09)" fill="#fff"/><path d="M1116.05,682.24c-1.21.63-1.07,1.36.16,1S1117.12,681.73,1116.05,682.24Z" transform="translate(2.98 13.09)" fill="#fff"/><path d="M1118.79,681c-1,.31-.76.93,0,.81S1119.68,680.72,1118.79,681Z" transform="translate(2.98 13.09)" fill="#fff"/><path d="M1124.85,679.34a2.18,2.18,0,0,0-1.86.17c-.64.48-1,.81-.46,1.32.7.71,1.14,0,2.67-.32S1125.69,679.45,1124.85,679.34Z" transform="translate(2.98 13.09)" fill="#fff"/><path d="M1033.53,675.54c.91-.87.37-1.53-.45-.79C1031.77,676,1032.65,676.42,1033.53,675.54Z" transform="translate(2.98 13.09)" fill="#fff"/><path d="M1085.92,71.18c-2.92.38-6.54,6.6-5.75,6.91s-14.29,6.94-15.29,7.18-8.9-7.74-8.9-7.74l4.34-5.64L1055,69.21s-15.63-.6-18.8-1.83-3.18-5.22-3.18-5.22l10.78.55-9-4.4,4.73-2.74s8.91,3.77,11.49,2.63,5.52,3.07,5.52,3.07l5.25-2.52,4.4,2s14.72,6,16.32,6.65S1085.92,71.18,1085.92,71.18Z" transform="translate(2.98 13.09)" fill="#fff"/><path d="M1049.27,102.66s9.47-6.36,11.25-3.85,2.22,7.58,3.67,9.36,16.54,2.17,15.63,6.08-4.45,4.38-8.52,3.1-7.22.54-5.84,1.69-1.76,4.5-3.41,3.25-7.82-7.33-9.67-8-3.05,1.56-4.12,1.14-2.91-2.66-2.61-3.45,6.48-7.24,6.48-7.24Z" transform="translate(2.98 13.09)" fill="#fff"/><path d="M1093.07,166.39c-4.27-.75-4.46,2.84-4.46,2.84s4.77,1.86.3,3.16-14,1.56-15.19,1.41-9.07-5.66-5.56-7.65,6.65-1.37,4.82-3-2.71.77,1.24-3.18,10.65-2.26,12.31-5l1.65-2.7,3.34,5.56s6.09.84,5.78,3.16S1093.07,166.39,1093.07,166.39Z" transform="translate(2.98 13.09)" fill="#fff"/><path d="M1087.09,176.27c-4.53-.86-7.32.81-9.85,1s-13,.44-13,.44,17,8.76,18.07,9.17,3.62-2.26,4.34-4.11S1087.09,176.27,1087.09,176.27Z" transform="translate(2.98 13.09)" fill="#fff"/><path d="M1171.78,267.5c-7.43-2.9-4.55-6.35-4.55-6.35s-4.27-.77-4.86-.07-8-9.22-5.9-9.93,7.93,1.57,7.93,1.57,8,5.26,8.82,5.57,5.51-2.43,5.51-2.43l2.08,7.21s8.27,2.31,8.7,4.31-4.12,5.1-7.3,3.86S1171.78,267.5,1171.78,267.5Z" transform="translate(2.98 13.09)" fill="#fff"/><path d="M1200,278.79c-2.67-1-2.5-.66-3.51-2s-5-5.3-4.67-6.08a4.44,4.44,0,0,1,6.28-1.21c3.14,2.13,5.89,2.89,7.07,4.57s6.52,2.84,6.37,4-3.09,2.44-4.36,2.55S1200,278.79,1200,278.79Z" transform="translate(2.98 13.09)" fill="#fff"/><path d="M1333.09,339.73s4.54-4.64,8.5-4.63,7.06-.9,9.14.82-1.89,7.2-4.79,7.59a22,22,0,0,0-6.41,2.4S1331.51,342.16,1333.09,339.73Z" transform="translate(2.98 13.09)" fill="#fff"/><path d="M1184.57,47.35c-7.78-1.2-28.73-6.9-34.29-9.07s-20.57-2.82-24.69-3.21-7.45,3.5-7.45,3.5,10.39.7,9.48,4.62-4.07,11.22-.26,10.88,6.05-2.23,7.06.6,3.57,8.11,6.7,8.72,10.94,2.42,10.94,2.42,2.76,6.26,2.45,7.06a6.48,6.48,0,0,1-2.93,2.83c-1,.22-3.47,2.61-3.47,2.61s3.11,6.1,3.92,6.41,13.86-1.93,14.66-1.62,7.08,2.13,8,2.81-1.47,4.62-1.47,4.62,8.65,5.2,9.45,5.5,11.4,7.51,18.31,7.76,15.77,3.39,17.5,1.31,5.89-2.58,6.47-1.76,10,6.36,11.11,6.78,11.71,5.17,11.68,6.07,6.22,12.18,15.4,17.58,28.25,12.84,28.25,12.84,7,3.94,8.6,3,4.35-2.57,4.35-2.57-5.72,3-.1,5.75,7.42,4.4,13.23,5.15,7.29,1.63,12.15.15,8.06-1.12,5.76-3.85a30.78,30.78,0,0,1-3.91-6.4s8.26,2.29,10,4.18,3.12,6.08,5.45,6.39,7.3,3.15,8,3.72,2.16,5.43,3,6.36,6.85,5.1,6.85,5.1a49.26,49.26,0,0,1,4.06,5.25c.5,1.1,8.48,8.79,8.48,8.79s3.44-.19,3.94,2.46-1.48,6.12-1.48,6.12l2.76,2.3-1.27,5.61s-5.7-1-7.64.07,6,6.59,10,11.83S1394.4,230,1398,224.68s12.88-7.19,12.88-7.19,2.82-4.09-.22-6.48-16.44-18.92-19.55-19.52a6.07,6.07,0,0,0-5,1.1s-1.36-3.58-.79-4.27,6-1.95,2.55-5.72-5.21-9.35-9.19-10.91-9.22,2.53-9.22,2.53l-3.12-7.63,6.28.32s-1.52-5.48-8-10.11-16-13.84-18.08-14.66-5.13-7.19-4.61-1.5,5.73,9.56,5.73,9.56a81.52,81.52,0,0,1-9.11-3.25c-2.55-1.29-5.77-8.66-6.56-9s-9.31-1.17-12-.41-20.13-6.31-20.92-6.61-14.41-5.3-22.23-7.13-16-6.82-16-6.82a43,43,0,0,1,20.54,1.28c10.53,3.5,16.4,3.35,19.77,4s10.21,1.23,5.78-2.32a51.79,51.79,0,0,0-16.81-9.3c-7.78-2.71-13-6.58-15.09-9.83s-6.33-4.91-1.22-7.8,9.52-3.31,5.43-6.12-4.11-4.35-11-4.59-9.23,1-10.44-3.76-3.61-7.21-4.4-7.51S1184.57,47.35,1184.57,47.35Z" transform="translate(2.98 13.09)" fill="#fff"/><path d="M1342.89,168.77c-2.76-2.3.95-4.82,1.76-4.51a32,32,0,0,1,8.43,5.74c2.83,2.93,13.43,11,8.56,11s-13.52-5.26-15.4-5.1-8.77.56-9-.44S1342.89,168.77,1342.89,168.77Z" transform="translate(2.98 13.09)" fill="#fff"/><path d="M1360.76,194.94c-4.06-1.27-9.74-8.67-5.26-8.45s9.2,5.41,11.84,6.44,8,4.62,5.12,5.65,1.36,3.58-4.54.67S1360.76,194.94,1360.76,194.94Z" transform="translate(2.98 13.09)" fill="#fff"/><path d="M1362.42,128.78c-12.09-5-29-14.92-31-16s6.55,7.42,8.59,10,12.89,13.87,15.4,17.6,7.38,3.78,7.38,3.78,11.82,4.92,10.55,5-14.84-1.81-8.14,2.94,19,18.39,19.64,19.24,9.6,9.83,10.08,10.94S1408,192.6,1408,192.6s9.1,1.72,8.73,3.4-3.35,2.36-3.89,6.11,1.22,7.81,6.81,11.49,10.81,5.14,10.06,9.42-1.11,6-5.17,6.23-9.53-3.73-7.93,3.92,11.3,17.21,12.14,18.14,27.83,16.32,28.54,14.48-1-7.71-2-8.12-5.61-8.29-5.61-8.29,2.45-2.39,1.76-3-8.9-10.79-8.9-10.79l15.79,17.44s2.88,5.1,2.73.76-1.23-9.33-.92-10.12,6.18,7.59,7.63,10.9,4.6,5.47,6.12,5.43,4.35-2.57,4.35-2.57,7.55,5.69,4.45-.4-5.29-6-10.27-12.84-6.66-7.17-7.17-11.35-.48-6.58-4.43-10.56-5.49-5.49-8-8.32-7.36-7.74-7.55-5.67,0,8.54-2.94,8.3-13.11-3.87-16-5-4.61-1.49-4.7-5.19-.53,1.33,3-3.72,3.33-5.42,1.15-6.88-6.7-4.74-10.66-6.28-13.6-7.43-15.68-9.16-4.47-5.71.8-5.16,12.44-2.19,9.31-4.32-15.73-11.31-19.76-13.48-14.83-11.26-17.86-15.2,22.47,11.19,26.12,13.53,6.57.42-1.41-5.74S1362.42,128.78,1362.42,128.78Z" transform="translate(2.98 13.09)" fill="#fff"/><path d="M1448,186.2c-9.45-4-11.17-3.42-18.55-8.73s-27.6-16.84-25.49-14.5,9.6,8.32,13.54,12.29,11.43,9,9.65,10.47-6.88-1.17-7.19-.36,15.86,12.57,16.92,13,9.1,3.22,9.89,3.53,9.15,6.31,9.38,7.32-1.73,2.07-1.73,2.07.74-.32,5.58,3.68,8.19,7.19,10.71,12.43,8.75,10.42,8.73,14.38,4.25,7.14,4.25,7.14l14,7.25s-8.59-1.5-9.15-.81,7,12.51,5.9,15.42-8.94-1.35-9.91-3.55-1.28-1.42-1.6-.62-.42,5-2.61,6-7.5.44-6.63,2.92,3.3,4,4.59,5.43,9.19,5.42.87,4-11.13-4.34-12-3.76,4.37,11.47,4.37,11.47-.44,9,1.24,13.3,3.5,7.46,3.19,8.26-7.11.28-10.53,2-9.28,1.87-14.43,4.14-12.16,5.34-15.84,5.42-18.3-3.15-18.3-3.15-.52,6.81-1.55,9.46-.34,14.21-.34,14.21,6.15,8.49,5.7,10.44-2.24,4.95-5.46,4.59.43,6,1,6.8,3.86,1.81,9.5,6.15,15.25,10.2,18.42,11.43,6-4.39,7.91-1.49-1,6.6-2.06,6.83-8.56-7-12.07-3.48-8.34,6.52-5.9,13.57,9.53,6.15,10.48,6.81,6.18,6.07,8.46,7.27,3,2.39,5.59-.26,6-7.45,6.85-7.41,6.68,3.21,7.06,4.57,4.49,5.73,4.06,10.73-2.3,8.26-4.73,8.24-3.51-2-3.64.71,1.32,6,1.72,7.39-1.54,7,5.42,15.83,18.77,26.23,23.67,25.38,9.71,1.66,10.49,2.86,2.48,6.17,3.26,6.47,7.11-3.34,8.62-4.89,5.37-1.27,5.87-.16-.92,0,.47,1.09,7.29-1.44,7.29-1.44a24.37,24.37,0,0,0,2.19,4.54c1.33,2,2.28,12.17,2.51,14.7s4,11,4,11-.63,4-3,5.26.18,7.37.18,7.37-3.15.31-4.25,2.34-2.57,6.61-2,7.44-1.67,2.71-3.29,4.52-5.62,2.7-3.38,6.31.93,8.6-1.13,9.93-6.5,9.68-7.4,9.63-5.72,4.48-5.74,6.92-7.51,9.89-7.51,9.89-10.15,8.85-11.31,8.71,6.6,1,8.81-1.45,13.09-10.17,16.11-14.78,7.65-5.56,8.1-7.52,2.21-6.47,2.52-7.26,8.25-10.22,8.25-10.22a116,116,0,0,0,4.48-12.28c2.35-7.61,1.78-5.41,3-8.58s3.79-7.36,3.68-10.16,1.9-4.15.4-8.08.23-8.45.53-9.24-1.54-8.53-1.54-8.53,3.21-6.69,2.31-12.23,2.39-10.05-3.72-12.43-10-4.82-9.78-9.29-.49-13.62,4.52-7.71a29.46,29.46,0,0,0,10.57,8.09s-.64-7-.64-10.92,3.62-5.32,1.37-7.4-4.67-3.65-5.46-7.93,1.34-8.94,2.88-7.41,3.65,11.78,9,9.9,13.11-3.13,14.14-5.79a44.64,44.64,0,0,0,1.72-7.56l10.7,7.82s10.37,4.65,11.7,5.16a3.9,3.9,0,0,0,2.91-.39l9,8.36s10.53,6.56,12,9,10.4,10.15,10.4,10.15,3.4-1.73,1.38-4.34-4.61-7-1.54-5.49,9.82,3.82,12.08,9S1654,472,1654,472a62.73,62.73,0,0,1,13.29,9.75c6.18,6.07,6,4.18,9.49,4.62s13.54,12.29,12.43,12.77-19.27-6.9-18.85-4.9,1.37,6.65,7.88,7.94,10.4,3.15,11,2.45,2.63,1,2.85,2,4.82,10.41,4.82,10.41,13.43,15.6,20.35,28.36,27.47,58,31.37,68.33,14.7,37.44,19.1,45c1.84-7.84-6.84-38.06-12.55-48.52s-14.31-37.6-21-50.89-15.73-40.29-21.77-53-32.84-63.72-48.15-85.53-50.64-69.74-59.69-80.9-36.33-44.63-56.93-63-41.1-37-48.17-43.15-28-21.26-32.82-27.73-5.69-10.44-9.62-12.88a48.2,48.2,0,0,0-7.12-3.69Z" transform="translate(2.98 13.09)" fill="#fff"/><path d="M1636.46,472.46c5.08,6.54,14.52,16,17.15,17.06s12.48.88,3.41-4.79a85.74,85.74,0,0,1-17.57-14.45C1638,468.49,1636.46,472.46,1636.46,472.46Z" transform="translate(2.98 13.09)" fill="#fff"/><path d="M1562.08,488.05c1.23,2.29-1.86,15.73-4.26,13.28s-5-5.29-4.73-8.25,3.23-9.1,3.23-9.1Z" transform="translate(2.98 13.09)" fill="#fff"/><path d="M1442.9,437.69c-4.25-1.66-4.58-2.38-5.69-1.92s-7.73,1.88-8.74.57-2.22-3,1.11-4.44,2.6-5.1,11.19-.53,7.57,8.74,7.57,8.74Z" transform="translate(2.98 13.09)" fill="#fff"/><path d="M1477.25,477.9c-2.83-4.45-.47-6.6.58-6.19s8.26,2.32,8.49,3.31-.82,3.66-2.08,3.77A58,58,0,0,1,1477.25,477.9Z" transform="translate(2.98 13.09)" fill="#fff"/><path d="M721.84,826.24c-4.17,6.79-13.82,12-16.65,14.56s-10.76,12-12,12.73-4.29,7.18-4.29,7.18l-5.77-1.64s.68-4.91.82-7.61-2.43-5.52-1.4-8.17,10.92-13.14,17.63-17.85,9.32-6.73,12.7-7.56S723.5,823.54,721.84,826.24Z" transform="translate(2.98 13.09)" fill="#fff"/><path d="M541.45,825c-2.87,1.94-7,7-9.57,6.65s-7.1-.62-9.43-2.47-8.6-6.08-8.22-8.67,2.2-9.52,6.45-10.31,8.81-5.42,12.9-2.59,4.64,4.53,8,4.62,8.13,1,9.16,2.35,4.15,1.91,2.1,4.78-9.23,4.95-9.23,4.95Z" transform="translate(2.98 13.09)" fill="#fff"/><path d="M677.68,918.56l-5.25-3s-6.38-9.49-12.69-7.39-13,9-14.92,14A116.15,116.15,0,0,0,641,935.11s-3.11.92-3.91.61-1.26-5.38-3-4.83S628,940.4,628.72,944A105,105,0,0,1,630,958c-.14,1.14,3,3.29,3.94,3.95s0,3.08-.82,3.66-3.2,1.2-1.3,6.5,6.69,10.24,7.53,9.64,5.37-2.79,5.85-1.68a67.91,67.91,0,0,0,6.37,8c.67.57,5.5-2.43,5.5-2.43s3.17,12.23,4.32,16.32,3.41,9.27,3.55,10.53,7,10.08,5.75,14.15-1.8,7.83-2.8,8.06-1.49-4.85-3.37-3.15a9,9,0,0,0-2.34,9.15c1.26,3.85.42,11.45.9,12.57s4,.64,4.7-.31,3.24-9.12,3.55-9.91,5.75.1,5.75.1,6.86-12.89,6.63-13.88-1.78-9.53-6.54-11.39-9.63-1.92-9.61-4.37,1.59-.89,1-4.79-.6-2.37-1.64-6.74a54.79,54.79,0,0,1-1.31-8.45s8-.22,5.15-2.26-7.81-1.82-8.61-2.13,2.93-2.83-2.55-6.79-6.08-2.37-9-2-4.07-1.28-4.62-4.55,3.16-9.74,2.67-12.37.11-5.76,1.45-9.2a66.74,66.74,0,0,1,4.55-8.59s6.78,6.9,10.34,4,10.57-2.89,8.78-10-2-10.53.42-12,6.6-6,6.6-6Z" transform="translate(2.98 13.09)" fill="#fff"/><path d="M633.15,983.58c.88,4,2.68,4.1,1,7.69s-6,6.82-6.78,6.51-1.31-8.44-2.56-12.27-1.64-10.7-.84-10.39S633.15,983.58,633.15,983.58Z" transform="translate(2.98 13.09)" fill="#fff"/><path d="M644.61,1023.12c-3.05-3.93-3.32-5.57-6.15-8.49s-6.28-2.74-7,0-6.17,11.94-5.77,13.3,10.7,5.39,10.39,6.19,2,2.63-1.44,5.24-11.75-11.29-7.26,3,7.7,15.52,8.84,12.59,2.23-4.91,7.42-8.08,4.32-1.67,8-5.73l3.71-4s-2.57-2.82-5.14-.16a57.8,57.8,0,0,1-6.74,5.59l-1.05-4.35s8.4-8.32,5.93-9-6.87-1.14-7,0-3.55-1.08-3.55-1.08Z" transform="translate(2.98 13.09)" fill="#fff"/><path d="M669.93,1062.26c3,7.89,9.76,10.2,4.16,16s-2.07,9.27-2.32,12.22,3.71,12.42.73,14.61-9.13,6.21-11.3,6.29-2.19-8.47-2.19-8.47-7.38.17-9.27,1.88,1,8.32.64,10.92-9.73,3.82-10.42,3.26-9.8-7.78-10.65-14.21-3.39-11.68,1.42-13.79,11.7,1.21,7.76-4.29-6.32-10.39-8.11-10.48-3.26,2.08-6.34.58-4.63-4.54-5.44-4.86-4,.89-4.66,1.84-10.62,5.33-10.62,5.33,3.61-14.76,9.42-14,17.14-.94,18.16-1.17,6.2-7.34,6.22-.31,3.5,13,5.23,12.41,3.54-4.41,5.29-5,3,5.45,5.72,1a50.93,50.93,0,0,0,3.37-6.31l7.52,5.68s.47,3.52,2-.44S669.93,1062.26,669.93,1062.26Z" transform="translate(2.98 13.09)" fill="#fff"/><path d="M651.08,1055.83c-2.38-.93-4.59.06-3.93-2.44s3.38-4.78,5.88-4.11,8.2,3.2,6.06,4.8S651.08,1055.83,651.08,1055.83Z" transform="translate(2.98 13.09)" fill="#fff"/><path d="M596.3,1006.14s.31,3.18,2,4.16-9.74,2.31-9.74,2.31-12.64,5.14-14.07,6.41-22.77,3.64-24.09,6.19-6.65,3.8-6.65,3.8,4.26-7.79,7.53-8.33,24.62-8.42,29.68-10.43,9.56-4.2,11-7,3.33-5.4,4.66-4.88S596.3,1006.14,596.3,1006.14Z" transform="translate(2.98 13.09)" fill="#fff"/><path d="M541.1,1039.86c1.27,6.91.93,15.62,1.15,16.62s5.44,6.38,7.08,10.07,15.35,17,11.63,17-10.56-2.59-11.38-2.91-8.65-1.24-6.89,1.28,6.68,4.74,5.19,6.28-4.77-1.86-7.36-.72-8.85.83-11.4,6.54-5,17.58-6.29,20.12-.11,7.29.39,8.39,7.64,14.87,7.64,14.87-9.1-1.72-13.24-3.63a9.51,9.51,0,0,0-12.32,3.45c-3,4.62-.89,9.41-3.64,11.71s-13.38,1.49-14.4,1.71-9.32,2.78-6.36,7,7.42,4.41,2.09,8.74-9.2,4-7.06,7.93-2.07,10.8-3.06,11-5-4.41-5.5-5.51a9.32,9.32,0,0,0-8.37-5.1c-5.24.11-12.95-.46-13.44-3.09s1.68-5.13-1.63-9.17-4.05-5.24-7.89-9.48-7.36-7.75-9.45-7-13.74-4.73-14.31-5.57,4.8-4.53,2.52-5.73-9.87-2-13.68-5.62-6.63-.15-5.29-7.54.72-7.36,3.09-13.45,6.12-7.07,3.82-9.8-.71-2.1-2.29-2.72-3.52-3.51-2.88-7.52,2.58-8.15,2.71-12.38,2.27-15.27,3.15-16.76,5-10.56,8.91-8.73,6.13,5.43,10.7,10.86,9.77,6.26,12.42,1.79,3-13.79,14.44-8.1,16.05,6.55,24.48,3.74S486.92,1052,492,1054s12.92-2.61,14-.66,5.26,3,5.57,2.17a13.54,13.54,0,0,0,1.38-4.35c.09-1.8,4-3.31,4.84-3s4,.64,8.39-1.93,8.58-6.41,10.77-7.39S541.1,1039.86,541.1,1039.86Z" transform="translate(2.98 13.09)" fill="#fff"/><path d="M371.23,1109.49c-2.87-2-10.21-8.24-4.68-9.14s9.58,1.27,10.07,3.92-1.11,6-2,5.91A25.75,25.75,0,0,1,371.23,1109.49Z" transform="translate(2.98 13.09)" fill="#fff"/><path d="M609.23,1170.41c-5.52.88-6.92,5.23-14.14,1.81S569,1157.8,566,1155.39s-2.93-6.63-7.05-7-8,1.77-10.64,2.27-9.08-.18-11.88,3.9-7,15-7,15-6.62,2.91-8.4,5.88-4.31,7.18-6.34,8.52-7.42-1.37-7.11,4.85,3.5,11.44,4.85,13.48-.26,13.92-4.29,17.25-8.89,3.23-4.14,7.53,10,8.79,11.81,4.9,6.48-14.24,7.37-18.17-3.08-14,5.9-13.56,15.75.32,11.63,5.43-5.14,6.85-3.69,8.64,7.61,6.32,5.21,9.34-4.9,6.33-4.21,6.9,5.42,3.34,6.57,3.47,7.57,3.26,6.49,3.75-6.59,2-3.76,6.47,6.93,5.75,7.58,1.72,2.27-5.83,2.61-9-3.3-9.54-4.25-14.17.28-3.85.18-7.54a57.74,57.74,0,0,0-2.39-13.45,25.69,25.69,0,0,1-.82-8.86s7.65-.07,9.09.18,8.81,1.6,8.81,1.6l9.11,7.21s4.16,1,3.35-2.36,3-3.71.49-8.34-5.15-4.77-11.75-5.81-10.74-1.42-13-3.51-3.86-1.82-6.65-.15-5.93,2-7,1.53-2.82-1.39-3.53-5a75.64,75.64,0,0,0-2.24-7.57c-.21-1-.78-4.27-.78-4.27s0-9.46,8.9-8.76,21.77,2.08,32.51,10.54,16.12,14.2,23.21,14.82,18.68-6.45,18.66-8S609.23,1170.41,609.23,1170.41Z" transform="translate(2.98 13.09)" fill="#fff"/><path d="M668.83,1181.09c-4.3-.76-20.28,5.84-21.27,9.12s.68,8.5,0,9.45-2.84,12-4.14,13-5.63-4.32-8.18-.13,2.63,10.47,2.63,10.47l3-3.08,5.06,3.49s4.26-.78,3.29-3,.78-12.21,2.19-13.49,7.08,4.58,9.49,3.08-2.07-7.21-2.07-7.21,7.66-5.57,6.95-6.13-8.39.38-9.64.51-2.55-2.83-1.31-4.49,1.8-3.86,3.8-4.3a24.51,24.51,0,0,1,7-.64c3.33.07,7.27-1.44,6.81-3.45S668.83,1181.09,668.83,1181.09Z" transform="translate(2.98 13.09)" fill="#fff"/><path d="M723.61,1255.8c-4-3.07-12.09-12-12.87-12.34s-10.74,2.54-13.29,1.23-6.82-.51-7.13.29-2.71,5.34-2.92,4.35-4.95-10.78-6.36-9.5,1.16,11.14,4.47,13.64,7.77,2.73,8.53,7,2.09,7.21,3.15,7.62,15.42,6.62,16.28,7.56,4.91,6.18,1.48,4.84a39,39,0,0,0-8-2.18c-1.19-.16-10.52-4.41-10.74-3s-3.42,3.25-2,5,8.43,7.24,7.51,9.62-1.84,4.78.76,6.71a15.92,15.92,0,0,0,5.73,2.53s2.47-7.88,5.79-2.32,9.25,7.56,14.2,11.32,7.51,2.63,10,7.24,25.56,18.2,28.27,25.35,7.43,16.93,6.3,19.84-1.28,8-5.14,7.75-8.08,1.13-12.24,1.65-4.82-1-8.71-.34-6.33.59-4.8,4.53,6.63,9.59,12.9,9.91,10-3.75,14-2.2,14.71,4.52,16.17,7.82a119,119,0,0,0,5.87,12.37c3.06,5.44,9.73,11.09,9.73,11.09s8.88,9.26,16.91,9,13.52-4.18,21.65-10.18,13.28-8.25,22.09-4.22,15.71,11.31,16.14,17.27-2.81,11.1,9.79,20.28,28.36,12.57,33,16.49,3.24-2.08,2.55-2.67-8-11.66-8-11.66l-1.49-6.36-9-3.51c-1.31-.51-3.6-3.24-5.17-6.27s5.14-3.81,1.52-7-1.9-10.8-5.3-13-2.76-9.31-2.76-9.31a26.09,26.09,0,0,1,8.08,1.92c3.34,1.61,9.16-1.63,2.84-6.52s-14.19-9.79-14.77-10.65-7.23-4.93-7.19-5.83-.56-10.3-.56-10.3-4.29-7.75-6.58-8.94-15.1-15.35-20.77-18.77-15-10.73-21-14.27-5.42-3.32-13.6-10.47-5-6.83-17-13.63-15.78-11.94-15.78-11.94-5.26-3-6.26-2.75-5.77,2.33-6.8,2.54A61.82,61.82,0,0,0,767,1294c-1.11.49-9.86,2.57-10.7,3.15s-5.56,3.34-7.36,4.78-8,.23-8,.23-10.45-5.28-11.05-6.13-2.11-6.31-2.33-7.31.84-10,.84-10a66.78,66.78,0,0,0,4.7-5.8c2-2.87.9-12.46.9-12.46Z" transform="translate(2.98 13.09)" fill="#fff"/><polygon points="758.8 1302.17 755.64 1296.96 760.21 1295.39 769.76 1300.63 763.16 1301.13 758.8 1302.17" fill="#fff"/><path d="M976.3,1373.07c1.07.41,11.82,11.92,4.3,14.8s-9.38,6.1-9.38,6.1,3.06,0-3.34,3.88-10.8,5-13.46,6.35-16.06-1-21.14-2.13-18.38-8.36-16.73-5.58,34.5,19.52,35.38,19.56,13.6-3.55,19-6.35,7.73-8.88,11-8.55,10.94,6.39,11.83-.58,4.29-8.7-.47-10.55-4.75-.33-6-3.55a60.61,60.61,0,0,0-3.76-7.57Z" transform="translate(2.98 13.09)" fill="#fff"/><path d="M641.28,1635.84c1.45-.64,8.17-12.37,8.17-12.37a20.2,20.2,0,0,1-10.09,5.52c-6.74,1.65-6.59-1-12.6,1.81s-8.24,4.72-10.11,2.47-3.23-3.4-6.12-10.92-9.65-16-13.21-20.08-37.3-26.41-43.69-28.9-31.3-8.85-33.55-9.4-25.72-9.1-29.4-7.49-10.42,4.8-12,5.08-18.85-6.43-29.28-12.6-13.47-13.2-20.31-11.28-21.9,6.11-30.72-6.47-17.77-15.46-17.95-17.37-1-6.79,0-7,7.48,5.06,7.8-1.22-.78-8.23-3-17.33-2.93-26.17-7.23-33.94-3.86-11.26-5.41-18.26-1-8.33-3-14.28a34.89,34.89,0,0,1-1.95-9.91l4.91,4.64s-.9-5.52.75-9.75a103.26,103.26,0,0,1,5.38-10.72s.95-11.84,8.56-11,18.68-2.48,26.58,1.49,24.9,11.22,36,15.55,26.44,5.72,29,4,14.44-6.59,14.54-8.37-3.49-11.42,3.48-12.06,10.15-4.91,11.71-.34,2,9.64,4.63,10,3.56,2.61,5.62-4.22,1.89-5.66,2.75-4.72,7.29,5.58,7.29,5.58.62-11,6.26-12.2,10.7-3.17,11.53-3.76,15.61-2.46,15.61-2.46,11,4.6,14.91,9.49,1.5,14.89,5.54,17.09,10.48,2.86,10.79,2.06,17.24-8.23,22.75-12.2,14.77-5.84,15.58-5.53,21.06,7,21.06,7-.38-6.85-1.59-7.63-10.22-2.75-10.22-2.75-22-13.16-16.7-13.52,7.22-.55,11.13,4.33,15.69,8.25,16.61,8.29a52.25,52.25,0,0,1,6.43.68c.8.31,6.41,3.1,7.17,5.84s8.77,10.43,9.61,11.37a52.62,52.62,0,0,0,11,7,69.25,69.25,0,0,0,9.49,3.07c.87,0,8-.23,9.55,1.29s9.55,9.21,9.55,9.21,4.55,2.37,3.55,2.59-13.88,12.9-18.72,14.36-10.59,8.41-10.9,9.2,10.35,16.53,16.87,23.34,23.59,12.23,23.37,16.72,8.45,11.21,9.24,11.52,12,.69,12.77.11,14.19-13.71,17.39-21.92,9-18.45,12.31-23.88,11.34-8.69,12.52-11,2.16-7.09,5.29-6.48,7.94,4.63,7.94,4.63c.87.94,4,14.05,3.48,15.38s-1.94,17.55-2.06,21.76-3.65,4.68,2.54,6.78,15.11,7.42,15.11,7.42-1.49,10.1-2.44,14.91,3.07,18,3.07,18l-1,14.26s-3.4-2.25-.17,3.58,10.5,11.43,11.17,12,10,11.21,10,11.21-.26,6.91.62,9.39,8.34,13,8.34,13,4.15,3.46,4.28,4.74,4.34,17.85,5.3,20,9.77,11.73,9.83,13.89-1.34,10.48-3.06,16.5-4,18.89-8.4,20.83-13.43,9.42-16.63,12.14-18.75,4.29-19.86,4.77-35.67,18.75-40.33,22.13-10,6.8-11,7-15-5.24-25.87-6.41-20.43,0-25.45-2-9.46-7-10.53-7.46-20.76-.75-20.76-.75-32.37-14.74-33.16-19-.83-3.38-2.59-11.39-5.43-10.34-6.27-11.28-2-9-2-9l-6-1.75a18.45,18.45,0,0,1-1.17,4.37c-.66,1.11-.49,1.85-3.27.77a46.85,46.85,0,0,1-6.92-3.37c-.53-.44-1.74-3.19-.22-2.37s5.41,3.71,5.86,3.2a18.34,18.34,0,0,0,1.29-4.54C638.27,1635.9,641.28,1635.84,641.28,1635.84Z" transform="translate(2.98 13.09)" fill="#fff"/><path d="M1020.89,1429.32l-7.56-13.46s-.78,10.21-.11,13.22a91.28,91.28,0,0,0,3.17,9.47s7.77,1.2,8.23,0S1020.89,1429.32,1020.89,1429.32Z" transform="translate(2.98 13.09)" fill="#fff"/><path d="M1039,1449.35c-1.58-.61-7-8.55-7.62-9.38s3.69-1.61,3.63-.72,9.53,9.21,9.53,9.21Z" transform="translate(2.98 13.09)" fill="#fff"/><path d="M1058.54,1462.74l-3.72-6.94s2.06-1.33,4,1.55S1071,1468.2,1071,1469.1s-1.61,3.35-1.61,3.35l-3.6-1.7Z" transform="translate(2.98 13.09)" fill="#fff"/><path d="M1040,1464.07l-4.55-6.35s-2.62.5-.18,3.59,4.39,6,5.18,6.28,3.92-.6,3.92-.6Z" transform="translate(2.98 13.09)" fill="#fff"/><polygon points="1070.93 1494.74 1067.61 1496.19 1064.25 1498.55 1077.39 1502.45 1076.68 1496.37 1070.93 1494.74" fill="#fff"/><path d="M1082.88,1470.68s-2.82,9.59-2.23,10.43,3.16,9.15,3.16,9.15l2,.19.48-5.92-.91-8.59.27-3.85Z" transform="translate(2.98 13.09)" fill="#fff"/><polygon points="1089.02 1510.92 1085.97 1512.49 1090.89 1517.14 1095.11 1517.27 1096.72 1515.46 1089.02 1510.92" fill="#fff"/><path d="M1281.59,1581.59s-18.11,4.23-17.61,6.87,11,1.54,11,1.54l6.45-3.28Z" transform="translate(2.98 13.09)" fill="#fff"/><path d="M1254.17,1594.1c-5.43.62-11.07,1.78-12.73,4.51s5.16,4.72,6,4.77,7.29-1.42,7.59-2.22,4.44-5.91,3.2-6.69S1254.17,1594.1,1254.17,1594.1Z" transform="translate(2.98 13.09)" fill="#fff"/><path d="M1077.49,1628.72c-4.16-5-8.62-7.63-10.93-10.34s-4.28-7.77-5.92-9-5.78-1.63-6,.43,2.32,8.22,6.92,13.66,16.42,14.94,17.74,12.4S1077.49,1628.72,1077.49,1628.72Z" transform="translate(2.98 13.09)" fill="#fff"/><path d="M1084.7,1752s-16.59,2.69-17.49-.85.5-4.84.5-4.84l-7.93-.8s13.09-5.43,5.93-10.51-13.67,3.37-13.73,4.72,5,2.41-.7,8.88-6,14.15-15.1,12.88-12.66,1.94-11.47,2.41,9.3,3.16,9.3,3.16-26.28-.62-15.87,4.35,15.94,2.55,20.11,0,12.06-6.29,17-7.13,7.52-1.65,13.77-2.42,6.34.18,10.9-2.17S1084.7,1752,1084.7,1752Z" transform="translate(2.98 13.09)" fill="#fff"/><path d="M1007.36,1768.57c1.57.61,6.24,1.53,1.37,4.67s-25.42,6.57-27.48,7.14-8-.8-19.3,2.55-19.68,4.7-27.51,4.84-18.29-1.17-21.88-2.57-16.62-7.82-9.49-7.34,46.25,1.07,57.85-1.73,15.79-5.3,27-6.9A84.15,84.15,0,0,1,1007.36,1768.57Z" transform="translate(2.98 13.09)" fill="#fff"/><path d="M744.38,1716.55s-9.74,8.56-15.9,10.27-15.36,7.75-20.41.75-3.75-11.52-5.78-14.59-6-9.21-1-6.8,14.18,8.25,20,9.63,3.69,2.34,11.12,2A77.59,77.59,0,0,0,744.38,1716.55Z" transform="translate(2.98 13.09)" fill="#fff"/><path d="M662.83,1274.83a108.93,108.93,0,0,0-7.3-8.63s-3.81.35-4.61,0-5.61-6.76-7.49-6.59-2.5,3.31-4.62,2.48-8.89-2.23-7.15-2.78,5.23,1.43,4.9-.83-3.94-2.45-4-3.71-2.16-3.89,4-2.42,12.27,2.94,13.55,4.36,4.17,1,4.17,1,4.87.07,5.08,1.06,2.61,5.9,5.73,8,5.57,7.66,5.94,9,1.69,5.85-1.37,4.34S662.83,1274.83,662.83,1274.83Z" transform="translate(2.98 13.09)" fill="#fff"/><path d="M618.21,1249.24s-.9-4-2-4.42-6.68-4.74-9-2.61-2.61,3.56.28,7.12,10.46,8.35,12,6.81,3-3.1,1.92-4.13S618.21,1249.24,618.21,1249.24Z" transform="translate(2.98 13.09)" fill="#fff"/><path d="M601.75,1221.78c-4.51-3.28-10.57-5-11.15-5.86s-4.92-6.18-.68-4.53,9.48,3.07,12.94,5.95,15.13,7.4,12,7.42-8.56-1.49-8.56-1.49Z" transform="translate(2.98 13.09)" fill="#fff"/><path d="M635.4,1232.44c-1.9-2.88-.51-4.16.4-4.1s8.26,2.28,7.68,4.5-1.13,2.92-2.87,1.92A55.09,55.09,0,0,0,635.4,1232.44Z" transform="translate(2.98 13.09)" fill="#fff"/><path d="M664.71,1249.64c.31-.78.52-1.32,2.48-.87s6.71.8,7,2.43,2.14,3.88-1.68,2.71a18.8,18.8,0,0,1-5.71-2.71Z" transform="translate(2.98 13.09)" fill="#fff"/><path d="M690.24,1236.44c-.24-.21-.89,1.14-3.2-.34s-4.54-3.25-4.8-3.46-.18-3.39,1.31-3.38,3.8-.34,6,1.75a60.27,60.27,0,0,0,5.83,5c.67.37,1.54,1.62.3,1.6s-3-.25-3-.25Z" transform="translate(2.98 13.09)" fill="#fff"/><path d="M718.79,1326.21c-.24,3-2.79,7.16-3.29,10s.84,4.91-1.58,6.41-4.4,3.47-7.1.28-6.66-4.12-3.58-8.11,9.24-10.41,10.35-10.91,3.75.55,3.75.55Z" transform="translate(2.98 13.09)" fill="#fff"/><path d="M667.4,1328.17c-2,3.5-3.38,4.79-5.79,6.29s-9.46,1.51-9.46,1.51-.51-4.17.34-4.75.69-4.92,4.14-3.57,2.65,2.55,5,1.95a13.85,13.85,0,0,0,4.05-1.78Z" transform="translate(2.98 13.09)" fill="#fff"/><path d="M593.28,1316.42c-1.34-.52-7.29-.11-8.77.55s-10.84-2.71-15.78-2.5-6.76,1.65-11.57,2.2-9.27.37-12.73-1-9-.44-9-.44-9.79,3.21-9.24,2.52,6.62-6,8.75-5.16,6,.22,6.73-1.64,2.71-3.82,6.93-3.7,12.05,1.93,15.22,1.66.87-3,6.32-2.13,20.38,6.42,23.53,7.65.83,3.37.83,3.37Z" transform="translate(2.98 13.09)" fill="#fff"/><path d="M501.06,1288.45c-1-3.75-3.73-8.46-4.67-9.15s-7.81-5.78-11.19-5-1.5,3.06,1.53,5.46,4,4.62,6.42,8.6,6.62,8.06,7.69,6S501.06,1288.45,501.06,1288.45Z" transform="translate(2.98 13.09)" fill="#fff"/><path d="M449,1245.91c-1.34-2.06-2.64-1-1.85-4.68s5.89-4.13,7.53-2.89a3,3,0,0,1,.2,5,16.58,16.58,0,0,0-2.76,3.2C451.53,1247.2,449,1245.91,449,1245.91Z" transform="translate(2.98 13.09)" fill="#fff"/><path d="M457.75,1252.37c-2.44-1.57-3.15-3.68-2-4.16s1.65-2.7,4.57-1.56,7.82,5.78,8.61,6.08l.8.32-1.22-4.74s7.84.29,9.39,3.34,5.87,1.38,6.54,5.91,4.24,7.14-.52,5.29a22.17,22.17,0,0,1-8.08-5.9s-4.1-2.82-2.77-.77l1.35,2s-5.29-.53-6.08-.83S457.75,1252.37,457.75,1252.37Z" transform="translate(2.98 13.09)" fill="#fff"/><path d="M502.6,1273.48l-5.83-2.27s-2.93-5.72,1.13-4.44,11.47,6.61,12.25,6.91a123.47,123.47,0,0,1,12,6.18c3.95,2.43,6.15,4.53,7,4.85s1.41-1.3,6.72.77,5,1.34,9.79,3.81,8.65,5.21,9.46,5.53,10,4.17,10,4.17,8.18,5.62,2.51,3.71-13.5-5.25-14.3-5.56-5.33-3.6-5.33-3.6l-6.6-2.57-5.84-2.27s.53.2-3.13-.61-8-2.2-8-2.2l-12.66-7.37Z" transform="translate(2.98 13.09)" fill="#fff"/><path d="M587,1303.59a29.41,29.41,0,0,1-7.05-3.06s4.57-1.57,8.29-.12a40.11,40.11,0,0,0,5.4,1.8l-1.89,1.7Z" transform="translate(2.98 13.09)" fill="#fff"/><path d="M137.1,467.09c.39,3.47,2.37,4.44.83,6.36s-2.9,3-5.16,2.28-1.43-.36-1.25-2.82,3.34-6.1,3.34-6.1Z" transform="translate(2.98 13.09)" fill="#fff"/><path d="M1233.93,596.93c1.22.48,3.72,1.68.87,3.09s-5.65,4-6.88,4.2-3.65,1.09-3.39-1.32.06-3.66,3-3.64S1233.93,596.93,1233.93,596.93Z" transform="translate(2.98 13.09)" fill="#fff"/><path d="M814.51,838.14c-1.64.72-4.11,0-4.84,1.31s-6.61,4.06-6.61,4.06-2-3.73.39-4,5.08-3.07,5.71-3.5S814.51,838.14,814.51,838.14Z" transform="translate(2.98 13.09)" fill="#fff"/><path d="M764.64,849.37c-1.16,0-1,1.24-2.2.3s-1.53-3.11-.65-3,2.22.17,2.22.17Z" transform="translate(2.98 13.09)" fill="#fff"/><path d="M747,845.73l-6.89-2.21s-4.08,1.6-1.28,2.69,6.91,2.24,7.86,2.15A2.05,2.05,0,0,0,748.6,847C748.91,846.23,747,845.73,747,845.73Z" transform="translate(2.98 13.09)" fill="#fff"/><path d="M317.19,764.81c-.6,3.13-7.06,6.41-7.68,8a47.73,47.73,0,0,1-3.47,6.58c-.59.7-2.73,2.3-3.65,4.68a7.08,7.08,0,0,1-2.89,3.45s-.18-4.94.13-5.74,2.86-1.93,4.44-4.39,2.2-6.45,3.92-8.53,3.51-3.51,4.13-5.1S317.19,764.81,317.19,764.81Z" transform="translate(2.98 13.09)" fill="#fff"/><path d="M292.35,795.71c.23,1,1,2.23-.43,3.5s.6,3.9-1.43,1.28a6.43,6.43,0,0,1-1.24-5.37Z" transform="translate(2.98 13.09)" fill="#fff"/><path d="M284.81,841c-.51,1.32-3.52,2-3.52,2l-.7-2.1,2.28-2.78Z" transform="translate(2.98 13.09)" fill="#fff"/><path d="M279.38,854.12c-.3.79.33.73-.59,3.11s-2.91,5.9-3.67,3.15a9.36,9.36,0,0,1,.47-5.9c.31-.8,2.83-2.58,2.83-2.58Z" transform="translate(2.98 13.09)" fill="#fff"/><path d="M272.34,929.46c.79,1.84,2.58,5.89,1.86,7.73s-2.19-1.45-2.19-1.45l-3.54-6.56Z" transform="translate(2.98 13.09)" fill="#fff"/><path d="M277.84,960c2.73,4.73,4.9,11.68,4.46,13.63s-5.11,2.9-5.11,2.9.67-8,0-9.45a30.76,30.76,0,0,1-1.07-5.9Z" transform="translate(2.98 13.09)" fill="#fff"/><path d="M284.84,991.37c-1.84,2.33-3.36,3.88-3.39,4.77s-1.28-6.91-.38-6.86S284.84,991.37,284.84,991.37Z" transform="translate(2.98 13.09)" fill="#fff"/><path d="M280.08,1007.51c.68.57.75,2.74,1.42,5.74s1.11,6.53,1.11,6.53-.3.79-1.36.38-4.79-3.37-5.06-5-.24-8-.24-8Z" transform="translate(2.98 13.09)" fill="#fff"/><path d="M283.39,1035c2,2.64,4.67,3.67,4.39,6s-.14,2.71-.76,4.3,1.29,2.94-.62,1.59-1.46-4.85-1.69-5.85-.27-1.64-1-2.21S283.39,1035,283.39,1035Z" transform="translate(2.98 13.09)" fill="#fff"/><path d="M633,1648.73c-2.56-1-4.86-1-6.57-3s-2.24-5.47-.09-3.93a72.47,72.47,0,0,0,7.67,4.35c.61.24,3.54.92,3.51,1.6S633,1648.73,633,1648.73Z" transform="translate(2.98 13.09)" fill="#fff"/><path d="M1128.46,1562.86c.31-.8,3.2-1.21-.58-3.28s-4.11,5.11-4.16,6,2.37,3.36,3.61,1.71a14.58,14.58,0,0,0,1.87-3.24Z" transform="translate(2.98 13.09)" fill="#fff"/><path d="M1126.85,1573.2s-2.89.4-.86,3,2.68,4.09,3.24,3.4,1.81-3.87,1.23-4.71S1126.85,1573.2,1126.85,1573.2Z" transform="translate(2.98 13.09)" fill="#fff"/><path d="M959.35,1487.88c-1.86-2.24-2.46-6.15-1-5.91s4.18,2.54,4.76,3.39,4.27,4.72,0,4S959.35,1487.88,959.35,1487.88Z" transform="translate(2.98 13.09)" fill="#fff"/><path d="M932.39,1454.52c-2.23-.57-5.72-4.07-6.53-4.38s-.55-3.27,1.53-1.54,7,4.84,6.9,5.73-.55,3.76-.55,3.76Z" transform="translate(2.98 13.09)" fill="#fff"/><path d="M938.43,1445.27c-.91-1.57-.39-4.44-.39-4.44s6.22,1.21,7,1.52,1.45,1.79-.35,3.22a5.91,5.91,0,0,1-4.08,1.16Z" transform="translate(2.98 13.09)" fill="#fff"/><path d="M1694.74,1061c.19-2.6.11-5.08.17-8.34s-.77-6.44,1.45-3.72,6.86,3.89,6.3,7,.78,4.81-3.59,7.62-6.24,4.51-5.64,1.88A38.8,38.8,0,0,1,1694.74,1061Z" transform="translate(2.98 13.09)" fill="#fff"/><path d="M1665.75,1033c.74-2.37,3.45-6.22,4.4-4.43s1.67,4.13-.66,5.89a2.25,2.25,0,0,1-3.58-.79Z" transform="translate(2.98 13.09)" fill="#fff"/><path d="M1678.28,1036c1.11-1.82,1.1-3.88,2.52-1.69s2.39,3.8.74,4.38-.14,1.39-1.67.58S1678.28,1036,1678.28,1036Z" transform="translate(2.98 13.09)" fill="#fff"/><path d="M1690.19,1041.66a26.21,26.21,0,0,1-2.6-3.26s2.81-3,3.81-1.38,2.68,3.08,2.56,4.45-1.94,1.3-1.94,1.3Z" transform="translate(2.98 13.09)" fill="#fff"/><path d="M1486.25,598.57c-2.52.23-4.26,1.58-5.58,1.86s-5.55-1.35-5.55-1.35l7.24-6.06,3.91,2.34,2.77,2.27Z" transform="translate(2.98 13.09)" fill="#fff"/><path d="M1466.59,603.43s-.2-5.72-1.52-5.43-7.79,3.43-7.79,3.43l-6.71.61,9.12,3.55Z" transform="translate(2.98 13.09)" fill="#fff"/><path d="M1377.63,590.22s-4.65-4.65-3.4-5.77,4.76.24,4.76.24l.24,2.52Z" transform="translate(2.98 13.09)" fill="#fff"/><path d="M175.93,697.09s8.36-9.14,10.73-8,3.05,6,3.05,6L203,681.31c3.32-5.4,9.77-10.22,14.73-17.43s15.67-23.81,17.92-25.67,5.38-5.23,6.43-4.82.7,4.53.7,4.53a4.35,4.35,0,0,0,3.62-.72c1.41-1.27,2.25-1.86,4.75-1.2s2.82,2.93,6.2,3.65,2.21-1,4.34-4.12,7.64-1.6,13.45-2.39,20.34-3.69,23.91-5,9.72.13,12.37,1.16,7.94,3.09,11.09,1.27,8.15-8.42,10.4-11.82,4-1.78,8.71.34,6.67,7.17,11.58,13.36,12.75,15,12.75,15,6,.21,13.81-9.58c-8.08,10.58-9.93,34.88-10.63,38.25s1.87,7.76,1.87,7.76l2,5.68-8.49,6.14-.83,7.61,3.71,1.44s-.26,5.38-5.84,18.15-5,6.6-11.08,12.8-1.37,7.39-1.25,14.14,3.23,5.85,6.66,5.64,12.46.88,15.65,2.13,5,9.87,2.83,15.44-7.34,21.23-7.34,21.23.61,9.39.3,10.18a152.73,152.73,0,0,0-1.86,15.76c.07,2.17-3.38,6.31-3.38,6.31l-3.68,1.62-.67,6.45s-1.51,3.07-2.71,5.35-6.61,4.45-9.75,11.75-6.47,8.78-12.54,13.43-5.68,20.06-5.68,20.06l5.52-7.92s.15,9.81,1.23,13.3-.89,23.42-.41,28.5-.74,7.34-5,11.18-3.53,23.94-3.91,35.09,3.74,28,3.74,28-2.73-10.22-4.21-11.11-10.47-13.82-11.4-22.43-7.29-34.56-10.64-43.18-15.43-19.13-17.47-23.28-4.78-7.33-5.61-1.26-1,16.68,2.74,24.25,2.81,5.36,4.46,12.1.16,11.35.55,14.25-1,10.29,3.28,17.45,3.36,3.13,3.53,21.5.05,29.61.05,29.61.54,18.2,3.21,31.74,6.49,34.25,12.56,44.55,11.25,30.59,11.95,31.18,5.49,4,8,6.79a10,10,0,0,1,2.29,6.69s-6.36-1-8.85-1.62-1.34,1.92-.86,3,0,0,6.75,3.85,1,9.21,8.32,15.44,6.08,6.33,10.28,10.4,8.91,9.27,12.33,10.6,12.12,12,17.66,18.17,18.3,15.66,23.79,19.62,17.59,13.55,19,14.71,12.75,8,14.07,8.53,6.17-1,6.17-1,.27-3.85-6-6.59-8.56-10.94-10.11-14-6.48-3.73-11.32-6.24-1.68-5.84-.34-5.32,15,3.71,15.47,1.75-7.9-4-17.45-9.22-13.14-14.88-15.18-19-7.2-3.43-8.35-2-4.44.4-8.3-1.4-12.51-11-12.84-13.23-4-6.16-10.58-12.05-18.7-20.11-18.7-20.11a66.43,66.43,0,0,1,2.8-11.1c1.76-4.5,7.56-16.28,8.9-18.19s2.89-1.93,7.34-.8,4.15-3.58,4.45-4.37-3.5-5.94-2.93-8.15-1.8-11.08-4.43-14.54-9.69,1.41-9.69,1.41-2.19-3-1.88-3.78a33.64,33.64,0,0,0,2.31-6.73c.7-3.39-7-9.45-10.09-12.46s-1.47-4.86,1-7.25,5.76-10.87,6.28-12.21,3.06-1.55,4.89-.84,7.74,2.1,7.84.3-.71-6.06-.31-8.65.75-16.79.75-16.79-4.11-5.86-4.33-6.86,3.94-12.51,6.91-17.75,6.7-17.22,5.48-22-6.78-26.44-7.19-30.88-6-6.59-7.84-8.84.3-6.28,2-11.42.44-12.94-1.54-16.45,2.9-11.37,2.9-11.37a19.75,19.75,0,0,0-3-5.74c-2.18-3,.67-8,4.37-13.56s15.89-15.77,21.24-20.09,9-12.07,12.91-13.59,5.4.28,7.2,3.43-3,7.68-5.7,10-1.13,2.91-.12,4.23,8.51,6.35,8.91,10.79.75,5.16,3.19,6.72,2.17,1.46,2.38,6.43-1.92,8.09-3.37,11.81,2.35,3.35,2.35,3.35,4.08,1.27,4.82,4-5.22,4.05-5.22,4.05,4.2,4.09,7.81,5.8,1.42,5.74,2.37,10.39-1.82,7.81-4.08,9.68-5.8,6.28-7.94,9.41,7.9,4,11.86,2.48,8.63-.28,8.63-.28,6.63,2.58,6.94,1.78,4.72-4.26,11.45-5.92,30.67-1.17,35.94-2.18S484,897.46,487.7,889.45s4-25.28,1.87-37.71-2.86-33.44-.78-37.21-2.05-4.16-4.64-10,3.41-12.7,8.91-18.17,13.41-1.52,14.3-1.47,3.16-.29,7.83-3.67A20.63,20.63,0,0,1,535,778.84c8,3.09,6.13,9.4,6.13,9.4s3.55,13.58,3.76,18.54,6.57,5,6.57,5,4.76-10.67,6.87-12.89,8.45,3.29,13.77,5.35,23,5,23,5,9.25-1,12.55-.91,6.44-6.35,8.52-3.1,4.32,3.82,5.06,5,7.42,2.88,8.6,3,10.93,2.42,12.73,1,10.59.16,17.3-.58,14.38-3.25,21-6.15,17-1.33,17-1.33A100.86,100.86,0,0,1,703,797c3.23-5.16,17.26-13.72,19.5-15.6s6.65-1.37,10.28-2.1,21.68-11.08,27.11-17.2,13.66-24.88,13.82-26-.81-5.81,1.46-11.64,3-6.13,5-7.48,2.92-9.84,3.61-14.76-2-14.5-2-14.5l-7.43,1.07S768,678,766.4,673.38s5-5.68,12-8.12,9.2-4,9.2-4,15.41-.41,18.51-1.34,10.15,2.12,12.31.53,2.48-6.37,2.48-6.37-7.44-4.41-7.43-6.85-5.51-8.55-6.3-8.86-17.89,5.24-17.89,5.24-5.85-2.28-4.84-5.54,6.35-1.5,7.8-3.68-3.06-8.51-3.3-9.51-2.11-6.33-1.18-8.72,6.49-.19,11.71.14,1.71-4,5.74-5.37,3.66-3.16,8.86-2.81,6.5-1,9.46-2.74,12.36-1.59,12.36-1.59l.06,4.15s2.51,1.75,2.95,4.2-11,6.69-11,6.69-4.78.89-4.93,1.29-.23,1.75.51,4.18-5.76,1.86-6.22,1.84-.1,4.67,2.58,5.57,15.69-1.52,20-2.29,15,1.28,18.35,2.57,7.26,8.45,7.57,8.75-.92,5.57-2.65,6.44a11.65,11.65,0,0,0-3.71,3.27,27.36,27.36,0,0,1-2.2,3.72,8.75,8.75,0,0,1-3.51,2.3c-1.69,1.41,2.09,8.81,2.09,8.81s4,1.54,5.47,2.35,1,5.19,1,5.19,3.18,5.35,2.9,8.45-2.42.89-4.83.64-3.19,1.72-3.31,3.74a89.39,89.39,0,0,1-.73,12.52c-1,9.69-6.8,6.29-11.05,9s-6.3,4.42-6.26,7.86,5.73,7,10.11,8.75,6.23-1.94,12-2.19,15.53,3.07,16.34,2.7S887.7,712.44,889,708.39s6-10,5.37-15.53,1.12-7.56-.12-16.74-3.86-14.78-4.95-18.41,2.88-5.06,4.6-6,3.85.11,6.71-.83,6.73-.81,10-2.07a49.86,49.86,0,0,1,8.53-2c.76-.16,4.1-2.29,4.56-3.48s2.67-6.27,6.74-9,10.46-2.8,11.13-2.77,6.33-2.11,6.33-2.11l5.63,2s6.36-5.77,7.19-6.13,3.26-1.93,4.35.54,1.31,4.86,5.15,9.09,11.5,5.18,12.24,5,11.3-3.14,15.77-4.63,15.12-12.41,18.82-13.71,21.34-9.54,24.27-10,1.66-3.7,4.61-6,12.85-10.09,15.53-12.26,11.44-7.66,12.67-10.84,11.8-25.6,11.8-25.6,3.08-9.09,5.11-9,9.66-12.49,10-13.28,2.41-8,2.86-7.36a8.29,8.29,0,0,1,1.24,5.06c0,3-2.76,6.48-2.7,13.36s2.5,4.18,1.68,7.51-.84,8.6-1.34,11.61-1,12-2.4,14.39-6.07,6.79-7.35,10.65,1.83,4.14.22,6.5a30.07,30.07,0,0,0-3.4,6.44c-.86,2.19-1.28,5-2.15,9a6.7,6.7,0,0,1-4.57,5.32c-.77.15-1.61,7.61-1.61,7.61a34.7,34.7,0,0,0,5,.58c.75-.17,1.31-3.38,3.44-5.29s2.84.88,5.06,4,5.34,3.9,6.87,1.76-3.31-8.61-4.22-11.48-3.55-7.32-2.49-11.26,6.61-12.3,6.61-12.3,4.58-6.45,5.7-7.62,9.16,1.74,9.16,1.74a170.75,170.75,0,0,0,1.57-17.47c.09-7.29,1.51-22.06,3-24.21s-.25-19.32,0-19.91,1.88-8.42-.26-11.09-4,3-3.29,4.9-1.57,5.81-2.91,6.88-8-1.27-13.26-4.72-6.67-11-9.79-13.65-6.09,3.35-9.61,5.89-5.57-2.17-6.77-4.93a13.47,13.47,0,0,1-.84-6.05s-4.21,2-3.67-1.2,1-4.87-2.27-7.05-7.87-3.31-11.55-7.93,13.86-4.45,19.45-7.09,21.6-9.65,23.17-10.18,15.74-2.8,15.74-2.8,6.06-6.79,12.9-9.62,15.26-1.61,23,2.07,4.91-.82,5.58-.79,4.55,3.6,4.55,3.6,2.56-3.12,3.25-3.08,1.38,1.69,3.69,2.82,13.24,3.08,13.24,3.08,4.58,0,5-.57,5.54-1.27,7.78-.62,3.62,3.69,4.21,3.92.9-.56,2.26-.49,4,3.16,6.67,5.79,3.15,3.06,1,3.35-7.6-.43-7.83.16,3,1.16,7.15,2.79,6.26.38,8.71-.05,8,1.27,12,2.61,3.7-2.44,3.72-3.11-4.77-3-7.88-4.44-.69-4.63,1.12-7.57,4.23-3.16,7.58-4.15,4.2-3.17,5.4-5.68a17.81,17.81,0,0,1,6.73-7.89c4.06-2.77,9.1.11,12.68.36s4.76,1.85,5.44,1.89,3.8-.36,5,.59.06,2.76-1.68,5.52.77,6.24,2.31,9.35,7.18-2,9.73-3.3,7.33-3.55,9.08-6.3-.28-5.14-.3-7.44,2.08-3.54,5.07-5.34.45,10,.8,10.83-3,10-3.29,10.83-7,5.06-10.59,7.79-12.38,15.32-15.56,20-12.22,10.81-15.11,9.46-6.6-1.89-6.83-1.29,2.39,2.07,3.92,4-4.72,3.9-8.16,5.07-2.66,6.29-4.63,13.06-.22,13-.25,18.89,4.6,25.81,4.6,25.81,1,10.46-1.34,17.56,2.93,10.06,2.93,10.06a15.35,15.35,0,0,0,4.87-4.29c1.69-2.54,10.5-7.57,10.5-7.57s1.76-3.89.76-7.25.75-4.28.91-5.82,11-.07,11.76-.24,2.11-1.91,1.62-4.17A36,36,0,0,1,1269,558c-.11-2.11,1.7-3.23,3.91-5.35s10.37.38,13.35.41.64-5.25-1.25-9.18-1-4-1.4-8.79,2.74-3.51,3.64-5.21,4.9,2.12,7.68,3.2,2.91-.46,2.62-2.63-3.51-3.89-4.65-6.84-2.51-5.32-.21-8.32,2-4.48,2.18-6.69-5.18-.88-5.18-.88-4.4-1-4.56-1.78a14.13,14.13,0,0,1-1-6.13,7.57,7.57,0,0,1,4.61-6c1.93-.85,2.78-8.31,2.69-9.24a9,9,0,0,1,.28-4.24c.62-1.59,4.19.95,4,.21s1.43-2,2.07-2.4,3,1.15,3,1.15l3.44-1.18s3.23-1.26,4.53-1.66,1.66,2.24,1.66,2.24l1.86,4.6a3.37,3.37,0,0,0,2.27-2.31c.52-1.85,3.66-4.06,4.5-5.1s6.5-.22,8.88-.44,5.2,7.75,5.2,7.75,4.41-.11,4.64-.71,3.38-2.82,4.68-3.21,8.38-10.93,10.76-13,12.27-9.17,13.17-9.74,3.41-4.63,4-5.07,10.64,3.23,13.55,3.45,6.44-.7,3.7-4.28-7.8-6.93-8.85-10.77S1373,430.08,1370,426s-.13-3.72,3.24-3.54,1.83-5.92,2.45-7.52-.85-3.08-1.44-5.13-4.07-3.64-4.92-6.72,2.8-.75,3.4-.51,4,.39,4.57-1.19,1.3-.41,4.74,1.38,1.13,5.25,1.31,6,7.1,2.29,7.22,1.42,5.71.63,6.31.86,1.95,1.45,3.43,4.08,9.7,7.43,10.13,8.06,9.94,3.87,11,2.44-1.49-7.91-1.49-7.91-6.91-6.35-7.42-6.78-.32-2.19,4.21-3.17,4.27-3.37,3.18-4.7a13.29,13.29,0,0,1-2.41-5.51c-.49-2.25-6.14-4.22-6.14-4.22s-.36-2.65-1.38-3.52-9.84-1.77-10.52-1.8-2.35,2.51-2,3.54-4.46,1.47-5,.56-.23-7.63,0-8.24-13.62-5.52-15.8-6.37-12.46-6.22-13.75-7.64a24.61,24.61,0,0,0-3.42-2.94,9.18,9.18,0,0,1-7.21-1.42c-3.39-2.46-8.16-3.18-15.9-5.05s-26.36-9.81-27.26-9.93-2.19,2.13-2.92,4.58-5,3.53-6.14,2.89-.2-4.2-2.64-6.76-4.17,3.64-6.58,6.36-9.85-4.06-10.46-4.3a98.57,98.57,0,0,0-11.62-1.31,4,4,0,0,1-4.18-3.93c0-2.29-3.18-4.2-5.62-6.76s-6.55-5.51-11.09-9.12-6.92-3.38-11-3.38-15.16.74-15.16.74-7.09-4.12-7.86-5.11-4.23-5.55-4.23-5.55-7.07-4.8-7-5.47,3-2.49,3.12-3.36-4.36-5.82-4.36-5.82l-21.66-8.43a15.83,15.83,0,0,1-5.26-4.1s-4.62-2.25-5.23-3.63,1.69-1.41,4.4-.13,4.2-.2,6.83-1.69-3.18-4.2-3.53-5-3.69-5.8-7.46-7.27-2.25,1.65-5.62,5.6.94,5.85.94,5.85-3.12,2.68-3.58,3.87-8.12,7.37-8.35,7.95-9.2-1.05-9.2-1.05-7-2-10-3.67-7.26-6-7.87-6.27-5.09,4.89-5.33,5.48-1.51,2.15-6.23-1.06-5.35-6.19-5.35-6.19-.67-8.27-.43-8.86,5.73-.07,5.73-.07-2-4.22-2.18-5,2.05-.57,4.37-2.41.59-5,.6-6.86-5.87-2.52-7.08-4.13-9.06-6.73-12.54-7.18-3.23,4.24-3.67,4.75-7.86-2.13-8.45-2.36-2.66-3.79-2.66-3.79l-6-2.31c-3.78-1.48,2.39-2,2.39-2l-6.23-6.33s-10.28-3.53-11.08-3.84,0-3.65,1.57-5.81a23.46,23.46,0,0,1,2.94-3.42,10.1,10.1,0,0,1-3.32-2.67c-1.93-2.12.41-1.67,3.3-2.61s4,.88,5.75,1.1,7.33-3.55,10.13-5.44,1.36-5.87-.13-7.36a28.46,28.46,0,0,0-5.72-4.05c-.81-.32-6.3-.85-6.3-.85a16.42,16.42,0,0,0,1.83-3c.46-1.19.66-5.22,1.17-5.95s3.15-2.21,3.25-3.07-7-5.48-7.51-5.9-7.25.37-7.25.37-7.25-.75-11.61,1-10-2.53-10.59-2.76-4.23-4.4-4.2-5.07-4.76-4.82-5.54-5.8-4.14,3.64-5.09,3.73-3.93-2.23-4.2-3.92-2.29-4.11-3.62-6-4.36,3.58-5.48,4.74-5.05-4.71-6-6.91-4.84-1.66-8.74-2.26-7.08,5.25-7.38,6.05-6-2.32-9.08-4.9-5.12-5.66-9.28-7.28-14.86,2.91-17.33,5.15-8,8.77-8.64,9.22-6.23-3.34-6.76-3.78,3.84-5.14,4.47-5.58a29.16,29.16,0,0,0,5.79-5.51c1.6-2.36,1.14-2.32,1-3.74s-1.64-2.25-2.43-2.55-6.7.14-9.71-.35a12.31,12.31,0,0,1-4.65-1.58,71.66,71.66,0,0,1,8.75-.72c2.7.14,9.51-2.69,10.28-2.85s1.7-2.09,0-2.31-8.29,2.51-11.13,2.77a36.19,36.19,0,0,1-9-1c-.6-.23-8.44-1.23-9-1.66s.54-1.39,2.81-3.7,10.06,0,16.11.32a19.16,19.16,0,0,0,11.38-3.34c.91-.56.57-3.22-4.13-5.28s-19.51.2-21.86-.27-12.48-3.71-15-4.24-18.48,3.32-21.83,4.31-9.76,7.41-9.76,7.41-3.26-3.32-2-4.69,4.47-5.57,6.59-7.5,4.65-6.66,5.43-7.49-.63-.71-2.53-2.36.26-2.42,2.08-3.54,8.57-1.47,8.61-2.13a15.47,15.47,0,0,1,.45-2.35s3.19-2.88,3.93-3,5.51-2.43,8.27-3.63,10.64-2,12.82-1.19,22.64,7.66,27.28,8.1,31.71,12.57,32.41,13.08,14,8,16.32,8.64,8.46-2.9,8.46-2.9-4.62-2.25-7.6-3.41S990,115.15,986,109.68s-14.31-5.57-23.12-7.63-37.93-11.78-46.27-11.61-16.87,11-17.11,11.65-4,5.07-4,5.07l-12.62,4.24s-6.35,3.91-7.14,3.61a14,14,0,0,1-3.55-4.35c-.18-.75,1.72-2.07,2-2.66s-5-3.58-4.92-4.43a2.63,2.63,0,0,0,0-1.16,14.64,14.64,0,0,1-5.9-4.82c-2.54-3.49,1.21-1.35,3.22-1.25s8.5,1.71,8.81.91-3.88-4.72-4.33-5.35-2.11-1.05-7.08-5.27S863,84.22,861.14,83s-4.58-1.78-7.85-5.11,2-1.51,6-1.79,11.58.18,12.69-.32,2.62-3.78,1.86-3.62a44.63,44.63,0,0,1-12.53-1.9A17.52,17.52,0,0,0,851,70.2c-.74.16-4.56,1.19-7.49,1.66s-1.83,0-2.9-.23-2.51-2.35-2.28-2.94,2.5-1.08,2.73-1.68S839,65.28,835.33,63s-3.92-2.23-3.92-2.23a68.41,68.41,0,0,0-7.92.35c-3.6.43-1.6-.62-3.35-2s4-.76,4.19-1.35,7.58-1.86,7.58-1.86l-4.57-1.78c-.61-.23-8.69,1.2-9.64,1.28s-3.21,1.73-4,1.43-3-2.78-2.56-4,3.6-.44,7.55-1.18,4.39-.12,7.23-.38,6.12-2.2,8.18-2.77,2.78,1.08,6.16,2.4a13.81,13.81,0,0,0,6.58.73c.68,0,7.85-2,8.86-2.74s3.74-.82,4.25-.4-1,1.92-2.31,3-7.45,3.27-12.39,3.63-3,2.28-3.57,5,2.08,1.72,7.68,3.22,7.76,0,13.16-.36,7.78,1.18,14.64,1.8,6.32,2,13.13,2.15,9.16.58,12.5-.41,9.52,1.42,10.35,1.06,7.46,2,10.88,2.64,8.33,1,10.6-.22.09-3.17-1.56-5.41-2.08-1.72-1.15-4.11-1.24-2.1-3.81-1.94a36.73,36.73,0,0,1-5-.12s-1.37-3.51-2-3.75S917,55.84,916,56.62s-11.88-1.21-12.62-1-3.77-3.29-3.77-3.29S906.8,51,907.49,51s3.65-1.78,6.21-3.07,4.49.83,6.82,1.29,4.88-1.33,6.48-1.37,6.32-1,7.48-2.14,3.39-1.65,5.93-2.27,1.24-5,.8-5.62,1-2.58,1.68-2.56,2.54-2.43,3.13-4.5-6.17-6.52-6.83-6.54-4.82,2.93-5.57,3.1-5.34-.94-5.94-1.18-13.62-7.35-14.12-7.77-6.38-2.49-8-3.1-1.85-3.47-1.85-3.47-.56-3.89-1.15-4.11-12.43-.95-16.11-1.47-30.08-1-31-.87-18.35,4.3-18.35,4.3L823.76,5.12,805.14,10l-9.54-.75-6.54,1.58L783,11l.12,3.24,1.06,1.34,7.57,0,7.83-1.3,5.78.43,7.15,4.6,4.07-.48s6.26-1.44,6.71-1.95,15.59,1,15.83.43,5.59,1.49,6.27,1.53,4.07-1.62,4.07-1.62,5.67,1.29,6.1,1.93a7.66,7.66,0,0,1,.78,3.27c0,.67,3,1.64,3,1.64l8.32,2.1,7.1-1.13s3.34,3.12,2.38,5-10.83,3.1-11.58,3.28-8.54-2.19-10.29-2.41-14.49-5.64-14.49-5.64-12.27-3.18-14.64-3-29.59,3.13-31.87,3.15-3.92,6.47-5.12,7.83-10.38,4.9-11,4.85-3.11-2.58-3.11-2.58,4.12-4.11,7.35-4.22,3-4.78,3-4.78L783,25.86s-7.1-2.31-7.79-2.35-7.28,4-7.28,4l-10,1.11,2.38-3.19L766.53,24l-9.27-.87L748.36,27l-11.77-4.28,16.13-2.26,5.66-6.63S713.78,21,670.66,33.08c-18.29,5.1-43.66,14.69-69.8,23.6-10.29,3.51-23.15,8-32.18,11.12-22,7.69-35.35,12.47-35.35,12.47l-12.14,11.6s37.78-16,39-16.84,11.43-4.69,19.76-3.74-10.84,9.06-16.29,10.13-16.49,5.93-18.31,7-2.22,6.92-2.22,6.92-.62,1.58-3.61,4.54-57.94,36-59.21,36.9-6.19-2.87.39-10.37c4-4.52,21.26-16.28,28.82-24.32a47.4,47.4,0,0,1,1.84-8.6l.36-.64A143.44,143.44,0,0,0,497,99.38c-5.1,2.85-38.39,19.22-40.21,21.57L455,123.29s-9.49,6.36-13.07,7.72-7.5,4.41-7.55,5.3,1.34,2.05,3.29,1,7.82-3.66,7.82-3.66l3,.24s.13,2.79-7,6.13a133.9,133.9,0,0,1-17.68,6.23s-26,17.35-30.13,17.87-16.14,6.22-16.14,6.22-9.09,5.31-9.66,6-37.64,29.28-39.34,32.88S318,218.84,318,218.84s-10.31,11.54-14.71,13.49-21.46,13.61-25,19.55-9,13.87-12.55,17.39-17.64,16.3-20.26,18.34-15.34,13.55-15.13,14.54-3.2,6.7-5.09,8.4-13.19,11.94-14.2,16.13-16.5,20.41-16.5,20.41A186.45,186.45,0,0,1,179.42,368c-7.72,8.89-15.71,17.68-17.22,20.75s-5.22,7.13-7.83,9.16-3.11,6.42-3.11,6.42l-2.61,2-3.45,4.16s-4.36,9.89-5.45,12.18-6,12.46-6,12.46a26.51,26.51,0,0,0-4.84,1.44c-1.25.68-3.38,6.68-6.44,9.56s-4,12.84-6.54,14.79-6.59,14.39-9.81,18.21-10.33,19.54-11.46,22.43l-3.88,10c-.2.5-3.93,7.05-5.49,9.56S74,549.5,74,549.5s1.71-1.88,3.22-3.23,5.59-14.37,6-15.4,8.83-13.71,11-16.35,3.47-7.41,7.15-10.86,7.58-8,9.57-12.05,4.75-10.23,8.5-12.86,4.63-6.38,7.63-9.1,3.24-5.77,3.63-6.79.94-3.92.62-4.62-2.68-1.62-3-2.15-.82-3.44-.91-6.2,4.73-11.6,5.73-12.2,2.67-5.39,3.65-6.36,4.33-8.64,4.44-9.39,4.46-9,6-10.34,2.59-1.13,2.59-1.13l-.21.54,4.13,7.41,2.95-1.28,5,7.44s3.49-3.53,5.33-5.86,5.44.9,6.5,1.32,1.14,8.06,3.17,5.19,2.76-3.19,2.76-3.19,3,4.19,6,2.64,2.24-3.41,2.24-3.41,7.21,3.42,10.3,1a43.16,43.16,0,0,0,6.49-7.24s3,1.78,3.54,1.08,7.89-3,15.62-8,16.84-26.06,20-34.92,8.63-19.83,14.82-23.21,5.41-9.17,5.41-9.17l-16.91,3.48s-1-2.84.69-10.41,5.56-8.8,9.71-12.38,12-12.74,12-12.74l-7.63,1.61a11.81,11.81,0,0,1,4.76-3.63c2.85-1,10.17-12.82,14.75-19.88s27.9-25.45,30.26-27.58,4,2.2,1.8,7.12-14,15.59-20.85,21.46-19.07,34.07-19.84,40.79c-.51,4.3,1.49,4.8,2.64,4.63-1.32,1.28-3.52,6.26-8.33,13.89-5.57,8.81-4.72,26.22-5.54,28.34s2.88,21.56,5.95,27,7.5,12.07,7.5,12.07-1.21.76-4.45,2.84-1,1.75-1.24,4.71.46,3.53-2.94,6.79-6.76,5.6-7.73,8.89.16,5.86-1.26,11.09-6.55,17.59-9.83,22.1-7.32,24.31-8.16,30.37,5.53,4.61,7,8.81c-8.51,10.12-11.05,15.83-21.47,30.08s-23.09,49.88-23.09,49.88S195.83,604.1,192,610s-6.54,19.1-10.15,26.86S166.19,681,163.3,688.45a19.92,19.92,0,0,0,2.35,19.82c4.11,5.87,10.61-2.87,12.76-4.48Zm3.55,22.67c-2.81,4.08-7.53,13.83-10.28,18.57s-3.88,20.14-2.55,26.15,13.45-.87,18.18-9.1,6.35-37.48,7.6-44.62L190.64,698s-3.92,8.87-3.76,11.54a5.19,5.19,0,0,1-2.24,4.73c-.79.49-4.15.38-4.15.38ZM509.22,150.6c-3.43,2.42-25.14,19.74-27.77,23.29s-3.8,9.76-5.31,10.43-15,0-19.38,4.92-11.29.17-18.26,9.52-18.36,21.55-26,24S400,226.17,399,224.53s-1.31-8.41,0-9.57,9.29-14.26,12.94-18.26,15.2-12.37,20.45-14.06,15.09-.37,15.09-.37,4.54.1,7-3.08,3.9-6.81,14.05-13.66,19.76-10.19,25.91-13.19a24.78,24.78,0,0,0,9.36-8C511,145.92,512.66,148.21,509.22,150.6ZM758.11,375.34l-8,2.86s1.6-5.34,2.88-6.21,7-5.06,7-5.06l3.16,7.19Zm86.38,14.41c-5.55,2.42-16.23,2.84-21.52,3.53s-13.06-.51-14.33.36-10.73,4.05-11.9,3.59-10.15-8.05-10.15-8.05.26-5.39,5.27-3,8.12,2.71,13.65,2.57,14.26,1,20.66-.2,10.36-1.91,15.64-4.89,15-7.89,18.43-9.74,8.53-3.1,9.72-2.64.14,7.84.14,7.84C863.17,382.84,850,387.32,844.49,389.75Z" transform="translate(2.98 13.09)" fill="#fff"/></g><g opacity="0.2"><circle cx="904.05" cy="904.05" r="903.25" transform="translate(-371.49 917.14) rotate(-45)" fill="none" stroke="#fff" stroke-miterlimit="10" stroke-width="1.13"/><g clip-path="url(#clip-path)"><path d="M1666.61,417.4c52.71,79,70.79,157,43.61,221.94-67.32,160.85-386.82,180.38-713.63,43.6S459.42,304.9,526.73,144C551.89,83.94,612.25,43.57,695,23.71" transform="translate(2.98 13.09)" fill="none" stroke="#fff" stroke-miterlimit="10" stroke-width="1.13"/><ellipse cx="1198.11" cy="201.41" rx="124.19" ry="233.13" transform="translate(552.76 1241.97) rotate(-67.29)" fill="none" stroke="#fff" stroke-miterlimit="10" stroke-width="1.13"/><path d="M1524.12,243.09c59.34,71.14,83.43,145.42,58.17,205.8C1532,569,1305.45,588.59,1076.22,492.66s-374.3-271.07-324-391.17C777.86,40.14,849.54,5,944.09-1.89" transform="translate(2.98 13.09)" fill="none" stroke="#fff" stroke-miterlimit="10" stroke-width="1.13"/><path d="M1789.89,723.83c11,46.48,9,90.64-7.63,130.48-80.33,192-472.11,210.85-875.06,42.22S242.72,435.58,323.05,243.62c15.22-36.35,41.6-66.5,77.12-90.34" transform="translate(2.98 13.09)" fill="none" stroke="#fff" stroke-miterlimit="10" stroke-width="1.13"/><path d="M1802.13,1049.3c-117.57,220.46-551,253.55-988.38,70.52C376.65,936.89,96,605.17,170.11,366.72" transform="translate(2.98 13.09)" fill="none" stroke="#fff" stroke-miterlimit="10" stroke-width="1.13"/><path d="M1750.5,1230.06c-100.3,239.67-556.08,277.25-1018,83.93S-22.59,769.66,77.71,530" transform="translate(2.98 13.09)" fill="none" stroke="#fff" stroke-miterlimit="10" stroke-width="1.13"/><path d="M1579,1509c-190.59,135.22-556,136.49-921.26-16.36C285.79,1337,27.52,1068.93-2.42,835.21" transform="translate(2.98 13.09)" fill="none" stroke="#fff" stroke-miterlimit="10" stroke-width="1.13"/><path d="M1410.73,1656.54c-207.14,96.77-510.95,92.54-808.26-31.88C298.26,1497.34,78.9,1276.84,7.34,1056.32" transform="translate(2.98 13.09)" fill="none" stroke="#fff" stroke-miterlimit="10" stroke-width="1.13"/><path d="M1014.28,1805.33c-141.23-3.52-294.43-35.71-445.94-99.12-158.63-66.39-294.19-158.12-397.75-262" transform="translate(2.98 13.09)" fill="none" stroke="#fff" stroke-miterlimit="10" stroke-width="1.13"/><line x1="1262.46" y1="67.91" x2="549.07" y2="1772.53" fill="none" stroke="#fff" stroke-miterlimit="10" stroke-width="1.13"/><path d="M1034,6.09c29.45,16.89,123,83.77,172.64,174.93,181.18,333.09,90.2,981.26-30.28,1251.42C1071.77,1667,977.59,1790.2,804.2,1803.77" transform="translate(2.98 13.09)" fill="none" stroke="#fff" stroke-miterlimit="10" stroke-width="1.13"/><path d="M1161.33,26.29c19.93,46.77,37.75,96.29,45.32,154.73,48.57,375.2-139,954.52-251.31,1212.54C842.6,1652.44,773.51,1754.42,648,1795.43" transform="translate(2.98 13.09)" fill="none" stroke="#fff" stroke-miterlimit="10" stroke-width="1.13"/><path d="M1348.7,104.7c-47.31,18.64-95.09,40.7-142,76.33C905.34,409.79,624.33,950,519.43,1211.13c-105.25,262-129.4,382.8-70.49,501" transform="translate(2.98 13.09)" fill="none" stroke="#fff" stroke-miterlimit="10" stroke-width="1.13"/><path d="M869.54-12.54C1000.45,24.27,1127,76.82,1206.65,181c325.82,426.33,295.2,986.63,172.35,1255.22-106.66,233.17-242.59,334.3-379.47,375.13" transform="translate(2.98 13.09)" fill="none" stroke="#fff" stroke-miterlimit="10" stroke-width="1.13"/><path d="M685.94,19.29c236-5.64,406.85,64.5,520.71,161.73,469.62,401,439.61,979.17,338.19,1224.23-93.5,226-272.13,349.89-427.51,378.41" transform="translate(2.98 13.09)" fill="none" stroke="#fff" stroke-miterlimit="10" stroke-width="1.13"/><path d="M411.62,133c362-145.4,662.27-37.46,795.53,48.28,583.35,375.34,560.57,912.28,458,1164.26-52.71,129.45-147.2,241.08-248.67,314.89" transform="translate(2.98 13.09)" fill="none" stroke="#fff" stroke-miterlimit="10" stroke-width="1.13"/><path d="M1206.65,181c34.46,14.91,251.25,125.88,374.95,268.15,127.07,146.17,191.7,310.69,207.19,449.51a1302.09,1302.09,0,0,1,6.39,199.69" transform="translate(2.98 13.09)" fill="none" stroke="#fff" stroke-miterlimit="10" stroke-width="1.13"/><path d="M1452.45,181.21c-32.69-9.12-146-28.85-245.77-.18C842.25,285.78,444.45,805.54,336.59,1081c-93.63,239.12-115.29,392.7-3.25,525.73" transform="translate(2.98 13.09)" fill="none" stroke="#fff" stroke-miterlimit="10" stroke-width="1.13"/><path d="M1581.17,285.28c-118.11-67.4-244.38-120.67-374.49-104.25-532.36,67.17-909.94,482.27-1015,758.3-91.22,239.63-67.83,407.43-.84,533.59" transform="translate(2.98 13.09)" fill="none" stroke="#fff" stroke-miterlimit="10" stroke-width="1.13"/><path d="M1687.36,438.39c-161.6-172-331.51-244.51-480.68-257.36C591.39,128,200.68,555.21,97.32,799.45c-95.3,225.2-58.2,439.42,30.55,570.11" transform="translate(2.98 13.09)" fill="none" stroke="#fff" stroke-miterlimit="10" stroke-width="1.13"/><path d="M1799,713.55c-150.56-359.92-438.18-498-592.78-532.73-676.8-152-1043.26,241.08-1150.72,491C.26,800.25-12.92,945.9,5.73,1070" transform="translate(2.98 13.09)" fill="none" stroke="#fff" stroke-miterlimit="10" stroke-width="1.13"/><path d="M1206.68,181c-34.81-14.08-266-90.6-454.18-78.84-193.3,12.08-355.85,81.53-465.6,167.94A1300.8,1300.8,0,0,0,140.19,405.75" transform="translate(2.98 13.09)" fill="none" stroke="#fff" stroke-miterlimit="10" stroke-width="1.13"/></g><circle id="SVGID-2" data-name="SVGID" cx="904.05" cy="904.05" r="903.25" transform="translate(-371.49 917.14) rotate(-45)" fill="none" stroke="#fff" stroke-miterlimit="10" stroke-width="1.13"/></g></g></g></svg>