<?xml version="1.0" encoding="UTF-8"?><svg id="_層_2" xmlns="http://www.w3.org/2000/svg" viewBox="0 0 15 15"><g id="header_footer"><path d="M7.5,0C3.36,0,0,3.36,0,7.5s3.36,7.5,7.5,7.5,7.5-3.36,7.5-7.5S11.64,0,7.5,0Zm3.42,7.28h-3.2v-2.54c.96-.01,1.92-.12,2.86-.32,.2,.87,.33,1.84,.34,2.86Zm-6.84,.44h3.2v2.54c-.96,.01-1.92,.12-2.86,.32-.2-.87-.33-1.84-.34-2.86Zm.34-3.3c.94,.2,1.9,.31,2.86,.32v2.54h-3.2c.02-1.02,.14-1.99,.34-2.86Zm3.3,3.3h3.2c-.02,1.02-.14,1.99-.34,2.86-.94-.2-1.9-.31-2.86-.32v-2.54Zm6.84-.44h-3.2c-.01-1.06-.14-2.06-.35-2.96,.8-.19,1.58-.45,2.34-.78,.73,1.07,1.17,2.35,1.21,3.73Zm-1.47-4.1c-.71,.3-1.44,.54-2.18,.72-.4-1.47-1.05-2.63-1.85-3.29,1.63,.37,3.04,1.3,4.03,2.57Zm-2.61,.82c-.91,.19-1.83,.29-2.75,.31V.45c1.18,.15,2.19,1.54,2.75,3.54ZM7.28,.45v3.85c-.92-.01-1.84-.12-2.75-.31C5.09,2,6.1,.61,7.28,.45Zm-1.33,.16c-.79,.66-1.44,1.82-1.85,3.29-.74-.18-1.47-.42-2.18-.72C2.91,1.91,4.32,.98,5.95,.61ZM1.65,3.55c.76,.33,1.54,.59,2.34,.78-.21,.9-.33,1.9-.35,2.96H.44c.04-1.38,.48-2.66,1.21-3.73Zm1.99,4.17c.01,1.06,.14,2.06,.35,2.96-.8,.19-1.58,.45-2.34,.78-.73-1.07-1.17-2.35-1.21-3.73H3.64Zm-1.73,4.1c.71-.3,1.44-.54,2.18-.72,.4,1.47,1.05,2.63,1.85,3.29-1.63-.37-3.04-1.3-4.03-2.57Zm2.61-.82c.91-.19,1.83-.29,2.75-.31v3.85c-1.18-.15-2.19-1.54-2.75-3.54Zm3.19,3.54v-3.85c.92,.01,1.84,.12,2.75,.31-.56,2-1.57,3.39-2.75,3.54Zm1.33-.16c.79-.66,1.44-1.82,1.85-3.29,.74,.18,1.47,.42,2.18,.72-.99,1.28-2.4,2.2-4.03,2.57Zm4.29-2.94c-.76-.33-1.54-.59-2.34-.78,.21-.9,.33-1.9,.35-2.96h3.2c-.04,1.38-.48,2.66-1.21,3.73Z" fill="#7A7A7A"/></g></svg>