<?xml version="1.0" encoding="UTF-8"?>
<svg id="_圖層_2" data-name="圖層 2" xmlns="http://www.w3.org/2000/svg" viewBox="0 0 153.48 51.82">
  <defs>
    <style>
      .cls-1 {
        fill: none;
        stroke: #fff;
        stroke-linecap: round;
        stroke-linejoin: round;
        stroke-width: .78px;
      }

      .cls-2 {
        fill: #fff;
        stroke-width: 0px;
      }
    </style>
  </defs>
  <g id="BG">
    <g>
      <path class="cls-1" d="M153.08,11.17c0-.39,0-.78,0-1.17-.03-.86-.08-1.71-.24-2.56-.14-.86-.4-1.65-.79-2.43-.39-.77-.9-1.46-1.51-2.07-.6-.61-1.3-1.11-2.06-1.5-.78-.4-1.58-.65-2.44-.8-.84-.15-1.7-.2-2.55-.23-.39,0-.79-.01-1.18-.02-.46,0-.93,0-1.38,0H12.56c-.47,0-.93,0-1.4,0-.39,0-.78.01-1.17.02-.85.02-1.71.07-2.56.23-.86.15-1.65.4-2.43.8-.76.39-1.46.9-2.07,1.5-.61.61-1.12,1.3-1.5,2.07-.4.78-.65,1.57-.8,2.43-.15.84-.21,1.7-.23,2.56-.01.39-.01.78-.02,1.17v29.49c0,.4,0,.78.02,1.18.02.85.07,1.71.23,2.56.15.85.4,1.65.8,2.43.39.76.89,1.46,1.5,2.06.6.61,1.3,1.12,2.07,1.5.78.4,1.57.65,2.43.8.85.15,1.71.2,2.56.23.4,0,.78.01,1.17.01.47,0,.93,0,1.4,0h128.37c.46,0,.93,0,1.38,0,.39,0,.79,0,1.18-.01.85-.02,1.71-.07,2.55-.23.85-.15,1.65-.4,2.44-.8.76-.39,1.46-.9,2.06-1.5.61-.6,1.11-1.3,1.51-2.06.39-.77.65-1.58.79-2.43.16-.84.21-1.7.24-2.56,0-.4,0-.78,0-1.18,0-.46,0-.92,0-1.39V12.56c0-.47,0-.93,0-1.39"/>
      <path class="cls-2" d="M32.29,25.77c-.03-3.65,2.99-5.42,3.13-5.51-1.71-2.5-4.36-2.84-5.3-2.86-2.23-.23-4.39,1.34-5.52,1.34s-2.91-1.31-4.79-1.27c-2.42.04-4.69,1.44-5.94,3.62-2.57,4.44-.65,10.97,1.81,14.56,1.23,1.76,2.67,3.73,4.55,3.65,1.84-.07,2.53-1.17,4.75-1.17s2.85,1.17,4.77,1.13c1.97-.03,3.22-1.77,4.41-3.54,1.42-2.02,1.99-4,2.02-4.1-.05-.02-3.84-1.46-3.87-5.84"/>
      <path class="cls-2" d="M28.66,15.03c.99-1.24,1.67-2.92,1.48-4.63-1.43.07-3.23.99-4.26,2.2-.91,1.07-1.73,2.82-1.52,4.46,1.61.12,3.26-.81,4.29-2.03"/>
      <path class="cls-2" d="M54.37,35.02h-6.04l-1.45,4.28h-2.56l5.72-15.85h2.66l5.72,15.85h-2.6l-1.45-4.28ZM48.96,33.05h4.79l-2.36-6.95h-.07l-2.36,6.95Z"/>
      <path class="cls-2" d="M70.78,33.53c0,3.59-1.92,5.9-4.82,5.9-1.65,0-2.95-.74-3.64-2.02h-.05v5.72h-2.37v-15.38h2.3v1.92h.04c.66-1.24,2.06-2.04,3.68-2.04,2.93,0,4.87,2.32,4.87,5.9M68.34,33.53c0-2.34-1.21-3.88-3.05-3.88s-3.03,1.57-3.03,3.88,1.22,3.89,3.03,3.89,3.05-1.53,3.05-3.89"/>
      <path class="cls-2" d="M83.5,33.53c0,3.59-1.92,5.9-4.82,5.9-1.65,0-2.95-.74-3.64-2.02h-.05v5.72h-2.37v-15.38h2.3v1.92h.04c.66-1.24,2.06-2.04,3.68-2.04,2.93,0,4.87,2.32,4.87,5.9M81.06,33.53c0-2.34-1.21-3.88-3.05-3.88s-3.03,1.57-3.03,3.88,1.22,3.89,3.03,3.89,3.05-1.53,3.05-3.89"/>
      <path class="cls-2" d="M91.9,34.89c.18,1.57,1.7,2.6,3.79,2.6s3.44-1.03,3.44-2.45c0-1.23-.87-1.97-2.92-2.47l-2.05-.49c-2.91-.7-4.26-2.06-4.26-4.27,0-2.74,2.38-4.61,5.77-4.61s5.65,1.88,5.72,4.61h-2.39c-.14-1.58-1.45-2.54-3.36-2.54s-3.22.97-3.22,2.37c0,1.12.83,1.78,2.88,2.29l1.75.43c3.25.77,4.6,2.07,4.6,4.39,0,2.96-2.36,4.82-6.12,4.82-3.52,0-5.89-1.81-6.04-4.68h2.43Z"/>
      <path class="cls-2" d="M106.75,25.02v2.74h2.2v1.88h-2.2v6.37c0,.99.44,1.45,1.41,1.45.24,0,.63-.04.78-.06v1.87c-.26.07-.79.11-1.32.11-2.34,0-3.25-.88-3.25-3.12v-6.62h-1.68v-1.88h1.68v-2.74h2.38Z"/>
      <path class="cls-2" d="M110.22,33.53c0-3.63,2.14-5.92,5.48-5.92s5.48,2.29,5.48,5.92-2.12,5.92-5.48,5.92-5.48-2.27-5.48-5.92M118.76,33.53c0-2.49-1.14-3.97-3.06-3.97s-3.07,1.48-3.07,3.97,1.14,3.96,3.07,3.96,3.06-1.46,3.06-3.96"/>
      <path class="cls-2" d="M123.13,27.75h2.26v1.97h.05c.36-1.31,1.42-2.09,2.78-2.09.34,0,.63.05.81.09v2.22c-.19-.08-.6-.14-1.06-.14-1.53,0-2.47,1.03-2.47,2.66v6.85h-2.37v-11.55Z"/>
      <path class="cls-2" d="M139.97,35.91c-.32,2.1-2.36,3.54-4.97,3.54-3.36,0-5.45-2.25-5.45-5.87s2.1-5.97,5.34-5.97,5.21,2.2,5.21,5.7v.81h-8.16v.14c0,1.98,1.24,3.27,3.11,3.27,1.32,0,2.35-.62,2.67-1.62h2.25ZM131.96,32.47h5.78c-.05-1.77-1.19-2.93-2.84-2.93s-2.82,1.19-2.94,2.93"/>
      <path class="cls-2" d="M48.66,11.53c2.26,0,3.58,1.39,3.58,3.78s-1.31,3.83-3.58,3.83h-2.75v-7.62h2.75ZM47.09,18.07h1.43c1.59,0,2.51-.99,2.51-2.74s-.94-2.72-2.51-2.72h-1.43v5.46Z"/>
      <path class="cls-2" d="M53.58,16.27c0-1.85,1.03-2.98,2.71-2.98s2.71,1.13,2.71,2.98-1.03,2.99-2.71,2.99-2.71-1.13-2.71-2.99M57.83,16.27c0-1.25-.56-1.97-1.54-1.97s-1.54.73-1.54,1.97.55,1.98,1.54,1.98,1.54-.73,1.54-1.98"/>
      <polygon class="cls-2" points="66.2 19.15 65.03 19.15 63.84 14.91 63.75 14.91 62.57 19.15 61.4 19.15 59.82 13.4 60.97 13.4 62 17.78 62.08 17.78 63.26 13.4 64.35 13.4 65.53 17.78 65.62 17.78 66.65 13.4 67.78 13.4 66.2 19.15"/>
      <path class="cls-2" d="M69.11,13.4h1.09v.91h.09c.28-.64.85-1.02,1.71-1.02,1.28,0,1.99.77,1.99,2.13v3.72h-1.13v-3.44c0-.92-.4-1.38-1.24-1.38s-1.37.56-1.37,1.46v3.36h-1.13v-5.75Z"/>
      <rect class="cls-2" x="75.8" y="11.16" width="1.13" height="7.99"/>
      <path class="cls-2" d="M78.51,16.27c0-1.85,1.03-2.98,2.71-2.98s2.71,1.13,2.71,2.98-1.03,2.99-2.71,2.99-2.71-1.13-2.71-2.99M82.76,16.27c0-1.25-.56-1.97-1.54-1.97s-1.54.73-1.54,1.97.55,1.98,1.54,1.98,1.54-.73,1.54-1.98"/>
      <path class="cls-2" d="M85.13,17.52c0-1.03.77-1.63,2.14-1.72l1.56-.09v-.5c0-.61-.4-.95-1.18-.95-.63,0-1.07.23-1.2.64h-1.1c.12-.99,1.04-1.62,2.35-1.62,1.44,0,2.25.72,2.25,1.93v3.93h-1.09v-.81h-.09c-.34.58-.97.9-1.73.9-1.11,0-1.91-.67-1.91-1.72M88.82,17.03v-.48l-1.41.09c-.79.05-1.15.32-1.15.83s.45.82,1.06.82c.86,0,1.49-.55,1.49-1.26"/>
      <path class="cls-2" d="M91.44,16.27c0-1.82.94-2.96,2.39-2.96.78,0,1.45.37,1.76,1.01h.09v-3.16h1.13v7.99h-1.09v-.91h-.09c-.34.63-1.01,1-1.8,1-1.46,0-2.39-1.15-2.39-2.97M92.61,16.27c0,1.22.57,1.95,1.54,1.95s1.55-.74,1.55-1.95-.6-1.95-1.55-1.95-1.54.74-1.54,1.95"/>
      <path class="cls-2" d="M101.49,16.27c0-1.85,1.03-2.98,2.71-2.98s2.71,1.13,2.71,2.98-1.03,2.99-2.71,2.99-2.71-1.13-2.71-2.99M105.75,16.27c0-1.25-.56-1.97-1.54-1.97s-1.54.73-1.54,1.97.55,1.98,1.54,1.98,1.54-.73,1.54-1.98"/>
      <path class="cls-2" d="M108.44,13.4h1.09v.91h.09c.28-.64.85-1.02,1.71-1.02,1.28,0,1.99.77,1.99,2.13v3.72h-1.13v-3.44c0-.92-.4-1.38-1.24-1.38s-1.37.56-1.37,1.46v3.36h-1.13v-5.75Z"/>
      <path class="cls-2" d="M119.72,11.97v1.46h1.24v.95h-1.24v2.95c0,.6.25.87.81.87.17,0,.27,0,.43-.03v.95c-.18.03-.4.06-.62.06-1.26,0-1.76-.44-1.76-1.55v-3.25h-.91v-.95h.91v-1.46h1.13Z"/>
      <path class="cls-2" d="M122.52,11.16h1.12v3.16h.09c.28-.64.89-1.03,1.75-1.03,1.22,0,1.98.77,1.98,2.14v3.71h-1.13v-3.43c0-.92-.43-1.38-1.23-1.38-.93,0-1.45.59-1.45,1.46v3.36h-1.13v-7.99Z"/>
      <path class="cls-2" d="M134.08,17.59c-.26,1.03-1.18,1.66-2.49,1.66-1.65,0-2.65-1.13-2.65-2.97s1.03-3,2.65-3,2.56,1.09,2.56,2.9v.4h-4.06v.06c.04,1.01.62,1.65,1.53,1.65.68,0,1.15-.25,1.37-.7h1.09ZM130.09,15.74h2.9c-.03-.9-.57-1.49-1.41-1.49s-1.43.59-1.49,1.49"/>
    </g>
  </g>
</svg>