<?xml version="1.0" encoding="UTF-8"?>
<svg id="_圖層_2" data-name="圖層 2" xmlns="http://www.w3.org/2000/svg" viewBox="0 0 115 115">
  <defs>
    <style>
      .cls-1 {
        fill: none;
      }

      .cls-1, .cls-2, .cls-3, .cls-4 {
        stroke-width: 0px;
      }

      .cls-2 {
        fill: #d72a17;
      }

      .cls-3 {
        fill: #000;
      }

      .cls-4 {
        fill: #fff;
      }
    </style>
  </defs>
  <g id="BG">
    <g>
      <g>
        <rect class="cls-4" width="115" height="115"/>
        <g>
          <rect class="cls-3" x="52.27" y="6.97" width="3.48" height="3.48"/>
          <rect class="cls-3" x="55.76" y="6.97" width="3.48" height="3.48"/>
          <rect class="cls-3" x="59.24" y="6.97" width="3.48" height="3.48"/>
          <rect class="cls-3" x="69.7" y="6.97" width="3.48" height="3.48"/>
          <rect class="cls-3" x="34.85" y="10.45" width="3.48" height="3.48"/>
          <rect class="cls-3" x="45.3" y="10.45" width="3.48" height="3.48"/>
          <rect class="cls-3" x="59.24" y="10.45" width="3.48" height="3.48"/>
          <rect class="cls-3" x="66.21" y="10.45" width="3.48" height="3.48"/>
          <rect class="cls-3" x="76.67" y="10.45" width="3.48" height="3.48"/>
          <rect class="cls-3" x="34.85" y="13.94" width="3.48" height="3.48"/>
          <rect class="cls-3" x="38.33" y="13.94" width="3.48" height="3.48"/>
          <rect class="cls-3" x="41.82" y="13.94" width="3.48" height="3.48"/>
          <rect class="cls-3" x="48.79" y="13.94" width="3.48" height="3.48"/>
          <rect class="cls-3" x="55.76" y="13.94" width="3.48" height="3.48"/>
          <rect class="cls-3" x="62.73" y="13.94" width="3.48" height="3.48"/>
          <rect class="cls-3" x="73.18" y="13.94" width="3.48" height="3.48"/>
          <rect class="cls-3" x="34.85" y="17.42" width="3.48" height="3.48"/>
          <rect class="cls-3" x="41.82" y="17.42" width="3.48" height="3.48"/>
          <rect class="cls-3" x="55.76" y="17.42" width="3.48" height="3.48"/>
          <rect class="cls-3" x="59.24" y="17.42" width="3.48" height="3.48"/>
          <rect class="cls-3" x="66.21" y="17.42" width="3.48" height="3.48"/>
          <rect class="cls-3" x="76.67" y="17.42" width="3.48" height="3.48"/>
          <rect class="cls-3" x="38.33" y="20.91" width="3.48" height="3.48"/>
          <rect class="cls-3" x="41.82" y="20.91" width="3.48" height="3.48"/>
          <rect class="cls-3" x="45.3" y="20.91" width="3.48" height="3.48"/>
          <rect class="cls-3" x="48.79" y="20.91" width="3.48" height="3.48"/>
          <rect class="cls-3" x="52.27" y="20.91" width="3.48" height="3.48"/>
          <rect class="cls-3" x="55.76" y="20.91" width="3.48" height="3.48"/>
          <rect class="cls-3" x="59.24" y="20.91" width="3.48" height="3.48"/>
          <rect class="cls-3" x="66.21" y="20.91" width="3.48" height="3.48"/>
          <rect class="cls-3" x="69.7" y="20.91" width="3.48" height="3.48"/>
          <rect class="cls-3" x="73.18" y="20.91" width="3.48" height="3.48"/>
          <rect class="cls-3" x="76.67" y="20.91" width="3.48" height="3.48"/>
          <rect class="cls-3" x="41.82" y="24.39" width="3.48" height="3.48"/>
          <rect class="cls-3" x="52.27" y="24.39" width="3.48" height="3.48"/>
          <rect class="cls-3" x="55.76" y="24.39" width="3.48" height="3.48"/>
          <rect class="cls-3" x="62.73" y="24.39" width="3.48" height="3.48"/>
          <rect class="cls-3" x="34.85" y="27.88" width="3.48" height="3.48"/>
          <rect class="cls-3" x="41.82" y="27.88" width="3.48" height="3.48"/>
          <rect class="cls-3" x="48.79" y="27.88" width="3.48" height="3.48"/>
          <rect class="cls-3" x="55.76" y="27.88" width="3.48" height="3.48"/>
          <rect class="cls-3" x="62.73" y="27.88" width="3.48" height="3.48"/>
          <rect class="cls-3" x="69.7" y="27.88" width="3.48" height="3.48"/>
          <rect class="cls-3" x="76.67" y="27.88" width="3.48" height="3.48"/>
          <rect class="cls-3" x="34.85" y="31.36" width="3.48" height="3.48"/>
          <rect class="cls-3" x="52.27" y="31.36" width="3.48" height="3.48"/>
          <rect class="cls-3" x="73.18" y="31.36" width="3.48" height="3.48"/>
          <rect class="cls-3" x="76.67" y="31.36" width="3.48" height="3.48"/>
          <rect class="cls-3" x="6.97" y="34.85" width="3.48" height="3.48"/>
          <rect class="cls-3" x="27.88" y="34.85" width="3.48" height="3.48"/>
          <rect class="cls-3" x="34.85" y="34.85" width="3.48" height="3.48"/>
          <rect class="cls-3" x="38.33" y="34.85" width="3.48" height="3.48"/>
          <rect class="cls-3" x="48.79" y="34.85" width="3.48" height="3.48"/>
          <rect class="cls-3" x="55.76" y="34.85" width="3.48" height="3.48"/>
          <rect class="cls-3" x="59.24" y="34.85" width="3.48" height="3.48"/>
          <rect class="cls-3" x="66.21" y="34.85" width="3.48" height="3.48"/>
          <rect class="cls-3" x="69.7" y="34.85" width="3.48" height="3.48"/>
          <rect class="cls-3" x="73.18" y="34.85" width="3.48" height="3.48"/>
          <rect class="cls-3" x="80.15" y="34.85" width="3.48" height="3.48"/>
          <rect class="cls-3" x="83.64" y="34.85" width="3.48" height="3.48"/>
          <rect class="cls-3" x="94.09" y="34.85" width="3.48" height="3.48"/>
          <rect class="cls-3" x="97.58" y="34.85" width="3.48" height="3.48"/>
          <rect class="cls-3" x="101.06" y="34.85" width="3.48" height="3.48"/>
          <rect class="cls-3" x="10.45" y="38.33" width="3.48" height="3.48"/>
          <rect class="cls-3" x="20.91" y="38.33" width="3.48" height="3.48"/>
          <rect class="cls-3" x="34.85" y="38.33" width="3.48" height="3.48"/>
          <rect class="cls-3" x="38.33" y="38.33" width="3.48" height="3.48"/>
          <rect class="cls-3" x="41.82" y="38.33" width="3.48" height="3.48"/>
          <rect class="cls-3" x="45.3" y="38.33" width="3.48" height="3.48"/>
          <rect class="cls-3" x="48.79" y="38.33" width="3.48" height="3.48"/>
          <rect class="cls-3" x="55.76" y="38.33" width="3.48" height="3.48"/>
          <rect class="cls-3" x="66.21" y="38.33" width="3.48" height="3.48"/>
          <rect class="cls-3" x="69.7" y="38.33" width="3.48" height="3.48"/>
          <rect class="cls-3" x="73.18" y="38.33" width="3.48" height="3.48"/>
          <rect class="cls-3" x="76.67" y="38.33" width="3.48" height="3.48"/>
          <rect class="cls-3" x="90.61" y="38.33" width="3.48" height="3.48"/>
          <rect class="cls-3" x="97.58" y="38.33" width="3.48" height="3.48"/>
          <rect class="cls-3" x="101.06" y="38.33" width="3.48" height="3.48"/>
          <rect class="cls-3" x="6.97" y="41.82" width="3.48" height="3.48"/>
          <rect class="cls-3" x="13.94" y="41.82" width="3.48" height="3.48"/>
          <rect class="cls-3" x="24.39" y="41.82" width="3.48" height="3.48"/>
          <rect class="cls-3" x="27.88" y="41.82" width="3.48" height="3.48"/>
          <rect class="cls-3" x="34.85" y="41.82" width="3.48" height="3.48"/>
          <rect class="cls-3" x="41.82" y="41.82" width="3.48" height="3.48"/>
          <rect class="cls-3" x="48.79" y="41.82" width="3.48" height="3.48"/>
          <rect class="cls-3" x="66.21" y="41.82" width="3.48" height="3.48"/>
          <rect class="cls-3" x="76.67" y="41.82" width="3.48" height="3.48"/>
          <rect class="cls-3" x="83.64" y="41.82" width="3.48" height="3.48"/>
          <rect class="cls-3" x="87.12" y="41.82" width="3.48" height="3.48"/>
          <rect class="cls-3" x="90.61" y="41.82" width="3.48" height="3.48"/>
          <rect class="cls-3" x="6.97" y="45.3" width="3.48" height="3.48"/>
          <rect class="cls-3" x="10.45" y="45.3" width="3.48" height="3.48"/>
          <rect class="cls-3" x="17.42" y="45.3" width="3.48" height="3.48"/>
          <rect class="cls-3" x="24.39" y="45.3" width="3.48" height="3.48"/>
          <rect class="cls-3" x="31.36" y="45.3" width="3.48" height="3.48"/>
          <rect class="cls-3" x="34.85" y="45.3" width="3.48" height="3.48"/>
          <rect class="cls-3" x="45.3" y="45.3" width="3.48" height="3.48"/>
          <rect class="cls-3" x="55.76" y="45.3" width="3.48" height="3.48"/>
          <rect class="cls-3" x="59.24" y="45.3" width="3.48" height="3.48"/>
          <rect class="cls-3" x="62.73" y="45.3" width="3.48" height="3.48"/>
          <rect class="cls-3" x="73.18" y="45.3" width="3.48" height="3.48"/>
          <rect class="cls-3" x="83.64" y="45.3" width="3.48" height="3.48"/>
          <rect class="cls-3" x="94.09" y="45.3" width="3.48" height="3.48"/>
          <rect class="cls-3" x="6.97" y="48.79" width="3.48" height="3.48"/>
          <rect class="cls-3" x="10.45" y="48.79" width="3.48" height="3.48"/>
          <rect class="cls-3" x="20.91" y="48.79" width="3.48" height="3.48"/>
          <rect class="cls-3" x="24.39" y="48.79" width="3.48" height="3.48"/>
          <rect class="cls-3" x="27.88" y="48.79" width="3.48" height="3.48"/>
          <rect class="cls-3" x="38.33" y="48.79" width="3.48" height="3.48"/>
          <rect class="cls-3" x="45.3" y="48.79" width="3.48" height="3.48"/>
          <rect class="cls-3" x="48.79" y="48.79" width="3.48" height="3.48"/>
          <rect class="cls-3" x="52.27" y="48.79" width="3.48" height="3.48"/>
          <rect class="cls-3" x="55.76" y="48.79" width="3.48" height="3.48"/>
          <rect class="cls-3" x="73.18" y="48.79" width="3.48" height="3.48"/>
          <rect class="cls-3" x="76.67" y="48.79" width="3.48" height="3.48"/>
          <rect class="cls-3" x="83.64" y="48.79" width="3.48" height="3.48"/>
          <rect class="cls-3" x="104.55" y="48.79" width="3.48" height="3.48"/>
          <rect class="cls-3" x="13.94" y="52.27" width="3.48" height="3.48"/>
          <rect class="cls-3" x="20.91" y="52.27" width="3.48" height="3.48"/>
          <rect class="cls-3" x="41.82" y="52.27" width="3.48" height="3.48"/>
          <rect class="cls-3" x="45.3" y="52.27" width="3.48" height="3.48"/>
          <rect class="cls-3" x="52.27" y="52.27" width="3.48" height="3.48"/>
          <rect class="cls-3" x="55.76" y="52.27" width="3.48" height="3.48"/>
          <rect class="cls-3" x="66.21" y="52.27" width="3.48" height="3.48"/>
          <rect class="cls-3" x="69.7" y="52.27" width="3.48" height="3.48"/>
          <rect class="cls-3" x="73.18" y="52.27" width="3.48" height="3.48"/>
          <rect class="cls-3" x="76.67" y="52.27" width="3.48" height="3.48"/>
          <rect class="cls-3" x="80.15" y="52.27" width="3.48" height="3.48"/>
          <rect class="cls-3" x="83.64" y="52.27" width="3.48" height="3.48"/>
          <rect class="cls-3" x="87.12" y="52.27" width="3.48" height="3.48"/>
          <rect class="cls-3" x="90.61" y="52.27" width="3.48" height="3.48"/>
          <rect class="cls-3" x="101.06" y="52.27" width="3.48" height="3.48"/>
          <rect class="cls-3" x="104.55" y="52.27" width="3.48" height="3.48"/>
          <rect class="cls-3" x="6.97" y="55.76" width="3.48" height="3.48"/>
          <rect class="cls-3" x="20.91" y="55.76" width="3.48" height="3.48"/>
          <rect class="cls-3" x="24.39" y="55.76" width="3.48" height="3.48"/>
          <rect class="cls-3" x="27.88" y="55.76" width="3.48" height="3.48"/>
          <rect class="cls-3" x="31.36" y="55.76" width="3.48" height="3.48"/>
          <rect class="cls-3" x="34.85" y="55.76" width="3.48" height="3.48"/>
          <rect class="cls-3" x="38.33" y="55.76" width="3.48" height="3.48"/>
          <rect class="cls-3" x="48.79" y="55.76" width="3.48" height="3.48"/>
          <rect class="cls-3" x="52.27" y="55.76" width="3.48" height="3.48"/>
          <rect class="cls-3" x="55.76" y="55.76" width="3.48" height="3.48"/>
          <rect class="cls-3" x="59.24" y="55.76" width="3.48" height="3.48"/>
          <rect class="cls-3" x="62.73" y="55.76" width="3.48" height="3.48"/>
          <rect class="cls-3" x="66.21" y="55.76" width="3.48" height="3.48"/>
          <rect class="cls-3" x="76.67" y="55.76" width="3.48" height="3.48"/>
          <rect class="cls-3" x="80.15" y="55.76" width="3.48" height="3.48"/>
          <rect class="cls-3" x="87.12" y="55.76" width="3.48" height="3.48"/>
          <rect class="cls-3" x="94.09" y="55.76" width="3.48" height="3.48"/>
          <rect class="cls-3" x="97.58" y="55.76" width="3.48" height="3.48"/>
          <rect class="cls-3" x="10.45" y="59.24" width="3.48" height="3.48"/>
          <rect class="cls-3" x="24.39" y="59.24" width="3.48" height="3.48"/>
          <rect class="cls-3" x="34.85" y="59.24" width="3.48" height="3.48"/>
          <rect class="cls-3" x="41.82" y="59.24" width="3.48" height="3.48"/>
          <rect class="cls-3" x="48.79" y="59.24" width="3.48" height="3.48"/>
          <rect class="cls-3" x="52.27" y="59.24" width="3.48" height="3.48"/>
          <rect class="cls-3" x="55.76" y="59.24" width="3.48" height="3.48"/>
          <rect class="cls-3" x="62.73" y="59.24" width="3.48" height="3.48"/>
          <rect class="cls-3" x="69.7" y="59.24" width="3.48" height="3.48"/>
          <rect class="cls-3" x="76.67" y="59.24" width="3.48" height="3.48"/>
          <rect class="cls-3" x="80.15" y="59.24" width="3.48" height="3.48"/>
          <rect class="cls-3" x="90.61" y="59.24" width="3.48" height="3.48"/>
          <rect class="cls-3" x="97.58" y="59.24" width="3.48" height="3.48"/>
          <rect class="cls-3" x="104.55" y="59.24" width="3.48" height="3.48"/>
          <rect class="cls-3" x="13.94" y="62.73" width="3.48" height="3.48"/>
          <rect class="cls-3" x="24.39" y="62.73" width="3.48" height="3.48"/>
          <rect class="cls-3" x="27.88" y="62.73" width="3.48" height="3.48"/>
          <rect class="cls-3" x="41.82" y="62.73" width="3.48" height="3.48"/>
          <rect class="cls-3" x="45.3" y="62.73" width="3.48" height="3.48"/>
          <rect class="cls-3" x="55.76" y="62.73" width="3.48" height="3.48"/>
          <rect class="cls-3" x="59.24" y="62.73" width="3.48" height="3.48"/>
          <rect class="cls-3" x="66.21" y="62.73" width="3.48" height="3.48"/>
          <rect class="cls-3" x="87.12" y="62.73" width="3.48" height="3.48"/>
          <rect class="cls-3" x="94.09" y="62.73" width="3.48" height="3.48"/>
          <rect class="cls-3" x="97.58" y="62.73" width="3.48" height="3.48"/>
          <rect class="cls-3" x="6.97" y="66.21" width="3.48" height="3.48"/>
          <rect class="cls-3" x="34.85" y="66.21" width="3.48" height="3.48"/>
          <rect class="cls-3" x="38.33" y="66.21" width="3.48" height="3.48"/>
          <rect class="cls-3" x="41.82" y="66.21" width="3.48" height="3.48"/>
          <rect class="cls-3" x="45.3" y="66.21" width="3.48" height="3.48"/>
          <rect class="cls-3" x="62.73" y="66.21" width="3.48" height="3.48"/>
          <rect class="cls-3" x="66.21" y="66.21" width="3.48" height="3.48"/>
          <rect class="cls-3" x="69.7" y="66.21" width="3.48" height="3.48"/>
          <rect class="cls-3" x="73.18" y="66.21" width="3.48" height="3.48"/>
          <rect class="cls-3" x="76.67" y="66.21" width="3.48" height="3.48"/>
          <rect class="cls-3" x="83.64" y="66.21" width="3.48" height="3.48"/>
          <rect class="cls-3" x="87.12" y="66.21" width="3.48" height="3.48"/>
          <rect class="cls-3" x="90.61" y="66.21" width="3.48" height="3.48"/>
          <rect class="cls-3" x="97.58" y="66.21" width="3.48" height="3.48"/>
          <rect class="cls-3" x="101.06" y="66.21" width="3.48" height="3.48"/>
          <rect class="cls-3" x="104.55" y="66.21" width="3.48" height="3.48"/>
          <rect class="cls-3" x="6.97" y="69.7" width="3.48" height="3.48"/>
          <rect class="cls-3" x="10.45" y="69.7" width="3.48" height="3.48"/>
          <rect class="cls-3" x="13.94" y="69.7" width="3.48" height="3.48"/>
          <rect class="cls-3" x="20.91" y="69.7" width="3.48" height="3.48"/>
          <rect class="cls-3" x="24.39" y="69.7" width="3.48" height="3.48"/>
          <rect class="cls-3" x="27.88" y="69.7" width="3.48" height="3.48"/>
          <rect class="cls-3" x="31.36" y="69.7" width="3.48" height="3.48"/>
          <rect class="cls-3" x="34.85" y="69.7" width="3.48" height="3.48"/>
          <rect class="cls-3" x="38.33" y="69.7" width="3.48" height="3.48"/>
          <rect class="cls-3" x="41.82" y="69.7" width="3.48" height="3.48"/>
          <rect class="cls-3" x="45.3" y="69.7" width="3.48" height="3.48"/>
          <rect class="cls-3" x="52.27" y="69.7" width="3.48" height="3.48"/>
          <rect class="cls-3" x="55.76" y="69.7" width="3.48" height="3.48"/>
          <rect class="cls-3" x="62.73" y="69.7" width="3.48" height="3.48"/>
          <rect class="cls-3" x="73.18" y="69.7" width="3.48" height="3.48"/>
          <rect class="cls-3" x="76.67" y="69.7" width="3.48" height="3.48"/>
          <rect class="cls-3" x="80.15" y="69.7" width="3.48" height="3.48"/>
          <rect class="cls-3" x="90.61" y="69.7" width="3.48" height="3.48"/>
          <rect class="cls-3" x="94.09" y="69.7" width="3.48" height="3.48"/>
          <rect class="cls-3" x="104.55" y="69.7" width="3.48" height="3.48"/>
          <rect class="cls-3" x="6.97" y="73.18" width="3.48" height="3.48"/>
          <rect class="cls-3" x="13.94" y="73.18" width="3.48" height="3.48"/>
          <rect class="cls-3" x="20.91" y="73.18" width="3.48" height="3.48"/>
          <rect class="cls-3" x="31.36" y="73.18" width="3.48" height="3.48"/>
          <rect class="cls-3" x="45.3" y="73.18" width="3.48" height="3.48"/>
          <rect class="cls-3" x="55.76" y="73.18" width="3.48" height="3.48"/>
          <rect class="cls-3" x="59.24" y="73.18" width="3.48" height="3.48"/>
          <rect class="cls-3" x="62.73" y="73.18" width="3.48" height="3.48"/>
          <rect class="cls-3" x="80.15" y="73.18" width="3.48" height="3.48"/>
          <rect class="cls-3" x="90.61" y="73.18" width="3.48" height="3.48"/>
          <rect class="cls-3" x="6.97" y="76.67" width="3.48" height="3.48"/>
          <rect class="cls-3" x="13.94" y="76.67" width="3.48" height="3.48"/>
          <rect class="cls-3" x="24.39" y="76.67" width="3.48" height="3.48"/>
          <rect class="cls-3" x="27.88" y="76.67" width="3.48" height="3.48"/>
          <rect class="cls-3" x="31.36" y="76.67" width="3.48" height="3.48"/>
          <rect class="cls-3" x="38.33" y="76.67" width="3.48" height="3.48"/>
          <rect class="cls-3" x="48.79" y="76.67" width="3.48" height="3.48"/>
          <rect class="cls-3" x="66.21" y="76.67" width="3.48" height="3.48"/>
          <rect class="cls-3" x="76.67" y="76.67" width="3.48" height="3.48"/>
          <rect class="cls-3" x="80.15" y="76.67" width="3.48" height="3.48"/>
          <rect class="cls-3" x="83.64" y="76.67" width="3.48" height="3.48"/>
          <rect class="cls-3" x="87.12" y="76.67" width="3.48" height="3.48"/>
          <rect class="cls-3" x="90.61" y="76.67" width="3.48" height="3.48"/>
          <rect class="cls-3" x="97.58" y="76.67" width="3.48" height="3.48"/>
          <rect class="cls-3" x="101.06" y="76.67" width="3.48" height="3.48"/>
          <rect class="cls-3" x="104.55" y="76.67" width="3.48" height="3.48"/>
          <rect class="cls-3" x="34.85" y="80.15" width="3.48" height="3.48"/>
          <rect class="cls-3" x="38.33" y="80.15" width="3.48" height="3.48"/>
          <rect class="cls-3" x="41.82" y="80.15" width="3.48" height="3.48"/>
          <rect class="cls-3" x="48.79" y="80.15" width="3.48" height="3.48"/>
          <rect class="cls-3" x="52.27" y="80.15" width="3.48" height="3.48"/>
          <rect class="cls-3" x="62.73" y="80.15" width="3.48" height="3.48"/>
          <rect class="cls-3" x="73.18" y="80.15" width="3.48" height="3.48"/>
          <rect class="cls-3" x="76.67" y="80.15" width="3.48" height="3.48"/>
          <rect class="cls-3" x="90.61" y="80.15" width="3.48" height="3.48"/>
          <rect class="cls-3" x="94.09" y="80.15" width="3.48" height="3.48"/>
          <rect class="cls-3" x="38.33" y="83.64" width="3.48" height="3.48"/>
          <rect class="cls-3" x="41.82" y="83.64" width="3.48" height="3.48"/>
          <rect class="cls-3" x="45.3" y="83.64" width="3.48" height="3.48"/>
          <rect class="cls-3" x="52.27" y="83.64" width="3.48" height="3.48"/>
          <rect class="cls-3" x="55.76" y="83.64" width="3.48" height="3.48"/>
          <rect class="cls-3" x="59.24" y="83.64" width="3.48" height="3.48"/>
          <rect class="cls-3" x="62.73" y="83.64" width="3.48" height="3.48"/>
          <rect class="cls-3" x="73.18" y="83.64" width="3.48" height="3.48"/>
          <rect class="cls-3" x="76.67" y="83.64" width="3.48" height="3.48"/>
          <rect class="cls-3" x="83.64" y="83.64" width="3.48" height="3.48"/>
          <rect class="cls-3" x="90.61" y="83.64" width="3.48" height="3.48"/>
          <rect class="cls-3" x="94.09" y="83.64" width="3.48" height="3.48"/>
          <rect class="cls-3" x="97.58" y="83.64" width="3.48" height="3.48"/>
          <rect class="cls-3" x="45.3" y="87.12" width="3.48" height="3.48"/>
          <rect class="cls-3" x="52.27" y="87.12" width="3.48" height="3.48"/>
          <rect class="cls-3" x="62.73" y="87.12" width="3.48" height="3.48"/>
          <rect class="cls-3" x="69.7" y="87.12" width="3.48" height="3.48"/>
          <rect class="cls-3" x="73.18" y="87.12" width="3.48" height="3.48"/>
          <rect class="cls-3" x="76.67" y="87.12" width="3.48" height="3.48"/>
          <rect class="cls-3" x="90.61" y="87.12" width="3.48" height="3.48"/>
          <rect class="cls-3" x="101.06" y="87.12" width="3.48" height="3.48"/>
          <rect class="cls-3" x="104.55" y="87.12" width="3.48" height="3.48"/>
          <rect class="cls-3" x="38.33" y="90.61" width="3.48" height="3.48"/>
          <rect class="cls-3" x="48.79" y="90.61" width="3.48" height="3.48"/>
          <rect class="cls-3" x="52.27" y="90.61" width="3.48" height="3.48"/>
          <rect class="cls-3" x="59.24" y="90.61" width="3.48" height="3.48"/>
          <rect class="cls-3" x="62.73" y="90.61" width="3.48" height="3.48"/>
          <rect class="cls-3" x="73.18" y="90.61" width="3.48" height="3.48"/>
          <rect class="cls-3" x="76.67" y="90.61" width="3.48" height="3.48"/>
          <rect class="cls-3" x="80.15" y="90.61" width="3.48" height="3.48"/>
          <rect class="cls-3" x="83.64" y="90.61" width="3.48" height="3.48"/>
          <rect class="cls-3" x="87.12" y="90.61" width="3.48" height="3.48"/>
          <rect class="cls-3" x="90.61" y="90.61" width="3.48" height="3.48"/>
          <rect class="cls-3" x="94.09" y="90.61" width="3.48" height="3.48"/>
          <rect class="cls-3" x="59.24" y="94.09" width="3.48" height="3.48"/>
          <rect class="cls-3" x="62.73" y="94.09" width="3.48" height="3.48"/>
          <rect class="cls-3" x="66.21" y="94.09" width="3.48" height="3.48"/>
          <rect class="cls-3" x="69.7" y="94.09" width="3.48" height="3.48"/>
          <rect class="cls-3" x="73.18" y="94.09" width="3.48" height="3.48"/>
          <rect class="cls-3" x="76.67" y="94.09" width="3.48" height="3.48"/>
          <rect class="cls-3" x="80.15" y="94.09" width="3.48" height="3.48"/>
          <rect class="cls-3" x="94.09" y="94.09" width="3.48" height="3.48"/>
          <rect class="cls-3" x="97.58" y="94.09" width="3.48" height="3.48"/>
          <rect class="cls-3" x="101.06" y="94.09" width="3.48" height="3.48"/>
          <rect class="cls-3" x="41.82" y="97.58" width="3.48" height="3.48"/>
          <rect class="cls-3" x="48.79" y="97.58" width="3.48" height="3.48"/>
          <rect class="cls-3" x="52.27" y="97.58" width="3.48" height="3.48"/>
          <rect class="cls-3" x="59.24" y="97.58" width="3.48" height="3.48"/>
          <rect class="cls-3" x="62.73" y="97.58" width="3.48" height="3.48"/>
          <rect class="cls-3" x="69.7" y="97.58" width="3.48" height="3.48"/>
          <rect class="cls-3" x="73.18" y="97.58" width="3.48" height="3.48"/>
          <rect class="cls-3" x="76.67" y="97.58" width="3.48" height="3.48"/>
          <rect class="cls-3" x="80.15" y="97.58" width="3.48" height="3.48"/>
          <rect class="cls-3" x="83.64" y="97.58" width="3.48" height="3.48"/>
          <rect class="cls-3" x="87.12" y="97.58" width="3.48" height="3.48"/>
          <rect class="cls-3" x="90.61" y="97.58" width="3.48" height="3.48"/>
          <rect class="cls-3" x="94.09" y="97.58" width="3.48" height="3.48"/>
          <rect class="cls-3" x="97.58" y="97.58" width="3.48" height="3.48"/>
          <rect class="cls-3" x="101.06" y="97.58" width="3.48" height="3.48"/>
          <rect class="cls-3" x="38.33" y="101.06" width="3.48" height="3.48"/>
          <rect class="cls-3" x="45.3" y="101.06" width="3.48" height="3.48"/>
          <rect class="cls-3" x="48.79" y="101.06" width="3.48" height="3.48"/>
          <rect class="cls-3" x="59.24" y="101.06" width="3.48" height="3.48"/>
          <rect class="cls-3" x="62.73" y="101.06" width="3.48" height="3.48"/>
          <rect class="cls-3" x="80.15" y="101.06" width="3.48" height="3.48"/>
          <rect class="cls-3" x="87.12" y="101.06" width="3.48" height="3.48"/>
          <rect class="cls-3" x="90.61" y="101.06" width="3.48" height="3.48"/>
          <rect class="cls-3" x="94.09" y="101.06" width="3.48" height="3.48"/>
          <rect class="cls-3" x="97.58" y="101.06" width="3.48" height="3.48"/>
          <rect class="cls-3" x="104.55" y="101.06" width="3.48" height="3.48"/>
          <rect class="cls-3" x="34.85" y="104.55" width="3.48" height="3.48"/>
          <rect class="cls-3" x="38.33" y="104.55" width="3.48" height="3.48"/>
          <rect class="cls-3" x="45.3" y="104.55" width="3.48" height="3.48"/>
          <rect class="cls-3" x="55.76" y="104.55" width="3.48" height="3.48"/>
          <rect class="cls-3" x="59.24" y="104.55" width="3.48" height="3.48"/>
          <rect class="cls-3" x="66.21" y="104.55" width="3.48" height="3.48"/>
          <rect class="cls-3" x="73.18" y="104.55" width="3.48" height="3.48"/>
          <rect class="cls-3" x="80.15" y="104.55" width="3.48" height="3.48"/>
          <rect class="cls-3" x="83.64" y="104.55" width="3.48" height="3.48"/>
          <rect class="cls-3" x="87.12" y="104.55" width="3.48" height="3.48"/>
          <rect class="cls-3" x="90.61" y="104.55" width="3.48" height="3.48"/>
          <rect class="cls-3" x="97.58" y="104.55" width="3.48" height="3.48"/>
          <g>
            <rect class="cls-1" x="10.63" y="10.63" width="17.08" height="17.08"/>
            <path class="cls-3" d="M27.7,6.97H6.97v24.39h24.39V6.97h-3.66ZM27.7,27.7H10.63V10.63h17.08v17.08Z"/>
          </g>
          <g>
            <rect class="cls-1" x="87.3" y="10.63" width="17.08" height="17.08"/>
            <path class="cls-3" d="M104.37,6.97h-20.73v24.39h24.39V6.97h-3.66ZM104.37,27.7h-17.08V10.63h17.08v17.08Z"/>
          </g>
          <g>
            <rect class="cls-1" x="10.63" y="87.3" width="17.08" height="17.08"/>
            <path class="cls-3" d="M27.7,83.64H6.97v24.39h24.39v-24.39h-3.66ZM27.7,104.37H10.63v-17.08h17.08v17.08Z"/>
          </g>
          <rect class="cls-3" x="13.94" y="13.94" width="10.45" height="10.45"/>
          <rect class="cls-3" x="90.61" y="13.94" width="10.45" height="10.45"/>
          <rect class="cls-3" x="13.94" y="90.61" width="10.45" height="10.45"/>
        </g>
      </g>
      <g>
        <path class="cls-2" d="M72.39,57.49c0,8.34-6.76,15.11-15.11,15.11s-15.11-6.76-15.11-15.11,6.76-15.11,15.11-15.11,15.11,6.76,15.11,15.11Z"/>
        <g>
          <rect class="cls-4" x="58.96" y="47.84" width="3.78" height="3.78"/>
          <polygon class="cls-4" points="45.53 58.33 45.53 61.68 48.89 61.68 48.89 65.04 52.24 65.04 52.24 58.33 45.53 58.33"/>
          <polygon class="cls-4" points="46.37 51.61 46.37 54.97 55.6 54.97 55.6 65.04 58.96 65.04 58.96 51.61 46.37 51.61"/>
          <polygon class="cls-4" points="62.32 54.97 62.32 65.04 65.67 65.04 65.67 58.33 69.87 58.33 69.87 54.97 62.32 54.97"/>
        </g>
      </g>
    </g>
  </g>
</svg>